<svg width="80" height="102" viewBox="0 0 80 102" fill="none" xmlns="http://www.w3.org/2000/svg">
<rect width="80" height="80" rx="10" fill="white"/>
<path d="M26.875 35.125V28.5625C26.875 28.375 26.875 28.2812 26.875 28.0938C26.875 26.4062 26.2188 24.8125 25.1875 23.6875C23.9688 22.6562 22.375 22 20.5938 22C20.4062 22 20.2188 22 20.0312 22.0938C17.125 22 14.3125 23.125 13.8437 23.7812C13.6562 23.9688 13.375 26.0312 14.125 26.0312C14.3125 26.0312 14.4062 26.125 15.0625 25.75C17.5937 24.8125 19.1875 24.8125 19.375 24.8125C22.1875 24.5312 23.875 26.4062 23.5938 28.9375V30.4375C21.25 29.875 19.8438 29.7812 19.1875 29.7812C15.7187 29.5938 12.3437 31.8438 12.5312 35.4062C12.3437 39.8125 16.4687 40.75 17.9687 40.75C18.0625 40.75 18.0625 40.75 18.0625 40.75C20.4062 40.75 22.4688 39.625 23.875 37.9375C25 40.5625 25.75 40.375 25.75 40.375C25.9375 40.375 26.125 40.2812 26.3125 40.1875L27.5312 39.3438C27.7188 39.25 27.9062 38.9688 27.9062 38.7812C27.9062 38.125 26.7812 37.1875 26.875 35.125ZM18.7187 38.125C17.0312 38.2188 15.8125 36.8125 16 35.2188C15.8125 32.7812 18.4375 32.125 19.8438 32.2188C21.3438 32.2188 22.6562 32.5 23.5938 32.6875C23.5938 33.7188 23.5938 34.2812 23.4062 35.2188C23.125 36.25 21.8125 38.0312 18.7187 38.125ZM34.75 40.2812H36.5312C37.5625 40.375 37.6562 39.3438 37.6562 39.25L40.75 26.4062L43.8438 39.25C43.9375 39.3438 44.0312 40.375 45.0625 40.2812H46.8438C47.5938 40.375 47.875 39.8125 47.9688 39.3438C53.3125 22.375 52.9375 23.5938 52.9375 23.4062C53.0312 22.4688 52.5625 22.5625 52.4688 22.5625H50.5938C49.6562 22.4688 49.4688 23.3125 49.375 23.5938L46 36.9062L42.8125 23.5938C42.7188 22.5625 41.875 22.5625 41.6875 22.5625H40C39.0625 22.4688 38.875 23.2188 38.875 23.5L35.6875 36.7188L32.4062 23.5C32.3125 23.125 32.0312 22.4688 31.1875 22.5625C28.9375 22.5625 29.125 22.5625 29.125 22.5625C28.9375 22.5625 28.75 22.75 28.75 23.0312C28.75 23.3125 28.8438 23.5938 28.9375 23.875L33.625 39.3438C33.7188 39.8125 34.0938 40.375 34.75 40.2812ZM60.4375 40.8438C60.5312 40.8438 65.125 41.125 66.9062 37.5625C67.2812 36.9062 68.125 34.4688 66.5312 32.4062C65.125 30.8125 64 30.625 60.625 29.5938C60.3438 29.5 57.8125 28.8438 57.8125 27.0625C57.7188 24.8125 60.8125 24.7188 61.375 24.7188C64 24.7188 65.3125 25.6562 66.0625 25.75C66.3438 25.75 66.4375 25.5625 66.4375 25.0938V24.1562C66.5312 23.9688 66.4375 23.6875 66.3438 23.5C65.4062 22.4688 62.3125 22.0938 61.0938 22.0938C56.875 22 54.5312 24.625 54.5312 27.3438C54.625 30.9062 58.2812 32.125 58.6562 32.2188C62.2188 33.3438 62.6875 33.3438 63.625 34.1875C64.4688 35.0312 64.375 36.7188 63.1562 37.4688C62.7812 37.6562 61.2812 38.5938 57.8125 37.8438C56.6875 37.6562 56.125 37.375 55.1875 37C54.9062 36.9062 54.3438 36.7188 54.3438 37.5625V38.5C54.3438 39.0625 54.625 39.4375 55.0938 39.625C57.25 40.75 59.875 40.8438 60.4375 40.8438ZM64.1875 50.5938C65.3125 49.8438 64.375 48.625 63.25 49.0938C56.3125 52 48.625 53.6875 40.5625 53.7812L40.4688 53.6875C29.6875 53.6875 19.6562 50.875 10.9375 45.8125C10.1875 45.4375 9.625 46.1875 10.1875 46.75C17.9687 53.7812 28.375 58.0938 39.625 58.0938C39.7188 58.0938 39.9062 58.0938 40 58.0938C48.0625 58.0938 57.625 55.4688 64.1875 50.5938ZM66.9062 47.5C67.75 48.625 65.9688 53.0312 65.2188 55C64.9375 55.6562 65.5 55.8438 66.0625 55.375C69.5312 52.4688 70.4688 46.2812 69.7188 45.3438C69.0625 44.5 62.875 43.75 59.125 46.375C58.5625 46.75 58.6562 47.3125 59.2188 47.2188C61.375 47.0312 66.0625 46.4688 66.9062 47.5Z" fill="#819296"/>
<path d="M18.0462 97.83H13.7902L13.0062 100H11.6622L15.1902 90.298H16.6602L20.1742 100H18.8302L18.0462 97.83ZM17.6822 96.794L15.9182 91.866L14.1542 96.794H17.6822ZM30.9378 92.188C31.5351 92.188 32.0671 92.314 32.5338 92.566C33.0005 92.8087 33.3691 93.1773 33.6398 93.672C33.9105 94.1667 34.0458 94.7687 34.0458 95.478V100H32.7858V95.66C32.7858 94.8947 32.5945 94.3113 32.2118 93.91C31.8385 93.4993 31.3298 93.294 30.6858 93.294C30.0231 93.294 29.4958 93.5087 29.1038 93.938C28.7118 94.358 28.5158 94.9693 28.5158 95.772V100H27.2558V95.66C27.2558 94.8947 27.0645 94.3113 26.6818 93.91C26.3085 93.4993 25.7998 93.294 25.1558 93.294C24.4931 93.294 23.9658 93.5087 23.5738 93.938C23.1818 94.358 22.9858 94.9693 22.9858 95.772V100H21.7118V92.328H22.9858V93.434C23.2378 93.0327 23.5738 92.7247 23.9938 92.51C24.4231 92.2953 24.8945 92.188 25.4078 92.188C26.0518 92.188 26.6211 92.3327 27.1158 92.622C27.6105 92.9113 27.9791 93.336 28.2218 93.896C28.4365 93.3547 28.7911 92.9347 29.2858 92.636C29.7805 92.3373 30.3311 92.188 30.9378 92.188ZM35.6596 96.136C35.6596 95.352 35.8183 94.666 36.1356 94.078C36.453 93.4807 36.887 93.0187 37.4376 92.692C37.9976 92.3653 38.6183 92.202 39.2996 92.202C39.9716 92.202 40.555 92.3467 41.0496 92.636C41.5443 92.9253 41.913 93.2893 42.1556 93.728V92.328H43.4436V100H42.1556V98.572C41.9036 99.02 41.5256 99.3933 41.0216 99.692C40.527 99.9813 39.9483 100.126 39.2856 100.126C38.6043 100.126 37.9883 99.958 37.4376 99.622C36.887 99.286 36.453 98.8147 36.1356 98.208C35.8183 97.6013 35.6596 96.9107 35.6596 96.136ZM42.1556 96.15C42.1556 95.5713 42.039 95.0673 41.8056 94.638C41.5723 94.2087 41.255 93.882 40.8536 93.658C40.4616 93.4247 40.0276 93.308 39.5516 93.308C39.0756 93.308 38.6416 93.42 38.2496 93.644C37.8576 93.868 37.545 94.1947 37.3116 94.624C37.0783 95.0533 36.9616 95.5573 36.9616 96.136C36.9616 96.724 37.0783 97.2373 37.3116 97.676C37.545 98.1053 37.8576 98.4367 38.2496 98.67C38.6416 98.894 39.0756 99.006 39.5516 99.006C40.0276 99.006 40.4616 98.894 40.8536 98.67C41.255 98.4367 41.5723 98.1053 41.8056 97.676C42.039 97.2373 42.1556 96.7287 42.1556 96.15ZM46.5486 98.95H50.3146V100H45.0926V98.95L48.8166 93.364H45.1206V92.328H50.2866V93.364L46.5486 98.95ZM55.3136 100.126C54.595 100.126 53.9416 99.9627 53.3536 99.636C52.775 99.3093 52.3176 98.8473 51.9816 98.25C51.655 97.6433 51.4916 96.9433 51.4916 96.15C51.4916 95.366 51.6596 94.6753 51.9956 94.078C52.341 93.4713 52.8076 93.0093 53.3956 92.692C53.9836 92.3653 54.6416 92.202 55.3696 92.202C56.0976 92.202 56.7556 92.3653 57.3436 92.692C57.9316 93.0093 58.3936 93.4667 58.7296 94.064C59.075 94.6613 59.2476 95.3567 59.2476 96.15C59.2476 96.9433 59.0703 97.6433 58.7156 98.25C58.3703 98.8473 57.899 99.3093 57.3016 99.636C56.7043 99.9627 56.0416 100.126 55.3136 100.126ZM55.3136 99.006C55.771 99.006 56.2003 98.8987 56.6016 98.684C57.003 98.4693 57.325 98.1473 57.5676 97.718C57.8196 97.2887 57.9456 96.766 57.9456 96.15C57.9456 95.534 57.8243 95.0113 57.5816 94.582C57.339 94.1527 57.0216 93.8353 56.6296 93.63C56.2376 93.4153 55.813 93.308 55.3556 93.308C54.889 93.308 54.4596 93.4153 54.0676 93.63C53.685 93.8353 53.377 94.1527 53.1436 94.582C52.9103 95.0113 52.7936 95.534 52.7936 96.15C52.7936 96.7753 52.9056 97.3027 53.1296 97.732C53.363 98.1613 53.671 98.4833 54.0536 98.698C54.4363 98.9033 54.8563 99.006 55.3136 99.006ZM64.6607 92.188C65.5941 92.188 66.3501 92.4727 66.9287 93.042C67.5074 93.602 67.7967 94.414 67.7967 95.478V100H66.5367V95.66C66.5367 94.8947 66.3454 94.3113 65.9627 93.91C65.5801 93.4993 65.0574 93.294 64.3947 93.294C63.7227 93.294 63.1861 93.504 62.7847 93.924C62.3927 94.344 62.1967 94.9553 62.1967 95.758V100H60.9227V92.328H62.1967V93.42C62.4487 93.028 62.7894 92.7247 63.2187 92.51C63.6574 92.2953 64.1381 92.188 64.6607 92.188Z" fill="#4F5B5E"/>
</svg>
