<svg width="80" height="104" viewBox="0 0 80 104" fill="none" xmlns="http://www.w3.org/2000/svg">
<rect width="80" height="80" rx="10" fill="white"/>
<path d="M7.19268 97.83H2.93668L2.15268 100H0.80868L4.33668 90.298H5.80668L9.32068 100H7.97668L7.19268 97.83ZM6.82868 96.794L5.06468 91.866L3.30068 96.794H6.82868ZM14.5963 92.188C15.5296 92.188 16.2856 92.4727 16.8643 93.042C17.4429 93.602 17.7323 94.414 17.7323 95.478V100H16.4723V95.66C16.4723 94.8947 16.2809 94.3113 15.8983 93.91C15.5156 93.4993 14.9929 93.294 14.3303 93.294C13.6583 93.294 13.1216 93.504 12.7203 93.924C12.3283 94.344 12.1323 94.9553 12.1323 95.758V100H10.8583V92.328H12.1323V93.42C12.3843 93.028 12.7249 92.7247 13.1543 92.51C13.5929 92.2953 14.0736 92.188 14.5963 92.188ZM22.9774 92.202C23.64 92.202 24.2187 92.3467 24.7134 92.636C25.2174 92.9253 25.5907 93.2893 25.8334 93.728V92.328H27.1214V100.168C27.1214 100.868 26.972 101.489 26.6734 102.03C26.3747 102.581 25.9454 103.01 25.3854 103.318C24.8347 103.626 24.1907 103.78 23.4534 103.78C22.4454 103.78 21.6054 103.542 20.9334 103.066C20.2614 102.59 19.8647 101.941 19.7434 101.12H21.0034C21.1434 101.587 21.4327 101.96 21.8714 102.24C22.31 102.529 22.8374 102.674 23.4534 102.674C24.1534 102.674 24.7227 102.455 25.1614 102.016C25.6094 101.577 25.8334 100.961 25.8334 100.168V98.558C25.5814 99.006 25.208 99.3793 24.7134 99.678C24.2187 99.9767 23.64 100.126 22.9774 100.126C22.296 100.126 21.6754 99.958 21.1154 99.622C20.5647 99.286 20.1307 98.8147 19.8134 98.208C19.496 97.6013 19.3374 96.9107 19.3374 96.136C19.3374 95.352 19.496 94.666 19.8134 94.078C20.1307 93.4807 20.5647 93.0187 21.1154 92.692C21.6754 92.3653 22.296 92.202 22.9774 92.202ZM25.8334 96.15C25.8334 95.5713 25.7167 95.0673 25.4834 94.638C25.25 94.2087 24.9327 93.882 24.5314 93.658C24.1394 93.4247 23.7054 93.308 23.2294 93.308C22.7534 93.308 22.3194 93.42 21.9274 93.644C21.5354 93.868 21.2227 94.1947 20.9894 94.624C20.756 95.0533 20.6394 95.5573 20.6394 96.136C20.6394 96.724 20.756 97.2373 20.9894 97.676C21.2227 98.1053 21.5354 98.4367 21.9274 98.67C22.3194 98.894 22.7534 99.006 23.2294 99.006C23.7054 99.006 24.1394 98.894 24.5314 98.67C24.9327 98.4367 25.25 98.1053 25.4834 97.676C25.7167 97.2373 25.8334 96.7287 25.8334 96.15ZM36.0783 92.328V100H34.8043V98.866C34.5616 99.258 34.221 99.566 33.7823 99.79C33.353 100.005 32.877 100.112 32.3543 100.112C31.757 100.112 31.2203 99.9907 30.7443 99.748C30.2683 99.496 29.8903 99.1227 29.6103 98.628C29.3396 98.1333 29.2043 97.5313 29.2043 96.822V92.328H30.4643V96.654C30.4643 97.41 30.6556 97.9933 31.0383 98.404C31.421 98.8053 31.9436 99.006 32.6063 99.006C33.2876 99.006 33.8243 98.796 34.2163 98.376C34.6083 97.956 34.8043 97.3447 34.8043 96.542V92.328H36.0783ZM39.5034 89.64V100H38.2294V89.64H39.5034ZM41.1987 96.136C41.1987 95.352 41.3573 94.666 41.6747 94.078C41.992 93.4807 42.426 93.0187 42.9767 92.692C43.5367 92.3653 44.1573 92.202 44.8387 92.202C45.5107 92.202 46.094 92.3467 46.5887 92.636C47.0833 92.9253 47.452 93.2893 47.6947 93.728V92.328H48.9827V100H47.6947V98.572C47.4427 99.02 47.0647 99.3933 46.5607 99.692C46.066 99.9813 45.4873 100.126 44.8247 100.126C44.1433 100.126 43.5273 99.958 42.9767 99.622C42.426 99.286 41.992 98.8147 41.6747 98.208C41.3573 97.6013 41.1987 96.9107 41.1987 96.136ZM47.6947 96.15C47.6947 95.5713 47.578 95.0673 47.3447 94.638C47.1113 94.2087 46.794 93.882 46.3927 93.658C46.0007 93.4247 45.5667 93.308 45.0907 93.308C44.6147 93.308 44.1807 93.42 43.7887 93.644C43.3967 93.868 43.084 94.1947 42.8507 94.624C42.6173 95.0533 42.5007 95.5573 42.5007 96.136C42.5007 96.724 42.6173 97.2373 42.8507 97.676C43.084 98.1053 43.3967 98.4367 43.7887 98.67C44.1807 98.894 44.6147 99.006 45.0907 99.006C45.5667 99.006 46.0007 98.894 46.3927 98.67C46.794 98.4367 47.1113 98.1053 47.3447 97.676C47.578 97.2373 47.6947 96.7287 47.6947 96.15ZM52.4096 93.574C52.6336 93.1353 52.951 92.7947 53.3616 92.552C53.7816 92.3093 54.2903 92.188 54.8876 92.188V93.504H54.5516C53.1236 93.504 52.4096 94.2787 52.4096 95.828V100H51.1356V92.328H52.4096V93.574ZM65.0047 90.242V97.452C65.0047 98.2547 64.7574 98.8987 64.2627 99.384C63.768 99.86 63.1147 100.098 62.3027 100.098C61.4814 100.098 60.8234 99.8553 60.3287 99.37C59.834 98.8753 59.5867 98.2033 59.5867 97.354H60.8607C60.87 97.83 60.9914 98.2173 61.2247 98.516C61.4674 98.8147 61.8267 98.964 62.3027 98.964C62.7787 98.964 63.1334 98.824 63.3667 98.544C63.6 98.2547 63.7167 97.8907 63.7167 97.452V90.242H65.0047ZM70.6085 100.098C69.9645 100.098 69.3859 99.986 68.8725 99.762C68.3685 99.5287 67.9719 99.2113 67.6825 98.81C67.3932 98.3993 67.2439 97.928 67.2345 97.396H68.5925C68.6392 97.8533 68.8259 98.2407 69.1525 98.558C69.4885 98.866 69.9739 99.02 70.6085 99.02C71.2152 99.02 71.6912 98.8707 72.0365 98.572C72.3912 98.264 72.5685 97.872 72.5685 97.396C72.5685 97.0227 72.4659 96.7193 72.2605 96.486C72.0552 96.2527 71.7985 96.0753 71.4905 95.954C71.1825 95.8327 70.7672 95.702 70.2445 95.562C69.6005 95.394 69.0825 95.226 68.6905 95.058C68.3079 94.89 67.9765 94.6287 67.6965 94.274C67.4259 93.91 67.2905 93.4247 67.2905 92.818C67.2905 92.286 67.4259 91.8147 67.6965 91.404C67.9672 90.9933 68.3452 90.676 68.8305 90.452C69.3252 90.228 69.8899 90.116 70.5245 90.116C71.4392 90.116 72.1859 90.3447 72.7645 90.802C73.3525 91.2593 73.6839 91.866 73.7585 92.622H72.3585C72.3119 92.2487 72.1159 91.922 71.7705 91.642C71.4252 91.3527 70.9679 91.208 70.3985 91.208C69.8665 91.208 69.4325 91.348 69.0965 91.628C68.7605 91.8987 68.5925 92.2813 68.5925 92.776C68.5925 93.1307 68.6905 93.42 68.8865 93.644C69.0919 93.868 69.3392 94.0407 69.6285 94.162C69.9272 94.274 70.3425 94.4047 70.8745 94.554C71.5185 94.7313 72.0365 94.9087 72.4285 95.086C72.8205 95.254 73.1565 95.52 73.4365 95.884C73.7165 96.2387 73.8565 96.724 73.8565 97.34C73.8565 97.816 73.7305 98.264 73.4785 98.684C73.2265 99.104 72.8532 99.4447 72.3585 99.706C71.8639 99.9673 71.2805 100.098 70.6085 100.098Z" fill="#4F5B5E"/>
<g clip-path="url(#clip0_608_3401)">
<path d="M36.3438 41.2188H43.4688L39.9062 32.5938L36.3438 41.2188ZM39.9062 19L20.5 26.0312L23.4062 51.9062L39.9062 61L56.4062 51.9062L59.4062 26.0312L39.9062 19ZM52.1875 51.0625H47.5938L45.1562 44.9688H34.75L32.3125 51.0625H27.7188L39.9062 23.6875L52.1875 51.0625Z" fill="#819296"/>
</g>
<defs>
<clipPath id="clip0_608_3401">
<rect width="40" height="42" fill="white" transform="translate(20 19)"/>
</clipPath>
</defs>
</svg>
