<svg width="80" height="102" viewBox="0 0 80 102" fill="none" xmlns="http://www.w3.org/2000/svg">
<rect width="80" height="80" rx="10" fill="white"/>
<g clip-path="url(#clip0_608_3408)">
<path d="M38.6545 52.0991C43.2797 51.2913 47.0998 50.6227 47.1437 50.6135L47.2234 50.5968L42.8568 45.4611C40.4552 42.6364 38.4902 40.3144 38.4902 40.301C38.4902 40.2756 42.9991 27.9983 43.0245 27.9546C43.0329 27.94 46.1014 33.1782 50.4626 40.6524C54.5456 47.6498 57.9118 53.4192 57.9431 53.4733L58 53.5716L44.1226 53.5698L30.2451 53.568L38.6545 52.0991ZM22 50.533C22 50.5258 24.0575 46.9941 26.5723 42.6848L31.1446 34.8498L36.473 30.4282C39.4037 27.9964 41.8094 26.0037 41.819 26.0001C41.8287 25.9965 41.7901 26.0924 41.7334 26.2133C41.6766 26.3342 39.0729 31.8562 35.9474 38.4845L30.2646 50.5359L26.1323 50.541C23.8595 50.5438 22 50.5402 22 50.533Z" fill="#819296"/>
</g>
<path d="M27.514 97.83H23.258L22.474 100H21.13L24.658 90.298H26.128L29.642 100H28.298L27.514 97.83ZM27.15 96.794L25.386 91.866L23.622 96.794H27.15ZM32.1316 98.95H35.8976V100H30.6756V98.95L34.3996 93.364H30.7036V92.328H35.8696V93.364L32.1316 98.95ZM44.3547 92.328V100H43.0807V98.866C42.838 99.258 42.4973 99.566 42.0587 99.79C41.6293 100.005 41.1533 100.112 40.6307 100.112C40.0333 100.112 39.4967 99.9907 39.0207 99.748C38.5447 99.496 38.1667 99.1227 37.8867 98.628C37.616 98.1333 37.4807 97.5313 37.4807 96.822V92.328H38.7407V96.654C38.7407 97.41 38.932 97.9933 39.3147 98.404C39.6973 98.8053 40.22 99.006 40.8827 99.006C41.564 99.006 42.1007 98.796 42.4927 98.376C42.8847 97.956 43.0807 97.3447 43.0807 96.542V92.328H44.3547ZM47.7797 93.574C48.0037 93.1353 48.3211 92.7947 48.7317 92.552C49.1517 92.3093 49.6604 92.188 50.2577 92.188V93.504H49.9217C48.4937 93.504 47.7797 94.2787 47.7797 95.828V100H46.5057V92.328H47.7797V93.574ZM58.7284 95.87C58.7284 96.1127 58.7144 96.3693 58.6864 96.64H52.5544C52.6011 97.396 52.8577 97.9887 53.3244 98.418C53.8004 98.838 54.3744 99.048 55.0464 99.048C55.5971 99.048 56.0544 98.922 56.4184 98.67C56.7917 98.4087 57.0531 98.0633 57.2024 97.634H58.5744C58.3691 98.3713 57.9584 98.9733 57.3424 99.44C56.7264 99.8973 55.9611 100.126 55.0464 100.126C54.3184 100.126 53.6651 99.9627 53.0864 99.636C52.5171 99.3093 52.0691 98.8473 51.7424 98.25C51.4157 97.6433 51.2524 96.9433 51.2524 96.15C51.2524 95.3567 51.4111 94.6613 51.7284 94.064C52.0457 93.4667 52.4891 93.0093 53.0584 92.692C53.6371 92.3653 54.2997 92.202 55.0464 92.202C55.7744 92.202 56.4184 92.3607 56.9784 92.678C57.5384 92.9953 57.9677 93.434 58.2664 93.994C58.5744 94.5447 58.7284 95.17 58.7284 95.87ZM57.4124 95.604C57.4124 95.1187 57.3051 94.7033 57.0904 94.358C56.8757 94.0033 56.5817 93.7373 56.2084 93.56C55.8444 93.3733 55.4384 93.28 54.9904 93.28C54.3464 93.28 53.7957 93.4853 53.3384 93.896C52.8904 94.3067 52.6337 94.876 52.5684 95.604H57.4124Z" fill="#4F5B5E"/>
<defs>
<clipPath id="clip0_608_3408">
<rect width="36" height="28" fill="white" transform="translate(22 26)"/>
</clipPath>
</defs>
</svg>
