<svg width="257" height="77" viewBox="0 0 257 77" fill="none" xmlns="http://www.w3.org/2000/svg">
<rect x="0.5" y="0.5" width="47" height="47" rx="2.5" stroke="#819296"/>
<path d="M8.67115 58.242V59.278H4.42915V62.568H7.87315V63.604H4.42915V68H3.15515V58.242H8.67115ZM10.8678 59.082C10.6252 59.082 10.4198 58.998 10.2518 58.83C10.0838 58.662 9.99984 58.4567 9.99984 58.214C9.99984 57.9713 10.0838 57.766 10.2518 57.598C10.4198 57.43 10.6252 57.346 10.8678 57.346C11.1012 57.346 11.2972 57.43 11.4558 57.598C11.6238 57.766 11.7078 57.9713 11.7078 58.214C11.7078 58.4567 11.6238 58.662 11.4558 58.83C11.2972 58.998 11.1012 59.082 10.8678 59.082ZM11.4838 60.328V68H10.2098V60.328H11.4838ZM16.8191 60.202C17.4818 60.202 18.0605 60.3467 18.5551 60.636C19.0591 60.9253 19.4325 61.2893 19.6751 61.728V60.328H20.9631V68.168C20.9631 68.868 20.8138 69.4887 20.5151 70.03C20.2165 70.5807 19.7871 71.01 19.2271 71.318C18.6765 71.626 18.0325 71.78 17.2951 71.78C16.2871 71.78 15.4471 71.542 14.7751 71.066C14.1031 70.59 13.7065 69.9413 13.5851 69.12H14.8451C14.9851 69.5867 15.2745 69.96 15.7131 70.24C16.1518 70.5293 16.6791 70.674 17.2951 70.674C17.9951 70.674 18.5645 70.4547 19.0031 70.016C19.4511 69.5773 19.6751 68.9613 19.6751 68.168V66.558C19.4231 67.006 19.0498 67.3793 18.5551 67.678C18.0605 67.9767 17.4818 68.126 16.8191 68.126C16.1378 68.126 15.5171 67.958 14.9571 67.622C14.4065 67.286 13.9725 66.8147 13.6551 66.208C13.3378 65.6013 13.1791 64.9107 13.1791 64.136C13.1791 63.352 13.3378 62.666 13.6551 62.078C13.9725 61.4807 14.4065 61.0187 14.9571 60.692C15.5171 60.3653 16.1378 60.202 16.8191 60.202ZM19.6751 64.15C19.6751 63.5713 19.5585 63.0673 19.3251 62.638C19.0918 62.2087 18.7745 61.882 18.3731 61.658C17.9811 61.4247 17.5471 61.308 17.0711 61.308C16.5951 61.308 16.1611 61.42 15.7691 61.644C15.3771 61.868 15.0645 62.1947 14.8311 62.624C14.5978 63.0533 14.4811 63.5573 14.4811 64.136C14.4811 64.724 14.5978 65.2373 14.8311 65.676C15.0645 66.1053 15.3771 66.4367 15.7691 66.67C16.1611 66.894 16.5951 67.006 17.0711 67.006C17.5471 67.006 17.9811 66.894 18.3731 66.67C18.7745 66.4367 19.0918 66.1053 19.3251 65.676C19.5585 65.2373 19.6751 64.7287 19.6751 64.15ZM32.3421 60.188C32.9394 60.188 33.4714 60.314 33.9381 60.566C34.4048 60.8087 34.7734 61.1773 35.0441 61.672C35.3148 62.1667 35.4501 62.7687 35.4501 63.478V68H34.1901V63.66C34.1901 62.8947 33.9988 62.3113 33.6161 61.91C33.2428 61.4993 32.7341 61.294 32.0901 61.294C31.4274 61.294 30.9001 61.5087 30.5081 61.938C30.1161 62.358 29.9201 62.9693 29.9201 63.772V68H28.6601V63.66C28.6601 62.8947 28.4688 62.3113 28.0861 61.91C27.7128 61.4993 27.2041 61.294 26.5601 61.294C25.8974 61.294 25.3701 61.5087 24.9781 61.938C24.5861 62.358 24.3901 62.9693 24.3901 63.772V68H23.1161V60.328H24.3901V61.434C24.6421 61.0327 24.9781 60.7247 25.3981 60.51C25.8274 60.2953 26.2988 60.188 26.8121 60.188C27.4561 60.188 28.0254 60.3327 28.5201 60.622C29.0148 60.9113 29.3834 61.336 29.6261 61.896C29.8408 61.3547 30.1954 60.9347 30.6901 60.636C31.1848 60.3373 31.7354 60.188 32.3421 60.188ZM37.0639 64.136C37.0639 63.352 37.2226 62.666 37.5399 62.078C37.8572 61.4807 38.2912 61.0187 38.8419 60.692C39.4019 60.3653 40.0226 60.202 40.7039 60.202C41.3759 60.202 41.9592 60.3467 42.4539 60.636C42.9486 60.9253 43.3172 61.2893 43.5599 61.728V60.328H44.8479V68H43.5599V66.572C43.3079 67.02 42.9299 67.3933 42.4259 67.692C41.9312 67.9813 41.3526 68.126 40.6899 68.126C40.0086 68.126 39.3926 67.958 38.8419 67.622C38.2912 67.286 37.8572 66.8147 37.5399 66.208C37.2226 65.6013 37.0639 64.9107 37.0639 64.136ZM43.5599 64.15C43.5599 63.5713 43.4432 63.0673 43.2099 62.638C42.9766 62.2087 42.6592 61.882 42.2579 61.658C41.8659 61.4247 41.4319 61.308 40.9559 61.308C40.4799 61.308 40.0459 61.42 39.6539 61.644C39.2619 61.868 38.9492 62.1947 38.7159 62.624C38.4826 63.0533 38.3659 63.5573 38.3659 64.136C38.3659 64.724 38.4826 65.2373 38.7159 65.676C38.9492 66.1053 39.2619 66.4367 39.6539 66.67C40.0459 66.894 40.4799 67.006 40.9559 67.006C41.4319 67.006 41.8659 66.894 42.2579 66.67C42.6592 66.4367 42.9766 66.1053 43.2099 65.676C43.4432 65.2373 43.5599 64.7287 43.5599 64.15Z" fill="#4F5B5E"/>
<path d="M19.1478 38.3198C21.9141 38.3198 24.1592 36.235 24.1592 33.6663V29.0129H19.1478C16.3816 29.0129 14.1365 31.0977 14.1365 33.6663C14.1365 36.235 16.3816 38.3198 19.1478 38.3198Z" fill="#819296"/>
<path d="M14.1365 23.6427C14.1365 21.074 16.3816 18.9893 19.1478 18.9893H24.1592V28.2961H19.1478C16.3816 28.2961 14.1365 26.2113 14.1365 23.6427Z" fill="#819296"/>
<path d="M14.1365 14.3363C14.1365 11.7676 16.3816 9.68286 19.1478 9.68286H24.1592V18.9897H19.1478C16.3816 18.9897 14.1365 16.905 14.1365 14.3363Z" fill="#819296"/>
<path d="M24.1589 9.68286H29.1703C31.9366 9.68286 34.1817 11.7676 34.1817 14.3363C34.1817 16.905 31.9366 18.9897 29.1703 18.9897H24.1589V9.68286Z" fill="#819296"/>
<path d="M34.1817 23.6427C34.1817 26.2113 31.9366 28.2961 29.1703 28.2961C26.404 28.2961 24.1589 26.2113 24.1589 23.6427C24.1589 21.074 26.404 18.9893 29.1703 18.9893C31.9366 18.9893 34.1817 21.074 34.1817 23.6427Z" fill="#819296"/>
<rect x="68.5" y="0.5" width="47" height="47" rx="2.5" stroke="#819296"/>
<path d="M78.0842 68L75.7602 64.01H74.2202V68H72.9462V58.242H76.0962C76.8335 58.242 77.4542 58.368 77.9582 58.62C78.4715 58.872 78.8542 59.2127 79.1062 59.642C79.3582 60.0713 79.4842 60.5613 79.4842 61.112C79.4842 61.784 79.2882 62.3767 78.8962 62.89C78.5135 63.4033 77.9348 63.744 77.1602 63.912L79.6102 68H78.0842ZM74.2202 62.988H76.0962C76.7868 62.988 77.3048 62.82 77.6502 62.484C77.9955 62.1387 78.1682 61.6813 78.1682 61.112C78.1682 60.5333 77.9955 60.0853 77.6502 59.768C77.3142 59.4507 76.7962 59.292 76.0962 59.292H74.2202V62.988ZM88.4637 63.87C88.4637 64.1127 88.4497 64.3693 88.4217 64.64H82.2897C82.3364 65.396 82.5931 65.9887 83.0597 66.418C83.5357 66.838 84.1097 67.048 84.7817 67.048C85.3324 67.048 85.7897 66.922 86.1537 66.67C86.5271 66.4087 86.7884 66.0633 86.9377 65.634H88.3097C88.1044 66.3713 87.6937 66.9733 87.0777 67.44C86.4617 67.8973 85.6964 68.126 84.7817 68.126C84.0537 68.126 83.4004 67.9627 82.8217 67.636C82.2524 67.3093 81.8044 66.8473 81.4777 66.25C81.1511 65.6433 80.9877 64.9433 80.9877 64.15C80.9877 63.3567 81.1464 62.6613 81.4637 62.064C81.7811 61.4667 82.2244 61.0093 82.7937 60.692C83.3724 60.3653 84.0351 60.202 84.7817 60.202C85.5097 60.202 86.1537 60.3607 86.7137 60.678C87.2737 60.9953 87.7031 61.434 88.0017 61.994C88.3097 62.5447 88.4637 63.17 88.4637 63.87ZM87.1477 63.604C87.1477 63.1187 87.0404 62.7033 86.8257 62.358C86.6111 62.0033 86.3171 61.7373 85.9437 61.56C85.5797 61.3733 85.1737 61.28 84.7257 61.28C84.0817 61.28 83.5311 61.4853 83.0737 61.896C82.6257 62.3067 82.3691 62.876 82.3037 63.604H87.1477ZM89.6694 64.136C89.6694 63.352 89.828 62.666 90.1454 62.078C90.4627 61.4807 90.8967 61.0187 91.4474 60.692C92.0074 60.3653 92.628 60.202 93.3094 60.202C93.9814 60.202 94.5647 60.3467 95.0594 60.636C95.554 60.9253 95.9227 61.2893 96.1654 61.728V60.328H97.4534V68H96.1654V66.572C95.9134 67.02 95.5354 67.3933 95.0314 67.692C94.5367 67.9813 93.958 68.126 93.2954 68.126C92.614 68.126 91.998 67.958 91.4474 67.622C90.8967 67.286 90.4627 66.8147 90.1454 66.208C89.828 65.6013 89.6694 64.9107 89.6694 64.136ZM96.1654 64.15C96.1654 63.5713 96.0487 63.0673 95.8154 62.638C95.582 62.2087 95.2647 61.882 94.8634 61.658C94.4714 61.4247 94.0374 61.308 93.5614 61.308C93.0854 61.308 92.6514 61.42 92.2594 61.644C91.8674 61.868 91.5547 62.1947 91.3214 62.624C91.088 63.0533 90.9714 63.5573 90.9714 64.136C90.9714 64.724 91.088 65.2373 91.3214 65.676C91.5547 66.1053 91.8674 66.4367 92.2594 66.67C92.6514 66.894 93.0854 67.006 93.5614 67.006C94.0374 67.006 94.4714 66.894 94.8634 66.67C95.2647 66.4367 95.582 66.1053 95.8154 65.676C96.0487 65.2373 96.1654 64.7287 96.1654 64.15ZM99.1303 64.15C99.1303 63.3567 99.289 62.666 99.6063 62.078C99.9237 61.4807 100.362 61.0187 100.922 60.692C101.492 60.3653 102.14 60.202 102.868 60.202C103.811 60.202 104.586 60.4307 105.192 60.888C105.808 61.3453 106.214 61.98 106.41 62.792H105.038C104.908 62.3253 104.651 61.9567 104.268 61.686C103.895 61.4153 103.428 61.28 102.868 61.28C102.14 61.28 101.552 61.532 101.104 62.036C100.656 62.5307 100.432 63.2353 100.432 64.15C100.432 65.074 100.656 65.788 101.104 66.292C101.552 66.796 102.14 67.048 102.868 67.048C103.428 67.048 103.895 66.9173 104.268 66.656C104.642 66.3947 104.898 66.0213 105.038 65.536H106.41C106.205 66.32 105.794 66.95 105.178 67.426C104.562 67.8927 103.792 68.126 102.868 68.126C102.14 68.126 101.492 67.9627 100.922 67.636C100.362 67.3093 99.9237 66.8473 99.6063 66.25C99.289 65.6527 99.1303 64.9527 99.1303 64.15ZM109.664 61.378V65.9C109.664 66.2733 109.744 66.5393 109.902 66.698C110.061 66.8473 110.336 66.922 110.728 66.922H111.666V68H110.518C109.809 68 109.277 67.8367 108.922 67.51C108.568 67.1833 108.39 66.6467 108.39 65.9V61.378H107.396V60.328H108.39V58.396H109.664V60.328H111.666V61.378H109.664Z" fill="#4F5B5E"/>
<g clip-path="url(#clip0_608_3294)">
<path d="M102.719 19.0142C102.335 18.8863 102.016 18.7585 101.696 18.6946C101.696 18.4389 101.76 18.1832 101.824 17.9276C102.591 14.1562 102.08 11.088 100.354 10.0653C98.6917 9.1065 95.9432 10.1292 93.1307 12.5582C92.875 12.75 92.6193 13.0056 92.3636 13.2613C92.1719 13.0696 91.9801 12.9417 91.8523 12.75C88.9119 10.1931 85.9716 9.1065 84.2458 10.1292C82.5838 11.088 82.0724 13.9645 82.7756 17.6079C82.8395 17.9276 82.9034 18.311 83.0312 18.6306C82.5838 18.7585 82.2003 18.8863 81.8168 19.0142C78.429 20.2287 76 22.0823 76 24C76 25.9815 78.5568 28.0269 82.1364 29.2414C82.392 29.3053 82.7116 29.4332 82.9674 29.4971C82.9034 29.8806 82.8395 30.2642 82.7116 30.6477C82.0724 34.1633 82.5838 36.9758 84.2458 37.9346C85.9716 38.9573 88.9119 37.9346 91.7244 35.4417C91.9162 35.25 92.1719 35.0582 92.3636 34.8664C92.6833 35.1221 92.939 35.3778 93.2585 35.6335C96.0071 37.9985 98.6917 38.9573 100.354 37.9985C102.08 36.9758 102.655 33.9716 101.952 30.2642C101.888 30.0085 101.824 29.6889 101.76 29.4332C101.952 29.3693 102.143 29.3053 102.335 29.2414C106.043 28.0269 108.727 26.0454 108.727 24C108.727 22.0823 106.17 20.1647 102.719 19.0142ZM94.0256 13.5809C96.4545 11.4716 98.6278 10.7045 99.6506 11.2798C100.737 11.8551 101.185 14.4119 100.482 17.6719C100.418 17.9276 100.418 18.1193 100.354 18.311C98.8835 17.9914 97.4773 17.7996 96.0071 17.6719C95.1761 16.4573 94.2812 15.3068 93.3224 14.2201C93.5781 14.0284 93.7699 13.7727 94.0256 13.5809ZM86.6747 27.3238C86.9943 27.8991 87.314 28.4105 87.6974 28.9858C86.6747 28.8579 85.652 28.7301 84.6932 28.4744C85.0128 27.5795 85.3324 26.6207 85.7159 25.6619C86.0355 26.2371 86.3551 26.7485 86.6747 27.3238ZM84.6932 19.6534C85.652 19.3977 86.6108 19.2698 87.6335 19.142C87.314 19.6534 86.9943 20.2287 86.6747 20.7401C86.3551 21.3153 86.0355 21.8267 85.7159 22.4019C85.3324 21.4431 85.0128 20.5483 84.6932 19.6534ZM86.483 24.0639C86.8665 23.169 87.3778 22.2741 87.8253 21.4431C88.3367 20.6121 88.848 19.7812 89.4233 18.9503C90.3821 18.8863 91.3409 18.8224 92.3636 18.8224C93.3224 18.8224 94.3451 18.8863 95.2401 18.9503C95.8153 19.7812 96.3267 20.6121 96.8381 21.4431C97.2855 22.2741 97.7969 23.1051 98.1804 24C97.7969 24.8948 97.3494 25.7897 96.8381 26.6207C96.3267 27.4517 95.8153 28.2826 95.304 29.1136C94.3451 29.1776 93.3224 29.2414 92.3636 29.2414C91.3409 29.2414 90.3821 29.1776 89.4233 29.1136C88.848 28.2826 88.3367 27.4517 87.8253 26.6207C87.3778 25.7897 86.9304 24.8948 86.483 24.0639ZM97.9886 27.3238C98.3722 26.7485 98.6278 26.1733 98.9474 25.598C99.331 26.5568 99.7145 27.4517 100.034 28.4105C99.0114 28.6662 98.0526 28.8579 97.0299 28.9219C97.3494 28.4105 97.669 27.8352 97.9886 27.3238ZM98.9474 22.4019C98.6278 21.8267 98.3083 21.3153 97.9886 20.7401C97.669 20.2287 97.3494 19.6534 97.0299 19.142C98.0526 19.2698 99.0753 19.4616 99.9701 19.6534C99.6506 20.6121 99.331 21.5071 98.9474 22.4019ZM92.3636 15.2429C93.0028 15.946 93.642 16.713 94.2174 17.544C93.0028 17.4801 91.7244 17.4801 90.446 17.544C91.0852 16.713 91.7244 15.946 92.3636 15.2429ZM84.9489 11.2798C86.0355 10.7045 88.4006 11.5994 90.8935 13.7727C91.0852 13.9645 91.2131 14.0923 91.4049 14.2201C90.3821 15.3068 89.4872 16.4573 88.6562 17.6719C87.186 17.7996 85.7799 17.9914 84.3735 18.311C84.2458 17.9914 84.1818 17.6719 84.1179 17.2883C83.5426 14.2201 83.9261 11.919 84.9489 11.2798ZM83.3508 28.1548C83.0951 28.0909 82.8395 28.0269 82.5838 27.8991C81.2415 27.4517 79.6435 26.8125 78.5568 25.9176C77.9176 25.4701 77.4702 24.767 77.3423 24C77.3423 22.8494 79.3878 21.3153 82.2642 20.2926C82.6477 20.1647 83.0312 20.1008 83.4148 19.973C83.7983 21.3792 84.3735 22.7216 84.9489 24.0639C84.3097 25.3423 83.7983 26.7485 83.3508 28.1548ZM90.8295 34.419C89.7429 35.3778 88.5284 36.1448 87.186 36.6562C86.483 37.0397 85.7159 37.0397 84.9489 36.7841C83.9261 36.1448 83.5426 33.9076 84.1179 30.9034C84.1818 30.5198 84.2458 30.1363 84.3097 29.8167C85.7799 30.1363 87.186 30.3281 88.6562 30.456C89.4872 31.6065 90.446 32.7571 91.4049 33.8437C91.2131 34.0355 91.0213 34.2272 90.8295 34.419ZM92.3636 32.8849C91.7244 32.1818 91.0852 31.4147 90.446 30.5198C91.0852 30.5837 91.7244 30.5837 92.3636 30.5837C93.0028 30.5837 93.642 30.5837 94.2812 30.5198C93.706 31.3508 93.0667 32.1178 92.3636 32.8849ZM100.737 34.8026C100.673 35.5696 100.29 36.2727 99.7145 36.7841C98.6917 37.3594 96.5185 36.5923 94.1534 34.6108C93.8977 34.3551 93.642 34.0994 93.3224 33.8437C94.3451 32.7571 95.2401 31.6704 96.071 30.456C97.5412 30.3281 98.9474 30.0724 100.418 29.7528C100.482 30.0085 100.545 30.2642 100.609 30.5198C100.865 31.9261 100.929 33.3962 100.737 34.8026ZM101.888 27.8991C101.696 27.963 101.568 28.0269 101.376 28.0909C100.929 26.6846 100.354 25.3423 99.7145 24C100.354 22.7216 100.865 21.3792 101.312 19.973C101.632 20.1008 101.952 20.1647 102.271 20.2926C105.212 21.3153 107.321 22.8494 107.321 24C107.321 25.2144 105.084 26.8764 101.888 27.8991ZM92.3636 26.9403C93.9617 26.9403 95.2401 25.6619 95.2401 24C95.2401 22.4019 93.9617 21.1235 92.3636 21.1235C90.7017 21.1235 89.4233 22.4019 89.4233 24C89.4233 25.6619 90.7017 26.9403 92.3636 26.9403Z" fill="#819296"/>
</g>
<rect x="136.5" y="0.5" width="47" height="47" rx="2.5" stroke="#819296"/>
<path d="M143.622 61.098C143.622 61.91 143.342 62.5867 142.782 63.128C142.231 63.66 141.386 63.926 140.248 63.926H138.372V68H137.098V58.242H140.248C141.349 58.242 142.184 58.508 142.754 59.04C143.332 59.572 143.622 60.258 143.622 61.098ZM140.248 62.876C140.957 62.876 141.48 62.722 141.816 62.414C142.152 62.106 142.32 61.6673 142.32 61.098C142.32 59.894 141.629 59.292 140.248 59.292H138.372V62.876H140.248ZM151.813 60.328L147.193 71.612H145.877L147.389 67.916L144.295 60.328H145.709L148.117 66.544L150.497 60.328H151.813ZM154.648 61.378V65.9C154.648 66.2733 154.727 66.5393 154.886 66.698C155.044 66.8473 155.32 66.922 155.712 66.922H156.65V68H155.502C154.792 68 154.26 67.8367 153.906 67.51C153.551 67.1833 153.374 66.6467 153.374 65.9V61.378H152.38V60.328H153.374V58.396H154.648V60.328H156.65V61.378H154.648ZM162.001 60.188C162.58 60.188 163.103 60.314 163.569 60.566C164.036 60.8087 164.4 61.1773 164.661 61.672C164.932 62.1667 165.067 62.7687 165.067 63.478V68H163.807V63.66C163.807 62.8947 163.616 62.3113 163.233 61.91C162.851 61.4993 162.328 61.294 161.665 61.294C160.993 61.294 160.457 61.504 160.055 61.924C159.663 62.344 159.467 62.9553 159.467 63.758V68H158.193V57.64H159.467V61.42C159.719 61.028 160.065 60.7247 160.503 60.51C160.951 60.2953 161.451 60.188 162.001 60.188ZM170.494 68.126C169.776 68.126 169.122 67.9627 168.534 67.636C167.956 67.3093 167.498 66.8473 167.162 66.25C166.836 65.6433 166.672 64.9433 166.672 64.15C166.672 63.366 166.84 62.6753 167.176 62.078C167.522 61.4713 167.988 61.0093 168.576 60.692C169.164 60.3653 169.822 60.202 170.55 60.202C171.278 60.202 171.936 60.3653 172.524 60.692C173.112 61.0093 173.574 61.4667 173.91 62.064C174.256 62.6613 174.428 63.3567 174.428 64.15C174.428 64.9433 174.251 65.6433 173.896 66.25C173.551 66.8473 173.08 67.3093 172.482 67.636C171.885 67.9627 171.222 68.126 170.494 68.126ZM170.494 67.006C170.952 67.006 171.381 66.8987 171.782 66.684C172.184 66.4693 172.506 66.1473 172.748 65.718C173 65.2887 173.126 64.766 173.126 64.15C173.126 63.534 173.005 63.0113 172.762 62.582C172.52 62.1527 172.202 61.8353 171.81 61.63C171.418 61.4153 170.994 61.308 170.536 61.308C170.07 61.308 169.64 61.4153 169.248 61.63C168.866 61.8353 168.558 62.1527 168.324 62.582C168.091 63.0113 167.974 63.534 167.974 64.15C167.974 64.7753 168.086 65.3027 168.31 65.732C168.544 66.1613 168.852 66.4833 169.234 66.698C169.617 66.9033 170.037 67.006 170.494 67.006ZM179.841 60.188C180.775 60.188 181.531 60.4727 182.109 61.042C182.688 61.602 182.977 62.414 182.977 63.478V68H181.717V63.66C181.717 62.8947 181.526 62.3113 181.143 61.91C180.761 61.4993 180.238 61.294 179.575 61.294C178.903 61.294 178.367 61.504 177.965 61.924C177.573 62.344 177.377 62.9553 177.377 63.758V68H176.103V60.328H177.377V61.42C177.629 61.028 177.97 60.7247 178.399 60.51C178.838 60.2953 179.319 60.188 179.841 60.188Z" fill="#4F5B5E"/>
<path d="M159.839 10.5002C158.726 10.5053 157.663 10.5993 156.727 10.763C153.971 11.2445 153.471 12.2525 153.471 14.1113V16.5662H159.984V17.3845H151.027C149.134 17.3845 147.477 18.5097 146.958 20.6502C146.361 23.1038 146.334 24.6348 146.958 27.1967C147.421 29.1037 148.527 30.4624 150.42 30.4624H152.659V27.5195C152.659 25.3934 154.519 23.5181 156.727 23.5181H163.232C165.043 23.5181 166.488 22.0435 166.488 20.2448V14.1113C166.488 12.3656 165 11.0543 163.232 10.763C162.114 10.5788 160.953 10.4951 159.839 10.5002ZM156.317 12.4747C156.99 12.4747 157.539 13.0269 157.539 13.7059C157.539 14.3825 156.99 14.9296 156.317 14.9296C155.642 14.9296 155.095 14.3825 155.095 13.7059C155.095 13.0269 155.642 12.4747 156.317 12.4747Z" fill="#819296"/>
<path d="M167.3 17.3845V20.2448C167.3 22.4624 165.4 24.3288 163.232 24.3288H156.727C154.945 24.3288 153.471 25.8372 153.471 27.6021V33.7356C153.471 35.4813 155.005 36.508 156.727 37.0089C158.789 37.6084 160.765 37.7167 163.232 37.0089C164.872 36.5393 166.488 35.5944 166.488 33.7356V31.2807H159.983V30.4624H169.745C171.637 30.4624 172.343 29.1566 173.001 27.1967C173.681 25.179 173.652 23.2386 173.001 20.6502C172.533 18.7866 171.64 17.3845 169.745 17.3845H167.3ZM163.642 32.9173C164.317 32.9173 164.864 33.4644 164.864 34.141C164.864 34.82 164.317 35.3722 163.642 35.3722C162.969 35.3722 162.42 34.82 162.42 34.141C162.42 33.4644 162.969 32.9173 163.642 32.9173Z" fill="#819296"/>
<rect x="207" y="0.5" width="47" height="47" rx="2.5" stroke="#819296"/>
<path d="M212.959 71H211.685L206.561 63.23V71H205.287V61.228H206.561L211.685 68.984V61.228H212.959V71ZM218.477 71.126C217.758 71.126 217.105 70.9627 216.517 70.636C215.938 70.3093 215.481 69.8473 215.145 69.25C214.818 68.6433 214.655 67.9433 214.655 67.15C214.655 66.366 214.823 65.6753 215.159 65.078C215.504 64.4713 215.971 64.0093 216.559 63.692C217.147 63.3653 217.805 63.202 218.533 63.202C219.261 63.202 219.919 63.3653 220.507 63.692C221.095 64.0093 221.557 64.4667 221.893 65.064C222.238 65.6613 222.411 66.3567 222.411 67.15C222.411 67.9433 222.233 68.6433 221.879 69.25C221.533 69.8473 221.062 70.3093 220.465 70.636C219.867 70.9627 219.205 71.126 218.477 71.126ZM218.477 70.006C218.934 70.006 219.363 69.8987 219.765 69.684C220.166 69.4693 220.488 69.1473 220.731 68.718C220.983 68.2887 221.109 67.766 221.109 67.15C221.109 66.534 220.987 66.0113 220.745 65.582C220.502 65.1527 220.185 64.8353 219.793 64.63C219.401 64.4153 218.976 64.308 218.519 64.308C218.052 64.308 217.623 64.4153 217.231 64.63C216.848 64.8353 216.54 65.1527 216.307 65.582C216.073 66.0113 215.957 66.534 215.957 67.15C215.957 67.7753 216.069 68.3027 216.293 68.732C216.526 69.1613 216.834 69.4833 217.217 69.698C217.599 69.9033 218.019 70.006 218.477 70.006ZM223.61 67.136C223.61 66.352 223.768 65.666 224.086 65.078C224.403 64.4807 224.837 64.0187 225.388 63.692C225.948 63.3653 226.573 63.202 227.264 63.202C227.861 63.202 228.416 63.342 228.93 63.622C229.443 63.8927 229.835 64.252 230.106 64.7V60.64H231.394V71H230.106V69.558C229.854 70.0153 229.48 70.3933 228.986 70.692C228.491 70.9813 227.912 71.126 227.25 71.126C226.568 71.126 225.948 70.958 225.388 70.622C224.837 70.286 224.403 69.8147 224.086 69.208C223.768 68.6013 223.61 67.9107 223.61 67.136ZM230.106 67.15C230.106 66.5713 229.989 66.0673 229.756 65.638C229.522 65.2087 229.205 64.882 228.804 64.658C228.412 64.4247 227.978 64.308 227.502 64.308C227.026 64.308 226.592 64.42 226.2 64.644C225.808 64.868 225.495 65.1947 225.262 65.624C225.028 66.0533 224.912 66.5573 224.912 67.136C224.912 67.724 225.028 68.2373 225.262 68.676C225.495 69.1053 225.808 69.4367 226.2 69.67C226.592 69.894 227.026 70.006 227.502 70.006C227.978 70.006 228.412 69.894 228.804 69.67C229.205 69.4367 229.522 69.1053 229.756 68.676C229.989 68.2373 230.106 67.7287 230.106 67.15ZM240.547 66.87C240.547 67.1127 240.533 67.3693 240.505 67.64H234.373C234.419 68.396 234.676 68.9887 235.143 69.418C235.619 69.838 236.193 70.048 236.865 70.048C237.415 70.048 237.873 69.922 238.237 69.67C238.61 69.4087 238.871 69.0633 239.021 68.634H240.393C240.187 69.3713 239.777 69.9733 239.161 70.44C238.545 70.8973 237.779 71.126 236.865 71.126C236.137 71.126 235.483 70.9627 234.905 70.636C234.335 70.3093 233.887 69.8473 233.561 69.25C233.234 68.6433 233.071 67.9433 233.071 67.15C233.071 66.3567 233.229 65.6613 233.547 65.064C233.864 64.4667 234.307 64.0093 234.877 63.692C235.455 63.3653 236.118 63.202 236.865 63.202C237.593 63.202 238.237 63.3607 238.797 63.678C239.357 63.9953 239.786 64.434 240.085 64.994C240.393 65.5447 240.547 66.17 240.547 66.87ZM239.231 66.604C239.231 66.1187 239.123 65.7033 238.909 65.358C238.694 65.0033 238.4 64.7373 238.027 64.56C237.663 64.3733 237.257 64.28 236.809 64.28C236.165 64.28 235.614 64.4853 235.157 64.896C234.709 65.3067 234.452 65.876 234.387 66.604H239.231ZM247.142 61.242V68.452C247.142 69.2547 246.895 69.8987 246.4 70.384C245.906 70.86 245.252 71.098 244.44 71.098C243.619 71.098 242.961 70.8553 242.466 70.37C241.972 69.8753 241.724 69.2033 241.724 68.354H242.998C243.008 68.83 243.129 69.2173 243.362 69.516C243.605 69.8147 243.964 69.964 244.44 69.964C244.916 69.964 245.271 69.824 245.504 69.544C245.738 69.2547 245.854 68.8907 245.854 68.452V61.242H247.142ZM252.746 71.098C252.102 71.098 251.524 70.986 251.01 70.762C250.506 70.5287 250.11 70.2113 249.82 69.81C249.531 69.3993 249.382 68.928 249.372 68.396H250.73C250.777 68.8533 250.964 69.2407 251.29 69.558C251.626 69.866 252.112 70.02 252.746 70.02C253.353 70.02 253.829 69.8707 254.174 69.572C254.529 69.264 254.706 68.872 254.706 68.396C254.706 68.0227 254.604 67.7193 254.398 67.486C254.193 67.2527 253.936 67.0753 253.628 66.954C253.32 66.8327 252.905 66.702 252.382 66.562C251.738 66.394 251.22 66.226 250.828 66.058C250.446 65.89 250.114 65.6287 249.834 65.274C249.564 64.91 249.428 64.4247 249.428 63.818C249.428 63.286 249.564 62.8147 249.834 62.404C250.105 61.9933 250.483 61.676 250.968 61.452C251.463 61.228 252.028 61.116 252.662 61.116C253.577 61.116 254.324 61.3447 254.902 61.802C255.49 62.2593 255.822 62.866 255.896 63.622H254.496C254.45 63.2487 254.254 62.922 253.908 62.642C253.563 62.3527 253.106 62.208 252.536 62.208C252.004 62.208 251.57 62.348 251.234 62.628C250.898 62.8987 250.73 63.2813 250.73 63.776C250.73 64.1307 250.828 64.42 251.024 64.644C251.23 64.868 251.477 65.0407 251.766 65.162C252.065 65.274 252.48 65.4047 253.012 65.554C253.656 65.7313 254.174 65.9087 254.566 66.086C254.958 66.254 255.294 66.52 255.574 66.884C255.854 67.2387 255.994 67.724 255.994 68.34C255.994 68.816 255.868 69.264 255.616 69.684C255.364 70.104 254.991 70.4447 254.496 70.706C254.002 70.9673 253.418 71.098 252.746 71.098Z" fill="#4F5B5E"/>
<g clip-path="url(#clip1_608_3294)">
<path d="M228.125 38.7656C228.477 38.7656 228.887 38.707 229.238 38.4726L240.078 32.2617C240.781 31.8516 241.191 31.0899 241.191 30.2695V17.7891C241.191 16.9688 240.781 16.207 240.078 15.7969L229.238 9.52734C228.535 9.17578 227.656 9.17578 226.953 9.52734L216.172 15.7969C215.469 16.207 215 16.9688 215 17.7891V30.2695C215 31.0899 215.469 31.8516 216.172 32.2617L218.984 33.8438C220.332 34.5469 220.859 34.5469 221.504 34.5469C223.496 34.5469 224.668 33.3164 224.668 31.1484V18.8438C224.668 18.668 224.551 18.5508 224.375 18.5508H222.969C222.793 18.5508 222.676 18.668 222.676 18.8438V31.1484C222.676 32.1445 221.68 33.082 220.098 32.2617L217.109 30.5625C216.992 30.5039 216.934 30.3868 216.934 30.2695V17.7891C216.934 17.6719 216.992 17.5547 217.109 17.4961L227.949 11.2266C228.008 11.168 228.184 11.168 228.242 11.2266L239.082 17.4961C239.199 17.5547 239.258 17.6719 239.258 17.7891V30.2695C239.258 30.3868 239.199 30.5039 239.082 30.5625L228.242 36.832C228.184 36.8906 228.008 36.8906 227.949 36.832L225.137 35.1328C225.078 35.1328 224.961 35.0742 224.902 35.1328C224.141 35.6016 223.965 35.6016 223.262 35.8945C223.086 35.9531 222.793 36.0703 223.32 36.3633L226.953 38.4726C227.305 38.707 227.715 38.7656 228.125 38.7656ZM236.855 26.4609C236.855 24.1172 235.273 23.5312 231.934 23.0625C228.594 22.6524 228.242 22.418 228.242 21.5976C228.242 20.9531 228.535 20.1328 230.996 20.1328C233.223 20.1328 234.043 20.6016 234.395 22.0664C234.395 22.2422 234.57 22.3594 234.688 22.3594H236.094C236.211 22.3594 236.27 22.3007 236.328 22.2422C236.387 22.1836 236.387 22.0664 236.387 22.0078C236.211 19.4297 234.453 18.1992 230.996 18.1992C227.891 18.1992 226.074 19.4882 226.074 21.7149C226.074 24.0586 227.891 24.7031 230.879 24.9961C234.395 25.3476 234.688 25.875 234.688 26.5781C234.688 27.8086 233.691 28.2774 231.465 28.2774C228.594 28.2774 227.949 27.5742 227.715 26.168C227.715 25.9922 227.598 25.875 227.422 25.875H226.016C225.84 25.875 225.723 26.0508 225.723 26.2266C225.723 28.043 226.719 30.2109 231.465 30.2109C234.863 30.2109 236.855 28.8633 236.855 26.4609Z" fill="#819296"/>
</g>
<defs>
<clipPath id="clip0_608_3294">
<rect width="32.7273" height="30" fill="white" transform="translate(76 9)"/>
</clipPath>
<clipPath id="clip1_608_3294">
<rect width="26.25" height="30" fill="white" transform="translate(215 9)"/>
</clipPath>
</defs>
</svg>
