<svg width="252" height="72" viewBox="0 0 252 72" fill="none" xmlns="http://www.w3.org/2000/svg">
<rect x="0.5" y="0.5" width="47" height="47" rx="2.5" stroke="#4F5B5E"/>
<path d="M8.67115 58.242V59.278H4.42915V62.568H7.87315V63.604H4.42915V68H3.15515V58.242H8.67115ZM10.8678 59.082C10.6252 59.082 10.4198 58.998 10.2518 58.83C10.0838 58.662 9.99984 58.4567 9.99984 58.214C9.99984 57.9713 10.0838 57.766 10.2518 57.598C10.4198 57.43 10.6252 57.346 10.8678 57.346C11.1012 57.346 11.2972 57.43 11.4558 57.598C11.6238 57.766 11.7078 57.9713 11.7078 58.214C11.7078 58.4567 11.6238 58.662 11.4558 58.83C11.2972 58.998 11.1012 59.082 10.8678 59.082ZM11.4838 60.328V68H10.2098V60.328H11.4838ZM16.8191 60.202C17.4818 60.202 18.0605 60.3467 18.5551 60.636C19.0591 60.9253 19.4325 61.2893 19.6751 61.728V60.328H20.9631V68.168C20.9631 68.868 20.8138 69.4887 20.5151 70.03C20.2165 70.5807 19.7871 71.01 19.2271 71.318C18.6765 71.626 18.0325 71.78 17.2951 71.78C16.2871 71.78 15.4471 71.542 14.7751 71.066C14.1031 70.59 13.7065 69.9413 13.5851 69.12H14.8451C14.9851 69.5867 15.2745 69.96 15.7131 70.24C16.1518 70.5293 16.6791 70.674 17.2951 70.674C17.9951 70.674 18.5645 70.4547 19.0031 70.016C19.4511 69.5773 19.6751 68.9613 19.6751 68.168V66.558C19.4231 67.006 19.0498 67.3793 18.5551 67.678C18.0605 67.9767 17.4818 68.126 16.8191 68.126C16.1378 68.126 15.5171 67.958 14.9571 67.622C14.4065 67.286 13.9725 66.8147 13.6551 66.208C13.3378 65.6013 13.1791 64.9107 13.1791 64.136C13.1791 63.352 13.3378 62.666 13.6551 62.078C13.9725 61.4807 14.4065 61.0187 14.9571 60.692C15.5171 60.3653 16.1378 60.202 16.8191 60.202ZM19.6751 64.15C19.6751 63.5713 19.5585 63.0673 19.3251 62.638C19.0918 62.2087 18.7745 61.882 18.3731 61.658C17.9811 61.4247 17.5471 61.308 17.0711 61.308C16.5951 61.308 16.1611 61.42 15.7691 61.644C15.3771 61.868 15.0645 62.1947 14.8311 62.624C14.5978 63.0533 14.4811 63.5573 14.4811 64.136C14.4811 64.724 14.5978 65.2373 14.8311 65.676C15.0645 66.1053 15.3771 66.4367 15.7691 66.67C16.1611 66.894 16.5951 67.006 17.0711 67.006C17.5471 67.006 17.9811 66.894 18.3731 66.67C18.7745 66.4367 19.0918 66.1053 19.3251 65.676C19.5585 65.2373 19.6751 64.7287 19.6751 64.15ZM32.3421 60.188C32.9394 60.188 33.4714 60.314 33.9381 60.566C34.4048 60.8087 34.7734 61.1773 35.0441 61.672C35.3148 62.1667 35.4501 62.7687 35.4501 63.478V68H34.1901V63.66C34.1901 62.8947 33.9988 62.3113 33.6161 61.91C33.2428 61.4993 32.7341 61.294 32.0901 61.294C31.4274 61.294 30.9001 61.5087 30.5081 61.938C30.1161 62.358 29.9201 62.9693 29.9201 63.772V68H28.6601V63.66C28.6601 62.8947 28.4688 62.3113 28.0861 61.91C27.7128 61.4993 27.2041 61.294 26.5601 61.294C25.8974 61.294 25.3701 61.5087 24.9781 61.938C24.5861 62.358 24.3901 62.9693 24.3901 63.772V68H23.1161V60.328H24.3901V61.434C24.6421 61.0327 24.9781 60.7247 25.3981 60.51C25.8274 60.2953 26.2988 60.188 26.8121 60.188C27.4561 60.188 28.0254 60.3327 28.5201 60.622C29.0148 60.9113 29.3834 61.336 29.6261 61.896C29.8408 61.3547 30.1954 60.9347 30.6901 60.636C31.1848 60.3373 31.7354 60.188 32.3421 60.188ZM37.0639 64.136C37.0639 63.352 37.2226 62.666 37.5399 62.078C37.8572 61.4807 38.2912 61.0187 38.8419 60.692C39.4019 60.3653 40.0226 60.202 40.7039 60.202C41.3759 60.202 41.9592 60.3467 42.4539 60.636C42.9486 60.9253 43.3172 61.2893 43.5599 61.728V60.328H44.8479V68H43.5599V66.572C43.3079 67.02 42.9299 67.3933 42.4259 67.692C41.9312 67.9813 41.3526 68.126 40.6899 68.126C40.0086 68.126 39.3926 67.958 38.8419 67.622C38.2912 67.286 37.8572 66.8147 37.5399 66.208C37.2226 65.6013 37.0639 64.9107 37.0639 64.136ZM43.5599 64.15C43.5599 63.5713 43.4432 63.0673 43.2099 62.638C42.9766 62.2087 42.6592 61.882 42.2579 61.658C41.8659 61.4247 41.4319 61.308 40.9559 61.308C40.4799 61.308 40.0459 61.42 39.6539 61.644C39.2619 61.868 38.9492 62.1947 38.7159 62.624C38.4826 63.0533 38.3659 63.5573 38.3659 64.136C38.3659 64.724 38.4826 65.2373 38.7159 65.676C38.9492 66.1053 39.2619 66.4367 39.6539 66.67C40.0459 66.894 40.4799 67.006 40.9559 67.006C41.4319 67.006 41.8659 66.894 42.2579 66.67C42.6592 66.4367 42.9766 66.1053 43.2099 65.676C43.4432 65.2373 43.5599 64.7287 43.5599 64.15Z" fill="#4F5B5E"/>
<path d="M19.1476 38.3198C21.9139 38.3198 24.159 36.235 24.159 33.6663V29.0129H19.1476C16.3813 29.0129 14.1362 31.0977 14.1362 33.6663C14.1362 36.235 16.3813 38.3198 19.1476 38.3198Z" fill="#4F5B5E"/>
<path d="M14.1362 23.6427C14.1362 21.074 16.3813 18.9893 19.1476 18.9893H24.159V28.2961H19.1476C16.3813 28.2961 14.1362 26.2113 14.1362 23.6427Z" fill="#4F5B5E"/>
<path d="M14.1362 14.3363C14.1362 11.7676 16.3813 9.68286 19.1476 9.68286H24.159V18.9897H19.1476C16.3813 18.9897 14.1362 16.905 14.1362 14.3363Z" fill="#4F5B5E"/>
<path d="M24.1587 9.68286H29.1701C31.9363 9.68286 34.1814 11.7676 34.1814 14.3363C34.1814 16.905 31.9363 18.9897 29.1701 18.9897H24.1587V9.68286Z" fill="#4F5B5E"/>
<path d="M34.1814 23.6427C34.1814 26.2113 31.9363 28.2961 29.1701 28.2961C26.4038 28.2961 24.1587 26.2113 24.1587 23.6427C24.1587 21.074 26.4038 18.9893 29.1701 18.9893C31.9363 18.9893 34.1814 21.074 34.1814 23.6427Z" fill="#4F5B5E"/>
<rect x="68.5" y="0.5" width="47" height="47" rx="2.5" stroke="#4F5B5E"/>
<path d="M78.0842 68L75.7602 64.01H74.2202V68H72.9462V58.242H76.0962C76.8335 58.242 77.4542 58.368 77.9582 58.62C78.4715 58.872 78.8542 59.2127 79.1062 59.642C79.3582 60.0713 79.4842 60.5613 79.4842 61.112C79.4842 61.784 79.2882 62.3767 78.8962 62.89C78.5135 63.4033 77.9348 63.744 77.1602 63.912L79.6102 68H78.0842ZM74.2202 62.988H76.0962C76.7868 62.988 77.3048 62.82 77.6502 62.484C77.9955 62.1387 78.1682 61.6813 78.1682 61.112C78.1682 60.5333 77.9955 60.0853 77.6502 59.768C77.3142 59.4507 76.7962 59.292 76.0962 59.292H74.2202V62.988ZM88.4637 63.87C88.4637 64.1127 88.4497 64.3693 88.4217 64.64H82.2897C82.3364 65.396 82.5931 65.9887 83.0597 66.418C83.5357 66.838 84.1097 67.048 84.7817 67.048C85.3324 67.048 85.7897 66.922 86.1537 66.67C86.5271 66.4087 86.7884 66.0633 86.9377 65.634H88.3097C88.1044 66.3713 87.6937 66.9733 87.0777 67.44C86.4617 67.8973 85.6964 68.126 84.7817 68.126C84.0537 68.126 83.4004 67.9627 82.8217 67.636C82.2524 67.3093 81.8044 66.8473 81.4777 66.25C81.1511 65.6433 80.9877 64.9433 80.9877 64.15C80.9877 63.3567 81.1464 62.6613 81.4637 62.064C81.7811 61.4667 82.2244 61.0093 82.7937 60.692C83.3724 60.3653 84.0351 60.202 84.7817 60.202C85.5097 60.202 86.1537 60.3607 86.7137 60.678C87.2737 60.9953 87.7031 61.434 88.0017 61.994C88.3097 62.5447 88.4637 63.17 88.4637 63.87ZM87.1477 63.604C87.1477 63.1187 87.0404 62.7033 86.8257 62.358C86.6111 62.0033 86.3171 61.7373 85.9437 61.56C85.5797 61.3733 85.1737 61.28 84.7257 61.28C84.0817 61.28 83.5311 61.4853 83.0737 61.896C82.6257 62.3067 82.3691 62.876 82.3037 63.604H87.1477ZM89.6694 64.136C89.6694 63.352 89.828 62.666 90.1454 62.078C90.4627 61.4807 90.8967 61.0187 91.4474 60.692C92.0074 60.3653 92.628 60.202 93.3094 60.202C93.9814 60.202 94.5647 60.3467 95.0594 60.636C95.554 60.9253 95.9227 61.2893 96.1654 61.728V60.328H97.4534V68H96.1654V66.572C95.9134 67.02 95.5354 67.3933 95.0314 67.692C94.5367 67.9813 93.958 68.126 93.2954 68.126C92.614 68.126 91.998 67.958 91.4474 67.622C90.8967 67.286 90.4627 66.8147 90.1454 66.208C89.828 65.6013 89.6694 64.9107 89.6694 64.136ZM96.1654 64.15C96.1654 63.5713 96.0487 63.0673 95.8154 62.638C95.582 62.2087 95.2647 61.882 94.8634 61.658C94.4714 61.4247 94.0374 61.308 93.5614 61.308C93.0854 61.308 92.6514 61.42 92.2594 61.644C91.8674 61.868 91.5547 62.1947 91.3214 62.624C91.088 63.0533 90.9714 63.5573 90.9714 64.136C90.9714 64.724 91.088 65.2373 91.3214 65.676C91.5547 66.1053 91.8674 66.4367 92.2594 66.67C92.6514 66.894 93.0854 67.006 93.5614 67.006C94.0374 67.006 94.4714 66.894 94.8634 66.67C95.2647 66.4367 95.582 66.1053 95.8154 65.676C96.0487 65.2373 96.1654 64.7287 96.1654 64.15ZM99.1303 64.15C99.1303 63.3567 99.289 62.666 99.6063 62.078C99.9237 61.4807 100.362 61.0187 100.922 60.692C101.492 60.3653 102.14 60.202 102.868 60.202C103.811 60.202 104.586 60.4307 105.192 60.888C105.808 61.3453 106.214 61.98 106.41 62.792H105.038C104.908 62.3253 104.651 61.9567 104.268 61.686C103.895 61.4153 103.428 61.28 102.868 61.28C102.14 61.28 101.552 61.532 101.104 62.036C100.656 62.5307 100.432 63.2353 100.432 64.15C100.432 65.074 100.656 65.788 101.104 66.292C101.552 66.796 102.14 67.048 102.868 67.048C103.428 67.048 103.895 66.9173 104.268 66.656C104.642 66.3947 104.898 66.0213 105.038 65.536H106.41C106.205 66.32 105.794 66.95 105.178 67.426C104.562 67.8927 103.792 68.126 102.868 68.126C102.14 68.126 101.492 67.9627 100.922 67.636C100.362 67.3093 99.9237 66.8473 99.6063 66.25C99.289 65.6527 99.1303 64.9527 99.1303 64.15ZM109.664 61.378V65.9C109.664 66.2733 109.744 66.5393 109.902 66.698C110.061 66.8473 110.336 66.922 110.728 66.922H111.666V68H110.518C109.809 68 109.277 67.8367 108.922 67.51C108.568 67.1833 108.39 66.6467 108.39 65.9V61.378H107.396V60.328H108.39V58.396H109.664V60.328H111.666V61.378H109.664Z" fill="#4F5B5E"/>
<g clip-path="url(#clip0_608_3333)">
<path d="M102.719 19.0142C102.335 18.8863 102.016 18.7585 101.696 18.6946C101.696 18.4389 101.76 18.1832 101.824 17.9276C102.591 14.1562 102.08 11.088 100.354 10.0653C98.6917 9.1065 95.9432 10.1292 93.1307 12.5582C92.875 12.75 92.6193 13.0056 92.3636 13.2613C92.1719 13.0696 91.9801 12.9417 91.8523 12.75C88.9119 10.1931 85.9716 9.1065 84.2458 10.1292C82.5838 11.088 82.0724 13.9645 82.7756 17.6079C82.8395 17.9276 82.9034 18.311 83.0312 18.6306C82.5838 18.7585 82.2003 18.8863 81.8168 19.0142C78.429 20.2287 76 22.0823 76 24C76 25.9815 78.5568 28.0269 82.1364 29.2414C82.392 29.3053 82.7116 29.4332 82.9674 29.4971C82.9034 29.8806 82.8395 30.2642 82.7116 30.6477C82.0724 34.1633 82.5838 36.9758 84.2458 37.9346C85.9716 38.9573 88.9119 37.9346 91.7244 35.4417C91.9162 35.25 92.1719 35.0582 92.3636 34.8664C92.6833 35.1221 92.939 35.3778 93.2585 35.6335C96.0071 37.9985 98.6917 38.9573 100.354 37.9985C102.08 36.9758 102.655 33.9716 101.952 30.2642C101.888 30.0085 101.824 29.6889 101.76 29.4332C101.952 29.3693 102.143 29.3053 102.335 29.2414C106.043 28.0269 108.727 26.0454 108.727 24C108.727 22.0823 106.17 20.1647 102.719 19.0142ZM94.0256 13.5809C96.4545 11.4716 98.6278 10.7045 99.6506 11.2798C100.737 11.8551 101.185 14.4119 100.482 17.6719C100.418 17.9276 100.418 18.1193 100.354 18.311C98.8835 17.9914 97.4773 17.7996 96.0071 17.6719C95.1761 16.4573 94.2812 15.3068 93.3224 14.2201C93.5781 14.0284 93.7699 13.7727 94.0256 13.5809ZM86.6747 27.3238C86.9943 27.8991 87.314 28.4105 87.6974 28.9858C86.6747 28.8579 85.652 28.7301 84.6932 28.4744C85.0128 27.5795 85.3324 26.6207 85.7159 25.6619C86.0355 26.2371 86.3551 26.7485 86.6747 27.3238ZM84.6932 19.6534C85.652 19.3977 86.6108 19.2698 87.6335 19.142C87.314 19.6534 86.9943 20.2287 86.6747 20.7401C86.3551 21.3153 86.0355 21.8267 85.7159 22.4019C85.3324 21.4431 85.0128 20.5483 84.6932 19.6534ZM86.483 24.0639C86.8665 23.169 87.3778 22.2741 87.8253 21.4431C88.3367 20.6121 88.848 19.7812 89.4233 18.9503C90.3821 18.8863 91.3409 18.8224 92.3636 18.8224C93.3224 18.8224 94.3451 18.8863 95.2401 18.9503C95.8153 19.7812 96.3267 20.6121 96.8381 21.4431C97.2855 22.2741 97.7969 23.1051 98.1804 24C97.7969 24.8948 97.3494 25.7897 96.8381 26.6207C96.3267 27.4517 95.8153 28.2826 95.304 29.1136C94.3451 29.1776 93.3224 29.2414 92.3636 29.2414C91.3409 29.2414 90.3821 29.1776 89.4233 29.1136C88.848 28.2826 88.3367 27.4517 87.8253 26.6207C87.3778 25.7897 86.9304 24.8948 86.483 24.0639ZM97.9886 27.3238C98.3722 26.7485 98.6278 26.1733 98.9474 25.598C99.331 26.5568 99.7145 27.4517 100.034 28.4105C99.0114 28.6662 98.0526 28.8579 97.0299 28.9219C97.3494 28.4105 97.669 27.8352 97.9886 27.3238ZM98.9474 22.4019C98.6278 21.8267 98.3083 21.3153 97.9886 20.7401C97.669 20.2287 97.3494 19.6534 97.0299 19.142C98.0526 19.2698 99.0753 19.4616 99.9701 19.6534C99.6506 20.6121 99.331 21.5071 98.9474 22.4019ZM92.3636 15.2429C93.0028 15.946 93.642 16.713 94.2174 17.544C93.0028 17.4801 91.7244 17.4801 90.446 17.544C91.0852 16.713 91.7244 15.946 92.3636 15.2429ZM84.9489 11.2798C86.0355 10.7045 88.4006 11.5994 90.8935 13.7727C91.0852 13.9645 91.2131 14.0923 91.4049 14.2201C90.3821 15.3068 89.4872 16.4573 88.6562 17.6719C87.186 17.7996 85.7799 17.9914 84.3735 18.311C84.2458 17.9914 84.1818 17.6719 84.1179 17.2883C83.5426 14.2201 83.9261 11.919 84.9489 11.2798ZM83.3508 28.1548C83.0951 28.0909 82.8395 28.0269 82.5838 27.8991C81.2415 27.4517 79.6435 26.8125 78.5568 25.9176C77.9176 25.4701 77.4702 24.767 77.3423 24C77.3423 22.8494 79.3878 21.3153 82.2642 20.2926C82.6477 20.1647 83.0312 20.1008 83.4148 19.973C83.7983 21.3792 84.3735 22.7216 84.9489 24.0639C84.3097 25.3423 83.7983 26.7485 83.3508 28.1548ZM90.8295 34.419C89.7429 35.3778 88.5284 36.1448 87.186 36.6562C86.483 37.0397 85.7159 37.0397 84.9489 36.7841C83.9261 36.1448 83.5426 33.9076 84.1179 30.9034C84.1818 30.5198 84.2458 30.1363 84.3097 29.8167C85.7799 30.1363 87.186 30.3281 88.6562 30.456C89.4872 31.6065 90.446 32.7571 91.4049 33.8437C91.2131 34.0355 91.0213 34.2272 90.8295 34.419ZM92.3636 32.8849C91.7244 32.1818 91.0852 31.4147 90.446 30.5198C91.0852 30.5837 91.7244 30.5837 92.3636 30.5837C93.0028 30.5837 93.642 30.5837 94.2812 30.5198C93.706 31.3508 93.0667 32.1178 92.3636 32.8849ZM100.737 34.8026C100.673 35.5696 100.29 36.2727 99.7145 36.7841C98.6917 37.3594 96.5185 36.5923 94.1534 34.6108C93.8977 34.3551 93.642 34.0994 93.3224 33.8437C94.3451 32.7571 95.2401 31.6704 96.071 30.456C97.5412 30.3281 98.9474 30.0724 100.418 29.7528C100.482 30.0085 100.545 30.2642 100.609 30.5198C100.865 31.9261 100.929 33.3962 100.737 34.8026ZM101.888 27.8991C101.696 27.963 101.568 28.0269 101.376 28.0909C100.929 26.6846 100.354 25.3423 99.7145 24C100.354 22.7216 100.865 21.3792 101.312 19.973C101.632 20.1008 101.952 20.1647 102.271 20.2926C105.212 21.3153 107.321 22.8494 107.321 24C107.321 25.2144 105.084 26.8764 101.888 27.8991ZM92.3636 26.9403C93.9617 26.9403 95.2401 25.6619 95.2401 24C95.2401 22.4019 93.9617 21.1235 92.3636 21.1235C90.7017 21.1235 89.4233 22.4019 89.4233 24C89.4233 25.6619 90.7017 26.9403 92.3636 26.9403Z" fill="#4F5B5E"/>
</g>
<rect x="136.5" y="0.5" width="47" height="47" rx="2.5" stroke="#4F5B5E"/>
<path d="M144.815 58.242V59.278H140.573V62.568H144.017V63.604H140.573V68H139.299V58.242H144.815ZM147.627 57.64V68H146.353V57.64H147.627ZM156.603 60.328V68H155.329V66.866C155.086 67.258 154.745 67.566 154.307 67.79C153.877 68.0047 153.401 68.112 152.879 68.112C152.281 68.112 151.745 67.9907 151.269 67.748C150.793 67.496 150.415 67.1227 150.135 66.628C149.864 66.1333 149.729 65.5313 149.729 64.822V60.328H150.989V64.654C150.989 65.41 151.18 65.9933 151.563 66.404C151.945 66.8053 152.468 67.006 153.131 67.006C153.812 67.006 154.349 66.796 154.741 66.376C155.133 65.956 155.329 65.3447 155.329 64.542V60.328H156.603ZM160.308 61.378V65.9C160.308 66.2733 160.387 66.5393 160.546 66.698C160.704 66.8473 160.98 66.922 161.372 66.922H162.31V68H161.162C160.452 68 159.92 67.8367 159.566 67.51C159.211 67.1833 159.034 66.6467 159.034 65.9V61.378H158.04V60.328H159.034V58.396H160.308V60.328H162.31V61.378H160.308ZM165.407 61.378V65.9C165.407 66.2733 165.487 66.5393 165.645 66.698C165.804 66.8473 166.079 66.922 166.471 66.922H167.409V68H166.261C165.552 68 165.02 67.8367 164.665 67.51C164.311 67.1833 164.133 66.6467 164.133 65.9V61.378H163.139V60.328H164.133V58.396H165.407V60.328H167.409V61.378H165.407ZM175.953 63.87C175.953 64.1127 175.939 64.3693 175.911 64.64H169.779C169.826 65.396 170.082 65.9887 170.549 66.418C171.025 66.838 171.599 67.048 172.271 67.048C172.822 67.048 173.279 66.922 173.643 66.67C174.016 66.4087 174.278 66.0633 174.427 65.634H175.799C175.594 66.3713 175.183 66.9733 174.567 67.44C173.951 67.8973 173.186 68.126 172.271 68.126C171.543 68.126 170.89 67.9627 170.311 67.636C169.742 67.3093 169.294 66.8473 168.967 66.25C168.64 65.6433 168.477 64.9433 168.477 64.15C168.477 63.3567 168.636 62.6613 168.953 62.064C169.27 61.4667 169.714 61.0093 170.283 60.692C170.862 60.3653 171.524 60.202 172.271 60.202C172.999 60.202 173.643 60.3607 174.203 60.678C174.763 60.9953 175.192 61.434 175.491 61.994C175.799 62.5447 175.953 63.17 175.953 63.87ZM174.637 63.604C174.637 63.1187 174.53 62.7033 174.315 62.358C174.1 62.0033 173.806 61.7373 173.433 61.56C173.069 61.3733 172.663 61.28 172.215 61.28C171.571 61.28 171.02 61.4853 170.563 61.896C170.115 62.3067 169.858 62.876 169.793 63.604H174.637ZM178.909 61.574C179.133 61.1353 179.45 60.7947 179.861 60.552C180.281 60.3093 180.789 60.188 181.387 60.188V61.504H181.051C179.623 61.504 178.909 62.2787 178.909 63.828V68H177.635V60.328H178.909V61.574Z" fill="#4F5B5E"/>
<g clip-path="url(#clip1_608_3333)">
<path d="M159.542 9.01024L168.838 9L153.242 24.5877L149.178 28.6295L144.553 23.9993L159.542 9.01024ZM159.456 22.9282C159.576 22.7688 159.798 22.8474 159.967 22.8269L168.83 22.8292L160.752 30.8991L156.104 26.2791L159.456 22.9282Z" fill="#4F5B5E"/>
<path d="M151.474 30.9065L156.108 26.2786L160.756 30.8985L160.775 30.919L156.109 35.5424L151.474 30.9065Z" fill="#4F5B5E"/>
<path d="M156.103 35.544L160.77 30.9207L168.832 38.9905C165.795 38.9973 162.759 38.9882 159.724 38.9951C159.551 39.0337 159.444 38.8756 159.333 38.7777L156.103 35.544Z" fill="#4F5B5E"/>
</g>
<rect x="204.5" y="0.5" width="47" height="47" rx="2.5" stroke="#4F5B5E"/>
<path d="M222.34 61.098C222.34 61.91 222.06 62.5867 221.5 63.128C220.95 63.66 220.105 63.926 218.966 63.926H217.09V68H215.816V58.242H218.966C220.068 58.242 220.903 58.508 221.472 59.04C222.051 59.572 222.34 60.258 222.34 61.098ZM218.966 62.876C219.676 62.876 220.198 62.722 220.534 62.414C220.87 62.106 221.038 61.6673 221.038 61.098C221.038 59.894 220.348 59.292 218.966 59.292H217.09V62.876H218.966ZM227.732 60.188C228.31 60.188 228.833 60.314 229.3 60.566C229.766 60.8087 230.13 61.1773 230.392 61.672C230.662 62.1667 230.798 62.7687 230.798 63.478V68H229.538V63.66C229.538 62.8947 229.346 62.3113 228.964 61.91C228.581 61.4993 228.058 61.294 227.396 61.294C226.724 61.294 226.187 61.504 225.786 61.924C225.394 62.344 225.198 62.9553 225.198 63.758V68H223.924V57.64H225.198V61.42C225.45 61.028 225.795 60.7247 226.234 60.51C226.682 60.2953 227.181 60.188 227.732 60.188ZM234.153 61.742C234.405 61.3033 234.778 60.9393 235.273 60.65C235.777 60.3513 236.36 60.202 237.023 60.202C237.704 60.202 238.32 60.3653 238.871 60.692C239.431 61.0187 239.869 61.4807 240.187 62.078C240.504 62.666 240.663 63.352 240.663 64.136C240.663 64.9107 240.504 65.6013 240.187 66.208C239.869 66.8147 239.431 67.286 238.871 67.622C238.32 67.958 237.704 68.126 237.023 68.126C236.369 68.126 235.791 67.9813 235.287 67.692C234.792 67.3933 234.414 67.0247 234.153 66.586V71.64H232.879V60.328H234.153V61.742ZM239.361 64.136C239.361 63.5573 239.244 63.0533 239.011 62.624C238.777 62.1947 238.46 61.868 238.059 61.644C237.667 61.42 237.233 61.308 236.757 61.308C236.29 61.308 235.856 61.4247 235.455 61.658C235.063 61.882 234.745 62.2133 234.503 62.652C234.269 63.0813 234.153 63.5807 234.153 64.15C234.153 64.7287 234.269 65.2373 234.503 65.676C234.745 66.1053 235.063 66.4367 235.455 66.67C235.856 66.894 236.29 67.006 236.757 67.006C237.233 67.006 237.667 66.894 238.059 66.67C238.46 66.4367 238.777 66.1053 239.011 65.676C239.244 65.2373 239.361 64.724 239.361 64.136Z" fill="#4F5B5E"/>
<g clip-path="url(#clip2_608_3333)">
<g clip-path="url(#clip3_608_3333)">
<path d="M230 16.9219C238.016 16.9219 244.203 20.2969 244.203 24C244.203 27.75 238.016 31.125 230 31.125C221.938 31.125 215.75 27.75 215.75 24C215.75 20.2969 221.938 16.9219 230 16.9219ZM230 16.125C221.703 16.125 215 19.6406 215 24C215 28.3594 221.703 31.9219 230 31.9219C238.25 31.9219 245 28.3594 245 24C245 19.6406 238.25 16.125 230 16.125ZM225.219 23.3906C224.844 25.2656 223.531 25.0781 221.938 25.0781L222.547 21.7969C224.328 21.7969 225.547 21.6094 225.219 23.3906ZM219.547 28.4531H221.281L221.656 26.3438C223.578 26.3438 224.797 26.4844 225.922 25.4531C227.141 24.3281 227.422 22.3125 226.578 21.3281C226.109 20.8125 225.406 20.5312 224.375 20.5312H221.094L219.547 28.4531ZM228.266 18.4219L226.719 26.3438H228.406L229.297 21.7969C230.703 21.7969 231.266 21.75 231.547 22.0312C231.781 22.3125 231.641 22.5938 230.938 26.3438H232.672C233.422 22.5 233.75 21.6562 233.047 21.0469C232.391 20.4375 231.031 20.5312 229.531 20.5312L229.953 18.4219H228.266ZM238.672 23.3906C238.297 25.3125 236.938 25.0781 235.344 25.0781L236 21.7969C237.781 21.7969 239 21.6094 238.672 23.3906ZM233 28.4531H234.734L235.109 26.3438C237.125 26.3438 238.25 26.4375 239.328 25.4531C240.594 24.3281 240.875 22.3125 240.031 21.3281C239.562 20.8125 238.812 20.5312 237.828 20.5312H234.547L233 28.4531Z" fill="#4F5B5E"/>
</g>
</g>
<defs>
<clipPath id="clip0_608_3333">
<rect width="32.7273" height="30" fill="white" transform="translate(76 9)"/>
</clipPath>
<clipPath id="clip1_608_3333">
<rect width="25" height="30" fill="white" transform="translate(144 9)"/>
</clipPath>
<clipPath id="clip2_608_3333">
<rect width="32.7273" height="30" fill="white" transform="translate(212 9)"/>
</clipPath>
<clipPath id="clip3_608_3333">
<rect width="30" height="16" fill="white" transform="translate(215 16)"/>
</clipPath>
</defs>
</svg>
