<svg width="184" height="89" viewBox="0 0 184 89" fill="none" xmlns="http://www.w3.org/2000/svg">
<rect x="0.5" y="0.5" width="47" height="47" rx="2.5" stroke="#819296"/>
<path d="M8.67115 58.242V59.278H4.42915V62.568H7.87315V63.604H4.42915V68H3.15515V58.242H8.67115ZM10.8678 59.082C10.6252 59.082 10.4198 58.998 10.2518 58.83C10.0838 58.662 9.99984 58.4567 9.99984 58.214C9.99984 57.9713 10.0838 57.766 10.2518 57.598C10.4198 57.43 10.6252 57.346 10.8678 57.346C11.1012 57.346 11.2972 57.43 11.4558 57.598C11.6238 57.766 11.7078 57.9713 11.7078 58.214C11.7078 58.4567 11.6238 58.662 11.4558 58.83C11.2972 58.998 11.1012 59.082 10.8678 59.082ZM11.4838 60.328V68H10.2098V60.328H11.4838ZM16.8191 60.202C17.4818 60.202 18.0605 60.3467 18.5551 60.636C19.0591 60.9253 19.4325 61.2893 19.6751 61.728V60.328H20.9631V68.168C20.9631 68.868 20.8138 69.4887 20.5151 70.03C20.2165 70.5807 19.7871 71.01 19.2271 71.318C18.6765 71.626 18.0325 71.78 17.2951 71.78C16.2871 71.78 15.4471 71.542 14.7751 71.066C14.1031 70.59 13.7065 69.9413 13.5851 69.12H14.8451C14.9851 69.5867 15.2745 69.96 15.7131 70.24C16.1518 70.5293 16.6791 70.674 17.2951 70.674C17.9951 70.674 18.5645 70.4547 19.0031 70.016C19.4511 69.5773 19.6751 68.9613 19.6751 68.168V66.558C19.4231 67.006 19.0498 67.3793 18.5551 67.678C18.0605 67.9767 17.4818 68.126 16.8191 68.126C16.1378 68.126 15.5171 67.958 14.9571 67.622C14.4065 67.286 13.9725 66.8147 13.6551 66.208C13.3378 65.6013 13.1791 64.9107 13.1791 64.136C13.1791 63.352 13.3378 62.666 13.6551 62.078C13.9725 61.4807 14.4065 61.0187 14.9571 60.692C15.5171 60.3653 16.1378 60.202 16.8191 60.202ZM19.6751 64.15C19.6751 63.5713 19.5585 63.0673 19.3251 62.638C19.0918 62.2087 18.7745 61.882 18.3731 61.658C17.9811 61.4247 17.5471 61.308 17.0711 61.308C16.5951 61.308 16.1611 61.42 15.7691 61.644C15.3771 61.868 15.0645 62.1947 14.8311 62.624C14.5978 63.0533 14.4811 63.5573 14.4811 64.136C14.4811 64.724 14.5978 65.2373 14.8311 65.676C15.0645 66.1053 15.3771 66.4367 15.7691 66.67C16.1611 66.894 16.5951 67.006 17.0711 67.006C17.5471 67.006 17.9811 66.894 18.3731 66.67C18.7745 66.4367 19.0918 66.1053 19.3251 65.676C19.5585 65.2373 19.6751 64.7287 19.6751 64.15ZM32.3421 60.188C32.9394 60.188 33.4714 60.314 33.9381 60.566C34.4048 60.8087 34.7734 61.1773 35.0441 61.672C35.3148 62.1667 35.4501 62.7687 35.4501 63.478V68H34.1901V63.66C34.1901 62.8947 33.9988 62.3113 33.6161 61.91C33.2428 61.4993 32.7341 61.294 32.0901 61.294C31.4274 61.294 30.9001 61.5087 30.5081 61.938C30.1161 62.358 29.9201 62.9693 29.9201 63.772V68H28.6601V63.66C28.6601 62.8947 28.4688 62.3113 28.0861 61.91C27.7128 61.4993 27.2041 61.294 26.5601 61.294C25.8974 61.294 25.3701 61.5087 24.9781 61.938C24.5861 62.358 24.3901 62.9693 24.3901 63.772V68H23.1161V60.328H24.3901V61.434C24.6421 61.0327 24.9781 60.7247 25.3981 60.51C25.8274 60.2953 26.2988 60.188 26.8121 60.188C27.4561 60.188 28.0254 60.3327 28.5201 60.622C29.0148 60.9113 29.3834 61.336 29.6261 61.896C29.8408 61.3547 30.1954 60.9347 30.6901 60.636C31.1848 60.3373 31.7354 60.188 32.3421 60.188ZM37.0639 64.136C37.0639 63.352 37.2226 62.666 37.5399 62.078C37.8572 61.4807 38.2912 61.0187 38.8419 60.692C39.4019 60.3653 40.0226 60.202 40.7039 60.202C41.3759 60.202 41.9592 60.3467 42.4539 60.636C42.9486 60.9253 43.3172 61.2893 43.5599 61.728V60.328H44.8479V68H43.5599V66.572C43.3079 67.02 42.9299 67.3933 42.4259 67.692C41.9312 67.9813 41.3526 68.126 40.6899 68.126C40.0086 68.126 39.3926 67.958 38.8419 67.622C38.2912 67.286 37.8572 66.8147 37.5399 66.208C37.2226 65.6013 37.0639 64.9107 37.0639 64.136ZM43.5599 64.15C43.5599 63.5713 43.4432 63.0673 43.2099 62.638C42.9766 62.2087 42.6592 61.882 42.2579 61.658C41.8659 61.4247 41.4319 61.308 40.9559 61.308C40.4799 61.308 40.0459 61.42 39.6539 61.644C39.2619 61.868 38.9492 62.1947 38.7159 62.624C38.4826 63.0533 38.3659 63.5573 38.3659 64.136C38.3659 64.724 38.4826 65.2373 38.7159 65.676C38.9492 66.1053 39.2619 66.4367 39.6539 66.67C40.0459 66.894 40.4799 67.006 40.9559 67.006C41.4319 67.006 41.8659 66.894 42.2579 66.67C42.6592 66.4367 42.9766 66.1053 43.2099 65.676C43.4432 65.2373 43.5599 64.7287 43.5599 64.15Z" fill="#819296"/>
<path d="M19.1478 38.3198C21.9141 38.3198 24.1592 36.235 24.1592 33.6663V29.0129H19.1478C16.3816 29.0129 14.1365 31.0977 14.1365 33.6663C14.1365 36.235 16.3816 38.3198 19.1478 38.3198Z" fill="#819296"/>
<path d="M14.1365 23.6427C14.1365 21.074 16.3816 18.9893 19.1478 18.9893H24.1592V28.2961H19.1478C16.3816 28.2961 14.1365 26.2113 14.1365 23.6427Z" fill="#819296"/>
<path d="M14.1365 14.3363C14.1365 11.7676 16.3816 9.68286 19.1478 9.68286H24.1592V18.9897H19.1478C16.3816 18.9897 14.1365 16.905 14.1365 14.3363Z" fill="#819296"/>
<path d="M24.1589 9.68286H29.1703C31.9366 9.68286 34.1817 11.7676 34.1817 14.3363C34.1817 16.905 31.9366 18.9897 29.1703 18.9897H24.1589V9.68286Z" fill="#819296"/>
<path d="M34.1817 23.6427C34.1817 26.2113 31.9366 28.2961 29.1703 28.2961C26.404 28.2961 24.1589 26.2113 24.1589 23.6427C24.1589 21.074 26.404 18.9893 29.1703 18.9893C31.9366 18.9893 34.1817 21.074 34.1817 23.6427Z" fill="#819296"/>
<rect x="68.5" y="0.5" width="47" height="47" rx="2.5" stroke="#819296"/>
<path d="M78.0842 68L75.7602 64.01H74.2202V68H72.9462V58.242H76.0962C76.8335 58.242 77.4542 58.368 77.9582 58.62C78.4715 58.872 78.8542 59.2127 79.1062 59.642C79.3582 60.0713 79.4842 60.5613 79.4842 61.112C79.4842 61.784 79.2882 62.3767 78.8962 62.89C78.5135 63.4033 77.9348 63.744 77.1602 63.912L79.6102 68H78.0842ZM74.2202 62.988H76.0962C76.7868 62.988 77.3048 62.82 77.6502 62.484C77.9955 62.1387 78.1682 61.6813 78.1682 61.112C78.1682 60.5333 77.9955 60.0853 77.6502 59.768C77.3142 59.4507 76.7962 59.292 76.0962 59.292H74.2202V62.988ZM88.4637 63.87C88.4637 64.1127 88.4497 64.3693 88.4217 64.64H82.2897C82.3364 65.396 82.5931 65.9887 83.0597 66.418C83.5357 66.838 84.1097 67.048 84.7817 67.048C85.3324 67.048 85.7897 66.922 86.1537 66.67C86.5271 66.4087 86.7884 66.0633 86.9377 65.634H88.3097C88.1044 66.3713 87.6937 66.9733 87.0777 67.44C86.4617 67.8973 85.6964 68.126 84.7817 68.126C84.0537 68.126 83.4004 67.9627 82.8217 67.636C82.2524 67.3093 81.8044 66.8473 81.4777 66.25C81.1511 65.6433 80.9877 64.9433 80.9877 64.15C80.9877 63.3567 81.1464 62.6613 81.4637 62.064C81.7811 61.4667 82.2244 61.0093 82.7937 60.692C83.3724 60.3653 84.0351 60.202 84.7817 60.202C85.5097 60.202 86.1537 60.3607 86.7137 60.678C87.2737 60.9953 87.7031 61.434 88.0017 61.994C88.3097 62.5447 88.4637 63.17 88.4637 63.87ZM87.1477 63.604C87.1477 63.1187 87.0404 62.7033 86.8257 62.358C86.6111 62.0033 86.3171 61.7373 85.9437 61.56C85.5797 61.3733 85.1737 61.28 84.7257 61.28C84.0817 61.28 83.5311 61.4853 83.0737 61.896C82.6257 62.3067 82.3691 62.876 82.3037 63.604H87.1477ZM89.6694 64.136C89.6694 63.352 89.828 62.666 90.1454 62.078C90.4627 61.4807 90.8967 61.0187 91.4474 60.692C92.0074 60.3653 92.628 60.202 93.3094 60.202C93.9814 60.202 94.5647 60.3467 95.0594 60.636C95.554 60.9253 95.9227 61.2893 96.1654 61.728V60.328H97.4534V68H96.1654V66.572C95.9134 67.02 95.5354 67.3933 95.0314 67.692C94.5367 67.9813 93.958 68.126 93.2954 68.126C92.614 68.126 91.998 67.958 91.4474 67.622C90.8967 67.286 90.4627 66.8147 90.1454 66.208C89.828 65.6013 89.6694 64.9107 89.6694 64.136ZM96.1654 64.15C96.1654 63.5713 96.0487 63.0673 95.8154 62.638C95.582 62.2087 95.2647 61.882 94.8634 61.658C94.4714 61.4247 94.0374 61.308 93.5614 61.308C93.0854 61.308 92.6514 61.42 92.2594 61.644C91.8674 61.868 91.5547 62.1947 91.3214 62.624C91.088 63.0533 90.9714 63.5573 90.9714 64.136C90.9714 64.724 91.088 65.2373 91.3214 65.676C91.5547 66.1053 91.8674 66.4367 92.2594 66.67C92.6514 66.894 93.0854 67.006 93.5614 67.006C94.0374 67.006 94.4714 66.894 94.8634 66.67C95.2647 66.4367 95.582 66.1053 95.8154 65.676C96.0487 65.2373 96.1654 64.7287 96.1654 64.15ZM99.1303 64.15C99.1303 63.3567 99.289 62.666 99.6063 62.078C99.9237 61.4807 100.362 61.0187 100.922 60.692C101.492 60.3653 102.14 60.202 102.868 60.202C103.811 60.202 104.586 60.4307 105.192 60.888C105.808 61.3453 106.214 61.98 106.41 62.792H105.038C104.908 62.3253 104.651 61.9567 104.268 61.686C103.895 61.4153 103.428 61.28 102.868 61.28C102.14 61.28 101.552 61.532 101.104 62.036C100.656 62.5307 100.432 63.2353 100.432 64.15C100.432 65.074 100.656 65.788 101.104 66.292C101.552 66.796 102.14 67.048 102.868 67.048C103.428 67.048 103.895 66.9173 104.268 66.656C104.642 66.3947 104.898 66.0213 105.038 65.536H106.41C106.205 66.32 105.794 66.95 105.178 67.426C104.562 67.8927 103.792 68.126 102.868 68.126C102.14 68.126 101.492 67.9627 100.922 67.636C100.362 67.3093 99.9237 66.8473 99.6063 66.25C99.289 65.6527 99.1303 64.9527 99.1303 64.15ZM109.664 61.378V65.9C109.664 66.2733 109.744 66.5393 109.902 66.698C110.061 66.8473 110.336 66.922 110.728 66.922H111.666V68H110.518C109.809 68 109.277 67.8367 108.922 67.51C108.568 67.1833 108.39 66.6467 108.39 65.9V61.378H107.396V60.328H108.39V58.396H109.664V60.328H111.666V61.378H109.664Z" fill="#819296"/>
<g clip-path="url(#clip0_608_3262)">
<path d="M102.719 19.0142C102.335 18.8863 102.016 18.7585 101.696 18.6946C101.696 18.4389 101.76 18.1832 101.824 17.9276C102.591 14.1562 102.08 11.088 100.354 10.0653C98.6917 9.1065 95.9432 10.1292 93.1307 12.5582C92.875 12.75 92.6193 13.0056 92.3636 13.2613C92.1719 13.0696 91.9801 12.9417 91.8523 12.75C88.9119 10.1931 85.9716 9.1065 84.2458 10.1292C82.5838 11.088 82.0724 13.9645 82.7756 17.6079C82.8395 17.9276 82.9034 18.311 83.0312 18.6306C82.5838 18.7585 82.2003 18.8863 81.8168 19.0142C78.429 20.2287 76 22.0823 76 24C76 25.9815 78.5568 28.0269 82.1364 29.2414C82.392 29.3053 82.7116 29.4332 82.9674 29.4971C82.9034 29.8806 82.8395 30.2642 82.7116 30.6477C82.0724 34.1633 82.5838 36.9758 84.2458 37.9346C85.9716 38.9573 88.9119 37.9346 91.7244 35.4417C91.9162 35.25 92.1719 35.0582 92.3636 34.8664C92.6833 35.1221 92.939 35.3778 93.2585 35.6335C96.0071 37.9985 98.6917 38.9573 100.354 37.9985C102.08 36.9758 102.655 33.9716 101.952 30.2642C101.888 30.0085 101.824 29.6889 101.76 29.4332C101.952 29.3693 102.143 29.3053 102.335 29.2414C106.043 28.0269 108.727 26.0454 108.727 24C108.727 22.0823 106.17 20.1647 102.719 19.0142ZM94.0256 13.5809C96.4545 11.4716 98.6278 10.7045 99.6506 11.2798C100.737 11.8551 101.185 14.4119 100.482 17.6719C100.418 17.9276 100.418 18.1193 100.354 18.311C98.8835 17.9914 97.4773 17.7996 96.0071 17.6719C95.1761 16.4573 94.2812 15.3068 93.3224 14.2201C93.5781 14.0284 93.7699 13.7727 94.0256 13.5809ZM86.6747 27.3238C86.9943 27.8991 87.314 28.4105 87.6974 28.9858C86.6747 28.8579 85.652 28.7301 84.6932 28.4744C85.0128 27.5795 85.3324 26.6207 85.7159 25.6619C86.0355 26.2371 86.3551 26.7485 86.6747 27.3238ZM84.6932 19.6534C85.652 19.3977 86.6108 19.2698 87.6335 19.142C87.314 19.6534 86.9943 20.2287 86.6747 20.7401C86.3551 21.3153 86.0355 21.8267 85.7159 22.4019C85.3324 21.4431 85.0128 20.5483 84.6932 19.6534ZM86.483 24.0639C86.8665 23.169 87.3778 22.2741 87.8253 21.4431C88.3367 20.6121 88.848 19.7812 89.4233 18.9503C90.3821 18.8863 91.3409 18.8224 92.3636 18.8224C93.3224 18.8224 94.3451 18.8863 95.2401 18.9503C95.8153 19.7812 96.3267 20.6121 96.8381 21.4431C97.2855 22.2741 97.7969 23.1051 98.1804 24C97.7969 24.8948 97.3494 25.7897 96.8381 26.6207C96.3267 27.4517 95.8153 28.2826 95.304 29.1136C94.3451 29.1776 93.3224 29.2414 92.3636 29.2414C91.3409 29.2414 90.3821 29.1776 89.4233 29.1136C88.848 28.2826 88.3367 27.4517 87.8253 26.6207C87.3778 25.7897 86.9304 24.8948 86.483 24.0639ZM97.9886 27.3238C98.3722 26.7485 98.6278 26.1733 98.9474 25.598C99.331 26.5568 99.7145 27.4517 100.034 28.4105C99.0114 28.6662 98.0526 28.8579 97.0299 28.9219C97.3494 28.4105 97.669 27.8352 97.9886 27.3238ZM98.9474 22.4019C98.6278 21.8267 98.3083 21.3153 97.9886 20.7401C97.669 20.2287 97.3494 19.6534 97.0299 19.142C98.0526 19.2698 99.0753 19.4616 99.9701 19.6534C99.6506 20.6121 99.331 21.5071 98.9474 22.4019ZM92.3636 15.2429C93.0028 15.946 93.642 16.713 94.2174 17.544C93.0028 17.4801 91.7244 17.4801 90.446 17.544C91.0852 16.713 91.7244 15.946 92.3636 15.2429ZM84.9489 11.2798C86.0355 10.7045 88.4006 11.5994 90.8935 13.7727C91.0852 13.9645 91.2131 14.0923 91.4049 14.2201C90.3821 15.3068 89.4872 16.4573 88.6562 17.6719C87.186 17.7996 85.7799 17.9914 84.3735 18.311C84.2458 17.9914 84.1818 17.6719 84.1179 17.2883C83.5426 14.2201 83.9261 11.919 84.9489 11.2798ZM83.3508 28.1548C83.0951 28.0909 82.8395 28.0269 82.5838 27.8991C81.2415 27.4517 79.6435 26.8125 78.5568 25.9176C77.9176 25.4701 77.4702 24.767 77.3423 24C77.3423 22.8494 79.3878 21.3153 82.2642 20.2926C82.6477 20.1647 83.0312 20.1008 83.4148 19.973C83.7983 21.3792 84.3735 22.7216 84.9489 24.0639C84.3097 25.3423 83.7983 26.7485 83.3508 28.1548ZM90.8295 34.419C89.7429 35.3778 88.5284 36.1448 87.186 36.6562C86.483 37.0397 85.7159 37.0397 84.9489 36.7841C83.9261 36.1448 83.5426 33.9076 84.1179 30.9034C84.1818 30.5198 84.2458 30.1363 84.3097 29.8167C85.7799 30.1363 87.186 30.3281 88.6562 30.456C89.4872 31.6065 90.446 32.7571 91.4049 33.8437C91.2131 34.0355 91.0213 34.2272 90.8295 34.419ZM92.3636 32.8849C91.7244 32.1818 91.0852 31.4147 90.446 30.5198C91.0852 30.5837 91.7244 30.5837 92.3636 30.5837C93.0028 30.5837 93.642 30.5837 94.2812 30.5198C93.706 31.3508 93.0667 32.1178 92.3636 32.8849ZM100.737 34.8026C100.673 35.5696 100.29 36.2727 99.7145 36.7841C98.6917 37.3594 96.5185 36.5923 94.1534 34.6108C93.8977 34.3551 93.642 34.0994 93.3224 33.8437C94.3451 32.7571 95.2401 31.6704 96.071 30.456C97.5412 30.3281 98.9474 30.0724 100.418 29.7528C100.482 30.0085 100.545 30.2642 100.609 30.5198C100.865 31.9261 100.929 33.3962 100.737 34.8026ZM101.888 27.8991C101.696 27.963 101.568 28.0269 101.376 28.0909C100.929 26.6846 100.354 25.3423 99.7145 24C100.354 22.7216 100.865 21.3792 101.312 19.973C101.632 20.1008 101.952 20.1647 102.271 20.2926C105.212 21.3153 107.321 22.8494 107.321 24C107.321 25.2144 105.084 26.8764 101.888 27.8991ZM92.3636 26.9403C93.9617 26.9403 95.2401 25.6619 95.2401 24C95.2401 22.4019 93.9617 21.1235 92.3636 21.1235C90.7017 21.1235 89.4233 22.4019 89.4233 24C89.4233 25.6619 90.7017 26.9403 92.3636 26.9403Z" fill="#819296"/>
</g>
<rect x="136.5" y="0.5" width="47" height="47" rx="2.5" stroke="#819296"/>
<path d="M148.895 59.242V66.452C148.895 67.2547 148.648 67.8987 148.153 68.384C147.659 68.86 147.005 69.098 146.193 69.098C145.372 69.098 144.714 68.8553 144.219 68.37C143.725 67.8753 143.477 67.2033 143.477 66.354H144.751C144.761 66.83 144.882 67.2173 145.115 67.516C145.358 67.8147 145.717 67.964 146.193 67.964C146.669 67.964 147.024 67.824 147.257 67.544C147.491 67.2547 147.607 66.8907 147.607 66.452V59.242H148.895ZM150.929 65.136C150.929 64.352 151.088 63.666 151.405 63.078C151.722 62.4807 152.156 62.0187 152.707 61.692C153.267 61.3653 153.888 61.202 154.569 61.202C155.241 61.202 155.824 61.3467 156.319 61.636C156.814 61.9253 157.182 62.2893 157.425 62.728V61.328H158.713V69H157.425V67.572C157.173 68.02 156.795 68.3933 156.291 68.692C155.796 68.9813 155.218 69.126 154.555 69.126C153.874 69.126 153.258 68.958 152.707 68.622C152.156 68.286 151.722 67.8147 151.405 67.208C151.088 66.6013 150.929 65.9107 150.929 65.136ZM157.425 65.15C157.425 64.5713 157.308 64.0673 157.075 63.638C156.842 63.2087 156.524 62.882 156.123 62.658C155.731 62.4247 155.297 62.308 154.821 62.308C154.345 62.308 153.911 62.42 153.519 62.644C153.127 62.868 152.814 63.1947 152.581 63.624C152.348 64.0533 152.231 64.5573 152.231 65.136C152.231 65.724 152.348 66.2373 152.581 66.676C152.814 67.1053 153.127 67.4367 153.519 67.67C153.911 67.894 154.345 68.006 154.821 68.006C155.297 68.006 155.731 67.894 156.123 67.67C156.524 67.4367 156.842 67.1053 157.075 66.676C157.308 66.2373 157.425 65.7287 157.425 65.15ZM163.722 67.824L166.102 61.328H167.46L164.45 69H162.966L159.956 61.328H161.328L163.722 67.824ZM168.238 65.136C168.238 64.352 168.396 63.666 168.714 63.078C169.031 62.4807 169.465 62.0187 170.016 61.692C170.576 61.3653 171.196 61.202 171.878 61.202C172.55 61.202 173.133 61.3467 173.628 61.636C174.122 61.9253 174.491 62.2893 174.734 62.728V61.328H176.022V69H174.734V67.572C174.482 68.02 174.104 68.3933 173.6 68.692C173.105 68.9813 172.526 69.126 171.864 69.126C171.182 69.126 170.566 68.958 170.016 68.622C169.465 68.286 169.031 67.8147 168.714 67.208C168.396 66.6013 168.238 65.9107 168.238 65.136ZM174.734 65.15C174.734 64.5713 174.617 64.0673 174.384 63.638C174.15 63.2087 173.833 62.882 173.432 62.658C173.04 62.4247 172.606 62.308 172.13 62.308C171.654 62.308 171.22 62.42 170.828 62.644C170.436 62.868 170.123 63.1947 169.89 63.624C169.656 64.0533 169.54 64.5573 169.54 65.136C169.54 65.724 169.656 66.2373 169.89 66.676C170.123 67.1053 170.436 67.4367 170.828 67.67C171.22 67.894 171.654 68.006 172.13 68.006C172.606 68.006 173.04 67.894 173.432 67.67C173.833 67.4367 174.15 67.1053 174.384 66.676C174.617 66.2373 174.734 65.7287 174.734 65.15ZM144.197 85.098C143.553 85.098 142.975 84.986 142.461 84.762C141.957 84.5287 141.561 84.2113 141.271 83.81C140.982 83.3993 140.833 82.928 140.823 82.396H142.181C142.228 82.8533 142.415 83.2407 142.741 83.558C143.077 83.866 143.563 84.02 144.197 84.02C144.804 84.02 145.28 83.8707 145.625 83.572C145.98 83.264 146.157 82.872 146.157 82.396C146.157 82.0227 146.055 81.7193 145.849 81.486C145.644 81.2527 145.387 81.0753 145.079 80.954C144.771 80.8327 144.356 80.702 143.833 80.562C143.189 80.394 142.671 80.226 142.279 80.058C141.897 79.89 141.565 79.6287 141.285 79.274C141.015 78.91 140.879 78.4247 140.879 77.818C140.879 77.286 141.015 76.8147 141.285 76.404C141.556 75.9933 141.934 75.676 142.419 75.452C142.914 75.228 143.479 75.116 144.113 75.116C145.028 75.116 145.775 75.3447 146.353 75.802C146.941 76.2593 147.273 76.866 147.347 77.622H145.947C145.901 77.2487 145.705 76.922 145.359 76.642C145.014 76.3527 144.557 76.208 143.987 76.208C143.455 76.208 143.021 76.348 142.685 76.628C142.349 76.8987 142.181 77.2813 142.181 77.776C142.181 78.1307 142.279 78.42 142.475 78.644C142.681 78.868 142.928 79.0407 143.217 79.162C143.516 79.274 143.931 79.4047 144.463 79.554C145.107 79.7313 145.625 79.9087 146.017 80.086C146.409 80.254 146.745 80.52 147.025 80.884C147.305 81.2387 147.445 81.724 147.445 82.34C147.445 82.816 147.319 83.264 147.067 83.684C146.815 84.104 146.442 84.4447 145.947 84.706C145.453 84.9673 144.869 85.098 144.197 85.098ZM148.844 81.15C148.844 80.3567 149.003 79.666 149.32 79.078C149.638 78.4807 150.076 78.0187 150.636 77.692C151.206 77.3653 151.854 77.202 152.582 77.202C153.525 77.202 154.3 77.4307 154.906 77.888C155.522 78.3453 155.928 78.98 156.124 79.792H154.752C154.622 79.3253 154.365 78.9567 153.982 78.686C153.609 78.4153 153.142 78.28 152.582 78.28C151.854 78.28 151.266 78.532 150.818 79.036C150.37 79.5307 150.146 80.2353 150.146 81.15C150.146 82.074 150.37 82.788 150.818 83.292C151.266 83.796 151.854 84.048 152.582 84.048C153.142 84.048 153.609 83.9173 153.982 83.656C154.356 83.3947 154.612 83.0213 154.752 82.536H156.124C155.919 83.32 155.508 83.95 154.892 84.426C154.276 84.8927 153.506 85.126 152.582 85.126C151.854 85.126 151.206 84.9627 150.636 84.636C150.076 84.3093 149.638 83.8473 149.32 83.25C149.003 82.6527 148.844 81.9527 148.844 81.15ZM159.098 78.574C159.322 78.1353 159.639 77.7947 160.05 77.552C160.47 77.3093 160.979 77.188 161.576 77.188V78.504H161.24C159.812 78.504 159.098 79.2787 159.098 80.828V85H157.824V77.328H159.098V78.574ZM163.705 76.082C163.462 76.082 163.257 75.998 163.089 75.83C162.921 75.662 162.837 75.4567 162.837 75.214C162.837 74.9713 162.921 74.766 163.089 74.598C163.257 74.43 163.462 74.346 163.705 74.346C163.938 74.346 164.134 74.43 164.293 74.598C164.461 74.766 164.545 74.9713 164.545 75.214C164.545 75.4567 164.461 75.662 164.293 75.83C164.134 75.998 163.938 76.082 163.705 76.082ZM164.321 77.328V85H163.047V77.328H164.321ZM167.766 78.742C168.018 78.3033 168.391 77.9393 168.886 77.65C169.39 77.3513 169.973 77.202 170.636 77.202C171.317 77.202 171.933 77.3653 172.484 77.692C173.044 78.0187 173.483 78.4807 173.8 79.078C174.117 79.666 174.276 80.352 174.276 81.136C174.276 81.9107 174.117 82.6013 173.8 83.208C173.483 83.8147 173.044 84.286 172.484 84.622C171.933 84.958 171.317 85.126 170.636 85.126C169.983 85.126 169.404 84.9813 168.9 84.692C168.405 84.3933 168.027 84.0247 167.766 83.586V88.64H166.492V77.328H167.766V78.742ZM172.974 81.136C172.974 80.5573 172.857 80.0533 172.624 79.624C172.391 79.1947 172.073 78.868 171.672 78.644C171.28 78.42 170.846 78.308 170.37 78.308C169.903 78.308 169.469 78.4247 169.068 78.658C168.676 78.882 168.359 79.2133 168.116 79.652C167.883 80.0813 167.766 80.5807 167.766 81.15C167.766 81.7287 167.883 82.2373 168.116 82.676C168.359 83.1053 168.676 83.4367 169.068 83.67C169.469 83.894 169.903 84.006 170.37 84.006C170.846 84.006 171.28 83.894 171.672 83.67C172.073 83.4367 172.391 83.1053 172.624 82.676C172.857 82.2373 172.974 81.724 172.974 81.136ZM177.507 78.378V82.9C177.507 83.2733 177.586 83.5393 177.745 83.698C177.904 83.8473 178.179 83.922 178.571 83.922H179.509V85H178.361C177.652 85 177.12 84.8367 176.765 84.51C176.41 84.1833 176.233 83.6467 176.233 82.9V78.378H175.239V77.328H176.233V75.396H177.507V77.328H179.509V78.378H177.507Z" fill="#819296"/>
<g clip-path="url(#clip1_608_3262)">
<g clip-path="url(#clip2_608_3262)">
<path d="M147 11L149.277 37.5179L159.857 41L170.371 37.5179L172.714 11H147ZM167.96 16.3571L167.625 19.5714L159.924 22.8527H159.857H167.357L166.487 32.6964L159.924 34.5714L153.295 32.6294L152.893 27.6741H156.107L156.375 30.2857L159.857 31.1563L163.54 30.1518L163.808 26L152.625 25.933L152.424 22.8527L159.924 19.7054L160.326 19.5714H152.089L151.687 16.3571H167.96Z" fill="#819296"/>
</g>
</g>
<defs>
<clipPath id="clip0_608_3262">
<rect width="32.7273" height="30" fill="white" transform="translate(76 9)"/>
</clipPath>
<clipPath id="clip1_608_3262">
<rect width="32.7273" height="30" fill="white" transform="translate(144 9)"/>
</clipPath>
<clipPath id="clip2_608_3262">
<rect width="25.7143" height="30" fill="white" transform="translate(147 11)"/>
</clipPath>
</defs>
</svg>
