<svg width="80" height="102" viewBox="0 0 80 102" fill="none" xmlns="http://www.w3.org/2000/svg">
<rect width="80" height="80" rx="10" fill="white"/>
<path d="M26.978 95.114C26.978 94.162 27.1926 93.308 27.622 92.552C28.0513 91.7867 28.6346 91.1893 29.372 90.76C30.1186 90.3307 30.9446 90.116 31.85 90.116C32.914 90.116 33.8426 90.3727 34.636 90.886C35.4293 91.3993 36.008 92.1273 36.372 93.07H34.846C34.5753 92.482 34.1833 92.0293 33.67 91.712C33.166 91.3947 32.5593 91.236 31.85 91.236C31.1686 91.236 30.5573 91.3947 30.016 91.712C29.4746 92.0293 29.05 92.482 28.742 93.07C28.434 93.6487 28.28 94.33 28.28 95.114C28.28 95.8887 28.434 96.57 28.742 97.158C29.05 97.7367 29.4746 98.1847 30.016 98.502C30.5573 98.8193 31.1686 98.978 31.85 98.978C32.5593 98.978 33.166 98.824 33.67 98.516C34.1833 98.1987 34.5753 97.746 34.846 97.158H36.372C36.008 98.0913 35.4293 98.8147 34.636 99.328C33.8426 99.832 32.914 100.084 31.85 100.084C30.9446 100.084 30.1186 99.874 29.372 99.454C28.6346 99.0247 28.0513 98.432 27.622 97.676C27.1926 96.92 26.978 96.066 26.978 95.114ZM41.3624 100.098C40.7184 100.098 40.1398 99.986 39.6264 99.762C39.1224 99.5287 38.7258 99.2113 38.4364 98.81C38.1471 98.3993 37.9978 97.928 37.9884 97.396H39.3464C39.3931 97.8533 39.5798 98.2407 39.9064 98.558C40.2424 98.866 40.7278 99.02 41.3624 99.02C41.9691 99.02 42.4451 98.8707 42.7904 98.572C43.1451 98.264 43.3224 97.872 43.3224 97.396C43.3224 97.0227 43.2198 96.7193 43.0144 96.486C42.8091 96.2527 42.5524 96.0753 42.2444 95.954C41.9364 95.8327 41.5211 95.702 40.9984 95.562C40.3544 95.394 39.8364 95.226 39.4444 95.058C39.0618 94.89 38.7304 94.6287 38.4504 94.274C38.1798 93.91 38.0444 93.4247 38.0444 92.818C38.0444 92.286 38.1798 91.8147 38.4504 91.404C38.7211 90.9933 39.0991 90.676 39.5844 90.452C40.0791 90.228 40.6438 90.116 41.2784 90.116C42.1931 90.116 42.9398 90.3447 43.5184 90.802C44.1064 91.2593 44.4378 91.866 44.5124 92.622H43.1124C43.0658 92.2487 42.8698 91.922 42.5244 91.642C42.1791 91.3527 41.7218 91.208 41.1524 91.208C40.6204 91.208 40.1864 91.348 39.8504 91.628C39.5144 91.8987 39.3464 92.2813 39.3464 92.776C39.3464 93.1307 39.4444 93.42 39.6404 93.644C39.8458 93.868 40.0931 94.0407 40.3824 94.162C40.6811 94.274 41.0964 94.4047 41.6284 94.554C42.2724 94.7313 42.7904 94.9087 43.1824 95.086C43.5744 95.254 43.9104 95.52 44.1904 95.884C44.4704 96.2387 44.6104 96.724 44.6104 97.34C44.6104 97.816 44.4844 98.264 44.2324 98.684C43.9804 99.104 43.6071 99.4447 43.1124 99.706C42.6178 99.9673 42.0344 100.098 41.3624 100.098ZM49.5792 100.098C48.9352 100.098 48.3566 99.986 47.8432 99.762C47.3392 99.5287 46.9426 99.2113 46.6532 98.81C46.3639 98.3993 46.2146 97.928 46.2052 97.396H47.5632C47.6099 97.8533 47.7966 98.2407 48.1232 98.558C48.4592 98.866 48.9446 99.02 49.5792 99.02C50.1859 99.02 50.6619 98.8707 51.0072 98.572C51.3619 98.264 51.5392 97.872 51.5392 97.396C51.5392 97.0227 51.4366 96.7193 51.2312 96.486C51.0259 96.2527 50.7692 96.0753 50.4612 95.954C50.1532 95.8327 49.7379 95.702 49.2152 95.562C48.5712 95.394 48.0532 95.226 47.6612 95.058C47.2786 94.89 46.9472 94.6287 46.6672 94.274C46.3966 93.91 46.2612 93.4247 46.2612 92.818C46.2612 92.286 46.3966 91.8147 46.6672 91.404C46.9379 90.9933 47.3159 90.676 47.8012 90.452C48.2959 90.228 48.8606 90.116 49.4952 90.116C50.4099 90.116 51.1566 90.3447 51.7352 90.802C52.3232 91.2593 52.6546 91.866 52.7292 92.622H51.3292C51.2826 92.2487 51.0866 91.922 50.7412 91.642C50.3959 91.3527 49.9386 91.208 49.3692 91.208C48.8372 91.208 48.4032 91.348 48.0672 91.628C47.7312 91.8987 47.5632 92.2813 47.5632 92.776C47.5632 93.1307 47.6612 93.42 47.8572 93.644C48.0626 93.868 48.3099 94.0407 48.5992 94.162C48.8979 94.274 49.3132 94.4047 49.8452 94.554C50.4892 94.7313 51.0072 94.9087 51.3992 95.086C51.7912 95.254 52.1272 95.52 52.4072 95.884C52.6872 96.2387 52.8272 96.724 52.8272 97.34C52.8272 97.816 52.7012 98.264 52.4492 98.684C52.1972 99.104 51.8239 99.4447 51.3292 99.706C50.8346 99.9673 50.2512 100.098 49.5792 100.098Z" fill="#4F5B5E"/>
<g clip-path="url(#clip0_608_3390)">
<path d="M56.5 19H23.5C20.9688 19 19 21.0625 19 23.5V56.5C19 59.0312 20.9688 61 23.5 61H56.5C58.9375 61 61 59.0312 61 56.5V23.5C61 21.0625 58.9375 19 56.5 19ZM41.7812 51.8125C41.7812 55.8438 39.4375 57.7188 35.875 57.7188C32.7812 57.7188 30.9062 56.125 29.9688 54.1562L33.25 52.1875C33.8125 53.3125 34.375 54.25 35.7812 54.25C37 54.25 37.8438 53.6875 37.8438 51.7188V38.3125H41.7812V51.8125ZM51.1562 57.7188C47.5 57.7188 45.1562 56.0312 43.9375 53.6875L47.2188 51.9062C48.0625 53.2188 49.0938 54.25 51.0625 54.25C52.6562 54.25 53.7812 53.4062 53.7812 52.2812C53.7812 50.9688 52.6562 50.5 50.875 49.6562L49.8438 49.2812C47.0312 48.0625 45.1562 46.5625 45.1562 43.2812C45.1562 40.375 47.4062 38.125 50.9688 38.125C53.4062 38.125 55.2812 38.9688 56.5 41.2188L53.5 43.1875C52.75 42.0625 52.0938 41.5 50.875 41.5C49.75 41.5 49 42.25 49 43.1875C49 44.4062 49.75 44.875 51.4375 45.625L52.4688 46.0938C55.8438 47.5 57.7188 49 57.7188 52.2812C57.7188 55.8438 54.9062 57.7188 51.1562 57.7188Z" fill="#819296"/>
</g>
<defs>
<clipPath id="clip0_608_3390">
<rect width="42" height="42" fill="white" transform="translate(19 19)"/>
</clipPath>
</defs>
</svg>
