<svg width="280" height="62" viewBox="0 0 280 62" fill="none" xmlns="http://www.w3.org/2000/svg">
<path opacity="0.5" d="M6.676 5.998V3.6H17.412V5.998H13.342V19H10.724V5.998H6.676ZM21.9199 1.84V19H19.5439V1.84H21.9199ZM26.0559 12.84C26.0559 12.092 25.9019 11.5273 25.5939 11.146C25.3006 10.7647 24.8239 10.574 24.1639 10.574C23.7239 10.574 23.3353 10.6693 22.9979 10.86C22.6606 11.0507 22.3966 11.3147 22.2059 11.652C22.0153 11.9893 21.9199 12.3853 21.9199 12.84H21.3479C21.3479 12.0333 21.4946 11.3147 21.7879 10.684C22.0813 10.0533 22.4919 9.54733 23.0199 9.166C23.5626 8.78467 24.2153 8.594 24.9779 8.594C25.7259 8.594 26.3566 8.74067 26.8699 9.034C27.3979 9.32733 27.7939 9.76733 28.0579 10.354C28.3219 10.926 28.4539 11.6447 28.4539 12.51V19H26.0559V12.84ZM31.8198 4.854C31.8198 4.44333 31.9664 4.09867 32.2598 3.82C32.5678 3.54133 32.9198 3.402 33.3158 3.402C33.7411 3.402 34.0931 3.54133 34.3718 3.82C34.6651 4.09867 34.8118 4.44333 34.8118 4.854C34.8118 5.25 34.6651 5.59467 34.3718 5.888C34.0931 6.16667 33.7411 6.306 33.3158 6.306C32.9198 6.306 32.5678 6.16667 32.2598 5.888C31.9664 5.59467 31.8198 5.25 31.8198 4.854ZM32.1498 8.88H34.4818V19H32.1498V8.88ZM44.7035 12.84C44.7035 12.092 44.5495 11.5273 44.2415 11.146C43.9335 10.7647 43.4568 10.574 42.8115 10.574C42.3715 10.574 41.9828 10.6693 41.6455 10.86C41.3082 11.036 41.0442 11.3 40.8535 11.652C40.6628 11.9893 40.5675 12.3853 40.5675 12.84V19H38.1915V8.88H40.5675V10.442C40.8902 9.84067 41.3008 9.39333 41.7995 9.1C42.3128 8.80667 42.9215 8.66 43.6255 8.66C44.7695 8.66 45.6422 9.012 46.2435 9.716C46.8448 10.4053 47.1455 11.3587 47.1455 12.576V19H44.7035V12.84ZM50.5318 1.84H52.8638V19H50.5318V1.84ZM56.5818 8.88H59.4858L55.1298 13.06L59.9258 19H57.0438L52.2038 13.06L56.5818 8.88Z" fill="#CDD4D5"/>
<rect x="70.5" y="6" width="10" height="10" fill="#836663"/>
<path opacity="0.5" d="M92.216 3.6H94.856V19H92.216V3.6ZM97.188 19H93.822V16.558H97.122C97.8847 16.558 98.5887 16.448 99.234 16.228C99.8793 16.008 100.437 15.678 100.906 15.238C101.39 14.798 101.764 14.248 102.028 13.588C102.307 12.928 102.446 12.1653 102.446 11.3C102.446 10.4347 102.307 9.672 102.028 9.012C101.764 8.352 101.39 7.802 100.906 7.362C100.437 6.922 99.8793 6.592 99.234 6.372C98.5887 6.152 97.8847 6.042 97.122 6.042H93.822V3.6H97.188C98.7573 3.6 100.136 3.92267 101.324 4.568C102.512 5.19867 103.436 6.09333 104.096 7.252C104.771 8.396 105.108 9.74533 105.108 11.3C105.108 12.8547 104.771 14.2113 104.096 15.37C103.436 16.514 102.512 17.4087 101.324 18.054C100.136 18.6847 98.7573 19 97.188 19ZM112.284 19.22C111.257 19.22 110.348 19 109.556 18.56C108.778 18.12 108.177 17.504 107.752 16.712C107.326 15.92 107.114 14.996 107.114 13.94C107.114 12.8693 107.326 11.938 107.752 11.146C108.192 10.354 108.808 9.74533 109.6 9.32C110.392 8.88 111.323 8.66 112.394 8.66C113.464 8.66 114.374 8.86533 115.122 9.276C115.87 9.68667 116.442 10.2807 116.838 11.058C117.248 11.8207 117.454 12.7447 117.454 13.83C117.454 13.9473 117.446 14.072 117.432 14.204C117.432 14.336 117.424 14.4313 117.41 14.49H108.522V12.862H115.386L114.66 13.874C114.704 13.786 114.748 13.6687 114.792 13.522C114.85 13.3607 114.88 13.2287 114.88 13.126C114.88 12.5833 114.77 12.114 114.55 11.718C114.344 11.322 114.051 11.014 113.67 10.794C113.303 10.574 112.87 10.464 112.372 10.464C111.77 10.464 111.257 10.596 110.832 10.86C110.406 11.124 110.084 11.5053 109.864 12.004C109.644 12.5027 109.526 13.1187 109.512 13.852C109.512 14.5853 109.622 15.2087 109.842 15.722C110.062 16.2207 110.384 16.602 110.81 16.866C111.25 17.13 111.778 17.262 112.394 17.262C113.039 17.262 113.604 17.13 114.088 16.866C114.572 16.602 114.975 16.1987 115.298 15.656L117.344 16.492C116.816 17.4013 116.134 18.0833 115.298 18.538C114.462 18.9927 113.457 19.22 112.284 19.22ZM120.624 15.678C120.946 16.03 121.269 16.338 121.592 16.602C121.929 16.8513 122.266 17.042 122.604 17.174C122.941 17.2913 123.278 17.35 123.616 17.35C124.041 17.35 124.371 17.2547 124.606 17.064C124.855 16.8733 124.98 16.6093 124.98 16.272C124.98 15.9787 124.884 15.7293 124.694 15.524C124.503 15.304 124.239 15.1207 123.902 14.974C123.564 14.8127 123.168 14.6513 122.714 14.49C122.259 14.314 121.804 14.1087 121.35 13.874C120.91 13.6247 120.543 13.302 120.25 12.906C119.971 12.51 119.832 12.0113 119.832 11.41C119.832 10.794 119.986 10.2807 120.294 9.87C120.616 9.45933 121.042 9.15867 121.57 8.968C122.112 8.76267 122.692 8.66 123.308 8.66C123.865 8.66 124.386 8.74067 124.87 8.902C125.368 9.06333 125.816 9.276 126.212 9.54C126.608 9.804 126.945 10.1047 127.224 10.442L125.904 11.85C125.566 11.454 125.163 11.1313 124.694 10.882C124.224 10.6327 123.74 10.508 123.242 10.508C122.904 10.508 122.626 10.5813 122.406 10.728C122.186 10.8747 122.076 11.0873 122.076 11.366C122.076 11.6007 122.171 11.8133 122.362 12.004C122.567 12.18 122.831 12.3413 123.154 12.488C123.491 12.6347 123.865 12.7887 124.276 12.95C124.833 13.17 125.346 13.412 125.816 13.676C126.285 13.94 126.659 14.2627 126.938 14.644C127.231 15.0253 127.378 15.524 127.378 16.14C127.378 17.0933 127.048 17.8633 126.388 18.45C125.742 19.022 124.862 19.308 123.748 19.308C123.058 19.308 122.42 19.2053 121.834 19C121.262 18.78 120.756 18.5013 120.316 18.164C119.89 17.812 119.531 17.4453 119.238 17.064L120.624 15.678ZM129.838 4.854C129.838 4.44333 129.985 4.09867 130.278 3.82C130.586 3.54133 130.938 3.402 131.334 3.402C131.759 3.402 132.111 3.54133 132.39 3.82C132.683 4.09867 132.83 4.44333 132.83 4.854C132.83 5.25 132.683 5.59467 132.39 5.888C132.111 6.16667 131.759 6.306 131.334 6.306C130.938 6.306 130.586 6.16667 130.278 5.888C129.985 5.59467 129.838 5.25 129.838 4.854ZM130.168 8.88H132.5V19H130.168V8.88ZM135.638 19.682H137.992C138.006 20.1367 138.131 20.5473 138.366 20.914C138.615 21.2807 138.952 21.5667 139.378 21.772C139.803 21.9773 140.294 22.08 140.852 22.08C141.35 22.08 141.827 21.9627 142.282 21.728C142.736 21.4933 143.103 21.134 143.382 20.65C143.675 20.166 143.822 19.5427 143.822 18.78V8.88H146.154V18.78C146.154 19.9973 145.904 21.002 145.406 21.794C144.922 22.586 144.284 23.1727 143.492 23.554C142.7 23.95 141.842 24.148 140.918 24.148C139.818 24.148 138.879 23.9573 138.102 23.576C137.324 23.2093 136.723 22.6887 136.298 22.014C135.887 21.3393 135.667 20.562 135.638 19.682ZM135.44 13.896C135.44 12.7667 135.667 11.8207 136.122 11.058C136.576 10.2807 137.178 9.68667 137.926 9.276C138.688 8.86533 139.502 8.66 140.368 8.66C141.218 8.66 141.959 8.87267 142.59 9.298C143.235 9.70867 143.741 10.3027 144.108 11.08C144.489 11.8573 144.68 12.796 144.68 13.896C144.68 14.9813 144.489 15.9127 144.108 16.69C143.741 17.4673 143.235 18.0687 142.59 18.494C141.959 18.9047 141.218 19.11 140.368 19.11C139.502 19.11 138.688 18.9047 137.926 18.494C137.178 18.0833 136.576 17.4893 136.122 16.712C135.667 15.9347 135.44 14.996 135.44 13.896ZM137.904 13.896C137.904 14.5707 138.043 15.1427 138.322 15.612C138.6 16.0813 138.967 16.4407 139.422 16.69C139.891 16.9247 140.397 17.042 140.94 17.042C141.394 17.042 141.842 16.9247 142.282 16.69C142.736 16.4553 143.103 16.1033 143.382 15.634C143.675 15.15 143.822 14.5707 143.822 13.896C143.822 13.368 143.734 12.9133 143.558 12.532C143.396 12.136 143.176 11.806 142.898 11.542C142.619 11.2633 142.304 11.058 141.952 10.926C141.614 10.794 141.277 10.728 140.94 10.728C140.397 10.728 139.891 10.8527 139.422 11.102C138.967 11.3367 138.6 11.6887 138.322 12.158C138.043 12.6273 137.904 13.2067 137.904 13.896ZM156.052 12.84C156.052 12.092 155.898 11.5273 155.59 11.146C155.282 10.7647 154.806 10.574 154.16 10.574C153.72 10.574 153.332 10.6693 152.994 10.86C152.657 11.036 152.393 11.3 152.202 11.652C152.012 11.9893 151.916 12.3853 151.916 12.84V19H149.54V8.88H151.916V10.442C152.239 9.84067 152.65 9.39333 153.148 9.1C153.662 8.80667 154.27 8.66 154.974 8.66C156.118 8.66 156.991 9.012 157.592 9.716C158.194 10.4053 158.494 11.3587 158.494 12.576V19H156.052V12.84Z" fill="#CDD4D5"/>
<rect x="170.5" y="6" width="10" height="10" fill="#836663"/>
<path opacity="0.5" d="M192.216 3.6H194.856V19H192.216V3.6ZM197.188 19H193.822V16.558H197.122C197.885 16.558 198.589 16.448 199.234 16.228C199.879 16.008 200.437 15.678 200.906 15.238C201.39 14.798 201.764 14.248 202.028 13.588C202.307 12.928 202.446 12.1653 202.446 11.3C202.446 10.4347 202.307 9.672 202.028 9.012C201.764 8.352 201.39 7.802 200.906 7.362C200.437 6.922 199.879 6.592 199.234 6.372C198.589 6.152 197.885 6.042 197.122 6.042H193.822V3.6H197.188C198.757 3.6 200.136 3.92267 201.324 4.568C202.512 5.19867 203.436 6.09333 204.096 7.252C204.771 8.396 205.108 9.74533 205.108 11.3C205.108 12.8547 204.771 14.2113 204.096 15.37C203.436 16.514 202.512 17.4087 201.324 18.054C200.136 18.6847 198.757 19 197.188 19ZM212.284 19.22C211.257 19.22 210.348 19 209.556 18.56C208.778 18.12 208.177 17.504 207.752 16.712C207.326 15.92 207.114 14.996 207.114 13.94C207.114 12.8693 207.326 11.938 207.752 11.146C208.192 10.354 208.808 9.74533 209.6 9.32C210.392 8.88 211.323 8.66 212.394 8.66C213.464 8.66 214.374 8.86533 215.122 9.276C215.87 9.68667 216.442 10.2807 216.838 11.058C217.248 11.8207 217.454 12.7447 217.454 13.83C217.454 13.9473 217.446 14.072 217.432 14.204C217.432 14.336 217.424 14.4313 217.41 14.49H208.522V12.862H215.386L214.66 13.874C214.704 13.786 214.748 13.6687 214.792 13.522C214.85 13.3607 214.88 13.2287 214.88 13.126C214.88 12.5833 214.77 12.114 214.55 11.718C214.344 11.322 214.051 11.014 213.67 10.794C213.303 10.574 212.87 10.464 212.372 10.464C211.77 10.464 211.257 10.596 210.832 10.86C210.406 11.124 210.084 11.5053 209.864 12.004C209.644 12.5027 209.526 13.1187 209.512 13.852C209.512 14.5853 209.622 15.2087 209.842 15.722C210.062 16.2207 210.384 16.602 210.81 16.866C211.25 17.13 211.778 17.262 212.394 17.262C213.039 17.262 213.604 17.13 214.088 16.866C214.572 16.602 214.975 16.1987 215.298 15.656L217.344 16.492C216.816 17.4013 216.134 18.0833 215.298 18.538C214.462 18.9927 213.457 19.22 212.284 19.22ZM218.299 8.88H220.895L223.535 15.414L226.175 8.88H228.793L223.535 19.924L218.299 8.88ZM234.799 19.22C233.772 19.22 232.863 19 232.071 18.56C231.293 18.12 230.692 17.504 230.267 16.712C229.841 15.92 229.629 14.996 229.629 13.94C229.629 12.8693 229.841 11.938 230.267 11.146C230.707 10.354 231.323 9.74533 232.115 9.32C232.907 8.88 233.838 8.66 234.909 8.66C235.979 8.66 236.889 8.86533 237.637 9.276C238.385 9.68667 238.957 10.2807 239.353 11.058C239.763 11.8207 239.969 12.7447 239.969 13.83C239.969 13.9473 239.961 14.072 239.947 14.204C239.947 14.336 239.939 14.4313 239.925 14.49H231.037V12.862H237.901L237.175 13.874C237.219 13.786 237.263 13.6687 237.307 13.522C237.365 13.3607 237.395 13.2287 237.395 13.126C237.395 12.5833 237.285 12.114 237.065 11.718C236.859 11.322 236.566 11.014 236.185 10.794C235.818 10.574 235.385 10.464 234.887 10.464C234.285 10.464 233.772 10.596 233.347 10.86C232.921 11.124 232.599 11.5053 232.379 12.004C232.159 12.5027 232.041 13.1187 232.027 13.852C232.027 14.5853 232.137 15.2087 232.357 15.722C232.577 16.2207 232.899 16.602 233.325 16.866C233.765 17.13 234.293 17.262 234.909 17.262C235.554 17.262 236.119 17.13 236.603 16.866C237.087 16.602 237.49 16.1987 237.813 15.656L239.859 16.492C239.331 17.4013 238.649 18.0833 237.813 18.538C236.977 18.9927 235.972 19.22 234.799 19.22ZM242.676 1.84H245.052V19H242.676V1.84ZM247.761 13.94C247.761 12.8987 247.995 11.982 248.465 11.19C248.949 10.398 249.601 9.782 250.423 9.342C251.244 8.88733 252.175 8.66 253.217 8.66C254.258 8.66 255.182 8.88733 255.989 9.342C256.81 9.782 257.463 10.398 257.947 11.19C258.431 11.982 258.673 12.8987 258.673 13.94C258.673 14.9667 258.431 15.8833 257.947 16.69C257.463 17.482 256.81 18.1053 255.989 18.56C255.182 19 254.258 19.22 253.217 19.22C252.175 19.22 251.244 19 250.423 18.56C249.601 18.1053 248.949 17.482 248.465 16.69C247.995 15.8833 247.761 14.9667 247.761 13.94ZM250.203 13.94C250.203 14.5707 250.335 15.128 250.599 15.612C250.863 16.0813 251.222 16.4553 251.677 16.734C252.131 16.998 252.645 17.13 253.217 17.13C253.774 17.13 254.28 16.998 254.735 16.734C255.204 16.4553 255.571 16.0813 255.835 15.612C256.099 15.128 256.231 14.5707 256.231 13.94C256.231 13.3093 256.099 12.752 255.835 12.268C255.571 11.784 255.204 11.41 254.735 11.146C254.28 10.882 253.774 10.75 253.217 10.75C252.645 10.75 252.131 10.882 251.677 11.146C251.222 11.41 250.863 11.784 250.599 12.268C250.335 12.752 250.203 13.3093 250.203 13.94ZM263.677 23.84H261.279V8.88H263.677V23.84ZM272.059 13.94C272.059 15.0547 271.832 16.0153 271.377 16.822C270.922 17.614 270.321 18.2227 269.573 18.648C268.825 19.0587 268.011 19.264 267.131 19.264C266.266 19.264 265.51 19.0513 264.865 18.626C264.234 18.186 263.743 17.57 263.391 16.778C263.054 15.9713 262.885 15.0253 262.885 13.94C262.885 12.84 263.054 11.894 263.391 11.102C263.743 10.31 264.234 9.70133 264.865 9.276C265.51 8.836 266.266 8.616 267.131 8.616C268.011 8.616 268.825 8.82867 269.573 9.254C270.321 9.66467 270.922 10.266 271.377 11.058C271.832 11.85 272.059 12.8107 272.059 13.94ZM269.595 13.94C269.595 13.2653 269.456 12.6933 269.177 12.224C268.898 11.74 268.524 11.3807 268.055 11.146C267.6 10.8967 267.094 10.772 266.537 10.772C266.082 10.772 265.635 10.8967 265.195 11.146C264.755 11.3807 264.388 11.7327 264.095 12.202C263.816 12.6713 263.677 13.2507 263.677 13.94C263.677 14.6293 263.816 15.2087 264.095 15.678C264.388 16.1473 264.755 16.5067 265.195 16.756C265.635 16.9907 266.082 17.108 266.537 17.108C267.094 17.108 267.6 16.9907 268.055 16.756C268.524 16.5067 268.898 16.1473 269.177 15.678C269.456 15.194 269.595 14.6147 269.595 13.94Z" fill="#CDD4D5"/>
<path opacity="0.5" d="M1.716 41.6H4.312V54.668H10.428V57H1.716V41.6ZM14.0458 53.854C14.0458 54.1913 14.1265 54.4847 14.2878 54.734C14.4491 54.9687 14.6691 55.1447 14.9478 55.262C15.2411 55.3793 15.5711 55.438 15.9378 55.438C16.4071 55.438 16.8325 55.3427 17.2138 55.152C17.6098 54.9613 17.9251 54.6827 18.1598 54.316C18.4091 53.9347 18.5338 53.4947 18.5338 52.996L18.8858 54.316C18.8858 54.9613 18.6951 55.504 18.3138 55.944C17.9471 56.3693 17.4778 56.692 16.9058 56.912C16.3485 57.1173 15.7765 57.22 15.1898 57.22C14.5591 57.22 13.9725 57.0953 13.4298 56.846C12.8871 56.5967 12.4545 56.23 12.1318 55.746C11.8091 55.262 11.6478 54.6753 11.6478 53.986C11.6478 53.0033 11.9925 52.226 12.6818 51.654C13.3711 51.0673 14.3465 50.774 15.6078 50.774C16.2825 50.774 16.8618 50.8473 17.3458 50.994C17.8445 51.1407 18.2551 51.3167 18.5778 51.522C18.9005 51.7127 19.1278 51.8887 19.2598 52.05V53.26C18.8051 52.9373 18.3211 52.7027 17.8078 52.556C17.2945 52.4093 16.7518 52.336 16.1798 52.336C15.6811 52.336 15.2778 52.402 14.9698 52.534C14.6618 52.6513 14.4271 52.82 14.2658 53.04C14.1191 53.26 14.0458 53.5313 14.0458 53.854ZM13.2978 49.52L12.3298 47.848C12.7845 47.5693 13.3711 47.298 14.0898 47.034C14.8231 46.77 15.6591 46.638 16.5978 46.638C17.4338 46.638 18.1671 46.7627 18.7978 47.012C19.4431 47.2613 19.9491 47.6207 20.3158 48.09C20.6825 48.5447 20.8658 49.1093 20.8658 49.784V57H18.5338V50.246C18.5338 49.9233 18.4751 49.6593 18.3578 49.454C18.2551 49.2487 18.1085 49.08 17.9178 48.948C17.7271 48.816 17.4998 48.7207 17.2358 48.662C16.9718 48.6033 16.6858 48.574 16.3778 48.574C15.9085 48.574 15.4611 48.6327 15.0358 48.75C14.6251 48.8527 14.2658 48.9847 13.9578 49.146C13.6645 49.2927 13.4445 49.4173 13.2978 49.52ZM26.5177 53.04C26.5177 53.7587 26.6717 54.316 26.9797 54.712C27.2877 55.108 27.7571 55.306 28.3877 55.306C28.8424 55.306 29.2384 55.218 29.5757 55.042C29.9131 54.8513 30.1771 54.5873 30.3677 54.25C30.5584 53.898 30.6537 53.4947 30.6537 53.04V46.88H33.0297V57H30.6537V55.438C30.3311 56.0247 29.9131 56.472 29.3997 56.78C28.9011 57.0733 28.2997 57.22 27.5957 57.22C26.4664 57.22 25.5937 56.868 24.9777 56.164C24.3764 55.46 24.0757 54.5067 24.0757 53.304V46.88H26.5177V53.04ZM43.016 50.84C43.016 50.092 42.862 49.5273 42.554 49.146C42.246 48.7647 41.7693 48.574 41.124 48.574C40.684 48.574 40.2953 48.6693 39.958 48.86C39.6207 49.036 39.3567 49.3 39.166 49.652C38.9753 49.9893 38.88 50.3853 38.88 50.84V57H36.504V46.88H38.88V48.442C39.2027 47.8407 39.6133 47.3933 40.112 47.1C40.6253 46.8067 41.234 46.66 41.938 46.66C43.082 46.66 43.9547 47.012 44.556 47.716C45.1573 48.4053 45.458 49.3587 45.458 50.576V57H43.016V50.84ZM50.5163 51.94C50.5163 52.5853 50.6556 53.15 50.9343 53.634C51.213 54.1033 51.587 54.4773 52.0563 54.756C52.5403 55.0347 53.0756 55.174 53.6623 55.174C54.1463 55.174 54.6083 55.1007 55.0483 54.954C55.4883 54.8073 55.877 54.602 56.2143 54.338C56.5516 54.074 56.801 53.7807 56.9623 53.458V56.076C56.6103 56.428 56.1336 56.7067 55.5323 56.912C54.931 57.1173 54.271 57.22 53.5523 57.22C52.511 57.22 51.5723 57 50.7363 56.56C49.915 56.1053 49.2623 55.482 48.7783 54.69C48.309 53.8833 48.0743 52.9667 48.0743 51.94C48.0743 50.8987 48.309 49.982 48.7783 49.19C49.2623 48.398 49.915 47.782 50.7363 47.342C51.5723 46.8873 52.511 46.66 53.5523 46.66C54.271 46.66 54.931 46.7627 55.5323 46.968C56.1336 47.1733 56.6103 47.452 56.9623 47.804V50.422C56.801 50.0847 56.5443 49.7913 56.1923 49.542C55.855 49.278 55.4663 49.0727 55.0263 48.926C54.5863 48.7793 54.1316 48.706 53.6623 48.706C53.0756 48.706 52.5403 48.8453 52.0563 49.124C51.587 49.4027 51.213 49.784 50.9343 50.268C50.6556 50.752 50.5163 51.3093 50.5163 51.94ZM62.4045 39.84V57H60.0285V39.84H62.4045ZM66.5405 50.84C66.5405 50.092 66.3865 49.5273 66.0785 49.146C65.7852 48.7647 65.3085 48.574 64.6485 48.574C64.2085 48.574 63.8199 48.6693 63.4825 48.86C63.1452 49.0507 62.8812 49.3147 62.6905 49.652C62.4999 49.9893 62.4045 50.3853 62.4045 50.84H61.8325C61.8325 50.0333 61.9792 49.3147 62.2725 48.684C62.5659 48.0533 62.9765 47.5473 63.5045 47.166C64.0472 46.7847 64.6999 46.594 65.4625 46.594C66.2105 46.594 66.8412 46.7407 67.3545 47.034C67.8825 47.3273 68.2785 47.7673 68.5425 48.354C68.8065 48.926 68.9385 49.6447 68.9385 50.51V57H66.5405V50.84Z" fill="#CDD4D5"/>
<rect x="81" y="44" width="10" height="10" fill="#836663"/>
<path opacity="0.5" d="M105.884 49.652H108.7L113.914 57H110.79L105.884 49.652ZM102.716 41.6H105.312V57H102.716V41.6ZM104.256 43.844V41.6H107.468C108.583 41.6 109.551 41.798 110.372 42.194C111.208 42.59 111.853 43.1473 112.308 43.866C112.763 44.57 112.99 45.406 112.99 46.374C112.99 47.342 112.763 48.1853 112.308 48.904C111.853 49.6227 111.208 50.18 110.372 50.576C109.551 50.972 108.583 51.17 107.468 51.17H104.256V49.036H107.358C107.945 49.036 108.458 48.9333 108.898 48.728C109.353 48.5227 109.705 48.2293 109.954 47.848C110.203 47.452 110.328 46.9827 110.328 46.44C110.328 45.8827 110.203 45.4133 109.954 45.032C109.705 44.6507 109.353 44.3573 108.898 44.152C108.458 43.9467 107.945 43.844 107.358 43.844H104.256ZM120.442 57.22C119.415 57.22 118.506 57 117.714 56.56C116.937 56.12 116.335 55.504 115.91 54.712C115.485 53.92 115.272 52.996 115.272 51.94C115.272 50.8693 115.485 49.938 115.91 49.146C116.35 48.354 116.966 47.7453 117.758 47.32C118.55 46.88 119.481 46.66 120.552 46.66C121.623 46.66 122.532 46.8653 123.28 47.276C124.028 47.6867 124.6 48.2807 124.996 49.058C125.407 49.8207 125.612 50.7447 125.612 51.83C125.612 51.9473 125.605 52.072 125.59 52.204C125.59 52.336 125.583 52.4313 125.568 52.49H116.68V50.862H123.544L122.818 51.874C122.862 51.786 122.906 51.6687 122.95 51.522C123.009 51.3607 123.038 51.2287 123.038 51.126C123.038 50.5833 122.928 50.114 122.708 49.718C122.503 49.322 122.209 49.014 121.828 48.794C121.461 48.574 121.029 48.464 120.53 48.464C119.929 48.464 119.415 48.596 118.99 48.86C118.565 49.124 118.242 49.5053 118.022 50.004C117.802 50.5027 117.685 51.1187 117.67 51.852C117.67 52.5853 117.78 53.2087 118 53.722C118.22 54.2207 118.543 54.602 118.968 54.866C119.408 55.13 119.936 55.262 120.552 55.262C121.197 55.262 121.762 55.13 122.246 54.866C122.73 54.602 123.133 54.1987 123.456 53.656L125.502 54.492C124.974 55.4013 124.292 56.0833 123.456 56.538C122.62 56.9927 121.615 57.22 120.442 57.22ZM130.63 61.84H128.232V46.88H130.63V61.84ZM139.012 51.94C139.012 53.0547 138.785 54.0153 138.33 54.822C137.875 55.614 137.274 56.2227 136.526 56.648C135.778 57.0587 134.964 57.264 134.084 57.264C133.219 57.264 132.463 57.0513 131.818 56.626C131.187 56.186 130.696 55.57 130.344 54.778C130.007 53.9713 129.838 53.0253 129.838 51.94C129.838 50.84 130.007 49.894 130.344 49.102C130.696 48.31 131.187 47.7013 131.818 47.276C132.463 46.836 133.219 46.616 134.084 46.616C134.964 46.616 135.778 46.8287 136.526 47.254C137.274 47.6647 137.875 48.266 138.33 49.058C138.785 49.85 139.012 50.8107 139.012 51.94ZM136.548 51.94C136.548 51.2653 136.409 50.6933 136.13 50.224C135.851 49.74 135.477 49.3807 135.008 49.146C134.553 48.8967 134.047 48.772 133.49 48.772C133.035 48.772 132.588 48.8967 132.148 49.146C131.708 49.3807 131.341 49.7327 131.048 50.202C130.769 50.6713 130.63 51.2507 130.63 51.94C130.63 52.6293 130.769 53.2087 131.048 53.678C131.341 54.1473 131.708 54.5067 132.148 54.756C132.588 54.9907 133.035 55.108 133.49 55.108C134.047 55.108 134.553 54.9907 135.008 54.756C135.477 54.5067 135.851 54.1473 136.13 53.678C136.409 53.194 136.548 52.6147 136.548 51.94ZM146.115 57.22C145.088 57.22 144.179 57 143.387 56.56C142.61 56.12 142.008 55.504 141.583 54.712C141.158 53.92 140.945 52.996 140.945 51.94C140.945 50.8693 141.158 49.938 141.583 49.146C142.023 48.354 142.639 47.7453 143.431 47.32C144.223 46.88 145.154 46.66 146.225 46.66C147.296 46.66 148.205 46.8653 148.953 47.276C149.701 47.6867 150.273 48.2807 150.669 49.058C151.08 49.8207 151.285 50.7447 151.285 51.83C151.285 51.9473 151.278 52.072 151.263 52.204C151.263 52.336 151.256 52.4313 151.241 52.49H142.353V50.862H149.217L148.491 51.874C148.535 51.786 148.579 51.6687 148.623 51.522C148.682 51.3607 148.711 51.2287 148.711 51.126C148.711 50.5833 148.601 50.114 148.381 49.718C148.176 49.322 147.882 49.014 147.501 48.794C147.134 48.574 146.702 48.464 146.203 48.464C145.602 48.464 145.088 48.596 144.663 48.86C144.238 49.124 143.915 49.5053 143.695 50.004C143.475 50.5027 143.358 51.1187 143.343 51.852C143.343 52.5853 143.453 53.2087 143.673 53.722C143.893 54.2207 144.216 54.602 144.641 54.866C145.081 55.13 145.609 55.262 146.225 55.262C146.87 55.262 147.435 55.13 147.919 54.866C148.403 54.602 148.806 54.1987 149.129 53.656L151.175 54.492C150.647 55.4013 149.965 56.0833 149.129 56.538C148.293 56.9927 147.288 57.22 146.115 57.22ZM155.489 53.854C155.489 54.1913 155.57 54.4847 155.731 54.734C155.892 54.9687 156.112 55.1447 156.391 55.262C156.684 55.3793 157.014 55.438 157.381 55.438C157.85 55.438 158.276 55.3427 158.657 55.152C159.053 54.9613 159.368 54.6827 159.603 54.316C159.852 53.9347 159.977 53.4947 159.977 52.996L160.329 54.316C160.329 54.9613 160.138 55.504 159.757 55.944C159.39 56.3693 158.921 56.692 158.349 56.912C157.792 57.1173 157.22 57.22 156.633 57.22C156.002 57.22 155.416 57.0953 154.873 56.846C154.33 56.5967 153.898 56.23 153.575 55.746C153.252 55.262 153.091 54.6753 153.091 53.986C153.091 53.0033 153.436 52.226 154.125 51.654C154.814 51.0673 155.79 50.774 157.051 50.774C157.726 50.774 158.305 50.8473 158.789 50.994C159.288 51.1407 159.698 51.3167 160.021 51.522C160.344 51.7127 160.571 51.8887 160.703 52.05V53.26C160.248 52.9373 159.764 52.7027 159.251 52.556C158.738 52.4093 158.195 52.336 157.623 52.336C157.124 52.336 156.721 52.402 156.413 52.534C156.105 52.6513 155.87 52.82 155.709 53.04C155.562 53.26 155.489 53.5313 155.489 53.854ZM154.741 49.52L153.773 47.848C154.228 47.5693 154.814 47.298 155.533 47.034C156.266 46.77 157.102 46.638 158.041 46.638C158.877 46.638 159.61 46.7627 160.241 47.012C160.886 47.2613 161.392 47.6207 161.759 48.09C162.126 48.5447 162.309 49.1093 162.309 49.784V57H159.977V50.246C159.977 49.9233 159.918 49.6593 159.801 49.454C159.698 49.2487 159.552 49.08 159.361 48.948C159.17 48.816 158.943 48.7207 158.679 48.662C158.415 48.6033 158.129 48.574 157.821 48.574C157.352 48.574 156.904 48.6327 156.479 48.75C156.068 48.8527 155.709 48.9847 155.401 49.146C155.108 49.2927 154.888 49.4173 154.741 49.52ZM164.111 46.88H169.853V48.97H164.111V46.88ZM165.805 43.36H168.159V57H165.805V43.36Z" fill="#CDD4D5"/>
<rect x="180" y="44" width="10" height="10" fill="#836663"/>
<path opacity="0.5" d="M202.728 52.05C203.065 52.6367 203.425 53.1573 203.806 53.612C204.202 54.052 204.635 54.3967 205.104 54.646C205.573 54.8807 206.101 54.998 206.688 54.998C207.392 54.998 207.964 54.8073 208.404 54.426C208.844 54.0447 209.064 53.5533 209.064 52.952C209.064 52.38 208.925 51.9253 208.646 51.588C208.367 51.236 207.979 50.9427 207.48 50.708C206.996 50.4587 206.431 50.2167 205.786 49.982C205.405 49.85 204.979 49.674 204.51 49.454C204.041 49.2193 203.593 48.9333 203.168 48.596C202.743 48.244 202.391 47.8187 202.112 47.32C201.833 46.8067 201.694 46.1907 201.694 45.472C201.694 44.6507 201.907 43.932 202.332 43.316C202.757 42.6853 203.329 42.2013 204.048 41.864C204.781 41.512 205.61 41.336 206.534 41.336C207.443 41.336 208.235 41.4973 208.91 41.82C209.585 42.1427 210.149 42.5533 210.604 43.052C211.073 43.5507 211.44 44.0713 211.704 44.614L209.592 45.802C209.401 45.4207 209.159 45.0687 208.866 44.746C208.573 44.4087 208.228 44.1447 207.832 43.954C207.451 43.7487 207.003 43.646 206.49 43.646C205.771 43.646 205.243 43.8147 204.906 44.152C204.569 44.4747 204.4 44.856 204.4 45.296C204.4 45.692 204.517 46.0513 204.752 46.374C205.001 46.682 205.383 46.9753 205.896 47.254C206.409 47.5327 207.077 47.8187 207.898 48.112C208.353 48.2733 208.807 48.4787 209.262 48.728C209.731 48.9773 210.157 49.2927 210.538 49.674C210.919 50.0407 211.22 50.4733 211.44 50.972C211.675 51.4707 211.792 52.0573 211.792 52.732C211.792 53.4507 211.653 54.096 211.374 54.668C211.095 55.24 210.714 55.724 210.23 56.12C209.746 56.5013 209.196 56.7947 208.58 57C207.979 57.22 207.348 57.33 206.688 57.33C205.779 57.33 204.935 57.154 204.158 56.802C203.395 56.4353 202.728 55.9513 202.156 55.35C201.584 54.7487 201.129 54.096 200.792 53.392L202.728 52.05ZM217.14 53.04C217.14 53.7587 217.294 54.316 217.602 54.712C217.91 55.108 218.38 55.306 219.01 55.306C219.465 55.306 219.861 55.218 220.198 55.042C220.536 54.8513 220.8 54.5873 220.99 54.25C221.181 53.898 221.276 53.4947 221.276 53.04V46.88H223.652V57H221.276V55.438C220.954 56.0247 220.536 56.472 220.022 56.78C219.524 57.0733 218.922 57.22 218.218 57.22C217.089 57.22 216.216 56.868 215.6 56.164C214.999 55.46 214.698 54.5067 214.698 53.304V46.88H217.14V53.04ZM228.711 51.94C228.711 52.5853 228.85 53.15 229.129 53.634C229.407 54.1033 229.781 54.4773 230.251 54.756C230.735 55.0347 231.27 55.174 231.857 55.174C232.341 55.174 232.803 55.1007 233.243 54.954C233.683 54.8073 234.071 54.602 234.409 54.338C234.746 54.074 234.995 53.7807 235.157 53.458V56.076C234.805 56.428 234.328 56.7067 233.727 56.912C233.125 57.1173 232.465 57.22 231.747 57.22C230.705 57.22 229.767 57 228.931 56.56C228.109 56.1053 227.457 55.482 226.973 54.69C226.503 53.8833 226.269 52.9667 226.269 51.94C226.269 50.8987 226.503 49.982 226.973 49.19C227.457 48.398 228.109 47.782 228.931 47.342C229.767 46.8873 230.705 46.66 231.747 46.66C232.465 46.66 233.125 46.7627 233.727 46.968C234.328 47.1733 234.805 47.452 235.157 47.804V50.422C234.995 50.0847 234.739 49.7913 234.387 49.542C234.049 49.278 233.661 49.0727 233.221 48.926C232.781 48.7793 232.326 48.706 231.857 48.706C231.27 48.706 230.735 48.8453 230.251 49.124C229.781 49.4027 229.407 49.784 229.129 50.268C228.85 50.752 228.711 51.3093 228.711 51.94ZM239.807 51.94C239.807 52.5853 239.946 53.15 240.225 53.634C240.503 54.1033 240.877 54.4773 241.347 54.756C241.831 55.0347 242.366 55.174 242.953 55.174C243.437 55.174 243.899 55.1007 244.339 54.954C244.779 54.8073 245.167 54.602 245.505 54.338C245.842 54.074 246.091 53.7807 246.253 53.458V56.076C245.901 56.428 245.424 56.7067 244.823 56.912C244.221 57.1173 243.561 57.22 242.843 57.22C241.801 57.22 240.863 57 240.027 56.56C239.205 56.1053 238.553 55.482 238.069 54.69C237.599 53.8833 237.365 52.9667 237.365 51.94C237.365 50.8987 237.599 49.982 238.069 49.19C238.553 48.398 239.205 47.782 240.027 47.342C240.863 46.8873 241.801 46.66 242.843 46.66C243.561 46.66 244.221 46.7627 244.823 46.968C245.424 47.1733 245.901 47.452 246.253 47.804V50.422C246.091 50.0847 245.835 49.7913 245.483 49.542C245.145 49.278 244.757 49.0727 244.317 48.926C243.877 48.7793 243.422 48.706 242.953 48.706C242.366 48.706 241.831 48.8453 241.347 49.124C240.877 49.4027 240.503 49.784 240.225 50.268C239.946 50.752 239.807 51.3093 239.807 51.94ZM253.719 57.22C252.692 57.22 251.783 57 250.991 56.56C250.214 56.12 249.612 55.504 249.187 54.712C248.762 53.92 248.549 52.996 248.549 51.94C248.549 50.8693 248.762 49.938 249.187 49.146C249.627 48.354 250.243 47.7453 251.035 47.32C251.827 46.88 252.758 46.66 253.829 46.66C254.9 46.66 255.809 46.8653 256.557 47.276C257.305 47.6867 257.877 48.2807 258.273 49.058C258.684 49.8207 258.889 50.7447 258.889 51.83C258.889 51.9473 258.882 52.072 258.867 52.204C258.867 52.336 258.86 52.4313 258.845 52.49H249.957V50.862H256.821L256.095 51.874C256.139 51.786 256.183 51.6687 256.227 51.522C256.286 51.3607 256.315 51.2287 256.315 51.126C256.315 50.5833 256.205 50.114 255.985 49.718C255.78 49.322 255.486 49.014 255.105 48.794C254.738 48.574 254.306 48.464 253.807 48.464C253.206 48.464 252.692 48.596 252.267 48.86C251.842 49.124 251.519 49.5053 251.299 50.004C251.079 50.5027 250.962 51.1187 250.947 51.852C250.947 52.5853 251.057 53.2087 251.277 53.722C251.497 54.2207 251.82 54.602 252.245 54.866C252.685 55.13 253.213 55.262 253.829 55.262C254.474 55.262 255.039 55.13 255.523 54.866C256.007 54.602 256.41 54.1987 256.733 53.656L258.779 54.492C258.251 55.4013 257.569 56.0833 256.733 56.538C255.897 56.9927 254.892 57.22 253.719 57.22ZM262.059 53.678C262.382 54.03 262.704 54.338 263.027 54.602C263.364 54.8513 263.702 55.042 264.039 55.174C264.376 55.2913 264.714 55.35 265.051 55.35C265.476 55.35 265.806 55.2547 266.041 55.064C266.29 54.8733 266.415 54.6093 266.415 54.272C266.415 53.9787 266.32 53.7293 266.129 53.524C265.938 53.304 265.674 53.1207 265.337 52.974C265 52.8127 264.604 52.6513 264.149 52.49C263.694 52.314 263.24 52.1087 262.785 51.874C262.345 51.6247 261.978 51.302 261.685 50.906C261.406 50.51 261.267 50.0113 261.267 49.41C261.267 48.794 261.421 48.2807 261.729 47.87C262.052 47.4593 262.477 47.1587 263.005 46.968C263.548 46.7627 264.127 46.66 264.743 46.66C265.3 46.66 265.821 46.7407 266.305 46.902C266.804 47.0633 267.251 47.276 267.647 47.54C268.043 47.804 268.38 48.1047 268.659 48.442L267.339 49.85C267.002 49.454 266.598 49.1313 266.129 48.882C265.66 48.6327 265.176 48.508 264.677 48.508C264.34 48.508 264.061 48.5813 263.841 48.728C263.621 48.8747 263.511 49.0873 263.511 49.366C263.511 49.6007 263.606 49.8133 263.797 50.004C264.002 50.18 264.266 50.3413 264.589 50.488C264.926 50.6347 265.3 50.7887 265.711 50.95C266.268 51.17 266.782 51.412 267.251 51.676C267.72 51.94 268.094 52.2627 268.373 52.644C268.666 53.0253 268.813 53.524 268.813 54.14C268.813 55.0933 268.483 55.8633 267.823 56.45C267.178 57.022 266.298 57.308 265.183 57.308C264.494 57.308 263.856 57.2053 263.269 57C262.697 56.78 262.191 56.5013 261.751 56.164C261.326 55.812 260.966 55.4453 260.673 55.064L262.059 53.678ZM271.823 53.678C272.146 54.03 272.468 54.338 272.791 54.602C273.128 54.8513 273.466 55.042 273.803 55.174C274.14 55.2913 274.478 55.35 274.815 55.35C275.24 55.35 275.57 55.2547 275.805 55.064C276.054 54.8733 276.179 54.6093 276.179 54.272C276.179 53.9787 276.084 53.7293 275.893 53.524C275.702 53.304 275.438 53.1207 275.101 52.974C274.764 52.8127 274.368 52.6513 273.913 52.49C273.458 52.314 273.004 52.1087 272.549 51.874C272.109 51.6247 271.742 51.302 271.449 50.906C271.17 50.51 271.031 50.0113 271.031 49.41C271.031 48.794 271.185 48.2807 271.493 47.87C271.816 47.4593 272.241 47.1587 272.769 46.968C273.312 46.7627 273.891 46.66 274.507 46.66C275.064 46.66 275.585 46.7407 276.069 46.902C276.568 47.0633 277.015 47.276 277.411 47.54C277.807 47.804 278.144 48.1047 278.423 48.442L277.103 49.85C276.766 49.454 276.362 49.1313 275.893 48.882C275.424 48.6327 274.94 48.508 274.441 48.508C274.104 48.508 273.825 48.5813 273.605 48.728C273.385 48.8747 273.275 49.0873 273.275 49.366C273.275 49.6007 273.37 49.8133 273.561 50.004C273.766 50.18 274.03 50.3413 274.353 50.488C274.69 50.6347 275.064 50.7887 275.475 50.95C276.032 51.17 276.546 51.412 277.015 51.676C277.484 51.94 277.858 52.2627 278.137 52.644C278.43 53.0253 278.577 53.524 278.577 54.14C278.577 55.0933 278.247 55.8633 277.587 56.45C276.942 57.022 276.062 57.308 274.947 57.308C274.258 57.308 273.62 57.2053 273.033 57C272.461 56.78 271.955 56.5013 271.515 56.164C271.09 55.812 270.73 55.4453 270.437 55.064L271.823 53.678Z" fill="#CDD4D5"/>
</svg>
