<svg width="18" height="11" viewBox="0 0 18 11" fill="none" xmlns="http://www.w3.org/2000/svg">
<path d="M8.43925 10.6177L0.213914 1.98492C0.0766005 1.84088 0 1.64951 0 1.45051C0 1.2515 0.0766005 1.06014 0.213914 0.916096L0.223208 0.906801C0.289775 0.83673 0.3699 0.780935 0.458711 0.742807C0.547521 0.70468 0.64316 0.685019 0.739808 0.685019C0.836457 0.685019 0.932096 0.70468 1.02091 0.742807C1.10972 0.780935 1.18984 0.83673 1.25641 0.906801L9.00155 9.0361L16.7436 0.906801C16.8102 0.83673 16.8903 0.780935 16.9791 0.742807C17.0679 0.70468 17.1635 0.685019 17.2602 0.685019C17.3568 0.685019 17.4525 0.70468 17.5413 0.742807C17.6301 0.780935 17.7102 0.83673 17.7768 0.906801L17.7861 0.916096C17.9234 1.06014 18 1.2515 18 1.45051C18 1.64951 17.9234 1.84088 17.7861 1.98492L9.56075 10.6177C9.48841 10.6936 9.40141 10.754 9.30502 10.7953C9.20863 10.8366 9.10486 10.8579 9 10.8579C8.89513 10.8579 8.79136 10.8366 8.69497 10.7953C8.59859 10.754 8.51159 10.6936 8.43925 10.6177Z" fill="white"/>
</svg>
