<svg width="80" height="102" viewBox="0 0 80 102" fill="none" xmlns="http://www.w3.org/2000/svg">
<rect width="80" height="80" rx="10" fill="white"/>
<g clip-path="url(#clip0_608_3414)">
<path fill-rule="evenodd" clip-rule="evenodd" d="M21 53.9572C20.9998 54.0332 21.0053 54.1083 21.0163 54.182C21.0829 54.647 21.3626 55.0521 21.772 55.2797L36.114 63.2497C37.018 63.7517 38.008 64.0017 39 64.0017C39.992 64.0017 40.982 63.7517 41.888 63.2517L56.23 55.2817C56.786 54.9717 57.088 54.3437 56.98 53.7177L52.444 27.1197C52.288 26.1937 51.638 25.4457 50.748 25.1637C49.868 24.8817 48.91 25.1197 48.26 25.7817L44.9443 29.1351L41.1929 22.442C40.7429 21.642 39.7949 21.16 38.9929 21.176C38.0809 21.194 37.2589 21.714 36.8449 22.528L35.8749 24.4303L31.7363 17.2421C31.2103 16.3261 30.1983 15.8541 29.1703 16.0381C28.1303 16.2241 27.3443 17.0181 27.1643 18.0641L21.027 53.6772C21.009 53.7703 21.0001 53.864 21 53.9572ZM28.2158 46.0545L42.7504 31.3541L39.0649 24.778L28.2158 46.0545ZM45.6452 32.6943L24.958 53.6177L37.572 60.6277C38.466 61.1257 39.536 61.1257 40.432 60.6277L53.846 53.1737L49.66 28.6337L45.7083 32.6304C45.688 32.6523 45.667 32.6736 45.6452 32.6943ZM25.661 44.4608L34.2492 27.6184L29.8723 20.0161L25.661 44.4608Z" fill="#819296"/>
</g>
<path d="M16.9329 90.242V91.278H12.6909V94.568H16.1349V95.604H12.6909V100H11.4169V90.242H16.9329ZM19.1296 91.082C18.8869 91.082 18.6816 90.998 18.5136 90.83C18.3456 90.662 18.2616 90.4567 18.2616 90.214C18.2616 89.9713 18.3456 89.766 18.5136 89.598C18.6816 89.43 18.8869 89.346 19.1296 89.346C19.3629 89.346 19.5589 89.43 19.7176 89.598C19.8856 89.766 19.9696 89.9713 19.9696 90.214C19.9696 90.4567 19.8856 90.662 19.7176 90.83C19.5589 90.998 19.3629 91.082 19.1296 91.082ZM19.7456 92.328V100H18.4716V92.328H19.7456ZM23.1909 93.574C23.4149 93.1353 23.7322 92.7947 24.1429 92.552C24.5629 92.3093 25.0715 92.188 25.6689 92.188V93.504H25.3329C23.9049 93.504 23.1909 94.2787 23.1909 95.828V100H21.9169V92.328H23.1909V93.574ZM34.1395 95.87C34.1395 96.1127 34.1255 96.3693 34.0975 96.64H27.9655C28.0122 97.396 28.2689 97.9887 28.7355 98.418C29.2115 98.838 29.7855 99.048 30.4575 99.048C31.0082 99.048 31.4655 98.922 31.8295 98.67C32.2029 98.4087 32.4642 98.0633 32.6135 97.634H33.9855C33.7802 98.3713 33.3695 98.9733 32.7535 99.44C32.1375 99.8973 31.3722 100.126 30.4575 100.126C29.7295 100.126 29.0762 99.9627 28.4975 99.636C27.9282 99.3093 27.4802 98.8473 27.1535 98.25C26.8269 97.6433 26.6635 96.9433 26.6635 96.15C26.6635 95.3567 26.8222 94.6613 27.1395 94.064C27.4569 93.4667 27.9002 93.0093 28.4695 92.692C29.0482 92.3653 29.7109 92.202 30.4575 92.202C31.1855 92.202 31.8295 92.3607 32.3895 92.678C32.9495 92.9953 33.3789 93.434 33.6775 93.994C33.9855 94.5447 34.1395 95.17 34.1395 95.87ZM32.8235 95.604C32.8235 95.1187 32.7162 94.7033 32.5015 94.358C32.2869 94.0033 31.9929 93.7373 31.6195 93.56C31.2555 93.3733 30.8495 93.28 30.4015 93.28C29.7575 93.28 29.2069 93.4853 28.7495 93.896C28.3015 94.3067 28.0449 94.876 27.9795 95.604H32.8235ZM37.0952 93.756C37.3565 93.2987 37.7392 92.9253 38.2432 92.636C38.7472 92.3467 39.3212 92.202 39.9652 92.202C40.6558 92.202 41.2765 92.3653 41.8272 92.692C42.3778 93.0187 42.8118 93.4807 43.1292 94.078C43.4465 94.666 43.6052 95.352 43.6052 96.136C43.6052 96.9107 43.4465 97.6013 43.1292 98.208C42.8118 98.8147 42.3732 99.286 41.8132 99.622C41.2625 99.958 40.6465 100.126 39.9652 100.126C39.3025 100.126 38.7192 99.9813 38.2152 99.692C37.7205 99.4027 37.3472 99.034 37.0952 98.586V100H35.8212V89.64H37.0952V93.756ZM42.3032 96.136C42.3032 95.5573 42.1865 95.0533 41.9532 94.624C41.7198 94.1947 41.4025 93.868 41.0012 93.644C40.6092 93.42 40.1752 93.308 39.6992 93.308C39.2325 93.308 38.7985 93.4247 38.3972 93.658C38.0052 93.882 37.6878 94.2133 37.4452 94.652C37.2118 95.0813 37.0952 95.5807 37.0952 96.15C37.0952 96.7287 37.2118 97.2373 37.4452 97.676C37.6878 98.1053 38.0052 98.4367 38.3972 98.67C38.7985 98.894 39.2325 99.006 39.6992 99.006C40.1752 99.006 40.6092 98.894 41.0012 98.67C41.4025 98.4367 41.7198 98.1053 41.9532 97.676C42.1865 97.2373 42.3032 96.724 42.3032 96.136ZM44.8061 96.136C44.8061 95.352 44.9648 94.666 45.2821 94.078C45.5994 93.4807 46.0334 93.0187 46.5841 92.692C47.1441 92.3653 47.7648 92.202 48.4461 92.202C49.1181 92.202 49.7014 92.3467 50.1961 92.636C50.6908 92.9253 51.0594 93.2893 51.3021 93.728V92.328H52.5901V100H51.3021V98.572C51.0501 99.02 50.6721 99.3933 50.1681 99.692C49.6734 99.9813 49.0948 100.126 48.4321 100.126C47.7508 100.126 47.1348 99.958 46.5841 99.622C46.0334 99.286 45.5994 98.8147 45.2821 98.208C44.9648 97.6013 44.8061 96.9107 44.8061 96.136ZM51.3021 96.15C51.3021 95.5713 51.1854 95.0673 50.9521 94.638C50.7188 94.2087 50.4014 93.882 50.0001 93.658C49.6081 93.4247 49.1741 93.308 48.6981 93.308C48.2221 93.308 47.7881 93.42 47.3961 93.644C47.0041 93.868 46.6914 94.1947 46.4581 94.624C46.2248 95.0533 46.1081 95.5573 46.1081 96.136C46.1081 96.724 46.2248 97.2373 46.4581 97.676C46.6914 98.1053 47.0041 98.4367 47.3961 98.67C47.7881 98.894 48.2221 99.006 48.6981 99.006C49.1741 99.006 49.6081 98.894 50.0001 98.67C50.4014 98.4367 50.7188 98.1053 50.9521 97.676C51.1854 97.2373 51.3021 96.7287 51.3021 96.15ZM57.459 100.126C56.871 100.126 56.3437 100.028 55.877 99.832C55.4104 99.6267 55.0417 99.3467 54.771 98.992C54.5004 98.628 54.351 98.2127 54.323 97.746H55.639C55.6764 98.1287 55.8537 98.4413 56.171 98.684C56.4977 98.9267 56.9224 99.048 57.445 99.048C57.9304 99.048 58.313 98.9407 58.593 98.726C58.873 98.5113 59.013 98.2407 59.013 97.914C59.013 97.578 58.8637 97.3307 58.565 97.172C58.2664 97.004 57.8044 96.8407 57.179 96.682C56.6097 96.5327 56.143 96.3833 55.779 96.234C55.4244 96.0753 55.1164 95.8467 54.855 95.548C54.603 95.24 54.477 94.8387 54.477 94.344C54.477 93.952 54.5937 93.5927 54.827 93.266C55.0604 92.9393 55.3917 92.6827 55.821 92.496C56.2504 92.3 56.7404 92.202 57.291 92.202C58.1404 92.202 58.8264 92.4167 59.349 92.846C59.8717 93.2753 60.1517 93.8633 60.189 94.61H58.915C58.887 94.2087 58.7237 93.8867 58.425 93.644C58.1357 93.4013 57.7437 93.28 57.249 93.28C56.7917 93.28 56.4277 93.378 56.157 93.574C55.8864 93.77 55.751 94.0267 55.751 94.344C55.751 94.596 55.8304 94.806 55.989 94.974C56.157 95.1327 56.3624 95.2633 56.605 95.366C56.857 95.4593 57.2024 95.5667 57.641 95.688C58.1917 95.8373 58.6397 95.9867 58.985 96.136C59.3304 96.276 59.6244 96.4907 59.867 96.78C60.119 97.0693 60.2497 97.4473 60.259 97.914C60.259 98.334 60.1424 98.712 59.909 99.048C59.6757 99.384 59.3444 99.65 58.915 99.846C58.495 100.033 58.0097 100.126 57.459 100.126ZM69.0575 95.87C69.0575 96.1127 69.0435 96.3693 69.0155 96.64H62.8835C62.9302 97.396 63.1868 97.9887 63.6535 98.418C64.1295 98.838 64.7035 99.048 65.3755 99.048C65.9262 99.048 66.3835 98.922 66.7475 98.67C67.1208 98.4087 67.3822 98.0633 67.5315 97.634H68.9035C68.6982 98.3713 68.2875 98.9733 67.6715 99.44C67.0555 99.8973 66.2902 100.126 65.3755 100.126C64.6475 100.126 63.9942 99.9627 63.4155 99.636C62.8462 99.3093 62.3982 98.8473 62.0715 98.25C61.7448 97.6433 61.5815 96.9433 61.5815 96.15C61.5815 95.3567 61.7402 94.6613 62.0575 94.064C62.3748 93.4667 62.8182 93.0093 63.3875 92.692C63.9662 92.3653 64.6288 92.202 65.3755 92.202C66.1035 92.202 66.7475 92.3607 67.3075 92.678C67.8675 92.9953 68.2968 93.434 68.5955 93.994C68.9035 94.5447 69.0575 95.17 69.0575 95.87ZM67.7415 95.604C67.7415 95.1187 67.6342 94.7033 67.4195 94.358C67.2048 94.0033 66.9108 93.7373 66.5375 93.56C66.1735 93.3733 65.7675 93.28 65.3195 93.28C64.6755 93.28 64.1248 93.4853 63.6675 93.896C63.2195 94.3067 62.9628 94.876 62.8975 95.604H67.7415Z" fill="#4F5B5E"/>
<defs>
<clipPath id="clip0_608_3414">
<rect width="37" height="48" fill="white" transform="translate(21 16)"/>
</clipPath>
</defs>
</svg>
