<svg width="80" height="102" viewBox="0 0 80 102" fill="none" xmlns="http://www.w3.org/2000/svg">
<rect width="80" height="80" rx="10" fill="white"/>
<g clip-path="url(#clip0_608_3440)">
<path d="M43.6509 22.0123L54.8057 22L36.0909 40.7052L31.2135 45.5554L25.6641 39.9991L43.6509 22.0123ZM43.5471 38.7138C43.6919 38.5226 43.9582 38.6169 44.1603 38.5923L54.7962 38.595L45.1028 48.2789L39.5247 42.7349L43.5471 38.7138Z" fill="#819296"/>
<path d="M33.9688 48.2879L39.5291 42.7344L45.1072 48.2783L45.1304 48.3029L39.5305 53.851L33.9688 48.2879Z" fill="#819296"/>
<path d="M39.5234 53.8527L45.1234 48.3047L54.7977 57.9885C51.1536 57.9967 47.5109 57.9858 43.8682 57.994C43.6606 58.0404 43.5322 57.8506 43.3997 57.7331L39.5234 53.8527Z" fill="#819296"/>
</g>
<path d="M24.8147 90.242V91.278H20.5727V94.568H24.0167V95.604H20.5727V100H19.2987V90.242H24.8147ZM27.6274 89.64V100H26.3534V89.64H27.6274ZM36.6027 92.328V100H35.3287V98.866C35.086 99.258 34.7454 99.566 34.3067 99.79C33.8774 100.005 33.4014 100.112 32.8787 100.112C32.2814 100.112 31.7447 99.9907 31.2687 99.748C30.7927 99.496 30.4147 99.1227 30.1347 98.628C29.864 98.1333 29.7287 97.5313 29.7287 96.822V92.328H30.9887V96.654C30.9887 97.41 31.18 97.9933 31.5627 98.404C31.9454 98.8053 32.468 99.006 33.1307 99.006C33.812 99.006 34.3487 98.796 34.7407 98.376C35.1327 97.956 35.3287 97.3447 35.3287 96.542V92.328H36.6027ZM40.3078 93.378V97.9C40.3078 98.2733 40.3871 98.5393 40.5458 98.698C40.7044 98.8473 40.9798 98.922 41.3718 98.922H42.3098V100H41.1618C40.4524 100 39.9204 99.8367 39.5658 99.51C39.2111 99.1833 39.0338 98.6467 39.0338 97.9V93.378H38.0398V92.328H39.0338V90.396H40.3078V92.328H42.3098V93.378H40.3078ZM45.4074 93.378V97.9C45.4074 98.2733 45.4867 98.5393 45.6454 98.698C45.8041 98.8473 46.0794 98.922 46.4714 98.922H47.4094V100H46.2614C45.5521 100 45.0201 99.8367 44.6654 99.51C44.3107 99.1833 44.1334 98.6467 44.1334 97.9V93.378H43.1394V92.328H44.1334V90.396H45.4074V92.328H47.4094V93.378H45.4074ZM55.953 95.87C55.953 96.1127 55.939 96.3693 55.911 96.64H49.779C49.8257 97.396 50.0823 97.9887 50.549 98.418C51.025 98.838 51.599 99.048 52.271 99.048C52.8217 99.048 53.279 98.922 53.643 98.67C54.0163 98.4087 54.2777 98.0633 54.427 97.634H55.799C55.5937 98.3713 55.183 98.9733 54.567 99.44C53.951 99.8973 53.1857 100.126 52.271 100.126C51.543 100.126 50.8897 99.9627 50.311 99.636C49.7417 99.3093 49.2937 98.8473 48.967 98.25C48.6403 97.6433 48.477 96.9433 48.477 96.15C48.477 95.3567 48.6357 94.6613 48.953 94.064C49.2703 93.4667 49.7137 93.0093 50.283 92.692C50.8617 92.3653 51.5243 92.202 52.271 92.202C52.999 92.202 53.643 92.3607 54.203 92.678C54.763 92.9953 55.1923 93.434 55.491 93.994C55.799 94.5447 55.953 95.17 55.953 95.87ZM54.637 95.604C54.637 95.1187 54.5297 94.7033 54.315 94.358C54.1003 94.0033 53.8063 93.7373 53.433 93.56C53.069 93.3733 52.663 93.28 52.215 93.28C51.571 93.28 51.0203 93.4853 50.563 93.896C50.115 94.3067 49.8583 94.876 49.793 95.604H54.637ZM58.9086 93.574C59.1326 93.1353 59.45 92.7947 59.8606 92.552C60.2806 92.3093 60.7893 92.188 61.3866 92.188V93.504H61.0506C59.6226 93.504 58.9086 94.2787 58.9086 95.828V100H57.6346V92.328H58.9086V93.574Z" fill="#4F5B5E"/>
<defs>
<clipPath id="clip0_608_3440">
<rect width="30" height="36" fill="white" transform="translate(25 22)"/>
</clipPath>
</defs>
</svg>
