<svg width="150" height="62" viewBox="0 0 150 62" fill="none" xmlns="http://www.w3.org/2000/svg">
<g clip-path="url(#clip0_608_3099)">
<path d="M15.3117 28.3638L3.15584 21.5066L15.3117 14.5715V12.7014L0 21.4676L15.3117 30.2339V28.3638Z" fill="#F8523B"/>
<path d="M134.688 28.3638L146.844 21.5066L134.688 14.5715V12.7014L150 21.4676L134.688 30.2339V28.3638Z" fill="#F8523B"/>
<path d="M23.922 19.3247H28.0519C29.6493 19.3247 30.896 18.039 30.896 16.4805V4.4026C30.896 2.84416 29.6103 1.55844 28.0519 1.55844H23.0259V33H20.8441V1.55844L19.2856 0H28.0519C30.7792 0 33.0389 2.22078 33.0389 4.94805V16.4026C33.0389 18.8961 31.0129 20.9221 28.4804 20.9221L40.6753 33.039H37.6363L23.922 19.3247Z" fill="white"/>
<path d="M46.9091 33.0779H43.8701L42.1948 31.4026H45.2338L46.9091 33.0779Z" fill="white"/>
<path d="M38.9222 31.4026H38.8442V31.3247L38.9222 31.4026Z" fill="white"/>
<path d="M38.9222 31.4026H38.8442V31.3247L38.9222 31.4026Z" fill="white"/>
<path d="M47.2208 15V23.1039H41.2597L39.6623 21.4676H45.2727V14.8442C45.2727 13.9481 44.9221 13.1689 44.3377 12.5845C43.7532 12 42.9351 11.6494 42.0779 11.6494C40.9091 11.6494 39.8571 12.2728 39.3117 13.2468C39.039 13.7143 38.8831 14.2598 38.8831 14.8832V28.3247L36.9351 26.3767V15C36.9351 14.4156 37.0519 13.8312 37.2078 13.3247C37.5974 12.2338 38.3377 11.2987 39.3117 10.6754C40.1299 10.1689 41.0649 9.85718 42.0779 9.85718C43.5195 9.85718 44.8052 10.4416 45.7403 11.3767C46.6753 12.2728 47.2208 13.5585 47.2208 15Z" fill="white"/>
<path d="M45.3116 21.4675V23.1039H41.2596L39.7012 21.4675H45.3116Z" fill="white"/>
<path d="M51.6232 23.1039H41.2596L39.7012 21.4675H50.0258L51.6232 23.1039Z" fill="white"/>
<path d="M118.363 23.065H107.805L106.208 21.3896H116.727L118.363 23.065Z" fill="white"/>
<path d="M112.013 21.3897V14.7664C112.013 13.8702 111.662 13.0521 111.078 12.4676C110.493 11.8832 109.714 11.4936 108.818 11.4936C107.649 11.4936 106.597 12.156 106.052 13.091C105.857 13.4417 105.701 13.8313 105.662 14.2599V27.9352C105.662 28.5586 105.818 29.104 106.13 29.5715C106.714 30.5456 107.766 31.2079 108.974 31.2079H111.896L112.402 31.7534L113.532 33.0001H109.013C107.961 33.0001 106.987 32.6884 106.169 32.1819C105.74 31.9092 105.35 31.5975 105.039 31.2079C104.61 30.7014 104.259 30.117 104.026 29.4936C103.831 28.9482 103.753 28.3638 103.753 27.7793V14.9222C103.753 14.2988 103.87 13.7534 104.026 13.2079C104.415 12.078 105.156 11.143 106.13 10.5196C106.909 10.0131 107.883 9.70142 108.896 9.70142C110.298 9.70142 111.584 10.2858 112.519 11.2209C113.454 12.156 114.039 13.4806 114.039 14.9222V21.3897H112.013Z" fill="white"/>
<path d="M60.3504 11.4935H51.5062L50.1426 9.85718H58.9867L60.3504 11.4935Z" fill="white"/>
<path d="M60.3502 1.63636H56.8437C55.1295 1.63636 53.7269 3.03896 53.7269 4.71429V33.039H51.7788V4.83117C51.7788 2.18182 53.9606 0 56.61 0H58.9866L60.3502 1.63636Z" fill="white"/>
<path d="M82.4416 11.4934H80.0649C78.3506 11.4934 76.9481 12.896 76.9481 14.5714V33.0389H75V14.6493C75 11.9999 77.1818 9.81812 79.8312 9.81812H81.039L82.4416 11.4934Z" fill="white"/>
<path d="M68.3764 11.3767C67.4413 10.4416 66.1166 9.85718 64.714 9.85718C61.8309 9.85718 59.5322 12.1948 59.5322 15.039V27.8961C59.5322 30.7403 61.8699 33.078 64.714 33.078C67.5582 33.078 69.8959 30.7403 69.8959 27.8961V15.039C69.8959 13.5974 69.3114 12.3117 68.3764 11.3767ZM67.9478 28.4026C67.9478 30.039 66.6231 31.4026 64.9478 31.4026H64.4413C62.766 31.4026 61.4413 30.078 61.4413 28.4026V14.4935C61.4413 12.8572 62.766 11.4935 64.4413 11.4935H64.9478C66.6231 11.4935 67.9478 12.8182 67.9478 14.4935V28.4026Z" fill="white"/>
<path d="M92.4546 14.2597V33.0779H90.3896V12.2727L92.4546 14.2597Z" fill="white"/>
<path d="M99.0391 14.9611V33.078H96.8573V14.4935C96.8573 12.8572 95.5326 11.5325 93.8963 11.5325H88.8313C87.195 11.5325 85.8703 12.8572 85.8703 14.4935V33.078H83.6885V14.9611C83.6885 12.1559 85.9872 9.85718 88.7924 9.85718H93.8963C96.7404 9.85718 99.0391 12.1169 99.0391 14.9611Z" fill="white"/>
<path d="M128.844 0.116943H126.896V33.0001H128.844V0.116943Z" fill="white"/>
<path d="M126.896 31.4027V33.0001H123.234C120.701 33.0001 118.675 30.9741 118.675 28.4416V14.4156C118.675 12.0001 120.623 10.052 123.039 10.052H125.143L126.623 11.5715H123.312C121.87 11.5715 120.662 12.7403 120.662 14.1819V28.5975C120.662 30.1169 121.909 31.3637 123.429 31.3637H126.896V31.4027Z" fill="white"/>
<path d="M84.1947 38.9999H70.948L68.9609 36.896H82.2077L84.1947 38.9999Z" fill="white"/>
<path d="M76.1295 61.5583H78.2334V37.7141H74.9997V60.3894C74.9607 61.0518 75.4672 61.5583 76.1295 61.5583Z" fill="white"/>
<path d="M90.8961 59.4545V39.039H100.909L98.922 36.9351H85.6753L87.6623 39.039H87.7402V59.4545V60.4286C87.7402 61.0519 88.2467 61.5974 88.8701 61.5974H90.935H98.5714L96.5844 59.4935H90.8961V59.4545Z" fill="white"/>
<path d="M91.208 47.8442L93.195 49.9871H98.5327L96.5067 47.8442H91.208Z" fill="white"/>
<path d="M126.74 61.5583H128.844V36.896H125.61V60.3895C125.61 61.0129 126.117 61.5583 126.74 61.5583Z" fill="white"/>
<path d="M117 61.5583H119.104V36.896H115.87V60.3895C115.831 61.0129 116.338 61.5583 117 61.5583Z" fill="white"/>
<path d="M119.143 47.844L121.13 49.9869H128.221L126.234 47.844H119.143Z" fill="white"/>
<path d="M111.935 59.4155H107.688C105.974 59.4155 104.571 58.0129 104.571 56.2986V42.0779C104.571 40.3636 105.974 38.961 107.688 38.961H113.026L110.883 36.8181H106.286C103.558 36.8181 101.376 38.9999 101.376 41.7272V56.3376C101.376 59.0649 103.597 61.2467 106.286 61.2467H113.844L111.935 59.4155Z" fill="white"/>
</g>
<defs>
<clipPath id="clip0_608_3099">
<rect width="150" height="61.5584" fill="white"/>
</clipPath>
</defs>
</svg>
