<svg width="206" height="134" viewBox="0 0 206 134" fill="none" xmlns="http://www.w3.org/2000/svg">
<path opacity="0.5" d="M0.192 6.37435V3.75835H11.904V6.37435H7.464V20.5583H4.608V6.37435H0.192ZM17.5417 1.83835V20.5583H14.9497V1.83835H17.5417ZM22.0538 13.8383C22.0538 13.0223 21.8858 12.4063 21.5498 11.9903C21.2297 11.5743 20.7097 11.3663 19.9898 11.3663C19.5098 11.3663 19.0858 11.4703 18.7178 11.6783C18.3498 11.8863 18.0618 12.1743 17.8538 12.5423C17.6457 12.9103 17.5417 13.3423 17.5417 13.8383H16.9178C16.9178 12.9583 17.0777 12.1743 17.3977 11.4863C17.7178 10.7983 18.1658 10.2463 18.7418 9.83035C19.3337 9.41435 20.0457 9.20635 20.8778 9.20635C21.6938 9.20635 22.3818 9.36635 22.9418 9.68635C23.5178 10.0063 23.9498 10.4863 24.2378 11.1263C24.5258 11.7503 24.6698 12.5343 24.6698 13.4783V20.5583H22.0538V13.8383ZM29.0616 5.12635C29.0616 4.67835 29.2216 4.30235 29.5416 3.99835C29.8776 3.69435 30.2616 3.54235 30.6936 3.54235C31.1576 3.54235 31.5416 3.69435 31.8456 3.99835C32.1656 4.30235 32.3256 4.67835 32.3256 5.12635C32.3256 5.55835 32.1656 5.93435 31.8456 6.25435C31.5416 6.55835 31.1576 6.71035 30.6936 6.71035C30.2616 6.71035 29.8776 6.55835 29.5416 6.25435C29.2216 5.93435 29.0616 5.55835 29.0616 5.12635ZM29.4216 9.51835H31.9656V20.5583H29.4216V9.51835ZM43.8366 13.8383C43.8366 13.0223 43.6686 12.4063 43.3326 11.9903C42.9966 11.5743 42.4766 11.3663 41.7726 11.3663C41.2926 11.3663 40.8686 11.4703 40.5006 11.6783C40.1326 11.8703 39.8446 12.1583 39.6366 12.5423C39.4286 12.9103 39.3246 13.3423 39.3246 13.8383V20.5583H36.7326V9.51835H39.3246V11.2223C39.6766 10.5663 40.1246 10.0783 40.6686 9.75835C41.2286 9.43835 41.8926 9.27835 42.6606 9.27835C43.9086 9.27835 44.8606 9.66235 45.5166 10.4303C46.1726 11.1823 46.5006 12.2223 46.5006 13.5503V20.5583H43.8366V13.8383ZM50.9147 1.83835H53.4587V20.5583H50.9147V1.83835ZM57.5147 9.51835H60.6827L55.9307 14.0783L61.1627 20.5583H58.0187L52.7387 14.0783L57.5147 9.51835Z" fill="#CDD4D5"/>
<rect x="72" y="7.55835" width="10" height="10" fill="#836663"/>
<path opacity="0.5" d="M93.872 3.75835H96.752V20.5583H93.872V3.75835ZM99.296 20.5583H95.624V17.8943H99.224C100.056 17.8943 100.824 17.7743 101.528 17.5343C102.232 17.2943 102.84 16.9343 103.352 16.4543C103.88 15.9743 104.288 15.3743 104.576 14.6543C104.88 13.9343 105.032 13.1023 105.032 12.1583C105.032 11.2143 104.88 10.3823 104.576 9.66235C104.288 8.94235 103.88 8.34235 103.352 7.86235C102.84 7.38235 102.232 7.02235 101.528 6.78235C100.824 6.54235 100.056 6.42235 99.224 6.42235H95.624V3.75835H99.296C101.008 3.75835 102.512 4.11035 103.808 4.81435C105.104 5.50235 106.112 6.47835 106.832 7.74235C107.568 8.99035 107.936 10.4623 107.936 12.1583C107.936 13.8543 107.568 15.3343 106.832 16.5983C106.112 17.8463 105.104 18.8223 103.808 19.5263C102.512 20.2143 101.008 20.5583 99.296 20.5583ZM116.484 20.7983C115.364 20.7983 114.372 20.5583 113.508 20.0783C112.66 19.5983 112.004 18.9263 111.54 18.0623C111.076 17.1983 110.844 16.1903 110.844 15.0383C110.844 13.8703 111.076 12.8543 111.54 11.9903C112.02 11.1263 112.692 10.4623 113.556 9.99835C114.42 9.51835 115.436 9.27835 116.604 9.27835C117.772 9.27835 118.764 9.50235 119.58 9.95035C120.396 10.3983 121.02 11.0463 121.452 11.8943C121.9 12.7263 122.124 13.7343 122.124 14.9183C122.124 15.0463 122.116 15.1823 122.1 15.3263C122.1 15.4703 122.092 15.5743 122.076 15.6383H112.38V13.8623H119.868L119.076 14.9663C119.124 14.8703 119.172 14.7423 119.22 14.5823C119.284 14.4063 119.316 14.2623 119.316 14.1503C119.316 13.5583 119.196 13.0463 118.956 12.6143C118.732 12.1823 118.412 11.8463 117.996 11.6063C117.596 11.3663 117.124 11.2463 116.58 11.2463C115.924 11.2463 115.364 11.3903 114.9 11.6783C114.436 11.9663 114.084 12.3823 113.844 12.9263C113.604 13.4703 113.476 14.1423 113.46 14.9423C113.46 15.7423 113.58 16.4223 113.82 16.9823C114.06 17.5263 114.412 17.9423 114.876 18.2303C115.356 18.5183 115.932 18.6623 116.604 18.6623C117.308 18.6623 117.924 18.5183 118.452 18.2303C118.98 17.9423 119.42 17.5023 119.772 16.9103L122.004 17.8223C121.428 18.8143 120.684 19.5583 119.772 20.0543C118.86 20.5503 117.764 20.7983 116.484 20.7983ZM126.302 16.9343C126.654 17.3183 127.006 17.6543 127.358 17.9423C127.726 18.2143 128.094 18.4223 128.462 18.5663C128.83 18.6943 129.198 18.7583 129.566 18.7583C130.03 18.7583 130.39 18.6543 130.646 18.4463C130.918 18.2383 131.054 17.9503 131.054 17.5823C131.054 17.2623 130.95 16.9903 130.742 16.7663C130.534 16.5263 130.246 16.3263 129.878 16.1663C129.51 15.9903 129.078 15.8143 128.582 15.6383C128.086 15.4463 127.59 15.2223 127.094 14.9663C126.614 14.6943 126.214 14.3423 125.894 13.9103C125.59 13.4783 125.438 12.9343 125.438 12.2783C125.438 11.6063 125.606 11.0463 125.942 10.5983C126.294 10.1503 126.758 9.82235 127.334 9.61435C127.926 9.39035 128.558 9.27835 129.23 9.27835C129.838 9.27835 130.406 9.36635 130.934 9.54235C131.478 9.71835 131.966 9.95035 132.398 10.2383C132.83 10.5263 133.198 10.8543 133.502 11.2223L132.062 12.7583C131.694 12.3263 131.254 11.9743 130.742 11.7023C130.23 11.4303 129.702 11.2943 129.158 11.2943C128.79 11.2943 128.486 11.3743 128.246 11.5343C128.006 11.6943 127.886 11.9263 127.886 12.2303C127.886 12.4863 127.99 12.7183 128.198 12.9263C128.422 13.1183 128.71 13.2943 129.062 13.4543C129.43 13.6143 129.838 13.7823 130.286 13.9583C130.894 14.1983 131.454 14.4623 131.966 14.7503C132.478 15.0383 132.886 15.3903 133.19 15.8063C133.51 16.2223 133.67 16.7663 133.67 17.4383C133.67 18.4783 133.31 19.3183 132.59 19.9583C131.886 20.5823 130.926 20.8943 129.71 20.8943C128.958 20.8943 128.262 20.7823 127.622 20.5583C126.998 20.3183 126.446 20.0143 125.966 19.6463C125.502 19.2623 125.11 18.8623 124.79 18.4463L126.302 16.9343ZM137.074 5.12635C137.074 4.67835 137.234 4.30235 137.554 3.99835C137.89 3.69435 138.274 3.54235 138.706 3.54235C139.17 3.54235 139.554 3.69435 139.858 3.99835C140.178 4.30235 140.338 4.67835 140.338 5.12635C140.338 5.55835 140.178 5.93435 139.858 6.25435C139.554 6.55835 139.17 6.71035 138.706 6.71035C138.274 6.71035 137.89 6.55835 137.554 6.25435C137.234 5.93435 137.074 5.55835 137.074 5.12635ZM137.434 9.51835H139.978V20.5583H137.434V9.51835ZM144.121 21.3023H146.689C146.705 21.7983 146.841 22.2463 147.097 22.6463C147.369 23.0463 147.737 23.3583 148.201 23.5823C148.665 23.8063 149.201 23.9183 149.809 23.9183C150.353 23.9183 150.873 23.7903 151.369 23.5343C151.865 23.2783 152.265 22.8863 152.569 22.3583C152.889 21.8303 153.049 21.1503 153.049 20.3183V9.51835H155.593V20.3183C155.593 21.6463 155.321 22.7423 154.777 23.6063C154.249 24.4703 153.553 25.1103 152.689 25.5264C151.825 25.9583 150.889 26.1743 149.881 26.1743C148.681 26.1743 147.657 25.9663 146.809 25.5503C145.961 25.1503 145.305 24.5823 144.841 23.8463C144.393 23.1103 144.153 22.2623 144.121 21.3023ZM143.905 14.9903C143.905 13.7583 144.153 12.7263 144.649 11.8943C145.145 11.0463 145.801 10.3983 146.617 9.95035C147.449 9.50235 148.337 9.27835 149.281 9.27835C150.209 9.27835 151.017 9.51035 151.705 9.97435C152.409 10.4223 152.961 11.0703 153.361 11.9183C153.777 12.7663 153.985 13.7903 153.985 14.9903C153.985 16.1743 153.777 17.1903 153.361 18.0383C152.961 18.8863 152.409 19.5423 151.705 20.0063C151.017 20.4543 150.209 20.6783 149.281 20.6783C148.337 20.6783 147.449 20.4543 146.617 20.0063C145.801 19.5583 145.145 18.9103 144.649 18.0623C144.153 17.2143 143.905 16.1903 143.905 14.9903ZM146.593 14.9903C146.593 15.7263 146.745 16.3503 147.049 16.8623C147.353 17.3743 147.753 17.7663 148.249 18.0383C148.761 18.2943 149.313 18.4223 149.905 18.4223C150.401 18.4223 150.889 18.2943 151.369 18.0383C151.865 17.7823 152.265 17.3983 152.569 16.8863C152.889 16.3583 153.049 15.7263 153.049 14.9903C153.049 14.4143 152.953 13.9183 152.761 13.5023C152.585 13.0703 152.345 12.7103 152.041 12.4223C151.737 12.1183 151.393 11.8943 151.009 11.7503C150.641 11.6063 150.273 11.5343 149.905 11.5343C149.313 11.5343 148.761 11.6703 148.249 11.9423C147.753 12.1983 147.353 12.5823 147.049 13.0943C146.745 13.6063 146.593 14.2383 146.593 14.9903ZM167.112 13.8383C167.112 13.0223 166.944 12.4063 166.608 11.9903C166.272 11.5743 165.752 11.3663 165.048 11.3663C164.568 11.3663 164.144 11.4703 163.776 11.6783C163.408 11.8703 163.12 12.1583 162.912 12.5423C162.704 12.9103 162.6 13.3423 162.6 13.8383V20.5583H160.008V9.51835H162.6V11.2223C162.952 10.5663 163.4 10.0783 163.944 9.75835C164.504 9.43835 165.168 9.27835 165.936 9.27835C167.184 9.27835 168.136 9.66235 168.792 10.4303C169.448 11.1823 169.776 12.2223 169.776 13.5503V20.5583H167.112V13.8383Z" fill="#CDD4D5"/>
<path opacity="0.5" d="M1.872 57.7583H4.752V74.5583H1.872V57.7583ZM7.296 74.5583H3.624V71.8943H7.224C8.056 71.8943 8.824 71.7743 9.528 71.5343C10.232 71.2943 10.84 70.9343 11.352 70.4543C11.88 69.9743 12.288 69.3743 12.576 68.6543C12.88 67.9343 13.032 67.1023 13.032 66.1583C13.032 65.2143 12.88 64.3823 12.576 63.6623C12.288 62.9423 11.88 62.3423 11.352 61.8623C10.84 61.3823 10.232 61.0223 9.528 60.7823C8.824 60.5423 8.056 60.4223 7.224 60.4223H3.624V57.7583H7.296C9.008 57.7583 10.512 58.1103 11.808 58.8143C13.104 59.5023 14.112 60.4783 14.832 61.7423C15.568 62.9903 15.936 64.4623 15.936 66.1583C15.936 67.8543 15.568 69.3343 14.832 70.5983C14.112 71.8463 13.104 72.8223 11.808 73.5263C10.512 74.2143 9.008 74.5583 7.296 74.5583ZM24.4841 74.7983C23.3641 74.7983 22.3721 74.5583 21.5081 74.0783C20.6601 73.5983 20.0041 72.9263 19.5401 72.0623C19.0761 71.1983 18.8441 70.1903 18.8441 69.0383C18.8441 67.8703 19.0761 66.8543 19.5401 65.9903C20.0201 65.1263 20.6921 64.4623 21.5561 63.9983C22.4201 63.5183 23.4361 63.2783 24.6041 63.2783C25.7721 63.2783 26.7641 63.5023 27.5801 63.9503C28.3961 64.3983 29.0201 65.0463 29.4521 65.8943C29.9001 66.7263 30.1241 67.7343 30.1241 68.9183C30.1241 69.0463 30.1161 69.1823 30.1001 69.3263C30.1001 69.4703 30.0921 69.5743 30.0761 69.6383H20.3801V67.8623H27.8681L27.0761 68.9663C27.1241 68.8703 27.1721 68.7423 27.2201 68.5823C27.2841 68.4063 27.3161 68.2623 27.3161 68.1503C27.3161 67.5583 27.1961 67.0463 26.9561 66.6143C26.7321 66.1823 26.4121 65.8463 25.9961 65.6063C25.5961 65.3663 25.1241 65.2463 24.5801 65.2463C23.9241 65.2463 23.3641 65.3903 22.9001 65.6783C22.4361 65.9663 22.0841 66.3823 21.8441 66.9263C21.6041 67.4703 21.4761 68.1423 21.4601 68.9423C21.4601 69.7423 21.5801 70.4223 21.8201 70.9823C22.0601 71.5263 22.4121 71.9423 22.8761 72.2303C23.3561 72.5183 23.9321 72.6623 24.6041 72.6623C25.3081 72.6623 25.9241 72.5183 26.4521 72.2303C26.9801 71.9423 27.4201 71.5023 27.7721 70.9103L30.0041 71.8223C29.4281 72.8143 28.6841 73.5583 27.7721 74.0543C26.8601 74.5503 25.7641 74.7983 24.4841 74.7983ZM31.7666 63.5183H34.5986L37.4786 70.6463L40.3586 63.5183H43.2146L37.4786 75.5663L31.7666 63.5183ZM50.4857 74.7983C49.3657 74.7983 48.3737 74.5583 47.5097 74.0783C46.6617 73.5983 46.0057 72.9263 45.5417 72.0623C45.0777 71.1983 44.8457 70.1903 44.8457 69.0383C44.8457 67.8703 45.0777 66.8543 45.5417 65.9903C46.0217 65.1263 46.6937 64.4623 47.5577 63.9983C48.4217 63.5183 49.4377 63.2783 50.6057 63.2783C51.7737 63.2783 52.7657 63.5023 53.5817 63.9503C54.3977 64.3983 55.0217 65.0463 55.4537 65.8943C55.9017 66.7263 56.1257 67.7343 56.1257 68.9183C56.1257 69.0463 56.1177 69.1823 56.1017 69.3263C56.1017 69.4703 56.0937 69.5743 56.0777 69.6383H46.3817V67.8623H53.8697L53.0777 68.9663C53.1257 68.8703 53.1737 68.7423 53.2217 68.5823C53.2857 68.4063 53.3177 68.2623 53.3177 68.1503C53.3177 67.5583 53.1977 67.0463 52.9577 66.6143C52.7337 66.1823 52.4137 65.8463 51.9977 65.6063C51.5977 65.3663 51.1257 65.2463 50.5817 65.2463C49.9257 65.2463 49.3657 65.3903 48.9017 65.6783C48.4377 65.9663 48.0857 66.3823 47.8457 66.9263C47.6057 67.4703 47.4777 68.1423 47.4617 68.9423C47.4617 69.7423 47.5817 70.4223 47.8217 70.9823C48.0617 71.5263 48.4137 71.9423 48.8777 72.2303C49.3577 72.5183 49.9337 72.6623 50.6057 72.6623C51.3097 72.6623 51.9257 72.5183 52.4537 72.2303C52.9817 71.9423 53.4217 71.5023 53.7737 70.9103L56.0057 71.8223C55.4297 72.8143 54.6857 73.5583 53.7737 74.0543C52.8617 74.5503 51.7657 74.7983 50.4857 74.7983ZM59.7997 55.8383H62.3917V74.5583H59.7997V55.8383ZM66.066 69.0383C66.066 67.9023 66.322 66.9023 66.834 66.0383C67.362 65.1743 68.074 64.5023 68.97 64.0223C69.866 63.5263 70.882 63.2783 72.018 63.2783C73.154 63.2783 74.162 63.5263 75.042 64.0223C75.938 64.5023 76.65 65.1743 77.178 66.0383C77.706 66.9023 77.97 67.9023 77.97 69.0383C77.97 70.1583 77.706 71.1583 77.178 72.0383C76.65 72.9023 75.938 73.5823 75.042 74.0783C74.162 74.5583 73.154 74.7983 72.018 74.7983C70.882 74.7983 69.866 74.5583 68.97 74.0783C68.074 73.5823 67.362 72.9023 66.834 72.0383C66.322 71.1583 66.066 70.1583 66.066 69.0383ZM68.73 69.0383C68.73 69.7263 68.874 70.3343 69.162 70.8623C69.45 71.3743 69.842 71.7823 70.338 72.0863C70.834 72.3743 71.394 72.5183 72.018 72.5183C72.626 72.5183 73.178 72.3743 73.674 72.0863C74.186 71.7823 74.586 71.3743 74.874 70.8623C75.162 70.3343 75.306 69.7263 75.306 69.0383C75.306 68.3503 75.162 67.7423 74.874 67.2143C74.586 66.6863 74.186 66.2783 73.674 65.9903C73.178 65.7023 72.626 65.5583 72.018 65.5583C71.394 65.5583 70.834 65.7023 70.338 65.9903C69.842 66.2783 69.45 66.6863 69.162 67.2143C68.874 67.7423 68.73 68.3503 68.73 69.0383ZM84.1494 79.8383H81.5334V63.5183H84.1494V79.8383ZM93.2934 69.0383C93.2934 70.2543 93.0454 71.3023 92.5494 72.1823C92.0534 73.0463 91.3974 73.7103 90.5814 74.1743C89.7654 74.6223 88.8774 74.8463 87.9174 74.8463C86.9734 74.8463 86.1494 74.6143 85.4454 74.1503C84.7574 73.6703 84.2214 72.9983 83.8374 72.1343C83.4694 71.2543 83.2854 70.2223 83.2854 69.0383C83.2854 67.8383 83.4694 66.8063 83.8374 65.9423C84.2214 65.0783 84.7574 64.4143 85.4454 63.9503C86.1494 63.4703 86.9734 63.2303 87.9174 63.2303C88.8774 63.2303 89.7654 63.4623 90.5814 63.9263C91.3974 64.3743 92.0534 65.0303 92.5494 65.8943C93.0454 66.7583 93.2934 67.8063 93.2934 69.0383ZM90.6054 69.0383C90.6054 68.3023 90.4534 67.6783 90.1494 67.1663C89.8454 66.6383 89.4374 66.2463 88.9254 65.9903C88.4294 65.7183 87.8774 65.5823 87.2694 65.5823C86.7734 65.5823 86.2854 65.7183 85.8054 65.9903C85.3254 66.2463 84.9254 66.6303 84.6054 67.1423C84.3014 67.6543 84.1494 68.2863 84.1494 69.0383C84.1494 69.7903 84.3014 70.4223 84.6054 70.9343C84.9254 71.4463 85.3254 71.8383 85.8054 72.1103C86.2854 72.3663 86.7734 72.4943 87.2694 72.4943C87.8774 72.4943 88.4294 72.3663 88.9254 72.1103C89.4374 71.8383 89.8454 71.4463 90.1494 70.9343C90.4534 70.4063 90.6054 69.7743 90.6054 69.0383Z" fill="#CDD4D5"/>
<rect x="105" y="61.5583" width="10" height="10" fill="#836663"/>
<path opacity="0.5" d="M126.872 57.7583H129.704V72.0143H136.376V74.5583H126.872V57.7583ZM141.043 71.1263C141.043 71.4943 141.131 71.8143 141.307 72.0863C141.483 72.3423 141.723 72.5343 142.027 72.6623C142.347 72.7903 142.707 72.8543 143.107 72.8543C143.619 72.8543 144.083 72.7503 144.499 72.5423C144.931 72.3343 145.275 72.0303 145.531 71.6303C145.803 71.2143 145.939 70.7343 145.939 70.1903L146.323 71.6303C146.323 72.3343 146.115 72.9263 145.699 73.4063C145.299 73.8703 144.787 74.2223 144.163 74.4623C143.555 74.6863 142.931 74.7983 142.291 74.7983C141.603 74.7983 140.963 74.6623 140.371 74.3903C139.779 74.1183 139.307 73.7183 138.955 73.1903C138.603 72.6623 138.427 72.0223 138.427 71.2703C138.427 70.1983 138.803 69.3503 139.555 68.7263C140.307 68.0863 141.371 67.7663 142.747 67.7663C143.483 67.7663 144.115 67.8463 144.643 68.0063C145.187 68.1663 145.635 68.3583 145.987 68.5823C146.339 68.7903 146.587 68.9823 146.731 69.1583V70.4783C146.235 70.1263 145.707 69.8703 145.147 69.7103C144.587 69.5503 143.995 69.4703 143.371 69.4703C142.827 69.4703 142.387 69.5423 142.051 69.6863C141.715 69.8143 141.459 69.9983 141.283 70.2383C141.123 70.4783 141.043 70.7743 141.043 71.1263ZM140.227 66.3983L139.171 64.5743C139.667 64.2703 140.307 63.9743 141.091 63.6863C141.891 63.3983 142.803 63.2543 143.827 63.2543C144.739 63.2543 145.539 63.3903 146.227 63.6623C146.931 63.9343 147.483 64.3263 147.883 64.8383C148.283 65.3343 148.483 65.9503 148.483 66.6863V74.5583H145.939V67.1903C145.939 66.8383 145.875 66.5503 145.747 66.3263C145.635 66.1023 145.475 65.9183 145.267 65.7743C145.059 65.6303 144.811 65.5263 144.523 65.4623C144.235 65.3983 143.923 65.3663 143.587 65.3663C143.075 65.3663 142.587 65.4303 142.123 65.5583C141.675 65.6703 141.283 65.8143 140.947 65.9903C140.627 66.1503 140.387 66.2863 140.227 66.3983ZM155.368 70.2383C155.368 71.0223 155.536 71.6303 155.872 72.0623C156.208 72.4943 156.72 72.7103 157.408 72.7103C157.904 72.7103 158.336 72.6143 158.704 72.4223C159.072 72.2143 159.36 71.9263 159.568 71.5583C159.776 71.1743 159.88 70.7343 159.88 70.2383V63.5183H162.472V74.5583H159.88V72.8543C159.528 73.4943 159.072 73.9823 158.512 74.3183C157.968 74.6383 157.312 74.7983 156.544 74.7983C155.312 74.7983 154.36 74.4143 153.688 73.6463C153.032 72.8783 152.704 71.8383 152.704 70.5263V63.5183H155.368V70.2383ZM174.087 67.8383C174.087 67.0223 173.919 66.4063 173.583 65.9903C173.247 65.5743 172.727 65.3663 172.023 65.3663C171.543 65.3663 171.119 65.4703 170.751 65.6783C170.383 65.8703 170.095 66.1583 169.887 66.5423C169.679 66.9103 169.575 67.3423 169.575 67.8383V74.5583H166.983V63.5183H169.575V65.2223C169.927 64.5663 170.375 64.0783 170.919 63.7583C171.479 63.4383 172.143 63.2783 172.911 63.2783C174.159 63.2783 175.111 63.6623 175.767 64.4303C176.423 65.1823 176.751 66.2223 176.751 67.5503V74.5583H174.087V67.8383ZM182.989 69.0383C182.989 69.7423 183.141 70.3583 183.445 70.8863C183.749 71.3983 184.157 71.8063 184.669 72.1103C185.197 72.4143 185.781 72.5663 186.421 72.5663C186.949 72.5663 187.453 72.4863 187.933 72.3263C188.413 72.1663 188.837 71.9423 189.205 71.6543C189.573 71.3663 189.845 71.0463 190.021 70.6943V73.5503C189.637 73.9343 189.117 74.2383 188.461 74.4623C187.805 74.6863 187.085 74.7983 186.301 74.7983C185.165 74.7983 184.141 74.5583 183.229 74.0783C182.333 73.5823 181.621 72.9023 181.093 72.0383C180.581 71.1583 180.325 70.1583 180.325 69.0383C180.325 67.9023 180.581 66.9023 181.093 66.0383C181.621 65.1743 182.333 64.5023 183.229 64.0223C184.141 63.5263 185.165 63.2783 186.301 63.2783C187.085 63.2783 187.805 63.3903 188.461 63.6143C189.117 63.8383 189.637 64.1423 190.021 64.5263V67.3823C189.845 67.0143 189.565 66.6943 189.181 66.4223C188.813 66.1343 188.389 65.9103 187.909 65.7503C187.429 65.5903 186.933 65.5103 186.421 65.5103C185.781 65.5103 185.197 65.6623 184.669 65.9663C184.157 66.2703 183.749 66.6863 183.445 67.2143C183.141 67.7423 182.989 68.3503 182.989 69.0383ZM196.678 55.8383V74.5583H194.086V55.8383H196.678ZM201.19 67.8383C201.19 67.0223 201.022 66.4063 200.686 65.9903C200.366 65.5743 199.846 65.3663 199.126 65.3663C198.646 65.3663 198.222 65.4703 197.854 65.6783C197.486 65.8863 197.198 66.1743 196.99 66.5423C196.782 66.9103 196.678 67.3423 196.678 67.8383H196.054C196.054 66.9583 196.214 66.1743 196.534 65.4863C196.854 64.7983 197.302 64.2463 197.878 63.8303C198.47 63.4143 199.182 63.2063 200.014 63.2063C200.83 63.2063 201.518 63.3663 202.078 63.6863C202.654 64.0063 203.086 64.4863 203.374 65.1263C203.662 65.7503 203.806 66.5343 203.806 67.4783V74.5583H201.19V67.8383Z" fill="#CDD4D5"/>
<path opacity="0.5" d="M5.328 120.542H8.4L14.088 128.558H10.68L5.328 120.542ZM1.872 111.758H4.704V128.558H1.872V111.758ZM3.552 114.206V111.758H7.056C8.272 111.758 9.328 111.974 10.224 112.406C11.136 112.838 11.84 113.446 12.336 114.23C12.832 114.998 13.08 115.91 13.08 116.966C13.08 118.022 12.832 118.942 12.336 119.726C11.84 120.51 11.136 121.118 10.224 121.55C9.328 121.982 8.272 122.198 7.056 122.198H3.552V119.87H6.936C7.576 119.87 8.136 119.758 8.616 119.534C9.112 119.31 9.496 118.99 9.768 118.574C10.04 118.142 10.176 117.63 10.176 117.038C10.176 116.43 10.04 115.918 9.768 115.502C9.496 115.086 9.112 114.766 8.616 114.542C8.136 114.318 7.576 114.206 6.936 114.206H3.552ZM21.9294 128.798C20.8094 128.798 19.8174 128.558 18.9534 128.078C18.1054 127.598 17.4494 126.926 16.9854 126.062C16.5214 125.198 16.2894 124.19 16.2894 123.038C16.2894 121.87 16.5214 120.854 16.9854 119.99C17.4654 119.126 18.1374 118.462 19.0014 117.998C19.8654 117.518 20.8814 117.278 22.0494 117.278C23.2174 117.278 24.2094 117.502 25.0254 117.95C25.8414 118.398 26.4654 119.046 26.8974 119.894C27.3454 120.726 27.5694 121.734 27.5694 122.918C27.5694 123.046 27.5614 123.182 27.5454 123.326C27.5454 123.47 27.5374 123.574 27.5214 123.638H17.8254V121.862H25.3134L24.5214 122.966C24.5694 122.87 24.6174 122.742 24.6654 122.582C24.7294 122.406 24.7614 122.262 24.7614 122.15C24.7614 121.558 24.6414 121.046 24.4014 120.614C24.1774 120.182 23.8574 119.846 23.4414 119.606C23.0414 119.366 22.5694 119.246 22.0254 119.246C21.3694 119.246 20.8094 119.39 20.3454 119.678C19.8814 119.966 19.5294 120.382 19.2894 120.926C19.0494 121.47 18.9214 122.142 18.9054 122.942C18.9054 123.742 19.0254 124.422 19.2654 124.982C19.5054 125.526 19.8574 125.942 20.3214 126.23C20.8014 126.518 21.3774 126.662 22.0494 126.662C22.7534 126.662 23.3694 126.518 23.8974 126.23C24.4254 125.942 24.8654 125.502 25.2174 124.91L27.4494 125.822C26.8734 126.814 26.1294 127.558 25.2174 128.054C24.3054 128.55 23.2094 128.798 21.9294 128.798ZM33.7635 133.838H31.1475V117.518H33.7635V133.838ZM42.9075 123.038C42.9075 124.254 42.6595 125.302 42.1635 126.182C41.6675 127.046 41.0115 127.71 40.1955 128.174C39.3795 128.622 38.4915 128.846 37.5315 128.846C36.5875 128.846 35.7635 128.614 35.0595 128.15C34.3715 127.67 33.8355 126.998 33.4515 126.134C33.0835 125.254 32.8995 124.222 32.8995 123.038C32.8995 121.838 33.0835 120.806 33.4515 119.942C33.8355 119.078 34.3715 118.414 35.0595 117.95C35.7635 117.47 36.5875 117.23 37.5315 117.23C38.4915 117.23 39.3795 117.462 40.1955 117.926C41.0115 118.374 41.6675 119.03 42.1635 119.894C42.6595 120.758 42.9075 121.806 42.9075 123.038ZM40.2195 123.038C40.2195 122.302 40.0675 121.678 39.7635 121.166C39.4595 120.638 39.0515 120.246 38.5395 119.99C38.0435 119.718 37.4915 119.582 36.8835 119.582C36.3875 119.582 35.8995 119.718 35.4195 119.99C34.9395 120.246 34.5395 120.63 34.2195 121.142C33.9155 121.654 33.7635 122.286 33.7635 123.038C33.7635 123.79 33.9155 124.422 34.2195 124.934C34.5395 125.446 34.9395 125.838 35.4195 126.11C35.8995 126.366 36.3875 126.494 36.8835 126.494C37.4915 126.494 38.0435 126.366 38.5395 126.11C39.0515 125.838 39.4595 125.446 39.7635 124.934C40.0675 124.406 40.2195 123.774 40.2195 123.038ZM51.3763 128.798C50.2563 128.798 49.2643 128.558 48.4003 128.078C47.5523 127.598 46.8963 126.926 46.4323 126.062C45.9683 125.198 45.7363 124.19 45.7363 123.038C45.7363 121.87 45.9683 120.854 46.4323 119.99C46.9123 119.126 47.5843 118.462 48.4483 117.998C49.3123 117.518 50.3283 117.278 51.4963 117.278C52.6643 117.278 53.6563 117.502 54.4723 117.95C55.2883 118.398 55.9123 119.046 56.3443 119.894C56.7923 120.726 57.0163 121.734 57.0163 122.918C57.0163 123.046 57.0083 123.182 56.9923 123.326C56.9923 123.47 56.9843 123.574 56.9683 123.638H47.2723V121.862H54.7603L53.9683 122.966C54.0163 122.87 54.0643 122.742 54.1123 122.582C54.1763 122.406 54.2083 122.262 54.2083 122.15C54.2083 121.558 54.0883 121.046 53.8483 120.614C53.6243 120.182 53.3043 119.846 52.8883 119.606C52.4883 119.366 52.0163 119.246 51.4723 119.246C50.8163 119.246 50.2563 119.39 49.7923 119.678C49.3283 119.966 48.9763 120.382 48.7363 120.926C48.4963 121.47 48.3683 122.142 48.3523 122.942C48.3523 123.742 48.4723 124.422 48.7123 124.982C48.9523 125.526 49.3043 125.942 49.7683 126.23C50.2483 126.518 50.8243 126.662 51.4963 126.662C52.2003 126.662 52.8163 126.518 53.3443 126.23C53.8723 125.942 54.3123 125.502 54.6643 124.91L56.8963 125.822C56.3203 126.814 55.5763 127.558 54.6643 128.054C53.7523 128.55 52.6563 128.798 51.3763 128.798ZM62.3224 125.126C62.3224 125.494 62.4104 125.814 62.5864 126.086C62.7624 126.342 63.0024 126.534 63.3064 126.662C63.6264 126.79 63.9864 126.854 64.3864 126.854C64.8984 126.854 65.3624 126.75 65.7784 126.542C66.2104 126.334 66.5544 126.03 66.8104 125.63C67.0824 125.214 67.2184 124.734 67.2184 124.19L67.6024 125.63C67.6024 126.334 67.3944 126.926 66.9784 127.406C66.5784 127.87 66.0664 128.222 65.4424 128.462C64.8344 128.686 64.2104 128.798 63.5704 128.798C62.8824 128.798 62.2424 128.662 61.6504 128.39C61.0584 128.118 60.5864 127.718 60.2344 127.19C59.8824 126.662 59.7064 126.022 59.7064 125.27C59.7064 124.198 60.0824 123.35 60.8344 122.726C61.5864 122.086 62.6504 121.766 64.0264 121.766C64.7624 121.766 65.3944 121.846 65.9224 122.006C66.4664 122.166 66.9144 122.358 67.2664 122.582C67.6184 122.79 67.8664 122.982 68.0104 123.158V124.478C67.5144 124.126 66.9864 123.87 66.4264 123.71C65.8664 123.55 65.2744 123.47 64.6504 123.47C64.1064 123.47 63.6664 123.542 63.3304 123.686C62.9944 123.814 62.7384 123.998 62.5624 124.238C62.4024 124.478 62.3224 124.774 62.3224 125.126ZM61.5064 120.398L60.4504 118.574C60.9464 118.27 61.5864 117.974 62.3704 117.686C63.1704 117.398 64.0824 117.254 65.1064 117.254C66.0184 117.254 66.8184 117.39 67.5064 117.662C68.2104 117.934 68.7624 118.326 69.1624 118.838C69.5624 119.334 69.7624 119.95 69.7624 120.686V128.558H67.2184V121.19C67.2184 120.838 67.1544 120.55 67.0264 120.326C66.9144 120.102 66.7544 119.918 66.5464 119.774C66.3384 119.63 66.0904 119.526 65.8024 119.462C65.5144 119.398 65.2024 119.366 64.8664 119.366C64.3544 119.366 63.8664 119.43 63.4024 119.558C62.9544 119.67 62.5624 119.814 62.2264 119.99C61.9064 120.15 61.6664 120.286 61.5064 120.398ZM72.4481 117.518H78.7121V119.798H72.4481V117.518ZM74.2961 113.678H76.8641V128.558H74.2961V113.678Z" fill="#CDD4D5"/>
<rect x="89" y="115.558" width="10" height="10" fill="#836663"/>
<path opacity="0.5" d="M111.976 123.158C112.344 123.798 112.736 124.366 113.152 124.862C113.584 125.342 114.056 125.718 114.568 125.99C115.08 126.246 115.656 126.374 116.296 126.374C117.064 126.374 117.688 126.166 118.168 125.75C118.648 125.334 118.888 124.798 118.888 124.142C118.888 123.518 118.736 123.022 118.432 122.654C118.128 122.27 117.704 121.95 117.16 121.694C116.632 121.422 116.016 121.158 115.312 120.902C114.896 120.758 114.432 120.566 113.92 120.326C113.408 120.07 112.92 119.758 112.456 119.39C111.992 119.006 111.608 118.542 111.304 117.998C111 117.438 110.848 116.766 110.848 115.982C110.848 115.086 111.08 114.302 111.544 113.63C112.008 112.942 112.632 112.414 113.416 112.046C114.216 111.662 115.12 111.47 116.128 111.47C117.12 111.47 117.984 111.646 118.72 111.998C119.456 112.35 120.072 112.798 120.568 113.342C121.08 113.886 121.48 114.454 121.768 115.046L119.464 116.342C119.256 115.926 118.992 115.542 118.672 115.19C118.352 114.822 117.976 114.534 117.544 114.326C117.128 114.102 116.64 113.99 116.08 113.99C115.296 113.99 114.72 114.174 114.352 114.542C113.984 114.894 113.8 115.31 113.8 115.79C113.8 116.222 113.928 116.614 114.184 116.966C114.456 117.302 114.872 117.622 115.432 117.926C115.992 118.23 116.72 118.542 117.616 118.862C118.112 119.038 118.608 119.262 119.104 119.534C119.616 119.806 120.08 120.15 120.496 120.566C120.912 120.966 121.24 121.438 121.48 121.982C121.736 122.526 121.864 123.166 121.864 123.902C121.864 124.686 121.712 125.39 121.408 126.014C121.104 126.638 120.688 127.166 120.16 127.598C119.632 128.014 119.032 128.334 118.36 128.558C117.704 128.798 117.016 128.918 116.296 128.918C115.304 128.918 114.384 128.726 113.536 128.342C112.704 127.942 111.976 127.414 111.352 126.758C110.728 126.102 110.232 125.39 109.864 124.622L111.976 123.158ZM128.418 124.238C128.418 125.022 128.586 125.63 128.922 126.062C129.258 126.494 129.77 126.71 130.458 126.71C130.954 126.71 131.386 126.614 131.754 126.422C132.122 126.214 132.41 125.926 132.618 125.558C132.826 125.174 132.93 124.734 132.93 124.238V117.518H135.522V128.558H132.93V126.854C132.578 127.494 132.122 127.982 131.562 128.318C131.018 128.638 130.362 128.798 129.594 128.798C128.362 128.798 127.41 128.414 126.738 127.646C126.082 126.878 125.754 125.838 125.754 124.526V117.518H128.418V124.238ZM141.761 123.038C141.761 123.742 141.913 124.358 142.217 124.886C142.521 125.398 142.929 125.806 143.441 126.11C143.969 126.414 144.553 126.566 145.193 126.566C145.721 126.566 146.225 126.486 146.705 126.326C147.185 126.166 147.609 125.942 147.977 125.654C148.345 125.366 148.617 125.046 148.793 124.694V127.55C148.409 127.934 147.889 128.238 147.233 128.462C146.577 128.686 145.857 128.798 145.073 128.798C143.937 128.798 142.913 128.558 142.001 128.078C141.105 127.582 140.393 126.902 139.865 126.038C139.353 125.158 139.097 124.158 139.097 123.038C139.097 121.902 139.353 120.902 139.865 120.038C140.393 119.174 141.105 118.502 142.001 118.022C142.913 117.526 143.937 117.278 145.073 117.278C145.857 117.278 146.577 117.39 147.233 117.614C147.889 117.838 148.409 118.142 148.793 118.526V121.382C148.617 121.014 148.337 120.694 147.953 120.422C147.585 120.134 147.161 119.91 146.681 119.75C146.201 119.59 145.705 119.51 145.193 119.51C144.553 119.51 143.969 119.662 143.441 119.966C142.929 120.27 142.521 120.686 142.217 121.214C141.913 121.742 141.761 122.35 141.761 123.038ZM154.586 123.038C154.586 123.742 154.738 124.358 155.042 124.886C155.346 125.398 155.754 125.806 156.266 126.11C156.794 126.414 157.378 126.566 158.018 126.566C158.546 126.566 159.05 126.486 159.53 126.326C160.01 126.166 160.434 125.942 160.802 125.654C161.17 125.366 161.442 125.046 161.618 124.694V127.55C161.234 127.934 160.714 128.238 160.058 128.462C159.402 128.686 158.682 128.798 157.898 128.798C156.762 128.798 155.738 128.558 154.826 128.078C153.93 127.582 153.218 126.902 152.69 126.038C152.178 125.158 151.922 124.158 151.922 123.038C151.922 121.902 152.178 120.902 152.69 120.038C153.218 119.174 153.93 118.502 154.826 118.022C155.738 117.526 156.762 117.278 157.898 117.278C158.682 117.278 159.402 117.39 160.058 117.614C160.714 117.838 161.234 118.142 161.618 118.526V121.382C161.442 121.014 161.162 120.694 160.778 120.422C160.41 120.134 159.986 119.91 159.506 119.75C159.026 119.59 158.53 119.51 158.018 119.51C157.378 119.51 156.794 119.662 156.266 119.966C155.754 120.27 155.346 120.686 155.042 121.214C154.738 121.742 154.586 122.35 154.586 123.038ZM170.483 128.798C169.363 128.798 168.371 128.558 167.507 128.078C166.659 127.598 166.003 126.926 165.539 126.062C165.075 125.198 164.843 124.19 164.843 123.038C164.843 121.87 165.075 120.854 165.539 119.99C166.019 119.126 166.691 118.462 167.555 117.998C168.419 117.518 169.435 117.278 170.603 117.278C171.771 117.278 172.763 117.502 173.579 117.95C174.395 118.398 175.019 119.046 175.451 119.894C175.899 120.726 176.123 121.734 176.123 122.918C176.123 123.046 176.115 123.182 176.099 123.326C176.099 123.47 176.091 123.574 176.075 123.638H166.379V121.862H173.867L173.075 122.966C173.123 122.87 173.171 122.742 173.219 122.582C173.283 122.406 173.315 122.262 173.315 122.15C173.315 121.558 173.195 121.046 172.955 120.614C172.731 120.182 172.411 119.846 171.995 119.606C171.595 119.366 171.123 119.246 170.579 119.246C169.923 119.246 169.363 119.39 168.899 119.678C168.435 119.966 168.083 120.382 167.843 120.926C167.603 121.47 167.475 122.142 167.459 122.942C167.459 123.742 167.579 124.422 167.819 124.982C168.059 125.526 168.411 125.942 168.875 126.23C169.355 126.518 169.931 126.662 170.603 126.662C171.307 126.662 171.923 126.518 172.451 126.23C172.979 125.942 173.419 125.502 173.771 124.91L176.003 125.822C175.427 126.814 174.683 127.558 173.771 128.054C172.859 128.55 171.763 128.798 170.483 128.798ZM180.301 124.934C180.653 125.318 181.005 125.654 181.357 125.942C181.725 126.214 182.093 126.422 182.461 126.566C182.829 126.694 183.197 126.758 183.565 126.758C184.029 126.758 184.389 126.654 184.645 126.446C184.917 126.238 185.053 125.95 185.053 125.582C185.053 125.262 184.949 124.99 184.741 124.766C184.533 124.526 184.245 124.326 183.877 124.166C183.509 123.99 183.077 123.814 182.581 123.638C182.085 123.446 181.589 123.222 181.093 122.966C180.613 122.694 180.213 122.342 179.893 121.91C179.589 121.478 179.437 120.934 179.437 120.278C179.437 119.606 179.605 119.046 179.941 118.598C180.293 118.15 180.757 117.822 181.333 117.614C181.925 117.39 182.557 117.278 183.229 117.278C183.837 117.278 184.405 117.366 184.933 117.542C185.477 117.718 185.965 117.95 186.397 118.238C186.829 118.526 187.197 118.854 187.501 119.222L186.061 120.758C185.693 120.326 185.253 119.974 184.741 119.702C184.229 119.43 183.701 119.294 183.157 119.294C182.789 119.294 182.485 119.374 182.245 119.534C182.005 119.694 181.885 119.926 181.885 120.23C181.885 120.486 181.989 120.718 182.197 120.926C182.421 121.118 182.709 121.294 183.061 121.454C183.429 121.614 183.837 121.782 184.285 121.958C184.893 122.198 185.453 122.462 185.965 122.75C186.477 123.038 186.885 123.39 187.189 123.806C187.509 124.222 187.669 124.766 187.669 125.438C187.669 126.478 187.309 127.318 186.589 127.958C185.885 128.582 184.925 128.894 183.709 128.894C182.957 128.894 182.261 128.782 181.621 128.558C180.997 128.318 180.445 128.014 179.965 127.646C179.501 127.262 179.109 126.862 178.789 126.446L180.301 124.934ZM191.672 124.934C192.024 125.318 192.376 125.654 192.728 125.942C193.096 126.214 193.464 126.422 193.832 126.566C194.2 126.694 194.568 126.758 194.936 126.758C195.4 126.758 195.76 126.654 196.016 126.446C196.288 126.238 196.424 125.95 196.424 125.582C196.424 125.262 196.32 124.99 196.112 124.766C195.904 124.526 195.616 124.326 195.248 124.166C194.88 123.99 194.448 123.814 193.952 123.638C193.456 123.446 192.96 123.222 192.464 122.966C191.984 122.694 191.584 122.342 191.264 121.91C190.96 121.478 190.808 120.934 190.808 120.278C190.808 119.606 190.976 119.046 191.312 118.598C191.664 118.15 192.128 117.822 192.704 117.614C193.296 117.39 193.928 117.278 194.6 117.278C195.208 117.278 195.776 117.366 196.304 117.542C196.848 117.718 197.336 117.95 197.768 118.238C198.2 118.526 198.568 118.854 198.872 119.222L197.432 120.758C197.064 120.326 196.624 119.974 196.112 119.702C195.6 119.43 195.072 119.294 194.528 119.294C194.16 119.294 193.856 119.374 193.616 119.534C193.376 119.694 193.256 119.926 193.256 120.23C193.256 120.486 193.36 120.718 193.568 120.926C193.792 121.118 194.08 121.294 194.432 121.454C194.8 121.614 195.208 121.782 195.656 121.958C196.264 122.198 196.824 122.462 197.336 122.75C197.848 123.038 198.256 123.39 198.56 123.806C198.88 124.222 199.04 124.766 199.04 125.438C199.04 126.478 198.68 127.318 197.96 127.958C197.256 128.582 196.296 128.894 195.08 128.894C194.328 128.894 193.632 128.782 192.992 128.558C192.368 128.318 191.816 128.014 191.336 127.646C190.872 127.262 190.48 126.862 190.16 126.446L191.672 124.934Z" fill="#CDD4D5"/>
</svg>
