<svg width="408" height="380" viewBox="0 0 408 380" fill="none" xmlns="http://www.w3.org/2000/svg">
<rect x="0.5" y="0.5" width="406" height="379" rx="19.5" fill="#FFF3F1" stroke="#FFCEC7"/>
<path d="M41.8875 75.0988C41.7163 75.0988 41.5438 75.0399 41.403 74.92L36.5595 70.7958C36.3925 70.6534 36.2964 70.4454 36.2964 70.2257C36.2964 70.0064 36.3929 69.7984 36.5595 69.656L41.403 65.5317C41.7175 65.2636 42.1899 65.3016 42.4581 65.6161C42.7258 65.9311 42.6882 66.4035 42.3733 66.6712L38.1994 70.2257L42.3733 73.7802C42.6882 74.0483 42.7258 74.5207 42.4581 74.8353C42.3098 75.0094 42.0993 75.0988 41.8875 75.0988Z" fill="#FF725E"/>
<path d="M51.4495 75.0988C51.2378 75.0988 51.0273 75.0094 50.8794 74.8353C50.6113 74.5207 50.6493 74.0483 50.9638 73.7802L55.1377 70.2257L50.9638 66.6712C50.6493 66.4035 50.6113 65.9311 50.8794 65.6161C51.1471 65.3016 51.62 65.2636 51.9341 65.5317L56.7775 69.656C56.9446 69.7984 57.0407 70.0064 57.0407 70.2257C57.0407 70.4454 56.9446 70.6534 56.7775 70.7958L51.9341 74.92C51.7933 75.0399 51.6208 75.0988 51.4495 75.0988Z" fill="#FF725E"/>
<path d="M44.9543 78.1921C44.9029 78.1921 44.8511 78.1867 44.7989 78.1759C44.3946 78.0906 44.1356 77.6934 44.2208 77.2891L47.2394 62.9571C47.3246 62.5528 47.7214 62.2938 48.1262 62.379C48.5305 62.4642 48.7894 62.861 48.7042 63.2658L45.6856 77.5978C45.6113 77.9503 45.3005 78.1921 44.9543 78.1921Z" fill="#FF725E"/>
<path d="M64.3116 86H29.0256C26.2547 86 24 83.7458 24 80.9744V51.0256C24 48.2547 26.2547 46 29.0256 46H64.3116C67.0825 46 69.3372 48.2547 69.3372 51.0256V80.9744C69.3372 83.7458 67.0825 86 64.3116 86ZM29.0256 47.497C27.08 47.497 25.497 49.08 25.497 51.0256V80.9744C25.497 82.92 27.08 84.503 29.0256 84.503H64.3116C66.2572 84.503 67.8402 82.92 67.8402 80.9744V51.0256C67.8402 49.08 66.2572 47.497 64.3116 47.497H29.0256Z" fill="#4F5B5E"/>
<path d="M68.5887 57.9858H24.7485C24.335 57.9858 24 57.6508 24 57.2373C24 56.8242 24.335 56.4888 24.7485 56.4888H68.5887C69.0022 56.4888 69.3372 56.8242 69.3372 57.2373C69.3372 57.6508 69.0022 57.9858 68.5887 57.9858Z" fill="#4F5B5E"/>
<path d="M36.7886 54.4039C35.4829 54.4039 34.4199 53.3409 34.4199 52.0352C34.4199 50.7291 35.4829 49.6665 36.7886 49.6665C38.0947 49.6665 39.1573 50.7291 39.1573 52.0352C39.1573 53.3409 38.0947 54.4039 36.7886 54.4039ZM36.7886 51.1635C36.3083 51.1635 35.9169 51.5544 35.9169 52.0352C35.9169 52.5159 36.3083 52.9069 36.7886 52.9069C37.2694 52.9069 37.6603 52.5159 37.6603 52.0352C37.6603 51.5544 37.2694 51.1635 36.7886 51.1635Z" fill="#FF725E"/>
<path d="M29.5113 54.3809C28.2052 54.3809 27.1426 53.3183 27.1426 52.0122C27.1426 50.7061 28.2052 49.6436 29.5113 49.6436C30.8174 49.6436 31.88 50.7061 31.88 52.0122C31.88 53.3183 30.8174 54.3809 29.5113 54.3809ZM29.5113 51.1405C29.0309 51.1405 28.6396 51.5319 28.6396 52.0122C28.6396 52.493 29.0309 52.884 29.5113 52.884C29.992 52.884 30.383 52.493 30.383 52.0122C30.383 51.5319 29.992 51.1405 29.5113 51.1405Z" fill="#FF725E"/>
<path d="M44.066 54.4269C42.7603 54.4269 41.6978 53.3643 41.6978 52.0582C41.6978 50.7525 42.7603 49.6899 44.066 49.6899C45.3721 49.6899 46.4347 50.7525 46.4347 52.0582C46.4347 53.3643 45.3721 54.4269 44.066 54.4269ZM44.066 51.1865C43.5857 51.1865 43.1947 51.5775 43.1947 52.0582C43.1947 52.539 43.5857 52.9299 44.066 52.9299C44.5468 52.9299 44.9377 52.539 44.9377 52.0582C44.9377 51.5775 44.5468 51.1865 44.066 51.1865Z" fill="#FF725E"/>
<path d="M39.642 131.918L43.25 121.6H46.264L39.972 137.814L35.22 126.924L30.468 137.814L24.176 121.6H27.19L30.842 131.918L35.22 120.83L39.642 131.918ZM50.586 137.22C49.5593 137.22 48.65 137 47.858 136.56C47.0806 136.12 46.4793 135.504 46.054 134.712C45.6286 133.92 45.416 132.996 45.416 131.94C45.416 130.869 45.6286 129.938 46.054 129.146C46.494 128.354 47.11 127.745 47.902 127.32C48.694 126.88 49.6253 126.66 50.696 126.66C51.7666 126.66 52.676 126.865 53.424 127.276C54.172 127.687 54.744 128.281 55.14 129.058C55.5506 129.821 55.756 130.745 55.756 131.83C55.756 131.947 55.7486 132.072 55.734 132.204C55.734 132.336 55.7266 132.431 55.712 132.49H46.824V130.862H53.688L52.962 131.874C53.006 131.786 53.05 131.669 53.094 131.522C53.1526 131.361 53.182 131.229 53.182 131.126C53.182 130.583 53.072 130.114 52.852 129.718C52.6466 129.322 52.3533 129.014 51.972 128.794C51.6053 128.574 51.1726 128.464 50.674 128.464C50.0726 128.464 49.5593 128.596 49.134 128.86C48.7086 129.124 48.386 129.505 48.166 130.004C47.946 130.503 47.8286 131.119 47.814 131.852C47.814 132.585 47.924 133.209 48.144 133.722C48.364 134.221 48.6866 134.602 49.112 134.866C49.552 135.13 50.08 135.262 50.696 135.262C51.3413 135.262 51.906 135.13 52.39 134.866C52.874 134.602 53.2773 134.199 53.6 133.656L55.646 134.492C55.118 135.401 54.436 136.083 53.6 136.538C52.764 136.993 51.7593 137.22 50.586 137.22ZM60.3339 119.84V137H57.9359V119.84H60.3339ZM68.7159 131.94C68.7159 133.04 68.4885 133.986 68.0339 134.778C67.5792 135.57 66.9779 136.179 66.2299 136.604C65.4819 137.015 64.6679 137.22 63.7879 137.22C62.9519 137.22 62.2039 137.007 61.5439 136.582C60.8985 136.157 60.3925 135.548 60.0259 134.756C59.6592 133.964 59.4759 133.025 59.4759 131.94C59.4759 130.84 59.6592 129.901 60.0259 129.124C60.3925 128.332 60.8985 127.723 61.5439 127.298C62.2039 126.873 62.9519 126.66 63.7879 126.66C64.6679 126.66 65.4819 126.873 66.2299 127.298C66.9779 127.709 67.5792 128.31 68.0339 129.102C68.4885 129.879 68.7159 130.825 68.7159 131.94ZM66.2519 131.94C66.2519 131.265 66.1125 130.686 65.8339 130.202C65.5552 129.718 65.1812 129.351 64.7119 129.102C64.2572 128.853 63.7512 128.728 63.1939 128.728C62.7392 128.728 62.2919 128.853 61.8519 129.102C61.4119 129.351 61.0452 129.718 60.7519 130.202C60.4732 130.671 60.3339 131.251 60.3339 131.94C60.3339 132.629 60.4732 133.216 60.7519 133.7C61.0452 134.169 61.4119 134.529 61.8519 134.778C62.2919 135.027 62.7392 135.152 63.1939 135.152C63.7512 135.152 64.2572 135.027 64.7119 134.778C65.1812 134.529 65.5552 134.162 65.8339 133.678C66.1125 133.194 66.2519 132.615 66.2519 131.94ZM71.4409 133.678C71.7636 134.03 72.0863 134.338 72.4089 134.602C72.7463 134.851 73.0836 135.042 73.4209 135.174C73.7583 135.291 74.0956 135.35 74.4329 135.35C74.8583 135.35 75.1883 135.255 75.4229 135.064C75.6723 134.873 75.7969 134.609 75.7969 134.272C75.7969 133.979 75.7016 133.729 75.5109 133.524C75.3203 133.304 75.0563 133.121 74.7189 132.974C74.3816 132.813 73.9856 132.651 73.5309 132.49C73.0763 132.314 72.6216 132.109 72.1669 131.874C71.7269 131.625 71.3603 131.302 71.0669 130.906C70.7883 130.51 70.6489 130.011 70.6489 129.41C70.6489 128.794 70.8029 128.281 71.1109 127.87C71.4336 127.459 71.8589 127.159 72.3869 126.968C72.9296 126.763 73.5089 126.66 74.1249 126.66C74.6823 126.66 75.2029 126.741 75.6869 126.902C76.1856 127.063 76.6329 127.276 77.0289 127.54C77.4249 127.804 77.7623 128.105 78.0409 128.442L76.7209 129.85C76.3836 129.454 75.9803 129.131 75.5109 128.882C75.0416 128.633 74.5576 128.508 74.0589 128.508C73.7216 128.508 73.4429 128.581 73.2229 128.728C73.0029 128.875 72.8929 129.087 72.8929 129.366C72.8929 129.601 72.9883 129.813 73.1789 130.004C73.3843 130.18 73.6483 130.341 73.9709 130.488C74.3083 130.635 74.6823 130.789 75.0929 130.95C75.6503 131.17 76.1636 131.412 76.6329 131.676C77.1023 131.94 77.4763 132.263 77.7549 132.644C78.0483 133.025 78.1949 133.524 78.1949 134.14C78.1949 135.093 77.8649 135.863 77.2049 136.45C76.5596 137.022 75.6796 137.308 74.5649 137.308C73.8756 137.308 73.2376 137.205 72.6509 137C72.0789 136.78 71.5729 136.501 71.1329 136.164C70.7076 135.812 70.3483 135.445 70.0549 135.064L71.4409 133.678ZM80.2152 122.854C80.2152 122.443 80.3618 122.099 80.6552 121.82C80.9632 121.541 81.3152 121.402 81.7112 121.402C82.1365 121.402 82.4885 121.541 82.7672 121.82C83.0605 122.099 83.2072 122.443 83.2072 122.854C83.2072 123.25 83.0605 123.595 82.7672 123.888C82.4885 124.167 82.1365 124.306 81.7112 124.306C81.3152 124.306 80.9632 124.167 80.6552 123.888C80.3618 123.595 80.2152 123.25 80.2152 122.854ZM80.5452 126.88H82.8772V137H80.5452V126.88ZM84.7389 126.88H90.4809V128.97H84.7389V126.88ZM86.4329 123.36H88.7869V137H86.4329V123.36ZM96.5196 137.22C95.4929 137.22 94.5836 137 93.7916 136.56C93.0142 136.12 92.4129 135.504 91.9876 134.712C91.5622 133.92 91.3496 132.996 91.3496 131.94C91.3496 130.869 91.5622 129.938 91.9876 129.146C92.4276 128.354 93.0436 127.745 93.8356 127.32C94.6276 126.88 95.5589 126.66 96.6296 126.66C97.7002 126.66 98.6096 126.865 99.3576 127.276C100.106 127.687 100.678 128.281 101.074 129.058C101.484 129.821 101.69 130.745 101.69 131.83C101.69 131.947 101.682 132.072 101.668 132.204C101.668 132.336 101.66 132.431 101.646 132.49H92.7576V130.862H99.6216L98.8956 131.874C98.9396 131.786 98.9836 131.669 99.0276 131.522C99.0862 131.361 99.1156 131.229 99.1156 131.126C99.1156 130.583 99.0056 130.114 98.7856 129.718C98.5802 129.322 98.2869 129.014 97.9056 128.794C97.5389 128.574 97.1062 128.464 96.6076 128.464C96.0062 128.464 95.4929 128.596 95.0676 128.86C94.6422 129.124 94.3196 129.505 94.0996 130.004C93.8796 130.503 93.7622 131.119 93.7476 131.852C93.7476 132.585 93.8576 133.209 94.0776 133.722C94.2976 134.221 94.6202 134.602 95.0456 134.866C95.4856 135.13 96.0136 135.262 96.6296 135.262C97.2749 135.262 97.8396 135.13 98.3236 134.866C98.8076 134.602 99.2109 134.199 99.5336 133.656L101.58 134.492C101.052 135.401 100.37 136.083 99.5336 136.538C98.6976 136.993 97.6929 137.22 96.5196 137.22ZM110.751 121.6H113.391V137H110.751V121.6ZM115.723 137H112.357V134.558H115.657C116.42 134.558 117.124 134.448 117.769 134.228C118.414 134.008 118.972 133.678 119.441 133.238C119.925 132.798 120.299 132.248 120.563 131.588C120.842 130.928 120.981 130.165 120.981 129.3C120.981 128.435 120.842 127.672 120.563 127.012C120.299 126.352 119.925 125.802 119.441 125.362C118.972 124.922 118.414 124.592 117.769 124.372C117.124 124.152 116.42 124.042 115.657 124.042H112.357V121.6H115.723C117.292 121.6 118.671 121.923 119.859 122.568C121.047 123.199 121.971 124.093 122.631 125.252C123.306 126.396 123.643 127.745 123.643 129.3C123.643 130.855 123.306 132.211 122.631 133.37C121.971 134.514 121.047 135.409 119.859 136.054C118.671 136.685 117.292 137 115.723 137ZM130.379 137.22C129.352 137.22 128.443 137 127.651 136.56C126.874 136.12 126.272 135.504 125.847 134.712C125.422 133.92 125.209 132.996 125.209 131.94C125.209 130.869 125.422 129.938 125.847 129.146C126.287 128.354 126.903 127.745 127.695 127.32C128.487 126.88 129.418 126.66 130.489 126.66C131.56 126.66 132.469 126.865 133.217 127.276C133.965 127.687 134.537 128.281 134.933 129.058C135.344 129.821 135.549 130.745 135.549 131.83C135.549 131.947 135.542 132.072 135.527 132.204C135.527 132.336 135.52 132.431 135.505 132.49H126.617V130.862H133.481L132.755 131.874C132.799 131.786 132.843 131.669 132.887 131.522C132.946 131.361 132.975 131.229 132.975 131.126C132.975 130.583 132.865 130.114 132.645 129.718C132.44 129.322 132.146 129.014 131.765 128.794C131.398 128.574 130.966 128.464 130.467 128.464C129.866 128.464 129.352 128.596 128.927 128.86C128.502 129.124 128.179 129.505 127.959 130.004C127.739 130.503 127.622 131.119 127.607 131.852C127.607 132.585 127.717 133.209 127.937 133.722C128.157 134.221 128.48 134.602 128.905 134.866C129.345 135.13 129.873 135.262 130.489 135.262C131.134 135.262 131.699 135.13 132.183 134.866C132.667 134.602 133.07 134.199 133.393 133.656L135.439 134.492C134.911 135.401 134.229 136.083 133.393 136.538C132.557 136.993 131.552 137.22 130.379 137.22ZM135.955 126.88H138.551L141.191 133.414L143.831 126.88H146.449L141.191 137.924L135.955 126.88ZM152.014 137.22C150.987 137.22 150.078 137 149.286 136.56C148.508 136.12 147.907 135.504 147.482 134.712C147.056 133.92 146.844 132.996 146.844 131.94C146.844 130.869 147.056 129.938 147.482 129.146C147.922 128.354 148.538 127.745 149.33 127.32C150.122 126.88 151.053 126.66 152.124 126.66C153.194 126.66 154.104 126.865 154.852 127.276C155.6 127.687 156.172 128.281 156.568 129.058C156.978 129.821 157.184 130.745 157.184 131.83C157.184 131.947 157.176 132.072 157.162 132.204C157.162 132.336 157.154 132.431 157.14 132.49H148.252V130.862H155.116L154.39 131.874C154.434 131.786 154.478 131.669 154.522 131.522C154.58 131.361 154.61 131.229 154.61 131.126C154.61 130.583 154.5 130.114 154.28 129.718C154.074 129.322 153.781 129.014 153.4 128.794C153.033 128.574 152.6 128.464 152.102 128.464C151.5 128.464 150.987 128.596 150.562 128.86C150.136 129.124 149.814 129.505 149.594 130.004C149.374 130.503 149.256 131.119 149.242 131.852C149.242 132.585 149.352 133.209 149.572 133.722C149.792 134.221 150.114 134.602 150.54 134.866C150.98 135.13 151.508 135.262 152.124 135.262C152.769 135.262 153.334 135.13 153.818 134.866C154.302 134.602 154.705 134.199 155.028 133.656L157.074 134.492C156.546 135.401 155.864 136.083 155.028 136.538C154.192 136.993 153.187 137.22 152.014 137.22ZM159.452 119.84H161.828V137H159.452V119.84ZM164.096 131.94C164.096 130.899 164.33 129.982 164.8 129.19C165.284 128.398 165.936 127.782 166.758 127.342C167.579 126.887 168.51 126.66 169.552 126.66C170.593 126.66 171.517 126.887 172.324 127.342C173.145 127.782 173.798 128.398 174.282 129.19C174.766 129.982 175.008 130.899 175.008 131.94C175.008 132.967 174.766 133.883 174.282 134.69C173.798 135.482 173.145 136.105 172.324 136.56C171.517 137 170.593 137.22 169.552 137.22C168.51 137.22 167.579 137 166.758 136.56C165.936 136.105 165.284 135.482 164.8 134.69C164.33 133.883 164.096 132.967 164.096 131.94ZM166.538 131.94C166.538 132.571 166.67 133.128 166.934 133.612C167.198 134.081 167.557 134.455 168.012 134.734C168.466 134.998 168.98 135.13 169.552 135.13C170.109 135.13 170.615 134.998 171.07 134.734C171.539 134.455 171.906 134.081 172.17 133.612C172.434 133.128 172.566 132.571 172.566 131.94C172.566 131.309 172.434 130.752 172.17 130.268C171.906 129.784 171.539 129.41 171.07 129.146C170.615 128.882 170.109 128.75 169.552 128.75C168.98 128.75 168.466 128.882 168.012 129.146C167.557 129.41 167.198 129.784 166.934 130.268C166.67 130.752 166.538 131.309 166.538 131.94ZM179.572 141.84H177.174V126.88H179.572V141.84ZM187.954 131.94C187.954 133.055 187.727 134.015 187.272 134.822C186.817 135.614 186.216 136.223 185.468 136.648C184.72 137.059 183.906 137.264 183.026 137.264C182.161 137.264 181.405 137.051 180.76 136.626C180.129 136.186 179.638 135.57 179.286 134.778C178.949 133.971 178.78 133.025 178.78 131.94C178.78 130.84 178.949 129.894 179.286 129.102C179.638 128.31 180.129 127.701 180.76 127.276C181.405 126.836 182.161 126.616 183.026 126.616C183.906 126.616 184.72 126.829 185.468 127.254C186.216 127.665 186.817 128.266 187.272 129.058C187.727 129.85 187.954 130.811 187.954 131.94ZM185.49 131.94C185.49 131.265 185.351 130.693 185.072 130.224C184.793 129.74 184.419 129.381 183.95 129.146C183.495 128.897 182.989 128.772 182.432 128.772C181.977 128.772 181.53 128.897 181.09 129.146C180.65 129.381 180.283 129.733 179.99 130.202C179.711 130.671 179.572 131.251 179.572 131.94C179.572 132.629 179.711 133.209 179.99 133.678C180.283 134.147 180.65 134.507 181.09 134.756C181.53 134.991 181.977 135.108 182.432 135.108C182.989 135.108 183.495 134.991 183.95 134.756C184.419 134.507 184.793 134.147 185.072 133.678C185.351 133.194 185.49 132.615 185.49 131.94ZM204.693 130.576V137H202.317V130.84C202.317 130.077 202.178 129.513 201.899 129.146C201.635 128.765 201.21 128.574 200.623 128.574C200.227 128.574 199.875 128.662 199.567 128.838C199.274 129.014 199.039 129.271 198.863 129.608C198.702 129.945 198.621 130.356 198.621 130.84V137H196.245V130.84C196.245 130.077 196.106 129.513 195.827 129.146C195.563 128.765 195.138 128.574 194.551 128.574C194.141 128.574 193.781 128.662 193.473 128.838C193.18 129.014 192.953 129.271 192.791 129.608C192.63 129.945 192.549 130.356 192.549 130.84V137H190.217V126.88H192.549V128.354C192.843 127.797 193.224 127.379 193.693 127.1C194.177 126.807 194.742 126.66 195.387 126.66C196.135 126.66 196.751 126.814 197.235 127.122C197.734 127.43 198.093 127.877 198.313 128.464C198.665 127.877 199.105 127.43 199.633 127.122C200.176 126.814 200.792 126.66 201.481 126.66C202.2 126.66 202.794 126.814 203.263 127.122C203.747 127.415 204.107 127.855 204.341 128.442C204.576 129.029 204.693 129.74 204.693 130.576ZM212.127 137.22C211.1 137.22 210.191 137 209.399 136.56C208.622 136.12 208.02 135.504 207.595 134.712C207.17 133.92 206.957 132.996 206.957 131.94C206.957 130.869 207.17 129.938 207.595 129.146C208.035 128.354 208.651 127.745 209.443 127.32C210.235 126.88 211.166 126.66 212.237 126.66C213.308 126.66 214.217 126.865 214.965 127.276C215.713 127.687 216.285 128.281 216.681 129.058C217.092 129.821 217.297 130.745 217.297 131.83C217.297 131.947 217.29 132.072 217.275 132.204C217.275 132.336 217.268 132.431 217.253 132.49H208.365V130.862H215.229L214.503 131.874C214.547 131.786 214.591 131.669 214.635 131.522C214.694 131.361 214.723 131.229 214.723 131.126C214.723 130.583 214.613 130.114 214.393 129.718C214.188 129.322 213.894 129.014 213.513 128.794C213.146 128.574 212.714 128.464 212.215 128.464C211.614 128.464 211.1 128.596 210.675 128.86C210.25 129.124 209.927 129.505 209.707 130.004C209.487 130.503 209.37 131.119 209.355 131.852C209.355 132.585 209.465 133.209 209.685 133.722C209.905 134.221 210.228 134.602 210.653 134.866C211.093 135.13 211.621 135.262 212.237 135.262C212.882 135.262 213.447 135.13 213.931 134.866C214.415 134.602 214.818 134.199 215.141 133.656L217.187 134.492C216.659 135.401 215.977 136.083 215.141 136.538C214.305 136.993 213.3 137.22 212.127 137.22ZM226.077 130.84C226.077 130.092 225.923 129.527 225.615 129.146C225.307 128.765 224.83 128.574 224.185 128.574C223.745 128.574 223.356 128.669 223.019 128.86C222.682 129.036 222.418 129.3 222.227 129.652C222.036 129.989 221.941 130.385 221.941 130.84V137H219.565V126.88H221.941V128.442C222.264 127.841 222.674 127.393 223.173 127.1C223.686 126.807 224.295 126.66 224.999 126.66C226.143 126.66 227.016 127.012 227.617 127.716C228.218 128.405 228.519 129.359 228.519 130.576V137H226.077V130.84ZM230.145 126.88H235.887V128.97H230.145V126.88ZM231.839 123.36H234.193V137H231.839V123.36Z" fill="#03141A"/>
<path d="M33.824 162.848V174H32.368V168.944H26.688V174H25.232V162.848H26.688V167.744H32.368V162.848H33.824ZM37.0621 163.808C36.7848 163.808 36.5501 163.712 36.3581 163.52C36.1661 163.328 36.0701 163.093 36.0701 162.816C36.0701 162.539 36.1661 162.304 36.3581 162.112C36.5501 161.92 36.7848 161.824 37.0621 161.824C37.3288 161.824 37.5528 161.92 37.7341 162.112C37.9261 162.304 38.0221 162.539 38.0221 162.816C38.0221 163.093 37.9261 163.328 37.7341 163.52C37.5528 163.712 37.3288 163.808 37.0621 163.808ZM37.7661 165.232V174H36.3101V165.232H37.7661ZM43.8636 165.088C44.621 165.088 45.2823 165.253 45.8476 165.584C46.4236 165.915 46.8503 166.331 47.1276 166.832V165.232H48.5996V174.192C48.5996 174.992 48.429 175.701 48.0876 176.32C47.7463 176.949 47.2556 177.44 46.6156 177.792C45.9863 178.144 45.2503 178.32 44.4076 178.32C43.2556 178.32 42.2956 178.048 41.5276 177.504C40.7596 176.96 40.3063 176.219 40.1676 175.28H41.6076C41.7676 175.813 42.0983 176.24 42.5996 176.56C43.101 176.891 43.7036 177.056 44.4076 177.056C45.2076 177.056 45.8583 176.805 46.3596 176.304C46.8716 175.803 47.1276 175.099 47.1276 174.192V172.352C46.8396 172.864 46.413 173.291 45.8476 173.632C45.2823 173.973 44.621 174.144 43.8636 174.144C43.085 174.144 42.3756 173.952 41.7356 173.568C41.1063 173.184 40.6103 172.645 40.2476 171.952C39.885 171.259 39.7036 170.469 39.7036 169.584C39.7036 168.688 39.885 167.904 40.2476 167.232C40.6103 166.549 41.1063 166.021 41.7356 165.648C42.3756 165.275 43.085 165.088 43.8636 165.088ZM47.1276 169.6C47.1276 168.939 46.9943 168.363 46.7276 167.872C46.461 167.381 46.0983 167.008 45.6396 166.752C45.1916 166.485 44.6956 166.352 44.1516 166.352C43.6076 166.352 43.1116 166.48 42.6636 166.736C42.2156 166.992 41.8583 167.365 41.5916 167.856C41.325 168.347 41.1916 168.923 41.1916 169.584C41.1916 170.256 41.325 170.843 41.5916 171.344C41.8583 171.835 42.2156 172.213 42.6636 172.48C43.1116 172.736 43.6076 172.864 44.1516 172.864C44.6956 172.864 45.1916 172.736 45.6396 172.48C46.0983 172.213 46.461 171.835 46.7276 171.344C46.9943 170.843 47.1276 170.261 47.1276 169.6ZM55.4121 165.072C56.0735 165.072 56.6708 165.216 57.2041 165.504C57.7375 165.781 58.1535 166.203 58.4521 166.768C58.7615 167.333 58.9161 168.021 58.9161 168.832V174H57.4761V169.04C57.4761 168.165 57.2575 167.499 56.8201 167.04C56.3828 166.571 55.7855 166.336 55.0281 166.336C54.2601 166.336 53.6468 166.576 53.1881 167.056C52.7401 167.536 52.5161 168.235 52.5161 169.152V174H51.0601V162.16H52.5161V166.48C52.8041 166.032 53.1988 165.685 53.7001 165.44C54.2121 165.195 54.7828 165.072 55.4121 165.072ZM67.3745 167.52V168.752H60.9905V167.52H67.3745ZM71.563 166.848C71.851 166.347 72.2777 165.931 72.843 165.6C73.419 165.259 74.0857 165.088 74.843 165.088C75.6217 165.088 76.3257 165.275 76.955 165.648C77.595 166.021 78.0963 166.549 78.459 167.232C78.8217 167.904 79.003 168.688 79.003 169.584C79.003 170.469 78.8217 171.259 78.459 171.952C78.0963 172.645 77.595 173.184 76.955 173.568C76.3257 173.952 75.6217 174.144 74.843 174.144C74.0963 174.144 73.435 173.979 72.859 173.648C72.2937 173.307 71.8617 172.885 71.563 172.384V178.16H70.107V165.232H71.563V166.848ZM77.515 169.584C77.515 168.923 77.3817 168.347 77.115 167.856C76.8483 167.365 76.4857 166.992 76.027 166.736C75.579 166.48 75.083 166.352 74.539 166.352C74.0057 166.352 73.5097 166.485 73.051 166.752C72.603 167.008 72.2403 167.387 71.963 167.888C71.6963 168.379 71.563 168.949 71.563 169.6C71.563 170.261 71.6963 170.843 71.963 171.344C72.2403 171.835 72.603 172.213 73.051 172.48C73.5097 172.736 74.0057 172.864 74.539 172.864C75.083 172.864 75.579 172.736 76.027 172.48C76.4857 172.213 76.8483 171.835 77.115 171.344C77.3817 170.843 77.515 170.256 77.515 169.584ZM88.9195 169.28C88.9195 169.557 88.9035 169.851 88.8715 170.16H81.8635C81.9168 171.024 82.2102 171.701 82.7435 172.192C83.2875 172.672 83.9435 172.912 84.7115 172.912C85.3408 172.912 85.8635 172.768 86.2795 172.48C86.7062 172.181 87.0048 171.787 87.1755 171.296H88.7435C88.5088 172.139 88.0395 172.827 87.3355 173.36C86.6315 173.883 85.7568 174.144 84.7115 174.144C83.8795 174.144 83.1328 173.957 82.4715 173.584C81.8208 173.211 81.3088 172.683 80.9355 172C80.5622 171.307 80.3755 170.507 80.3755 169.6C80.3755 168.693 80.5568 167.899 80.9195 167.216C81.2822 166.533 81.7888 166.011 82.4395 165.648C83.1008 165.275 83.8582 165.088 84.7115 165.088C85.5435 165.088 86.2795 165.269 86.9195 165.632C87.5595 165.995 88.0502 166.496 88.3915 167.136C88.7435 167.765 88.9195 168.48 88.9195 169.28ZM87.4155 168.976C87.4155 168.421 87.2928 167.947 87.0475 167.552C86.8022 167.147 86.4662 166.843 86.0395 166.64C85.6235 166.427 85.1595 166.32 84.6475 166.32C83.9115 166.32 83.2822 166.555 82.7595 167.024C82.2475 167.493 81.9542 168.144 81.8795 168.976H87.4155ZM92.2974 166.656C92.5534 166.155 92.916 165.765 93.3854 165.488C93.8654 165.211 94.4467 165.072 95.1294 165.072V166.576H94.7454C93.1134 166.576 92.2974 167.461 92.2974 169.232V174H90.8414V165.232H92.2974V166.656ZM100.378 166.432H98.5381V174H97.0821V166.432H95.9461V165.232H97.0821V164.608C97.0821 163.627 97.3328 162.912 97.8341 162.464C98.3461 162.005 99.1621 161.776 100.282 161.776V162.992C99.6421 162.992 99.1888 163.12 98.9221 163.376C98.6661 163.621 98.5381 164.032 98.5381 164.608V165.232H100.378V166.432ZM105.9 174.144C105.078 174.144 104.332 173.957 103.66 173.584C102.998 173.211 102.476 172.683 102.092 172C101.718 171.307 101.532 170.507 101.532 169.6C101.532 168.704 101.724 167.915 102.108 167.232C102.502 166.539 103.036 166.011 103.708 165.648C104.38 165.275 105.132 165.088 105.964 165.088C106.796 165.088 107.548 165.275 108.22 165.648C108.892 166.011 109.42 166.533 109.804 167.216C110.198 167.899 110.396 168.693 110.396 169.6C110.396 170.507 110.193 171.307 109.788 172C109.393 172.683 108.854 173.211 108.172 173.584C107.489 173.957 106.732 174.144 105.9 174.144ZM105.9 172.864C106.422 172.864 106.913 172.741 107.372 172.496C107.83 172.251 108.198 171.883 108.476 171.392C108.764 170.901 108.908 170.304 108.908 169.6C108.908 168.896 108.769 168.299 108.492 167.808C108.214 167.317 107.852 166.955 107.404 166.72C106.956 166.475 106.47 166.352 105.948 166.352C105.414 166.352 104.924 166.475 104.476 166.72C104.038 166.955 103.686 167.317 103.42 167.808C103.153 168.299 103.02 168.896 103.02 169.6C103.02 170.315 103.148 170.917 103.404 171.408C103.67 171.899 104.022 172.267 104.46 172.512C104.897 172.747 105.377 172.864 105.9 172.864ZM113.766 166.656C114.022 166.155 114.385 165.765 114.854 165.488C115.334 165.211 115.915 165.072 116.598 165.072V166.576H116.214C114.582 166.576 113.766 167.461 113.766 169.232V174H112.31V165.232H113.766V166.656ZM128.823 165.072C129.506 165.072 130.114 165.216 130.647 165.504C131.18 165.781 131.602 166.203 131.911 166.768C132.22 167.333 132.375 168.021 132.375 168.832V174H130.935V169.04C130.935 168.165 130.716 167.499 130.279 167.04C129.852 166.571 129.271 166.336 128.535 166.336C127.778 166.336 127.175 166.581 126.727 167.072C126.279 167.552 126.055 168.251 126.055 169.168V174H124.615V169.04C124.615 168.165 124.396 167.499 123.959 167.04C123.532 166.571 122.951 166.336 122.215 166.336C121.458 166.336 120.855 166.581 120.407 167.072C119.959 167.552 119.735 168.251 119.735 169.168V174H118.279V165.232H119.735V166.496C120.023 166.037 120.407 165.685 120.887 165.44C121.378 165.195 121.916 165.072 122.503 165.072C123.239 165.072 123.89 165.237 124.455 165.568C125.02 165.899 125.442 166.384 125.719 167.024C125.964 166.405 126.37 165.925 126.935 165.584C127.5 165.243 128.13 165.072 128.823 165.072ZM135.515 163.808C135.238 163.808 135.003 163.712 134.811 163.52C134.619 163.328 134.523 163.093 134.523 162.816C134.523 162.539 134.619 162.304 134.811 162.112C135.003 161.92 135.238 161.824 135.515 161.824C135.782 161.824 136.006 161.92 136.187 162.112C136.379 162.304 136.475 162.539 136.475 162.816C136.475 163.093 136.379 163.328 136.187 163.52C136.006 163.712 135.782 163.808 135.515 163.808ZM136.219 165.232V174H134.763V165.232H136.219ZM142.973 165.072C144.039 165.072 144.903 165.397 145.565 166.048C146.226 166.688 146.557 167.616 146.557 168.832V174H145.117V169.04C145.117 168.165 144.898 167.499 144.461 167.04C144.023 166.571 143.426 166.336 142.669 166.336C141.901 166.336 141.287 166.576 140.829 167.056C140.381 167.536 140.157 168.235 140.157 169.152V174H138.701V165.232H140.157V166.48C140.445 166.032 140.834 165.685 141.325 165.44C141.826 165.195 142.375 165.072 142.973 165.072ZM152.551 165.088C153.308 165.088 153.97 165.253 154.535 165.584C155.111 165.915 155.538 166.331 155.815 166.832V165.232H157.287V174.192C157.287 174.992 157.116 175.701 156.775 176.32C156.434 176.949 155.943 177.44 155.303 177.792C154.674 178.144 153.938 178.32 153.095 178.32C151.943 178.32 150.983 178.048 150.215 177.504C149.447 176.96 148.994 176.219 148.855 175.28H150.295C150.455 175.813 150.786 176.24 151.287 176.56C151.788 176.891 152.391 177.056 153.095 177.056C153.895 177.056 154.546 176.805 155.047 176.304C155.559 175.803 155.815 175.099 155.815 174.192V172.352C155.527 172.864 155.1 173.291 154.535 173.632C153.97 173.973 153.308 174.144 152.551 174.144C151.772 174.144 151.063 173.952 150.423 173.568C149.794 173.184 149.298 172.645 148.935 171.952C148.572 171.259 148.391 170.469 148.391 169.584C148.391 168.688 148.572 167.904 148.935 167.232C149.298 166.549 149.794 166.021 150.423 165.648C151.063 165.275 151.772 165.088 152.551 165.088ZM155.815 169.6C155.815 168.939 155.682 168.363 155.415 167.872C155.148 167.381 154.786 167.008 154.327 166.752C153.879 166.485 153.383 166.352 152.839 166.352C152.295 166.352 151.799 166.48 151.351 166.736C150.903 166.992 150.546 167.365 150.279 167.856C150.012 168.347 149.879 168.923 149.879 169.584C149.879 170.256 150.012 170.843 150.279 171.344C150.546 171.835 150.903 172.213 151.351 172.48C151.799 172.736 152.295 172.864 152.839 172.864C153.383 172.864 153.879 172.736 154.327 172.48C154.786 172.213 155.148 171.835 155.415 171.344C155.682 170.843 155.815 170.261 155.815 169.6ZM175.693 165.232L172.957 174H171.453L169.341 167.04L167.229 174H165.725L162.973 165.232H164.461L166.477 172.592L168.653 165.232H170.141L172.269 172.608L174.253 165.232H175.693ZM185.138 169.28C185.138 169.557 185.122 169.851 185.09 170.16H178.082C178.136 171.024 178.429 171.701 178.962 172.192C179.506 172.672 180.162 172.912 180.93 172.912C181.56 172.912 182.082 172.768 182.498 172.48C182.925 172.181 183.224 171.787 183.394 171.296H184.962C184.728 172.139 184.258 172.827 183.554 173.36C182.85 173.883 181.976 174.144 180.93 174.144C180.098 174.144 179.352 173.957 178.69 173.584C178.04 173.211 177.528 172.683 177.154 172C176.781 171.307 176.594 170.507 176.594 169.6C176.594 168.693 176.776 167.899 177.138 167.216C177.501 166.533 178.008 166.011 178.658 165.648C179.32 165.275 180.077 165.088 180.93 165.088C181.762 165.088 182.498 165.269 183.138 165.632C183.778 165.995 184.269 166.496 184.61 167.136C184.962 167.765 185.138 168.48 185.138 169.28ZM183.634 168.976C183.634 168.421 183.512 167.947 183.266 167.552C183.021 167.147 182.685 166.843 182.258 166.64C181.842 166.427 181.378 166.32 180.866 166.32C180.13 166.32 179.501 166.555 178.978 167.024C178.466 167.493 178.173 168.144 178.098 168.976H183.634ZM188.516 166.864C188.815 166.341 189.252 165.915 189.828 165.584C190.404 165.253 191.06 165.088 191.796 165.088C192.585 165.088 193.295 165.275 193.924 165.648C194.553 166.021 195.049 166.549 195.412 167.232C195.775 167.904 195.956 168.688 195.956 169.584C195.956 170.469 195.775 171.259 195.412 171.952C195.049 172.645 194.548 173.184 193.908 173.568C193.279 173.952 192.575 174.144 191.796 174.144C191.039 174.144 190.372 173.979 189.796 173.648C189.231 173.317 188.804 172.896 188.516 172.384V174H187.06V162.16H188.516V166.864ZM194.468 169.584C194.468 168.923 194.335 168.347 194.068 167.856C193.801 167.365 193.439 166.992 192.98 166.736C192.532 166.48 192.036 166.352 191.492 166.352C190.959 166.352 190.463 166.485 190.004 166.752C189.556 167.008 189.193 167.387 188.916 167.888C188.649 168.379 188.516 168.949 188.516 169.6C188.516 170.261 188.649 170.843 188.916 171.344C189.193 171.835 189.556 172.213 190.004 172.48C190.463 172.736 190.959 172.864 191.492 172.864C192.036 172.864 192.532 172.736 192.98 172.48C193.439 172.213 193.801 171.835 194.068 171.344C194.335 170.843 194.468 170.256 194.468 169.584ZM200.977 174.144C200.305 174.144 199.702 174.032 199.169 173.808C198.635 173.573 198.214 173.253 197.905 172.848C197.595 172.432 197.425 171.957 197.393 171.424H198.897C198.939 171.861 199.142 172.219 199.505 172.496C199.878 172.773 200.363 172.912 200.961 172.912C201.515 172.912 201.953 172.789 202.273 172.544C202.593 172.299 202.753 171.989 202.753 171.616C202.753 171.232 202.582 170.949 202.241 170.768C201.899 170.576 201.371 170.389 200.657 170.208C200.006 170.037 199.473 169.867 199.057 169.696C198.651 169.515 198.299 169.253 198.001 168.912C197.713 168.56 197.569 168.101 197.569 167.536C197.569 167.088 197.702 166.677 197.969 166.304C198.235 165.931 198.614 165.637 199.105 165.424C199.595 165.2 200.155 165.088 200.785 165.088C201.755 165.088 202.539 165.333 203.137 165.824C203.734 166.315 204.054 166.987 204.097 167.84H202.641C202.609 167.381 202.422 167.013 202.081 166.736C201.75 166.459 201.302 166.32 200.737 166.32C200.214 166.32 199.798 166.432 199.489 166.656C199.179 166.88 199.025 167.173 199.025 167.536C199.025 167.824 199.115 168.064 199.297 168.256C199.489 168.437 199.723 168.587 200.001 168.704C200.289 168.811 200.683 168.933 201.185 169.072C201.814 169.243 202.326 169.413 202.721 169.584C203.115 169.744 203.451 169.989 203.729 170.32C204.017 170.651 204.166 171.083 204.177 171.616C204.177 172.096 204.043 172.528 203.777 172.912C203.51 173.296 203.131 173.6 202.641 173.824C202.161 174.037 201.606 174.144 200.977 174.144ZM206.984 163.808C206.707 163.808 206.472 163.712 206.28 163.52C206.088 163.328 205.992 163.093 205.992 162.816C205.992 162.539 206.088 162.304 206.28 162.112C206.472 161.92 206.707 161.824 206.984 161.824C207.251 161.824 207.475 161.92 207.656 162.112C207.848 162.304 207.944 162.539 207.944 162.816C207.944 163.093 207.848 163.328 207.656 163.52C207.475 163.712 207.251 163.808 206.984 163.808ZM207.688 165.232V174H206.232V165.232H207.688ZM211.946 166.432V171.6C211.946 172.027 212.036 172.331 212.218 172.512C212.399 172.683 212.714 172.768 213.161 172.768H214.234V174H212.922C212.111 174 211.503 173.813 211.098 173.44C210.692 173.067 210.49 172.453 210.49 171.6V166.432H209.354V165.232H210.49V163.024H211.946V165.232H214.234V166.432H211.946ZM223.998 169.28C223.998 169.557 223.982 169.851 223.95 170.16H216.942C216.995 171.024 217.288 171.701 217.822 172.192C218.366 172.672 219.022 172.912 219.79 172.912C220.419 172.912 220.942 172.768 221.358 172.48C221.784 172.181 222.083 171.787 222.254 171.296H223.822C223.587 172.139 223.118 172.827 222.414 173.36C221.71 173.883 220.835 174.144 219.79 174.144C218.958 174.144 218.211 173.957 217.55 173.584C216.899 173.211 216.387 172.683 216.014 172C215.64 171.307 215.454 170.507 215.454 169.6C215.454 168.693 215.635 167.899 215.998 167.216C216.36 166.533 216.867 166.011 217.518 165.648C218.179 165.275 218.936 165.088 219.79 165.088C220.622 165.088 221.358 165.269 221.998 165.632C222.638 165.995 223.128 166.496 223.47 167.136C223.822 167.765 223.998 168.48 223.998 169.28ZM222.494 168.976C222.494 168.421 222.371 167.947 222.126 167.552C221.88 167.147 221.544 166.843 221.118 166.64C220.702 166.427 220.238 166.32 219.726 166.32C218.99 166.32 218.36 166.555 217.838 167.024C217.326 167.493 217.032 168.144 216.958 168.976H222.494ZM229.024 174.144C228.352 174.144 227.749 174.032 227.216 173.808C226.682 173.573 226.261 173.253 225.952 172.848C225.642 172.432 225.472 171.957 225.44 171.424H226.944C226.986 171.861 227.189 172.219 227.552 172.496C227.925 172.773 228.41 172.912 229.008 172.912C229.562 172.912 230 172.789 230.32 172.544C230.64 172.299 230.8 171.989 230.8 171.616C230.8 171.232 230.629 170.949 230.288 170.768C229.946 170.576 229.418 170.389 228.704 170.208C228.053 170.037 227.52 169.867 227.104 169.696C226.698 169.515 226.346 169.253 226.048 168.912C225.76 168.56 225.616 168.101 225.616 167.536C225.616 167.088 225.749 166.677 226.016 166.304C226.282 165.931 226.661 165.637 227.152 165.424C227.642 165.2 228.202 165.088 228.832 165.088C229.802 165.088 230.586 165.333 231.184 165.824C231.781 166.315 232.101 166.987 232.144 167.84H230.688C230.656 167.381 230.469 167.013 230.128 166.736C229.797 166.459 229.349 166.32 228.784 166.32C228.261 166.32 227.845 166.432 227.536 166.656C227.226 166.88 227.072 167.173 227.072 167.536C227.072 167.824 227.162 168.064 227.344 168.256C227.536 168.437 227.77 168.587 228.048 168.704C228.336 168.811 228.73 168.933 229.232 169.072C229.861 169.243 230.373 169.413 230.768 169.584C231.162 169.744 231.498 169.989 231.776 170.32C232.064 170.651 232.213 171.083 232.224 171.616C232.224 172.096 232.09 172.528 231.824 172.912C231.557 173.296 231.178 173.6 230.688 173.824C230.208 174.037 229.653 174.144 229.024 174.144ZM240.321 166.432V171.6C240.321 172.027 240.411 172.331 240.593 172.512C240.774 172.683 241.089 172.768 241.536 172.768H242.609V174H241.297C240.486 174 239.878 173.813 239.473 173.44C239.067 173.067 238.865 172.453 238.865 171.6V166.432H237.729V165.232H238.865V163.024H240.321V165.232H242.609V166.432H240.321ZM248.725 165.072C249.386 165.072 249.983 165.216 250.517 165.504C251.05 165.781 251.466 166.203 251.765 166.768C252.074 167.333 252.229 168.021 252.229 168.832V174H250.789V169.04C250.789 168.165 250.57 167.499 250.133 167.04C249.695 166.571 249.098 166.336 248.341 166.336C247.573 166.336 246.959 166.576 246.501 167.056C246.053 167.536 245.829 168.235 245.829 169.152V174H244.373V162.16H245.829V166.48C246.117 166.032 246.511 165.685 247.013 165.44C247.525 165.195 248.095 165.072 248.725 165.072ZM254.063 169.584C254.063 168.688 254.244 167.904 254.607 167.232C254.97 166.549 255.466 166.021 256.095 165.648C256.735 165.275 257.444 165.088 258.223 165.088C258.991 165.088 259.658 165.253 260.223 165.584C260.788 165.915 261.21 166.331 261.487 166.832V165.232H262.959V174H261.487V172.368C261.199 172.88 260.767 173.307 260.191 173.648C259.626 173.979 258.964 174.144 258.207 174.144C257.428 174.144 256.724 173.952 256.095 173.568C255.466 173.184 254.97 172.645 254.607 171.952C254.244 171.259 254.063 170.469 254.063 169.584ZM261.487 169.6C261.487 168.939 261.354 168.363 261.087 167.872C260.82 167.381 260.458 167.008 259.999 166.752C259.551 166.485 259.055 166.352 258.511 166.352C257.967 166.352 257.471 166.48 257.023 166.736C256.575 166.992 256.218 167.365 255.951 167.856C255.684 168.347 255.551 168.923 255.551 169.584C255.551 170.256 255.684 170.843 255.951 171.344C256.218 171.835 256.575 172.213 257.023 172.48C257.471 172.736 257.967 172.864 258.511 172.864C259.055 172.864 259.551 172.736 259.999 172.48C260.458 172.213 260.82 171.835 261.087 171.344C261.354 170.843 261.487 170.261 261.487 169.6ZM267.196 166.432V171.6C267.196 172.027 267.286 172.331 267.468 172.512C267.649 172.683 267.964 172.768 268.411 172.768H269.484V174H268.172C267.361 174 266.753 173.813 266.348 173.44C265.942 173.067 265.74 172.453 265.74 171.6V166.432H264.604V165.232H265.74V163.024H267.196V165.232H269.484V166.432H267.196ZM283.513 169.28C283.513 169.557 283.497 169.851 283.465 170.16H276.457C276.511 171.024 276.804 171.701 277.337 172.192C277.881 172.672 278.537 172.912 279.305 172.912C279.935 172.912 280.457 172.768 280.873 172.48C281.3 172.181 281.599 171.787 281.769 171.296H283.337C283.103 172.139 282.633 172.827 281.929 173.36C281.225 173.883 280.351 174.144 279.305 174.144C278.473 174.144 277.727 173.957 277.065 173.584C276.415 173.211 275.903 172.683 275.529 172C275.156 171.307 274.969 170.507 274.969 169.6C274.969 168.693 275.151 167.899 275.513 167.216C275.876 166.533 276.383 166.011 277.033 165.648C277.695 165.275 278.452 165.088 279.305 165.088C280.137 165.088 280.873 165.269 281.513 165.632C282.153 165.995 282.644 166.496 282.985 167.136C283.337 167.765 283.513 168.48 283.513 169.28ZM282.009 168.976C282.009 168.421 281.887 167.947 281.641 167.552C281.396 167.147 281.06 166.843 280.633 166.64C280.217 166.427 279.753 166.32 279.241 166.32C278.505 166.32 277.876 166.555 277.353 167.024C276.841 167.493 276.548 168.144 276.473 168.976H282.009ZM289.707 165.072C290.774 165.072 291.638 165.397 292.299 166.048C292.96 166.688 293.291 167.616 293.291 168.832V174H291.851V169.04C291.851 168.165 291.632 167.499 291.195 167.04C290.758 166.571 290.16 166.336 289.403 166.336C288.635 166.336 288.022 166.576 287.563 167.056C287.115 167.536 286.891 168.235 286.891 169.152V174H285.435V165.232H286.891V166.48C287.179 166.032 287.568 165.685 288.059 165.44C288.56 165.195 289.11 165.072 289.707 165.072ZM299.286 165.088C300.043 165.088 300.704 165.253 301.27 165.584C301.846 165.915 302.272 166.331 302.55 166.832V165.232H304.022V174.192C304.022 174.992 303.851 175.701 303.51 176.32C303.168 176.949 302.678 177.44 302.038 177.792C301.408 178.144 300.672 178.32 299.83 178.32C298.678 178.32 297.718 178.048 296.95 177.504C296.182 176.96 295.728 176.219 295.59 175.28H297.03C297.19 175.813 297.52 176.24 298.022 176.56C298.523 176.891 299.126 177.056 299.83 177.056C300.63 177.056 301.28 176.805 301.782 176.304C302.294 175.803 302.55 175.099 302.55 174.192V172.352C302.262 172.864 301.835 173.291 301.27 173.632C300.704 173.973 300.043 174.144 299.286 174.144C298.507 174.144 297.798 173.952 297.158 173.568C296.528 173.184 296.032 172.645 295.67 171.952C295.307 171.259 295.126 170.469 295.126 169.584C295.126 168.688 295.307 167.904 295.67 167.232C296.032 166.549 296.528 166.021 297.158 165.648C297.798 165.275 298.507 165.088 299.286 165.088ZM302.55 169.6C302.55 168.939 302.416 168.363 302.15 167.872C301.883 167.381 301.52 167.008 301.062 166.752C300.614 166.485 300.118 166.352 299.574 166.352C299.03 166.352 298.534 166.48 298.086 166.736C297.638 166.992 297.28 167.365 297.014 167.856C296.747 168.347 296.614 168.923 296.614 169.584C296.614 170.256 296.747 170.843 297.014 171.344C297.28 171.835 297.638 172.213 298.086 172.48C298.534 172.736 299.03 172.864 299.574 172.864C300.118 172.864 300.614 172.736 301.062 172.48C301.52 172.213 301.883 171.835 302.15 171.344C302.416 170.843 302.55 170.261 302.55 169.6ZM305.938 169.584C305.938 168.688 306.119 167.904 306.482 167.232C306.845 166.549 307.341 166.021 307.97 165.648C308.61 165.275 309.319 165.088 310.098 165.088C310.866 165.088 311.533 165.253 312.098 165.584C312.663 165.915 313.085 166.331 313.362 166.832V165.232H314.834V174H313.362V172.368C313.074 172.88 312.642 173.307 312.066 173.648C311.501 173.979 310.839 174.144 310.082 174.144C309.303 174.144 308.599 173.952 307.97 173.568C307.341 173.184 306.845 172.645 306.482 171.952C306.119 171.259 305.938 170.469 305.938 169.584ZM313.362 169.6C313.362 168.939 313.229 168.363 312.962 167.872C312.695 167.381 312.333 167.008 311.874 166.752C311.426 166.485 310.93 166.352 310.386 166.352C309.842 166.352 309.346 166.48 308.898 166.736C308.45 166.992 308.093 167.365 307.826 167.856C307.559 168.347 307.426 168.923 307.426 169.584C307.426 170.256 307.559 170.843 307.826 171.344C308.093 171.835 308.45 172.213 308.898 172.48C309.346 172.736 309.842 172.864 310.386 172.864C310.93 172.864 311.426 172.736 311.874 172.48C312.333 172.213 312.695 171.835 312.962 171.344C313.229 170.843 313.362 170.261 313.362 169.6ZM320.911 165.088C321.668 165.088 322.329 165.253 322.895 165.584C323.471 165.915 323.897 166.331 324.175 166.832V165.232H325.647V174.192C325.647 174.992 325.476 175.701 325.135 176.32C324.793 176.949 324.303 177.44 323.663 177.792C323.033 178.144 322.297 178.32 321.455 178.32C320.303 178.32 319.343 178.048 318.575 177.504C317.807 176.96 317.353 176.219 317.215 175.28H318.655C318.815 175.813 319.145 176.24 319.647 176.56C320.148 176.891 320.751 177.056 321.455 177.056C322.255 177.056 322.905 176.805 323.407 176.304C323.919 175.803 324.175 175.099 324.175 174.192V172.352C323.887 172.864 323.46 173.291 322.895 173.632C322.329 173.973 321.668 174.144 320.911 174.144C320.132 174.144 319.423 173.952 318.783 173.568C318.153 173.184 317.657 172.645 317.295 171.952C316.932 171.259 316.751 170.469 316.751 169.584C316.751 168.688 316.932 167.904 317.295 167.232C317.657 166.549 318.153 166.021 318.783 165.648C319.423 165.275 320.132 165.088 320.911 165.088ZM324.175 169.6C324.175 168.939 324.041 168.363 323.775 167.872C323.508 167.381 323.145 167.008 322.687 166.752C322.239 166.485 321.743 166.352 321.199 166.352C320.655 166.352 320.159 166.48 319.711 166.736C319.263 166.992 318.905 167.365 318.639 167.856C318.372 168.347 318.239 168.923 318.239 169.584C318.239 170.256 318.372 170.843 318.639 171.344C318.905 171.835 319.263 172.213 319.711 172.48C320.159 172.736 320.655 172.864 321.199 172.864C321.743 172.864 322.239 172.736 322.687 172.48C323.145 172.213 323.508 171.835 323.775 171.344C324.041 170.843 324.175 170.261 324.175 169.6ZM336.107 169.28C336.107 169.557 336.091 169.851 336.059 170.16H329.051C329.104 171.024 329.398 171.701 329.931 172.192C330.475 172.672 331.131 172.912 331.899 172.912C332.528 172.912 333.051 172.768 333.467 172.48C333.894 172.181 334.192 171.787 334.363 171.296H335.931C335.696 172.139 335.227 172.827 334.523 173.36C333.819 173.883 332.944 174.144 331.899 174.144C331.067 174.144 330.32 173.957 329.659 173.584C329.008 173.211 328.496 172.683 328.123 172C327.75 171.307 327.563 170.507 327.563 169.6C327.563 168.693 327.744 167.899 328.107 167.216C328.47 166.533 328.976 166.011 329.627 165.648C330.288 165.275 331.046 165.088 331.899 165.088C332.731 165.088 333.467 165.269 334.107 165.632C334.747 165.995 335.238 166.496 335.579 167.136C335.931 167.765 336.107 168.48 336.107 169.28ZM334.603 168.976C334.603 168.421 334.48 167.947 334.235 167.552C333.99 167.147 333.654 166.843 333.227 166.64C332.811 166.427 332.347 166.32 331.835 166.32C331.099 166.32 330.47 166.555 329.947 167.024C329.435 167.493 329.142 168.144 329.067 168.976H334.603ZM341.751 169.584C341.751 168.688 341.932 167.904 342.295 167.232C342.657 166.549 343.153 166.021 343.783 165.648C344.423 165.275 345.132 165.088 345.911 165.088C346.679 165.088 347.345 165.253 347.911 165.584C348.476 165.915 348.897 166.331 349.175 166.832V165.232H350.647V174H349.175V172.368C348.887 172.88 348.455 173.307 347.879 173.648C347.313 173.979 346.652 174.144 345.895 174.144C345.116 174.144 344.412 173.952 343.783 173.568C343.153 173.184 342.657 172.645 342.295 171.952C341.932 171.259 341.751 170.469 341.751 169.584ZM349.175 169.6C349.175 168.939 349.041 168.363 348.775 167.872C348.508 167.381 348.145 167.008 347.687 166.752C347.239 166.485 346.743 166.352 346.199 166.352C345.655 166.352 345.159 166.48 344.711 166.736C344.263 166.992 343.905 167.365 343.639 167.856C343.372 168.347 343.239 168.923 343.239 169.584C343.239 170.256 343.372 170.843 343.639 171.344C343.905 171.835 344.263 172.213 344.711 172.48C345.159 172.736 345.655 172.864 346.199 172.864C346.743 172.864 347.239 172.736 347.687 172.48C348.145 172.213 348.508 171.835 348.775 171.344C349.041 170.843 349.175 170.261 349.175 169.6ZM357.379 165.072C358.446 165.072 359.31 165.397 359.971 166.048C360.632 166.688 360.963 167.616 360.963 168.832V174H359.523V169.04C359.523 168.165 359.304 167.499 358.867 167.04C358.43 166.571 357.832 166.336 357.075 166.336C356.307 166.336 355.694 166.576 355.235 167.056C354.787 167.536 354.563 168.235 354.563 169.152V174H353.107V165.232H354.563V166.48C354.851 166.032 355.24 165.685 355.731 165.44C356.232 165.195 356.782 165.072 357.379 165.072ZM362.797 169.584C362.797 168.688 362.979 167.904 363.341 167.232C363.704 166.549 364.2 166.021 364.829 165.648C365.469 165.275 366.184 165.088 366.973 165.088C367.656 165.088 368.291 165.248 368.877 165.568C369.464 165.877 369.912 166.288 370.221 166.8V162.16H371.693V174H370.221V172.352C369.933 172.875 369.507 173.307 368.941 173.648C368.376 173.979 367.715 174.144 366.957 174.144C366.179 174.144 365.469 173.952 364.829 173.568C364.2 173.184 363.704 172.645 363.341 171.952C362.979 171.259 362.797 170.469 362.797 169.584ZM370.221 169.6C370.221 168.939 370.088 168.363 369.821 167.872C369.555 167.381 369.192 167.008 368.733 166.752C368.285 166.485 367.789 166.352 367.245 166.352C366.701 166.352 366.205 166.48 365.757 166.736C365.309 166.992 364.952 167.365 364.685 167.856C364.419 168.347 364.285 168.923 364.285 169.584C364.285 170.256 364.419 170.843 364.685 171.344C364.952 171.835 365.309 172.213 365.757 172.48C366.205 172.736 366.701 172.864 367.245 172.864C367.789 172.864 368.285 172.736 368.733 172.48C369.192 172.213 369.555 171.835 369.821 171.344C370.088 170.843 370.221 170.261 370.221 169.6ZM25.984 189.808C25.7067 189.808 25.472 189.712 25.28 189.52C25.088 189.328 24.992 189.093 24.992 188.816C24.992 188.539 25.088 188.304 25.28 188.112C25.472 187.92 25.7067 187.824 25.984 187.824C26.2507 187.824 26.4747 187.92 26.656 188.112C26.848 188.304 26.944 188.539 26.944 188.816C26.944 189.093 26.848 189.328 26.656 189.52C26.4747 189.712 26.2507 189.808 25.984 189.808ZM26.688 191.232V200H25.232V191.232H26.688ZM39.7135 191.072C40.3962 191.072 41.0042 191.216 41.5375 191.504C42.0708 191.781 42.4922 192.203 42.8015 192.768C43.1108 193.333 43.2655 194.021 43.2655 194.832V200H41.8255V195.04C41.8255 194.165 41.6068 193.499 41.1695 193.04C40.7428 192.571 40.1615 192.336 39.4255 192.336C38.6682 192.336 38.0655 192.581 37.6175 193.072C37.1695 193.552 36.9455 194.251 36.9455 195.168V200H35.5055V195.04C35.5055 194.165 35.2868 193.499 34.8495 193.04C34.4228 192.571 33.8415 192.336 33.1055 192.336C32.3482 192.336 31.7455 192.581 31.2975 193.072C30.8495 193.552 30.6255 194.251 30.6255 195.168V200H29.1695V191.232H30.6255V192.496C30.9135 192.037 31.2975 191.685 31.7775 191.44C32.2682 191.195 32.8068 191.072 33.3935 191.072C34.1295 191.072 34.7802 191.237 35.3455 191.568C35.9108 191.899 36.3322 192.384 36.6095 193.024C36.8548 192.405 37.2602 191.925 37.8255 191.584C38.3908 191.243 39.0202 191.072 39.7135 191.072ZM47.1099 192.848C47.3979 192.347 47.8245 191.931 48.3899 191.6C48.9659 191.259 49.6325 191.088 50.3899 191.088C51.1685 191.088 51.8725 191.275 52.5019 191.648C53.1419 192.021 53.6432 192.549 54.0059 193.232C54.3685 193.904 54.5499 194.688 54.5499 195.584C54.5499 196.469 54.3685 197.259 54.0059 197.952C53.6432 198.645 53.1419 199.184 52.5019 199.568C51.8725 199.952 51.1685 200.144 50.3899 200.144C49.6432 200.144 48.9819 199.979 48.4059 199.648C47.8405 199.307 47.4085 198.885 47.1099 198.384V204.16H45.6539V191.232H47.1099V192.848ZM53.0619 195.584C53.0619 194.923 52.9285 194.347 52.6619 193.856C52.3952 193.365 52.0325 192.992 51.5739 192.736C51.1259 192.48 50.6299 192.352 50.0859 192.352C49.5525 192.352 49.0565 192.485 48.5979 192.752C48.1499 193.008 47.7872 193.387 47.5099 193.888C47.2432 194.379 47.1099 194.949 47.1099 195.6C47.1099 196.261 47.2432 196.843 47.5099 197.344C47.7872 197.835 48.1499 198.213 48.5979 198.48C49.0565 198.736 49.5525 198.864 50.0859 198.864C50.6299 198.864 51.1259 198.736 51.5739 198.48C52.0325 198.213 52.3952 197.835 52.6619 197.344C52.9285 196.843 53.0619 196.256 53.0619 195.584ZM57.9224 192.656C58.1784 192.155 58.541 191.765 59.0104 191.488C59.4904 191.211 60.0717 191.072 60.7544 191.072V192.576H60.3704C58.7384 192.576 57.9224 193.461 57.9224 195.232V200H56.4664V191.232H57.9224V192.656ZM70.4351 195.28C70.4351 195.557 70.4191 195.851 70.3871 196.16H63.3791C63.4325 197.024 63.7258 197.701 64.2591 198.192C64.8031 198.672 65.4591 198.912 66.2271 198.912C66.8565 198.912 67.3791 198.768 67.7951 198.48C68.2218 198.181 68.5205 197.787 68.6911 197.296H70.2591C70.0245 198.139 69.5551 198.827 68.8511 199.36C68.1471 199.883 67.2725 200.144 66.2271 200.144C65.3951 200.144 64.6485 199.957 63.9871 199.584C63.3365 199.211 62.8245 198.683 62.4511 198C62.0778 197.307 61.8911 196.507 61.8911 195.6C61.8911 194.693 62.0725 193.899 62.4351 193.216C62.7978 192.533 63.3045 192.011 63.9551 191.648C64.6165 191.275 65.3738 191.088 66.2271 191.088C67.0591 191.088 67.7951 191.269 68.4351 191.632C69.0751 191.995 69.5658 192.496 69.9071 193.136C70.2591 193.765 70.4351 194.48 70.4351 195.28ZM68.9311 194.976C68.9311 194.421 68.8085 193.947 68.5631 193.552C68.3178 193.147 67.9818 192.843 67.5551 192.64C67.1391 192.427 66.6751 192.32 66.1631 192.32C65.4271 192.32 64.7978 192.555 64.2751 193.024C63.7631 193.493 63.4698 194.144 63.3951 194.976H68.9311ZM75.461 200.144C74.789 200.144 74.1863 200.032 73.653 199.808C73.1197 199.573 72.6983 199.253 72.389 198.848C72.0797 198.432 71.909 197.957 71.877 197.424H73.381C73.4237 197.861 73.6263 198.219 73.989 198.496C74.3623 198.773 74.8477 198.912 75.445 198.912C75.9997 198.912 76.437 198.789 76.757 198.544C77.077 198.299 77.237 197.989 77.237 197.616C77.237 197.232 77.0663 196.949 76.725 196.768C76.3837 196.576 75.8557 196.389 75.141 196.208C74.4903 196.037 73.957 195.867 73.541 195.696C73.1357 195.515 72.7837 195.253 72.485 194.912C72.197 194.56 72.053 194.101 72.053 193.536C72.053 193.088 72.1863 192.677 72.453 192.304C72.7197 191.931 73.0983 191.637 73.589 191.424C74.0797 191.2 74.6397 191.088 75.269 191.088C76.2397 191.088 77.0237 191.333 77.621 191.824C78.2183 192.315 78.5383 192.987 78.581 193.84H77.125C77.093 193.381 76.9063 193.013 76.565 192.736C76.2343 192.459 75.7863 192.32 75.221 192.32C74.6983 192.32 74.2823 192.432 73.973 192.656C73.6637 192.88 73.509 193.173 73.509 193.536C73.509 193.824 73.5997 194.064 73.781 194.256C73.973 194.437 74.2077 194.587 74.485 194.704C74.773 194.811 75.1677 194.933 75.669 195.072C76.2983 195.243 76.8103 195.413 77.205 195.584C77.5997 195.744 77.9357 195.989 78.213 196.32C78.501 196.651 78.6503 197.083 78.661 197.616C78.661 198.096 78.5277 198.528 78.261 198.912C77.9943 199.296 77.6157 199.6 77.125 199.824C76.645 200.037 76.0903 200.144 75.461 200.144ZM83.8204 200.144C83.1484 200.144 82.5457 200.032 82.0124 199.808C81.479 199.573 81.0577 199.253 80.7484 198.848C80.439 198.432 80.2684 197.957 80.2364 197.424H81.7404C81.783 197.861 81.9857 198.219 82.3484 198.496C82.7217 198.773 83.207 198.912 83.8044 198.912C84.359 198.912 84.7964 198.789 85.1164 198.544C85.4364 198.299 85.5964 197.989 85.5964 197.616C85.5964 197.232 85.4257 196.949 85.0844 196.768C84.743 196.576 84.215 196.389 83.5004 196.208C82.8497 196.037 82.3164 195.867 81.9004 195.696C81.495 195.515 81.143 195.253 80.8444 194.912C80.5564 194.56 80.4124 194.101 80.4124 193.536C80.4124 193.088 80.5457 192.677 80.8124 192.304C81.079 191.931 81.4577 191.637 81.9484 191.424C82.439 191.2 82.999 191.088 83.6284 191.088C84.599 191.088 85.383 191.333 85.9804 191.824C86.5777 192.315 86.8977 192.987 86.9404 193.84H85.4844C85.4524 193.381 85.2657 193.013 84.9244 192.736C84.5937 192.459 84.1457 192.32 83.5804 192.32C83.0577 192.32 82.6417 192.432 82.3324 192.656C82.023 192.88 81.8684 193.173 81.8684 193.536C81.8684 193.824 81.959 194.064 82.1404 194.256C82.3324 194.437 82.567 194.587 82.8444 194.704C83.1324 194.811 83.527 194.933 84.0284 195.072C84.6577 195.243 85.1697 195.413 85.5644 195.584C85.959 195.744 86.295 195.989 86.5724 196.32C86.8604 196.651 87.0097 197.083 87.0204 197.616C87.0204 198.096 86.887 198.528 86.6204 198.912C86.3537 199.296 85.975 199.6 85.4844 199.824C85.0044 200.037 84.4497 200.144 83.8204 200.144ZM105.021 191.232L102.285 200H100.781L98.6694 193.04L96.5574 200H95.0534L92.3014 191.232H93.7894L95.8054 198.592L97.9814 191.232H99.4694L101.597 198.608L103.581 191.232H105.021ZM107.218 189.808C106.941 189.808 106.706 189.712 106.514 189.52C106.322 189.328 106.226 189.093 106.226 188.816C106.226 188.539 106.322 188.304 106.514 188.112C106.706 187.92 106.941 187.824 107.218 187.824C107.485 187.824 107.709 187.92 107.89 188.112C108.082 188.304 108.178 188.539 108.178 188.816C108.178 189.093 108.082 189.328 107.89 189.52C107.709 189.712 107.485 189.808 107.218 189.808ZM107.922 191.232V200H106.466V191.232H107.922ZM112.18 192.432V197.6C112.18 198.027 112.271 198.331 112.452 198.512C112.633 198.683 112.948 198.768 113.396 198.768H114.468V200H113.156C112.345 200 111.737 199.813 111.332 199.44C110.927 199.067 110.724 198.453 110.724 197.6V192.432H109.588V191.232H110.724V189.024H112.18V191.232H114.468V192.432H112.18ZM120.584 191.072C121.245 191.072 121.843 191.216 122.376 191.504C122.909 191.781 123.325 192.203 123.624 192.768C123.933 193.333 124.088 194.021 124.088 194.832V200H122.648V195.04C122.648 194.165 122.429 193.499 121.992 193.04C121.555 192.571 120.957 192.336 120.2 192.336C119.432 192.336 118.819 192.576 118.36 193.056C117.912 193.536 117.688 194.235 117.688 195.152V200H116.232V188.16H117.688V192.48C117.976 192.032 118.371 191.685 118.872 191.44C119.384 191.195 119.955 191.072 120.584 191.072ZM134.556 200.144C133.735 200.144 132.988 199.957 132.316 199.584C131.655 199.211 131.132 198.683 130.748 198C130.375 197.307 130.188 196.507 130.188 195.6C130.188 194.704 130.38 193.915 130.764 193.232C131.159 192.539 131.692 192.011 132.364 191.648C133.036 191.275 133.788 191.088 134.62 191.088C135.452 191.088 136.204 191.275 136.876 191.648C137.548 192.011 138.076 192.533 138.46 193.216C138.855 193.899 139.052 194.693 139.052 195.6C139.052 196.507 138.849 197.307 138.444 198C138.049 198.683 137.511 199.211 136.828 199.584C136.145 199.957 135.388 200.144 134.556 200.144ZM134.556 198.864C135.079 198.864 135.569 198.741 136.028 198.496C136.487 198.251 136.855 197.883 137.132 197.392C137.42 196.901 137.564 196.304 137.564 195.6C137.564 194.896 137.425 194.299 137.148 193.808C136.871 193.317 136.508 192.955 136.06 192.72C135.612 192.475 135.127 192.352 134.604 192.352C134.071 192.352 133.58 192.475 133.132 192.72C132.695 192.955 132.343 193.317 132.076 193.808C131.809 194.299 131.676 194.896 131.676 195.6C131.676 196.315 131.804 196.917 132.06 197.408C132.327 197.899 132.679 198.267 133.116 198.512C133.553 198.747 134.033 198.864 134.556 198.864ZM148.742 191.232V200H147.286V198.704C147.009 199.152 146.62 199.504 146.118 199.76C145.628 200.005 145.084 200.128 144.486 200.128C143.804 200.128 143.19 199.989 142.646 199.712C142.102 199.424 141.67 198.997 141.35 198.432C141.041 197.867 140.886 197.179 140.886 196.368V191.232H142.326V196.176C142.326 197.04 142.545 197.707 142.982 198.176C143.42 198.635 144.017 198.864 144.774 198.864C145.553 198.864 146.166 198.624 146.614 198.144C147.062 197.664 147.286 196.965 147.286 196.048V191.232H148.742ZM152.657 192.656C152.913 192.155 153.275 191.765 153.745 191.488C154.225 191.211 154.806 191.072 155.489 191.072V192.576H155.105C153.473 192.576 152.657 193.461 152.657 195.232V200H151.201V191.232H152.657V192.656ZM160.891 195.6C160.891 194.693 161.072 193.904 161.435 193.232C161.798 192.549 162.299 192.021 162.939 191.648C163.59 191.275 164.331 191.088 165.163 191.088C166.24 191.088 167.126 191.349 167.819 191.872C168.523 192.395 168.987 193.12 169.211 194.048H167.643C167.494 193.515 167.2 193.093 166.763 192.784C166.336 192.475 165.803 192.32 165.163 192.32C164.331 192.32 163.659 192.608 163.147 193.184C162.635 193.749 162.379 194.555 162.379 195.6C162.379 196.656 162.635 197.472 163.147 198.048C163.659 198.624 164.331 198.912 165.163 198.912C165.803 198.912 166.336 198.763 166.763 198.464C167.19 198.165 167.483 197.739 167.643 197.184H169.211C168.976 198.08 168.507 198.8 167.803 199.344C167.099 199.877 166.219 200.144 165.163 200.144C164.331 200.144 163.59 199.957 162.939 199.584C162.299 199.211 161.798 198.683 161.435 198C161.072 197.317 160.891 196.517 160.891 195.6ZM178.93 191.232V200H177.474V198.704C177.197 199.152 176.807 199.504 176.306 199.76C175.815 200.005 175.271 200.128 174.674 200.128C173.991 200.128 173.378 199.989 172.834 199.712C172.29 199.424 171.858 198.997 171.538 198.432C171.229 197.867 171.074 197.179 171.074 196.368V191.232H172.514V196.176C172.514 197.04 172.733 197.707 173.17 198.176C173.607 198.635 174.205 198.864 174.962 198.864C175.741 198.864 176.354 198.624 176.802 198.144C177.25 197.664 177.474 196.965 177.474 196.048V191.232H178.93ZM184.492 200.144C183.82 200.144 183.218 200.032 182.684 199.808C182.151 199.573 181.73 199.253 181.42 198.848C181.111 198.432 180.94 197.957 180.908 197.424H182.412C182.455 197.861 182.658 198.219 183.02 198.496C183.394 198.773 183.879 198.912 184.476 198.912C185.031 198.912 185.468 198.789 185.788 198.544C186.108 198.299 186.268 197.989 186.268 197.616C186.268 197.232 186.098 196.949 185.756 196.768C185.415 196.576 184.887 196.389 184.172 196.208C183.522 196.037 182.988 195.867 182.572 195.696C182.167 195.515 181.815 195.253 181.516 194.912C181.228 194.56 181.084 194.101 181.084 193.536C181.084 193.088 181.218 192.677 181.484 192.304C181.751 191.931 182.13 191.637 182.62 191.424C183.111 191.2 183.671 191.088 184.3 191.088C185.271 191.088 186.055 191.333 186.652 191.824C187.25 192.315 187.57 192.987 187.612 193.84H186.156C186.124 193.381 185.938 193.013 185.596 192.736C185.266 192.459 184.818 192.32 184.252 192.32C183.73 192.32 183.314 192.432 183.004 192.656C182.695 192.88 182.54 193.173 182.54 193.536C182.54 193.824 182.631 194.064 182.812 194.256C183.004 194.437 183.239 194.587 183.516 194.704C183.804 194.811 184.199 194.933 184.7 195.072C185.33 195.243 185.842 195.413 186.236 195.584C186.631 195.744 186.967 195.989 187.244 196.32C187.532 196.651 187.682 197.083 187.692 197.616C187.692 198.096 187.559 198.528 187.292 198.912C187.026 199.296 186.647 199.6 186.156 199.824C185.676 200.037 185.122 200.144 184.492 200.144ZM191.524 192.432V197.6C191.524 198.027 191.614 198.331 191.796 198.512C191.977 198.683 192.292 198.768 192.74 198.768H193.812V200H192.5C191.689 200 191.081 199.813 190.676 199.44C190.27 199.067 190.068 198.453 190.068 197.6V192.432H188.932V191.232H190.068V189.024H191.524V191.232H193.812V192.432H191.524ZM199.4 200.144C198.578 200.144 197.832 199.957 197.16 199.584C196.498 199.211 195.976 198.683 195.592 198C195.218 197.307 195.032 196.507 195.032 195.6C195.032 194.704 195.224 193.915 195.608 193.232C196.002 192.539 196.536 192.011 197.208 191.648C197.88 191.275 198.632 191.088 199.464 191.088C200.296 191.088 201.048 191.275 201.72 191.648C202.392 192.011 202.92 192.533 203.304 193.216C203.698 193.899 203.896 194.693 203.896 195.6C203.896 196.507 203.693 197.307 203.288 198C202.893 198.683 202.354 199.211 201.672 199.584C200.989 199.957 200.232 200.144 199.4 200.144ZM199.4 198.864C199.922 198.864 200.413 198.741 200.872 198.496C201.33 198.251 201.698 197.883 201.976 197.392C202.264 196.901 202.408 196.304 202.408 195.6C202.408 194.896 202.269 194.299 201.992 193.808C201.714 193.317 201.352 192.955 200.904 192.72C200.456 192.475 199.97 192.352 199.448 192.352C198.914 192.352 198.424 192.475 197.976 192.72C197.538 192.955 197.186 193.317 196.92 193.808C196.653 194.299 196.52 194.896 196.52 195.6C196.52 196.315 196.648 196.917 196.904 197.408C197.17 197.899 197.522 198.267 197.96 198.512C198.397 198.747 198.877 198.864 199.4 198.864ZM216.354 191.072C217.037 191.072 217.645 191.216 218.178 191.504C218.711 191.781 219.133 192.203 219.442 192.768C219.751 193.333 219.906 194.021 219.906 194.832V200H218.466V195.04C218.466 194.165 218.247 193.499 217.81 193.04C217.383 192.571 216.802 192.336 216.066 192.336C215.309 192.336 214.706 192.581 214.258 193.072C213.81 193.552 213.586 194.251 213.586 195.168V200H212.146V195.04C212.146 194.165 211.927 193.499 211.49 193.04C211.063 192.571 210.482 192.336 209.746 192.336C208.989 192.336 208.386 192.581 207.938 193.072C207.49 193.552 207.266 194.251 207.266 195.168V200H205.81V191.232H207.266V192.496C207.554 192.037 207.938 191.685 208.418 191.44C208.909 191.195 209.447 191.072 210.034 191.072C210.77 191.072 211.421 191.237 211.986 191.568C212.551 191.899 212.973 192.384 213.25 193.024C213.495 192.405 213.901 191.925 214.466 191.584C215.031 191.243 215.661 191.072 216.354 191.072ZM226.016 195.584C226.016 194.688 226.197 193.904 226.56 193.232C226.923 192.549 227.419 192.021 228.048 191.648C228.688 191.275 229.403 191.088 230.192 191.088C230.875 191.088 231.509 191.248 232.096 191.568C232.683 191.877 233.131 192.288 233.44 192.8V188.16H234.912V200H233.44V198.352C233.152 198.875 232.725 199.307 232.16 199.648C231.595 199.979 230.933 200.144 230.176 200.144C229.397 200.144 228.688 199.952 228.048 199.568C227.419 199.184 226.923 198.645 226.56 197.952C226.197 197.259 226.016 196.469 226.016 195.584ZM233.44 195.6C233.44 194.939 233.307 194.363 233.04 193.872C232.773 193.381 232.411 193.008 231.952 192.752C231.504 192.485 231.008 192.352 230.464 192.352C229.92 192.352 229.424 192.48 228.976 192.736C228.528 192.992 228.171 193.365 227.904 193.856C227.637 194.347 227.504 194.923 227.504 195.584C227.504 196.256 227.637 196.843 227.904 197.344C228.171 197.835 228.528 198.213 228.976 198.48C229.424 198.736 229.92 198.864 230.464 198.864C231.008 198.864 231.504 198.736 231.952 198.48C232.411 198.213 232.773 197.835 233.04 197.344C233.307 196.843 233.44 196.261 233.44 195.6ZM245.373 195.28C245.373 195.557 245.357 195.851 245.325 196.16H238.317C238.37 197.024 238.663 197.701 239.197 198.192C239.741 198.672 240.397 198.912 241.165 198.912C241.794 198.912 242.317 198.768 242.733 198.48C243.159 198.181 243.458 197.787 243.629 197.296H245.197C244.962 198.139 244.493 198.827 243.789 199.36C243.085 199.883 242.21 200.144 241.165 200.144C240.333 200.144 239.586 199.957 238.925 199.584C238.274 199.211 237.762 198.683 237.389 198C237.015 197.307 236.829 196.507 236.829 195.6C236.829 194.693 237.01 193.899 237.373 193.216C237.735 192.533 238.242 192.011 238.893 191.648C239.554 191.275 240.311 191.088 241.165 191.088C241.997 191.088 242.733 191.269 243.373 191.632C244.013 191.995 244.503 192.496 244.845 193.136C245.197 193.765 245.373 194.48 245.373 195.28ZM243.869 194.976C243.869 194.421 243.746 193.947 243.501 193.552C243.255 193.147 242.919 192.843 242.493 192.64C242.077 192.427 241.613 192.32 241.101 192.32C240.365 192.32 239.735 192.555 239.213 193.024C238.701 193.493 238.407 194.144 238.333 194.976H243.869ZM250.399 200.144C249.727 200.144 249.124 200.032 248.591 199.808C248.057 199.573 247.636 199.253 247.327 198.848C247.017 198.432 246.847 197.957 246.815 197.424H248.319C248.361 197.861 248.564 198.219 248.927 198.496C249.3 198.773 249.785 198.912 250.383 198.912C250.937 198.912 251.375 198.789 251.695 198.544C252.015 198.299 252.175 197.989 252.175 197.616C252.175 197.232 252.004 196.949 251.663 196.768C251.321 196.576 250.793 196.389 250.079 196.208C249.428 196.037 248.895 195.867 248.479 195.696C248.073 195.515 247.721 195.253 247.423 194.912C247.135 194.56 246.991 194.101 246.991 193.536C246.991 193.088 247.124 192.677 247.391 192.304C247.657 191.931 248.036 191.637 248.527 191.424C249.017 191.2 249.577 191.088 250.207 191.088C251.177 191.088 251.961 191.333 252.559 191.824C253.156 192.315 253.476 192.987 253.519 193.84H252.063C252.031 193.381 251.844 193.013 251.503 192.736C251.172 192.459 250.724 192.32 250.159 192.32C249.636 192.32 249.22 192.432 248.911 192.656C248.601 192.88 248.447 193.173 248.447 193.536C248.447 193.824 248.537 194.064 248.719 194.256C248.911 194.437 249.145 194.587 249.423 194.704C249.711 194.811 250.105 194.933 250.607 195.072C251.236 195.243 251.748 195.413 252.143 195.584C252.537 195.744 252.873 195.989 253.151 196.32C253.439 196.651 253.588 197.083 253.599 197.616C253.599 198.096 253.465 198.528 253.199 198.912C252.932 199.296 252.553 199.6 252.063 199.824C251.583 200.037 251.028 200.144 250.399 200.144ZM256.406 189.808C256.129 189.808 255.894 189.712 255.702 189.52C255.51 189.328 255.414 189.093 255.414 188.816C255.414 188.539 255.51 188.304 255.702 188.112C255.894 187.92 256.129 187.824 256.406 187.824C256.673 187.824 256.897 187.92 257.078 188.112C257.27 188.304 257.366 188.539 257.366 188.816C257.366 189.093 257.27 189.328 257.078 189.52C256.897 189.712 256.673 189.808 256.406 189.808ZM257.11 191.232V200H255.654V191.232H257.11ZM263.207 191.088C263.965 191.088 264.626 191.253 265.191 191.584C265.767 191.915 266.194 192.331 266.471 192.832V191.232H267.943V200.192C267.943 200.992 267.773 201.701 267.431 202.32C267.09 202.949 266.599 203.44 265.959 203.792C265.33 204.144 264.594 204.32 263.751 204.32C262.599 204.32 261.639 204.048 260.871 203.504C260.103 202.96 259.65 202.219 259.511 201.28H260.951C261.111 201.813 261.442 202.24 261.943 202.56C262.445 202.891 263.047 203.056 263.751 203.056C264.551 203.056 265.202 202.805 265.703 202.304C266.215 201.803 266.471 201.099 266.471 200.192V198.352C266.183 198.864 265.757 199.291 265.191 199.632C264.626 199.973 263.965 200.144 263.207 200.144C262.429 200.144 261.719 199.952 261.079 199.568C260.45 199.184 259.954 198.645 259.591 197.952C259.229 197.259 259.047 196.469 259.047 195.584C259.047 194.688 259.229 193.904 259.591 193.232C259.954 192.549 260.45 192.021 261.079 191.648C261.719 191.275 262.429 191.088 263.207 191.088ZM266.471 195.6C266.471 194.939 266.338 194.363 266.071 193.872C265.805 193.381 265.442 193.008 264.983 192.752C264.535 192.485 264.039 192.352 263.495 192.352C262.951 192.352 262.455 192.48 262.007 192.736C261.559 192.992 261.202 193.365 260.935 193.856C260.669 194.347 260.535 194.923 260.535 195.584C260.535 196.256 260.669 196.843 260.935 197.344C261.202 197.835 261.559 198.213 262.007 198.48C262.455 198.736 262.951 198.864 263.495 198.864C264.039 198.864 264.535 198.736 264.983 198.48C265.442 198.213 265.805 197.835 266.071 197.344C266.338 196.843 266.471 196.261 266.471 195.6ZM274.676 191.072C275.743 191.072 276.607 191.397 277.268 192.048C277.929 192.688 278.26 193.616 278.26 194.832V200H276.82V195.04C276.82 194.165 276.601 193.499 276.164 193.04C275.727 192.571 275.129 192.336 274.372 192.336C273.604 192.336 272.991 192.576 272.532 193.056C272.084 193.536 271.86 194.235 271.86 195.152V200H270.404V191.232H271.86V192.48C272.148 192.032 272.537 191.685 273.028 191.44C273.529 191.195 274.079 191.072 274.676 191.072ZM281.102 200.096C280.825 200.096 280.59 200 280.398 199.808C280.206 199.616 280.11 199.381 280.11 199.104C280.11 198.827 280.206 198.592 280.398 198.4C280.59 198.208 280.825 198.112 281.102 198.112C281.369 198.112 281.593 198.208 281.774 198.4C281.966 198.592 282.062 198.827 282.062 199.104C282.062 199.381 281.966 199.616 281.774 199.808C281.593 200 281.369 200.096 281.102 200.096Z" fill="#4F5B5E"/>
<path d="M24 255.5C24 256.327 24.6727 257 25.5 257H36.5C37.3272 257 38 256.327 38 255.5V247.899C38 247.699 37.8677 247.584 37.7437 247.543C37.6198 247.501 37.4452 247.514 37.3255 247.673C37.2767 247.738 37.25 247.818 37.25 247.899V255.25C37.25 255.802 36.8015 256.25 36.25 256.25H25.75C25.1985 256.25 24.75 255.802 24.75 255.25V244.75C24.75 244.198 25.1985 243.75 25.75 243.75H33.988C34.1053 243.75 34.2172 243.694 34.2878 243.6C34.375 243.484 34.3882 243.337 34.3235 243.207C34.2587 243.077 34.1333 243 33.988 243H25.5C24.6727 243 24 243.673 24 244.5V255.5Z" fill="#4F5B5E"/>
<path d="M30.321 250.917C30.2755 250.97 30.2107 251.001 30.1412 251.004C30.0715 251.01 30.005 250.98 29.9557 250.931L27.6342 248.628C27.5195 248.515 27.3335 248.515 27.2187 248.628L26.835 249.009C26.7805 249.063 26.7505 249.135 26.7505 249.212C26.7505 249.289 26.7805 249.362 26.835 249.416L29.7777 252.336C29.8902 252.448 30.0362 252.506 30.1992 252.5C30.3582 252.494 30.503 252.424 30.607 252.304L37.9302 243.827C37.9805 243.768 38.0052 243.694 37.999 243.617C37.9932 243.54 37.9577 243.471 37.8992 243.421L37.4872 243.07C37.3637 242.965 37.1777 242.98 37.0725 243.102L30.321 250.917Z" fill="#4F5B5E"/>
<path d="M55.232 251.28C55.232 251.557 55.216 251.851 55.184 252.16H48.176C48.2293 253.024 48.5227 253.701 49.056 254.192C49.6 254.672 50.256 254.912 51.024 254.912C51.6533 254.912 52.176 254.768 52.592 254.48C53.0187 254.181 53.3173 253.787 53.488 253.296H55.056C54.8213 254.139 54.352 254.827 53.648 255.36C52.944 255.883 52.0693 256.144 51.024 256.144C50.192 256.144 49.4453 255.957 48.784 255.584C48.1333 255.211 47.6213 254.683 47.248 254C46.8747 253.307 46.688 252.507 46.688 251.6C46.688 250.693 46.8693 249.899 47.232 249.216C47.5947 248.533 48.1013 248.011 48.752 247.648C49.4133 247.275 50.1707 247.088 51.024 247.088C51.856 247.088 52.592 247.269 53.232 247.632C53.872 247.995 54.3627 248.496 54.704 249.136C55.056 249.765 55.232 250.48 55.232 251.28ZM53.728 250.976C53.728 250.421 53.6053 249.947 53.36 249.552C53.1147 249.147 52.7787 248.843 52.352 248.64C51.936 248.427 51.472 248.32 50.96 248.32C50.224 248.32 49.5947 248.555 49.072 249.024C48.56 249.493 48.2667 250.144 48.192 250.976H53.728ZM56.6099 250.416C56.6099 249.328 56.8552 248.352 57.3459 247.488C57.8365 246.613 58.5032 245.931 59.3459 245.44C60.1992 244.949 61.1432 244.704 62.1779 244.704C63.3939 244.704 64.4552 244.997 65.3619 245.584C66.2685 246.171 66.9299 247.003 67.3459 248.08H65.6019C65.2925 247.408 64.8445 246.891 64.2579 246.528C63.6819 246.165 62.9885 245.984 62.1779 245.984C61.3992 245.984 60.7005 246.165 60.0819 246.528C59.4632 246.891 58.9779 247.408 58.6259 248.08C58.2739 248.741 58.0979 249.52 58.0979 250.416C58.0979 251.301 58.2739 252.08 58.6259 252.752C58.9779 253.413 59.4632 253.925 60.0819 254.288C60.7005 254.651 61.3992 254.832 62.1779 254.832C62.9885 254.832 63.6819 254.656 64.2579 254.304C64.8445 253.941 65.2925 253.424 65.6019 252.752H67.3459C66.9299 253.819 66.2685 254.645 65.3619 255.232C64.4552 255.808 63.3939 256.096 62.1779 256.096C61.1432 256.096 60.1992 255.856 59.3459 255.376C58.5032 254.885 57.8365 254.208 57.3459 253.344C56.8552 252.48 56.6099 251.504 56.6099 250.416ZM73.3373 256.144C72.5159 256.144 71.7693 255.957 71.0973 255.584C70.4359 255.211 69.9133 254.683 69.5293 254C69.1559 253.307 68.9693 252.507 68.9693 251.6C68.9693 250.704 69.1613 249.915 69.5453 249.232C69.9399 248.539 70.4733 248.011 71.1453 247.648C71.8173 247.275 72.5693 247.088 73.4013 247.088C74.2333 247.088 74.9853 247.275 75.6573 247.648C76.3293 248.011 76.8573 248.533 77.2413 249.216C77.6359 249.899 77.8333 250.693 77.8333 251.6C77.8333 252.507 77.6306 253.307 77.2253 254C76.8306 254.683 76.2919 255.211 75.6093 255.584C74.9266 255.957 74.1693 256.144 73.3373 256.144ZM73.3373 254.864C73.8599 254.864 74.3506 254.741 74.8093 254.496C75.2679 254.251 75.6359 253.883 75.9133 253.392C76.2013 252.901 76.3453 252.304 76.3453 251.6C76.3453 250.896 76.2066 250.299 75.9293 249.808C75.6519 249.317 75.2893 248.955 74.8413 248.72C74.3933 248.475 73.9079 248.352 73.3853 248.352C72.8519 248.352 72.3613 248.475 71.9133 248.72C71.4759 248.955 71.1239 249.317 70.8573 249.808C70.5906 250.299 70.4573 250.896 70.4573 251.6C70.4573 252.315 70.5853 252.917 70.8413 253.408C71.1079 253.899 71.4599 254.267 71.8973 254.512C72.3346 254.747 72.8146 254.864 73.3373 254.864ZM90.2916 247.072C90.9743 247.072 91.5823 247.216 92.1156 247.504C92.649 247.781 93.0703 248.203 93.3796 248.768C93.689 249.333 93.8436 250.021 93.8436 250.832V256H92.4036V251.04C92.4036 250.165 92.185 249.499 91.7476 249.04C91.321 248.571 90.7396 248.336 90.0036 248.336C89.2463 248.336 88.6436 248.581 88.1956 249.072C87.7476 249.552 87.5236 250.251 87.5236 251.168V256H86.0836V251.04C86.0836 250.165 85.865 249.499 85.4276 249.04C85.001 248.571 84.4196 248.336 83.6836 248.336C82.9263 248.336 82.3236 248.581 81.8756 249.072C81.4276 249.552 81.2036 250.251 81.2036 251.168V256H79.7476V247.232H81.2036V248.496C81.4916 248.037 81.8756 247.685 82.3556 247.44C82.8463 247.195 83.385 247.072 83.9716 247.072C84.7076 247.072 85.3583 247.237 85.9236 247.568C86.489 247.899 86.9103 248.384 87.1876 249.024C87.433 248.405 87.8383 247.925 88.4036 247.584C88.969 247.243 89.5983 247.072 90.2916 247.072ZM106.776 247.072C107.459 247.072 108.067 247.216 108.6 247.504C109.133 247.781 109.555 248.203 109.864 248.768C110.173 249.333 110.328 250.021 110.328 250.832V256H108.888V251.04C108.888 250.165 108.669 249.499 108.232 249.04C107.805 248.571 107.224 248.336 106.488 248.336C105.731 248.336 105.128 248.581 104.68 249.072C104.232 249.552 104.008 250.251 104.008 251.168V256H102.568V251.04C102.568 250.165 102.349 249.499 101.912 249.04C101.485 248.571 100.904 248.336 100.168 248.336C99.4107 248.336 98.808 248.581 98.36 249.072C97.912 249.552 97.688 250.251 97.688 251.168V256H96.232V247.232H97.688V248.496C97.976 248.037 98.36 247.685 98.84 247.44C99.3307 247.195 99.8693 247.072 100.456 247.072C101.192 247.072 101.843 247.237 102.408 247.568C102.973 247.899 103.395 248.384 103.672 249.024C103.917 248.405 104.323 247.925 104.888 247.584C105.453 247.243 106.083 247.072 106.776 247.072ZM120.716 251.28C120.716 251.557 120.7 251.851 120.668 252.16H113.66C113.714 253.024 114.007 253.701 114.54 254.192C115.084 254.672 115.74 254.912 116.508 254.912C117.138 254.912 117.66 254.768 118.076 254.48C118.503 254.181 118.802 253.787 118.972 253.296H120.54C120.306 254.139 119.836 254.827 119.132 255.36C118.428 255.883 117.554 256.144 116.508 256.144C115.676 256.144 114.93 255.957 114.268 255.584C113.618 255.211 113.106 254.683 112.732 254C112.359 253.307 112.172 252.507 112.172 251.6C112.172 250.693 112.354 249.899 112.716 249.216C113.079 248.533 113.586 248.011 114.236 247.648C114.898 247.275 115.655 247.088 116.508 247.088C117.34 247.088 118.076 247.269 118.716 247.632C119.356 247.995 119.847 248.496 120.188 249.136C120.54 249.765 120.716 250.48 120.716 251.28ZM119.212 250.976C119.212 250.421 119.09 249.947 118.844 249.552C118.599 249.147 118.263 248.843 117.836 248.64C117.42 248.427 116.956 248.32 116.444 248.32C115.708 248.32 115.079 248.555 114.556 249.024C114.044 249.493 113.751 250.144 113.676 250.976H119.212ZM124.094 248.656C124.35 248.155 124.713 247.765 125.182 247.488C125.662 247.211 126.244 247.072 126.926 247.072V248.576H126.542C124.91 248.576 124.094 249.461 124.094 251.232V256H122.638V247.232H124.094V248.656ZM128.063 251.6C128.063 250.693 128.244 249.904 128.607 249.232C128.97 248.549 129.471 248.021 130.111 247.648C130.762 247.275 131.503 247.088 132.335 247.088C133.412 247.088 134.298 247.349 134.991 247.872C135.695 248.395 136.159 249.12 136.383 250.048H134.815C134.666 249.515 134.372 249.093 133.935 248.784C133.508 248.475 132.975 248.32 132.335 248.32C131.503 248.32 130.831 248.608 130.319 249.184C129.807 249.749 129.551 250.555 129.551 251.6C129.551 252.656 129.807 253.472 130.319 254.048C130.831 254.624 131.503 254.912 132.335 254.912C132.975 254.912 133.508 254.763 133.935 254.464C134.362 254.165 134.655 253.739 134.815 253.184H136.383C136.148 254.08 135.679 254.8 134.975 255.344C134.271 255.877 133.391 256.144 132.335 256.144C131.503 256.144 130.762 255.957 130.111 255.584C129.471 255.211 128.97 254.683 128.607 254C128.244 253.317 128.063 252.517 128.063 251.6ZM146.326 251.28C146.326 251.557 146.31 251.851 146.278 252.16H139.27C139.323 253.024 139.616 253.701 140.15 254.192C140.694 254.672 141.35 254.912 142.118 254.912C142.747 254.912 143.27 254.768 143.686 254.48C144.112 254.181 144.411 253.787 144.582 253.296H146.15C145.915 254.139 145.446 254.827 144.742 255.36C144.038 255.883 143.163 256.144 142.118 256.144C141.286 256.144 140.539 255.957 139.878 255.584C139.227 255.211 138.715 254.683 138.342 254C137.968 253.307 137.782 252.507 137.782 251.6C137.782 250.693 137.963 249.899 138.326 249.216C138.688 248.533 139.195 248.011 139.846 247.648C140.507 247.275 141.264 247.088 142.118 247.088C142.95 247.088 143.686 247.269 144.326 247.632C144.966 247.995 145.456 248.496 145.798 249.136C146.15 249.765 146.326 250.48 146.326 251.28ZM144.822 250.976C144.822 250.421 144.699 249.947 144.454 249.552C144.208 249.147 143.872 248.843 143.446 248.64C143.03 248.427 142.566 248.32 142.054 248.32C141.318 248.32 140.688 248.555 140.166 249.024C139.654 249.493 139.36 250.144 139.286 250.976H144.822ZM156.049 256.112C155.313 256.112 154.652 255.984 154.065 255.728C153.489 255.461 153.036 255.099 152.705 254.64C152.375 254.171 152.204 253.632 152.193 253.024H153.745C153.799 253.547 154.012 253.989 154.385 254.352C154.769 254.704 155.324 254.88 156.049 254.88C156.743 254.88 157.287 254.709 157.681 254.368C158.087 254.016 158.289 253.568 158.289 253.024C158.289 252.597 158.172 252.251 157.937 251.984C157.703 251.717 157.409 251.515 157.057 251.376C156.705 251.237 156.231 251.088 155.633 250.928C154.897 250.736 154.305 250.544 153.857 250.352C153.42 250.16 153.041 249.861 152.721 249.456C152.412 249.04 152.257 248.485 152.257 247.792C152.257 247.184 152.412 246.645 152.721 246.176C153.031 245.707 153.463 245.344 154.017 245.088C154.583 244.832 155.228 244.704 155.953 244.704C156.999 244.704 157.852 244.965 158.513 245.488C159.185 246.011 159.564 246.704 159.649 247.568H158.049C157.996 247.141 157.772 246.768 157.377 246.448C156.983 246.117 156.46 245.952 155.809 245.952C155.201 245.952 154.705 246.112 154.321 246.432C153.937 246.741 153.745 247.179 153.745 247.744C153.745 248.149 153.857 248.48 154.081 248.736C154.316 248.992 154.599 249.189 154.929 249.328C155.271 249.456 155.745 249.605 156.353 249.776C157.089 249.979 157.681 250.181 158.129 250.384C158.577 250.576 158.961 250.88 159.281 251.296C159.601 251.701 159.761 252.256 159.761 252.96C159.761 253.504 159.617 254.016 159.329 254.496C159.041 254.976 158.615 255.365 158.049 255.664C157.484 255.963 156.817 256.112 156.049 256.112ZM162.656 245.808C162.379 245.808 162.144 245.712 161.952 245.52C161.76 245.328 161.664 245.093 161.664 244.816C161.664 244.539 161.76 244.304 161.952 244.112C162.144 243.92 162.379 243.824 162.656 243.824C162.923 243.824 163.147 243.92 163.328 244.112C163.52 244.304 163.616 244.539 163.616 244.816C163.616 245.093 163.52 245.328 163.328 245.52C163.147 245.712 162.923 245.808 162.656 245.808ZM163.36 247.232V256H161.904V247.232H163.36ZM167.617 248.432V253.6C167.617 254.027 167.708 254.331 167.889 254.512C168.071 254.683 168.385 254.768 168.833 254.768H169.905V256H168.593C167.783 256 167.175 255.813 166.769 255.44C166.364 255.067 166.161 254.453 166.161 253.6V248.432H165.025V247.232H166.161V245.024H167.617V247.232H169.905V248.432H167.617ZM179.67 251.28C179.67 251.557 179.654 251.851 179.622 252.16H172.614C172.667 253.024 172.96 253.701 173.494 254.192C174.038 254.672 174.694 254.912 175.462 254.912C176.091 254.912 176.614 254.768 177.03 254.48C177.456 254.181 177.755 253.787 177.926 253.296H179.494C179.259 254.139 178.79 254.827 178.086 255.36C177.382 255.883 176.507 256.144 175.462 256.144C174.63 256.144 173.883 255.957 173.222 255.584C172.571 255.211 172.059 254.683 171.686 254C171.312 253.307 171.126 252.507 171.126 251.6C171.126 250.693 171.307 249.899 171.67 249.216C172.032 248.533 172.539 248.011 173.19 247.648C173.851 247.275 174.608 247.088 175.462 247.088C176.294 247.088 177.03 247.269 177.67 247.632C178.31 247.995 178.8 248.496 179.142 249.136C179.494 249.765 179.67 250.48 179.67 251.28ZM178.166 250.976C178.166 250.421 178.043 249.947 177.798 249.552C177.552 249.147 177.216 248.843 176.79 248.64C176.374 248.427 175.91 248.32 175.398 248.32C174.662 248.32 174.032 248.555 173.51 249.024C172.998 249.493 172.704 250.144 172.63 250.976H178.166ZM184.695 256.144C184.023 256.144 183.421 256.032 182.887 255.808C182.354 255.573 181.933 255.253 181.623 254.848C181.314 254.432 181.143 253.957 181.111 253.424H182.615C182.658 253.861 182.861 254.219 183.223 254.496C183.597 254.773 184.082 254.912 184.679 254.912C185.234 254.912 185.671 254.789 185.991 254.544C186.311 254.299 186.471 253.989 186.471 253.616C186.471 253.232 186.301 252.949 185.959 252.768C185.618 252.576 185.09 252.389 184.375 252.208C183.725 252.037 183.191 251.867 182.775 251.696C182.37 251.515 182.018 251.253 181.719 250.912C181.431 250.56 181.287 250.101 181.287 249.536C181.287 249.088 181.421 248.677 181.687 248.304C181.954 247.931 182.333 247.637 182.823 247.424C183.314 247.2 183.874 247.088 184.503 247.088C185.474 247.088 186.258 247.333 186.855 247.824C187.453 248.315 187.773 248.987 187.815 249.84H186.359C186.327 249.381 186.141 249.013 185.799 248.736C185.469 248.459 185.021 248.32 184.455 248.32C183.933 248.32 183.517 248.432 183.207 248.656C182.898 248.88 182.743 249.173 182.743 249.536C182.743 249.824 182.834 250.064 183.015 250.256C183.207 250.437 183.442 250.587 183.719 250.704C184.007 250.811 184.402 250.933 184.903 251.072C185.533 251.243 186.045 251.413 186.439 251.584C186.834 251.744 187.17 251.989 187.447 252.32C187.735 252.651 187.885 253.083 187.895 253.616C187.895 254.096 187.762 254.528 187.495 254.912C187.229 255.296 186.85 255.6 186.359 255.824C185.879 256.037 185.325 256.144 184.695 256.144Z" fill="#4F5B5E"/>
<path d="M24 291.5C24 292.327 24.6727 293 25.5 293H36.5C37.3272 293 38 292.327 38 291.5V283.899C38 283.699 37.8677 283.584 37.7437 283.543C37.6198 283.501 37.4452 283.514 37.3255 283.673C37.2767 283.738 37.25 283.818 37.25 283.899V291.25C37.25 291.802 36.8015 292.25 36.25 292.25H25.75C25.1985 292.25 24.75 291.802 24.75 291.25V280.75C24.75 280.198 25.1985 279.75 25.75 279.75H33.988C34.1053 279.75 34.2172 279.694 34.2878 279.6C34.375 279.484 34.3882 279.337 34.3235 279.207C34.2587 279.077 34.1333 279 33.988 279H25.5C24.6727 279 24 279.673 24 280.5V291.5Z" fill="#4F5B5E"/>
<path d="M30.321 286.917C30.2755 286.97 30.2107 287.001 30.1412 287.004C30.0715 287.01 30.005 286.98 29.9557 286.931L27.6342 284.628C27.5195 284.515 27.3335 284.515 27.2187 284.628L26.835 285.009C26.7805 285.063 26.7505 285.135 26.7505 285.212C26.7505 285.289 26.7805 285.362 26.835 285.416L29.7777 288.336C29.8902 288.448 30.0362 288.506 30.1992 288.5C30.3582 288.494 30.503 288.424 30.607 288.304L37.9302 279.827C37.9805 279.768 38.0052 279.694 37.999 279.617C37.9932 279.54 37.9577 279.471 37.8992 279.421L37.4872 279.07C37.3637 278.965 37.1777 278.98 37.0725 279.102L30.321 286.917Z" fill="#4F5B5E"/>
<path d="M50.768 292.112C50.032 292.112 49.3707 291.984 48.784 291.728C48.208 291.461 47.7547 291.099 47.424 290.64C47.0933 290.171 46.9227 289.632 46.912 289.024H48.464C48.5173 289.547 48.7307 289.989 49.104 290.352C49.488 290.704 50.0427 290.88 50.768 290.88C51.4613 290.88 52.0053 290.709 52.4 290.368C52.8053 290.016 53.008 289.568 53.008 289.024C53.008 288.597 52.8907 288.251 52.656 287.984C52.4213 287.717 52.128 287.515 51.776 287.376C51.424 287.237 50.9493 287.088 50.352 286.928C49.616 286.736 49.024 286.544 48.576 286.352C48.1387 286.16 47.76 285.861 47.44 285.456C47.1307 285.04 46.976 284.485 46.976 283.792C46.976 283.184 47.1307 282.645 47.44 282.176C47.7493 281.707 48.1813 281.344 48.736 281.088C49.3013 280.832 49.9467 280.704 50.672 280.704C51.7173 280.704 52.5707 280.965 53.232 281.488C53.904 282.011 54.2827 282.704 54.368 283.568H52.768C52.7147 283.141 52.4907 282.768 52.096 282.448C51.7013 282.117 51.1787 281.952 50.528 281.952C49.92 281.952 49.424 282.112 49.04 282.432C48.656 282.741 48.464 283.179 48.464 283.744C48.464 284.149 48.576 284.48 48.8 284.736C49.0347 284.992 49.3173 285.189 49.648 285.328C49.9893 285.456 50.464 285.605 51.072 285.776C51.808 285.979 52.4 286.181 52.848 286.384C53.296 286.576 53.68 286.88 54 287.296C54.32 287.701 54.48 288.256 54.48 288.96C54.48 289.504 54.336 290.016 54.048 290.496C53.76 290.976 53.3333 291.365 52.768 291.664C52.2027 291.963 51.536 292.112 50.768 292.112ZM67.9346 280.928V292H66.4786V283.744L62.7986 292H61.7746L58.0786 283.728V292H56.6226V280.928H58.1906L62.2866 290.08L66.3826 280.928H67.9346ZM71.8599 282.032V285.76H75.9239V286.96H71.8599V290.8H76.4039V292H70.4039V280.832H76.4039V282.032H71.8599ZM90.3286 284.112C90.3286 285.04 90.0086 285.813 89.3686 286.432C88.7393 287.04 87.774 287.344 86.4726 287.344H84.3286V292H82.8726V280.848H86.4726C87.7313 280.848 88.686 281.152 89.3366 281.76C89.998 282.368 90.3286 283.152 90.3286 284.112ZM86.4726 286.144C87.2833 286.144 87.8806 285.968 88.2646 285.616C88.6486 285.264 88.8406 284.763 88.8406 284.112C88.8406 282.736 88.0513 282.048 86.4726 282.048H84.3286V286.144H86.4726ZM93.5943 280.16V292H92.1383V280.16H93.5943ZM95.5318 287.584C95.5318 286.688 95.7131 285.904 96.0758 285.232C96.4384 284.549 96.9344 284.021 97.5638 283.648C98.2038 283.275 98.9131 283.088 99.6918 283.088C100.46 283.088 101.126 283.253 101.692 283.584C102.257 283.915 102.678 284.331 102.956 284.832V283.232H104.428V292H102.956V290.368C102.668 290.88 102.236 291.307 101.66 291.648C101.094 291.979 100.433 292.144 99.6758 292.144C98.8971 292.144 98.1931 291.952 97.5638 291.568C96.9344 291.184 96.4384 290.645 96.0758 289.952C95.7131 289.259 95.5318 288.469 95.5318 287.584ZM102.956 287.6C102.956 286.939 102.822 286.363 102.556 285.872C102.289 285.381 101.926 285.008 101.468 284.752C101.02 284.485 100.524 284.352 99.9798 284.352C99.4358 284.352 98.9398 284.48 98.4918 284.736C98.0438 284.992 97.6864 285.365 97.4198 285.856C97.1531 286.347 97.0198 286.923 97.0198 287.584C97.0198 288.256 97.1531 288.843 97.4198 289.344C97.6864 289.835 98.0438 290.213 98.4918 290.48C98.9398 290.736 99.4358 290.864 99.9798 290.864C100.524 290.864 101.02 290.736 101.468 290.48C101.926 290.213 102.289 289.835 102.556 289.344C102.822 288.843 102.956 288.261 102.956 287.6ZM108.664 284.432V289.6C108.664 290.027 108.755 290.331 108.936 290.512C109.118 290.683 109.432 290.768 109.88 290.768H110.952V292H109.64C108.83 292 108.222 291.813 107.816 291.44C107.411 291.067 107.208 290.453 107.208 289.6V284.432H106.072V283.232H107.208V281.024H108.664V283.232H110.952V284.432H108.664ZM116.284 284.432H114.444V292H112.988V284.432H111.852V283.232H112.988V282.608C112.988 281.627 113.239 280.912 113.74 280.464C114.252 280.005 115.068 279.776 116.188 279.776V280.992C115.548 280.992 115.095 281.12 114.828 281.376C114.572 281.621 114.444 282.032 114.444 282.608V283.232H116.284V284.432ZM121.806 292.144C120.985 292.144 120.238 291.957 119.566 291.584C118.905 291.211 118.382 290.683 117.998 290C117.625 289.307 117.438 288.507 117.438 287.6C117.438 286.704 117.63 285.915 118.014 285.232C118.409 284.539 118.942 284.011 119.614 283.648C120.286 283.275 121.038 283.088 121.87 283.088C122.702 283.088 123.454 283.275 124.126 283.648C124.798 284.011 125.326 284.533 125.71 285.216C126.105 285.899 126.302 286.693 126.302 287.6C126.302 288.507 126.099 289.307 125.694 290C125.299 290.683 124.761 291.211 124.078 291.584C123.395 291.957 122.638 292.144 121.806 292.144ZM121.806 290.864C122.329 290.864 122.819 290.741 123.278 290.496C123.737 290.251 124.105 289.883 124.382 289.392C124.67 288.901 124.814 288.304 124.814 287.6C124.814 286.896 124.675 286.299 124.398 285.808C124.121 285.317 123.758 284.955 123.31 284.72C122.862 284.475 122.377 284.352 121.854 284.352C121.321 284.352 120.83 284.475 120.382 284.72C119.945 284.955 119.593 285.317 119.326 285.808C119.059 286.299 118.926 286.896 118.926 287.6C118.926 288.315 119.054 288.917 119.31 289.408C119.577 289.899 119.929 290.267 120.366 290.512C120.803 290.747 121.283 290.864 121.806 290.864ZM129.672 284.656C129.928 284.155 130.291 283.765 130.76 283.488C131.24 283.211 131.822 283.072 132.504 283.072V284.576H132.12C130.488 284.576 129.672 285.461 129.672 287.232V292H128.216V283.232H129.672V284.656ZM144.729 283.072C145.412 283.072 146.02 283.216 146.553 283.504C147.086 283.781 147.508 284.203 147.817 284.768C148.126 285.333 148.281 286.021 148.281 286.832V292H146.841V287.04C146.841 286.165 146.622 285.499 146.185 285.04C145.758 284.571 145.177 284.336 144.441 284.336C143.684 284.336 143.081 284.581 142.633 285.072C142.185 285.552 141.961 286.251 141.961 287.168V292H140.521V287.04C140.521 286.165 140.302 285.499 139.865 285.04C139.438 284.571 138.857 284.336 138.121 284.336C137.364 284.336 136.761 284.581 136.313 285.072C135.865 285.552 135.641 286.251 135.641 287.168V292H134.185V283.232H135.641V284.496C135.929 284.037 136.313 283.685 136.793 283.44C137.284 283.195 137.822 283.072 138.409 283.072C139.145 283.072 139.796 283.237 140.361 283.568C140.926 283.899 141.348 284.384 141.625 285.024C141.87 284.405 142.276 283.925 142.841 283.584C143.406 283.243 144.036 283.072 144.729 283.072ZM153.774 292.144C153.102 292.144 152.499 292.032 151.966 291.808C151.432 291.573 151.011 291.253 150.702 290.848C150.392 290.432 150.222 289.957 150.19 289.424H151.694C151.736 289.861 151.939 290.219 152.302 290.496C152.675 290.773 153.16 290.912 153.758 290.912C154.312 290.912 154.75 290.789 155.07 290.544C155.39 290.299 155.55 289.989 155.55 289.616C155.55 289.232 155.379 288.949 155.038 288.768C154.696 288.576 154.168 288.389 153.454 288.208C152.803 288.037 152.27 287.867 151.854 287.696C151.448 287.515 151.096 287.253 150.798 286.912C150.51 286.56 150.366 286.101 150.366 285.536C150.366 285.088 150.499 284.677 150.766 284.304C151.032 283.931 151.411 283.637 151.902 283.424C152.392 283.2 152.952 283.088 153.582 283.088C154.552 283.088 155.336 283.333 155.934 283.824C156.531 284.315 156.851 284.987 156.894 285.84H155.438C155.406 285.381 155.219 285.013 154.878 284.736C154.547 284.459 154.099 284.32 153.534 284.32C153.011 284.32 152.595 284.432 152.286 284.656C151.976 284.88 151.822 285.173 151.822 285.536C151.822 285.824 151.912 286.064 152.094 286.256C152.286 286.437 152.52 286.587 152.798 286.704C153.086 286.811 153.48 286.933 153.982 287.072C154.611 287.243 155.123 287.413 155.518 287.584C155.912 287.744 156.248 287.989 156.526 288.32C156.814 288.651 156.963 289.083 156.974 289.616C156.974 290.096 156.84 290.528 156.574 290.912C156.307 291.296 155.928 291.6 155.438 291.824C154.958 292.037 154.403 292.144 153.774 292.144Z" fill="#4F5B5E"/>
<path d="M24 327.5C24 328.327 24.6727 329 25.5 329H36.5C37.3272 329 38 328.327 38 327.5V319.899C38 319.699 37.8677 319.584 37.7437 319.543C37.6198 319.501 37.4452 319.514 37.3255 319.673C37.2767 319.738 37.25 319.818 37.25 319.899V327.25C37.25 327.802 36.8015 328.25 36.25 328.25H25.75C25.1985 328.25 24.75 327.802 24.75 327.25V316.75C24.75 316.198 25.1985 315.75 25.75 315.75H33.988C34.1053 315.75 34.2172 315.694 34.2878 315.6C34.375 315.484 34.3882 315.337 34.3235 315.207C34.2587 315.077 34.1333 315 33.988 315H25.5C24.6727 315 24 315.673 24 316.5V327.5Z" fill="#4F5B5E"/>
<path d="M30.321 322.917C30.2755 322.97 30.2107 323.001 30.1412 323.004C30.0715 323.01 30.005 322.98 29.9557 322.931L27.6342 320.628C27.5195 320.515 27.3335 320.515 27.2187 320.628L26.835 321.009C26.7805 321.063 26.7505 321.135 26.7505 321.212C26.7505 321.289 26.7805 321.362 26.835 321.416L29.7777 324.336C29.8902 324.448 30.0362 324.506 30.1992 324.5C30.3582 324.494 30.503 324.424 30.607 324.304L37.9302 315.827C37.9805 315.768 38.0052 315.694 37.999 315.617C37.9932 315.54 37.9577 315.471 37.8992 315.421L37.4872 315.07C37.3637 314.965 37.1777 314.98 37.0725 315.102L30.321 322.917Z" fill="#4F5B5E"/>
<path d="M46.688 322.416C46.688 321.328 46.9333 320.352 47.424 319.488C47.9147 318.613 48.5813 317.931 49.424 317.44C50.2773 316.949 51.2213 316.704 52.256 316.704C53.472 316.704 54.5333 316.997 55.44 317.584C56.3467 318.171 57.008 319.003 57.424 320.08H55.68C55.3707 319.408 54.9227 318.891 54.336 318.528C53.76 318.165 53.0667 317.984 52.256 317.984C51.4773 317.984 50.7787 318.165 50.16 318.528C49.5413 318.891 49.056 319.408 48.704 320.08C48.352 320.741 48.176 321.52 48.176 322.416C48.176 323.301 48.352 324.08 48.704 324.752C49.056 325.413 49.5413 325.925 50.16 326.288C50.7787 326.651 51.4773 326.832 52.256 326.832C53.0667 326.832 53.76 326.656 54.336 326.304C54.9227 325.941 55.3707 325.424 55.68 324.752H57.424C57.008 325.819 56.3467 326.645 55.44 327.232C54.5333 327.808 53.472 328.096 52.256 328.096C51.2213 328.096 50.2773 327.856 49.424 327.376C48.5813 326.885 47.9147 326.208 47.424 325.344C46.9333 324.48 46.688 323.504 46.688 322.416ZM70.9034 316.928V328H69.4474V319.744L65.7674 328H64.7434L61.0474 319.728V328H59.5914V316.928H61.1594L65.2554 326.08L69.3514 316.928H70.9034ZM76.9086 328.112C76.1726 328.112 75.5113 327.984 74.9246 327.728C74.3486 327.461 73.8953 327.099 73.5646 326.64C73.234 326.171 73.0633 325.632 73.0526 325.024H74.6046C74.658 325.547 74.8713 325.989 75.2446 326.352C75.6286 326.704 76.1833 326.88 76.9086 326.88C77.602 326.88 78.146 326.709 78.5406 326.368C78.946 326.016 79.1486 325.568 79.1486 325.024C79.1486 324.597 79.0313 324.251 78.7966 323.984C78.562 323.717 78.2686 323.515 77.9166 323.376C77.5646 323.237 77.09 323.088 76.4926 322.928C75.7566 322.736 75.1646 322.544 74.7166 322.352C74.2793 322.16 73.9006 321.861 73.5806 321.456C73.2713 321.04 73.1166 320.485 73.1166 319.792C73.1166 319.184 73.2713 318.645 73.5806 318.176C73.89 317.707 74.322 317.344 74.8766 317.088C75.442 316.832 76.0873 316.704 76.8126 316.704C77.858 316.704 78.7113 316.965 79.3726 317.488C80.0446 318.011 80.4233 318.704 80.5086 319.568H78.9086C78.8553 319.141 78.6313 318.768 78.2366 318.448C77.842 318.117 77.3193 317.952 76.6686 317.952C76.0606 317.952 75.5646 318.112 75.1806 318.432C74.7966 318.741 74.6046 319.179 74.6046 319.744C74.6046 320.149 74.7166 320.48 74.9406 320.736C75.1753 320.992 75.458 321.189 75.7886 321.328C76.13 321.456 76.6046 321.605 77.2126 321.776C77.9486 321.979 78.5406 322.181 78.9886 322.384C79.4366 322.576 79.8206 322.88 80.1406 323.296C80.4606 323.701 80.6206 324.256 80.6206 324.96C80.6206 325.504 80.4766 326.016 80.1886 326.496C79.9006 326.976 79.474 327.365 78.9086 327.664C78.3433 327.963 77.6766 328.112 76.9086 328.112ZM90.5649 328.112C89.8289 328.112 89.1675 327.984 88.5809 327.728C88.0049 327.461 87.5515 327.099 87.2209 326.64C86.8902 326.171 86.7195 325.632 86.7089 325.024H88.2609C88.3142 325.547 88.5275 325.989 88.9009 326.352C89.2849 326.704 89.8395 326.88 90.5649 326.88C91.2582 326.88 91.8022 326.709 92.1969 326.368C92.6022 326.016 92.8049 325.568 92.8049 325.024C92.8049 324.597 92.6875 324.251 92.4529 323.984C92.2182 323.717 91.9249 323.515 91.5729 323.376C91.2209 323.237 90.7462 323.088 90.1489 322.928C89.4129 322.736 88.8209 322.544 88.3729 322.352C87.9355 322.16 87.5569 321.861 87.2369 321.456C86.9275 321.04 86.7729 320.485 86.7729 319.792C86.7729 319.184 86.9275 318.645 87.2369 318.176C87.5462 317.707 87.9782 317.344 88.5329 317.088C89.0982 316.832 89.7435 316.704 90.4689 316.704C91.5142 316.704 92.3675 316.965 93.0289 317.488C93.7009 318.011 94.0795 318.704 94.1649 319.568H92.5649C92.5115 319.141 92.2875 318.768 91.8929 318.448C91.4982 318.117 90.9755 317.952 90.3249 317.952C89.7169 317.952 89.2209 318.112 88.8369 318.432C88.4529 318.741 88.2609 319.179 88.2609 319.744C88.2609 320.149 88.3729 320.48 88.5969 320.736C88.8315 320.992 89.1142 321.189 89.4449 321.328C89.7862 321.456 90.2609 321.605 90.8689 321.776C91.6049 321.979 92.1969 322.181 92.6449 322.384C93.0929 322.576 93.4769 322.88 93.7969 323.296C94.1169 323.701 94.2769 324.256 94.2769 324.96C94.2769 325.504 94.1329 326.016 93.8449 326.496C93.5569 326.976 93.1302 327.365 92.5649 327.664C91.9995 327.963 91.3329 328.112 90.5649 328.112ZM97.1715 317.808C96.8942 317.808 96.6595 317.712 96.4675 317.52C96.2755 317.328 96.1795 317.093 96.1795 316.816C96.1795 316.539 96.2755 316.304 96.4675 316.112C96.6595 315.92 96.8942 315.824 97.1715 315.824C97.4382 315.824 97.6622 315.92 97.8435 316.112C98.0355 316.304 98.1315 316.539 98.1315 316.816C98.1315 317.093 98.0355 317.328 97.8435 317.52C97.6622 317.712 97.4382 317.808 97.1715 317.808ZM97.8755 319.232V328H96.4195V319.232H97.8755ZM102.133 320.432V325.6C102.133 326.027 102.224 326.331 102.405 326.512C102.586 326.683 102.901 326.768 103.349 326.768H104.421V328H103.109C102.298 328 101.69 327.813 101.285 327.44C100.88 327.067 100.677 326.453 100.677 325.6V320.432H99.541V319.232H100.677V317.024H102.133V319.232H104.421V320.432H102.133ZM114.185 323.28C114.185 323.557 114.169 323.851 114.137 324.16H107.129C107.182 325.024 107.476 325.701 108.009 326.192C108.553 326.672 109.209 326.912 109.977 326.912C110.606 326.912 111.129 326.768 111.545 326.48C111.972 326.181 112.27 325.787 112.441 325.296H114.009C113.774 326.139 113.305 326.827 112.601 327.36C111.897 327.883 111.022 328.144 109.977 328.144C109.145 328.144 108.398 327.957 107.737 327.584C107.086 327.211 106.574 326.683 106.201 326C105.828 325.307 105.641 324.507 105.641 323.6C105.641 322.693 105.822 321.899 106.185 321.216C106.548 320.533 107.054 320.011 107.705 319.648C108.366 319.275 109.124 319.088 109.977 319.088C110.809 319.088 111.545 319.269 112.185 319.632C112.825 319.995 113.316 320.496 113.657 321.136C114.009 321.765 114.185 322.48 114.185 323.28ZM112.681 322.976C112.681 322.421 112.558 321.947 112.313 321.552C112.068 321.147 111.732 320.843 111.305 320.64C110.889 320.427 110.425 320.32 109.913 320.32C109.177 320.32 108.548 320.555 108.025 321.024C107.513 321.493 107.22 322.144 107.145 322.976H112.681ZM119.211 328.144C118.539 328.144 117.936 328.032 117.403 327.808C116.87 327.573 116.448 327.253 116.139 326.848C115.83 326.432 115.659 325.957 115.627 325.424H117.131C117.174 325.861 117.376 326.219 117.739 326.496C118.112 326.773 118.598 326.912 119.195 326.912C119.75 326.912 120.187 326.789 120.507 326.544C120.827 326.299 120.987 325.989 120.987 325.616C120.987 325.232 120.816 324.949 120.475 324.768C120.134 324.576 119.606 324.389 118.891 324.208C118.24 324.037 117.707 323.867 117.291 323.696C116.886 323.515 116.534 323.253 116.235 322.912C115.947 322.56 115.803 322.101 115.803 321.536C115.803 321.088 115.936 320.677 116.203 320.304C116.47 319.931 116.848 319.637 117.339 319.424C117.83 319.2 118.39 319.088 119.019 319.088C119.99 319.088 120.774 319.333 121.371 319.824C121.968 320.315 122.288 320.987 122.331 321.84H120.875C120.843 321.381 120.656 321.013 120.315 320.736C119.984 320.459 119.536 320.32 118.971 320.32C118.448 320.32 118.032 320.432 117.723 320.656C117.414 320.88 117.259 321.173 117.259 321.536C117.259 321.824 117.35 322.064 117.531 322.256C117.723 322.437 117.958 322.587 118.235 322.704C118.523 322.811 118.918 322.933 119.419 323.072C120.048 323.243 120.56 323.413 120.955 323.584C121.35 323.744 121.686 323.989 121.963 324.32C122.251 324.651 122.4 325.083 122.411 325.616C122.411 326.096 122.278 326.528 122.011 326.912C121.744 327.296 121.366 327.6 120.875 327.824C120.395 328.037 119.84 328.144 119.211 328.144Z" fill="#4F5B5E"/>
</svg>
