<svg xmlns="http://www.w3.org/2000/svg" width="14" height="14" viewBox="0 0 14 14" fill="none">
  <path d="M0 12.5C0 13.3272 0.67275 14 1.5 14H12.5C13.3272 14 14 13.3272 14 12.5V4.89875C14 4.6995 13.8677 4.58425 13.7437 4.543C13.6198 4.50125 13.4452 4.51425 13.3255 4.67325C13.2767 4.73775 13.25 4.818 13.25 4.89875V12.25C13.25 12.8015 12.8015 13.25 12.25 13.25H1.75C1.1985 13.25 0.75 12.8015 0.75 12.25V1.75C0.75 1.1985 1.1985 0.75 1.75 0.75H9.988C10.1053 0.75 10.2172 0.694 10.2878 0.60025C10.375 0.48425 10.3882 0.3375 10.3235 0.2075C10.2587 0.0775 10.1333 0 9.988 0H1.5C0.67275 0 0 0.67275 0 1.5V12.5Z" fill="#4F5B5E"/>
  <path d="M6.32099 7.91712C6.27549 7.96962 6.21074 8.00087 6.14124 8.00362C6.07149 8.01037 6.00499 7.98012 5.95574 7.93137L3.63424 5.62837C3.51949 5.51462 3.33349 5.51462 3.21874 5.62837L2.83499 6.00912C2.78049 6.06337 2.75049 6.13537 2.75049 6.21237C2.75049 6.28937 2.78049 6.36162 2.83499 6.41562L5.77774 9.33587C5.89024 9.44787 6.03624 9.50612 6.19924 9.50012C6.35824 9.49412 6.50299 9.42412 6.60699 9.30387L13.9302 0.826619C13.9805 0.768369 14.0052 0.693869 13.999 0.617119C13.9932 0.540369 13.9577 0.470619 13.8992 0.420619L13.4872 0.0701187C13.3637 -0.0348813 13.1777 -0.0201313 13.0725 0.102119L6.32099 7.91712Z" fill="#4F5B5E"/>
</svg>