<svg xmlns="http://www.w3.org/2000/svg" width="11" height="11" viewBox="0 0 11 11" fill="none">
  <path d="M7.31962 2.40637L1.73348 2.40637C1.47131 2.40182 1.22142 2.29447 1.03763 2.10746C0.85384 1.92045 0.750854 1.66873 0.750854 1.40652C0.750854 1.14432 0.853839 0.8926 1.03763 0.705588C1.22142 0.518576 1.47131 0.411231 1.73348 0.406675L9.73368 0.406675C9.86509 0.406299 9.99527 0.431904 10.1168 0.482018C10.2382 0.532132 10.3486 0.605766 10.4415 0.698685C10.5344 0.791605 10.6081 0.901977 10.6582 1.02345C10.7083 1.14493 10.7339 1.27512 10.7335 1.40652L10.7335 9.40673C10.7358 9.53949 10.7117 9.67139 10.6625 9.79472C10.6133 9.91804 10.54 10.0303 10.4469 10.125C10.3538 10.2197 10.2428 10.295 10.1204 10.3463C9.99792 10.3977 9.86647 10.4241 9.73368 10.4241C9.6009 10.4241 9.46944 10.3977 9.34699 10.3463C9.22453 10.295 9.11353 10.2197 9.02046 10.125C8.92738 10.0303 8.8541 9.91804 8.80489 9.79472C8.75568 9.67139 8.73153 9.53949 8.73383 9.40673V3.82059L1.95551 10.5989C1.76797 10.7864 1.51362 10.8918 1.2484 10.8918C0.983184 10.8918 0.72883 10.7864 0.541294 10.5989C0.353758 10.4114 0.2484 10.157 0.2484 9.8918C0.248401 9.62659 0.353758 9.37223 0.541294 9.1847L7.31962 2.40637Z" fill="white"/>
</svg>