<svg width="80" height="104" viewBox="0 0 80 104" fill="none" xmlns="http://www.w3.org/2000/svg">
<rect width="80" height="80" rx="10" fill="white"/>
<g clip-path="url(#clip0_608_3468)">
<mask id="mask0_608_3468" style="mask-type:luminance" maskUnits="userSpaceOnUse" x="16" y="31" width="47" height="18">
<path d="M62.3359 31H16.3359V48.6923H62.3359V31Z" fill="white"/>
</mask>
<g mask="url(#mask0_608_3468)">
<path d="M19.8083 36.3535C19.7188 36.3535 19.6964 36.3073 19.7412 36.2381L20.2115 35.6153C20.2562 35.5461 20.3682 35.5 20.4578 35.5H28.4529C28.5425 35.5 28.5649 35.5692 28.5201 35.6384L28.1394 36.2381C28.0946 36.3073 27.9826 36.3765 27.9154 36.3765L19.8083 36.3535Z" fill="#819296"/>
<path d="M16.4255 38.4746C16.3359 38.4746 16.3135 38.4284 16.3583 38.3592L16.8286 37.7364C16.8734 37.6672 16.9854 37.6211 17.075 37.6211H27.2872C27.3768 37.6211 27.4216 37.6903 27.3992 37.7595L27.2201 38.3131C27.1977 38.4054 27.1081 38.4515 27.0185 38.4515L16.4255 38.4746Z" fill="#819296"/>
<path d="M21.8474 40.5957C21.7578 40.5957 21.7354 40.5265 21.7802 40.4573L22.0937 39.8806C22.1385 39.8114 22.2281 39.7422 22.3177 39.7422H26.7968C26.8863 39.7422 26.9311 39.8114 26.9311 39.9036L26.8863 40.4573C26.8863 40.5495 26.7968 40.6187 26.7296 40.6187L21.8474 40.5957Z" fill="#819296"/>
<path d="M45.0937 35.9364C43.6828 36.3055 42.7198 36.5823 41.3313 36.9514C40.9953 37.0436 40.9729 37.0667 40.6818 36.7207C40.3459 36.3286 40.0995 36.0748 39.6292 35.8442C38.2183 35.1291 36.8522 35.3367 35.5757 36.1902C34.0528 37.2051 33.2689 38.7045 33.2913 40.5729C33.3137 42.4182 34.5455 43.9406 36.3147 44.1944C37.8376 44.402 39.1141 43.8484 40.1219 42.672C40.3235 42.4182 40.5026 42.1414 40.7266 41.8185C39.9204 41.8185 38.9126 41.8185 36.4043 41.8185C35.934 41.8185 35.822 41.5186 35.9788 41.1265C36.2699 40.4114 36.8074 39.2119 37.1209 38.6122C37.1881 38.4738 37.3449 38.2431 37.6808 38.2431C38.823 38.2431 43.0333 38.2431 45.8327 38.2431C45.7879 38.8659 45.7879 39.4887 45.6984 40.1115C45.452 41.7723 44.8473 43.2948 43.8619 44.6326C42.2495 46.824 40.1443 48.1849 37.4793 48.554C35.2845 48.8539 33.2466 48.4156 31.4549 47.0316C29.7977 45.7398 28.8571 44.0329 28.6107 41.9107C28.3196 39.3965 29.0362 37.1359 30.5143 35.1522C32.1044 33.0069 34.2096 31.646 36.785 31.1616C38.8902 30.7694 40.9058 31.0232 42.7198 32.2918C43.9067 33.0992 44.7577 34.2064 45.3176 35.5443C45.452 35.7519 45.3624 35.8672 45.0937 35.9364Z" fill="#819296"/>
<path d="M52.5038 48.6937C50.4658 48.6475 48.607 48.0478 47.0393 46.6638C45.718 45.4874 44.8893 43.988 44.6206 42.2119C44.2175 39.6053 44.9117 37.2986 46.4346 35.2457C48.0695 33.0312 50.0403 31.8779 52.7053 31.3935C54.9896 30.9783 57.1396 31.209 59.088 32.5699C60.8572 33.8155 61.9546 35.4994 62.2457 37.7138C62.6264 40.8279 61.753 43.3652 59.6703 45.5335C58.1922 47.079 56.3781 48.0478 54.2954 48.4861C53.6907 48.6014 53.086 48.6245 52.5038 48.6937ZM57.8338 39.3746C57.8114 39.0748 57.8114 38.8441 57.7667 38.6134C57.3635 36.3298 55.3256 35.0381 53.198 35.5455C51.1152 36.0299 49.7715 37.3909 49.2788 39.5592C48.8757 41.3584 49.7267 43.1807 51.3392 43.9188C52.5709 44.4724 53.8027 44.4032 54.9896 43.7804C56.7589 42.8347 57.7219 41.3584 57.8338 39.3746Z" fill="#819296"/>
</g>
</g>
<path d="M22.8831 93.07C22.6124 92.5007 22.2204 92.062 21.7071 91.754C21.1938 91.4367 20.5964 91.278 19.9151 91.278C19.2338 91.278 18.6178 91.4367 18.0671 91.754C17.5258 92.062 17.0964 92.51 16.7791 93.098C16.4711 93.6767 16.3171 94.3487 16.3171 95.114C16.3171 95.8793 16.4711 96.5513 16.7791 97.13C17.0964 97.7087 17.5258 98.1567 18.0671 98.474C18.6178 98.782 19.2338 98.936 19.9151 98.936C20.8671 98.936 21.6511 98.6513 22.2671 98.082C22.8831 97.5127 23.2424 96.7427 23.3451 95.772H19.4531V94.736H24.7031V95.716C24.6284 96.5187 24.3764 97.256 23.9471 97.928C23.5178 98.5907 22.9531 99.118 22.2531 99.51C21.5531 99.8927 20.7738 100.084 19.9151 100.084C19.0098 100.084 18.1838 99.874 17.4371 99.454C16.6904 99.0247 16.0978 98.432 15.6591 97.676C15.2298 96.92 15.0151 96.066 15.0151 95.114C15.0151 94.162 15.2298 93.308 15.6591 92.552C16.0978 91.7867 16.6904 91.194 17.4371 90.774C18.1838 90.3447 19.0098 90.13 19.9151 90.13C20.9511 90.13 21.8658 90.3867 22.6591 90.9C23.4618 91.4133 24.0451 92.1367 24.4091 93.07H22.8831ZM29.7336 100.126C29.0149 100.126 28.3616 99.9627 27.7736 99.636C27.1949 99.3093 26.7376 98.8473 26.4016 98.25C26.0749 97.6433 25.9116 96.9433 25.9116 96.15C25.9116 95.366 26.0796 94.6753 26.4156 94.078C26.7609 93.4713 27.2276 93.0093 27.8156 92.692C28.4036 92.3653 29.0616 92.202 29.7896 92.202C30.5176 92.202 31.1756 92.3653 31.7636 92.692C32.3516 93.0093 32.8136 93.4667 33.1496 94.064C33.4949 94.6613 33.6676 95.3567 33.6676 96.15C33.6676 96.9433 33.4902 97.6433 33.1356 98.25C32.7902 98.8473 32.3189 99.3093 31.7216 99.636C31.1242 99.9627 30.4616 100.126 29.7336 100.126ZM29.7336 99.006C30.1909 99.006 30.6202 98.8987 31.0216 98.684C31.4229 98.4693 31.7449 98.1473 31.9876 97.718C32.2396 97.2887 32.3656 96.766 32.3656 96.15C32.3656 95.534 32.2442 95.0113 32.0016 94.582C31.7589 94.1527 31.4416 93.8353 31.0496 93.63C30.6576 93.4153 30.2329 93.308 29.7756 93.308C29.3089 93.308 28.8796 93.4153 28.4876 93.63C28.1049 93.8353 27.7969 94.1527 27.5636 94.582C27.3302 95.0113 27.2136 95.534 27.2136 96.15C27.2136 96.7753 27.3256 97.3027 27.5496 97.732C27.7829 98.1613 28.0909 98.4833 28.4736 98.698C28.8562 98.9033 29.2762 99.006 29.7336 99.006ZM36.6166 89.64V100H35.3426V89.64H36.6166ZM38.312 96.136C38.312 95.352 38.4706 94.666 38.788 94.078C39.1053 93.4807 39.5393 93.0187 40.09 92.692C40.65 92.3653 41.2706 92.202 41.952 92.202C42.624 92.202 43.2073 92.3467 43.702 92.636C44.1966 92.9253 44.5653 93.2893 44.808 93.728V92.328H46.096V100H44.808V98.572C44.556 99.02 44.178 99.3933 43.674 99.692C43.1793 99.9813 42.6006 100.126 41.938 100.126C41.2566 100.126 40.6406 99.958 40.09 99.622C39.5393 99.286 39.1053 98.8147 38.788 98.208C38.4706 97.6013 38.312 96.9107 38.312 96.136ZM44.808 96.15C44.808 95.5713 44.6913 95.0673 44.458 94.638C44.2246 94.2087 43.9073 93.882 43.506 93.658C43.114 93.4247 42.68 93.308 42.204 93.308C41.728 93.308 41.294 93.42 40.902 93.644C40.51 93.868 40.1973 94.1947 39.964 94.624C39.7306 95.0533 39.614 95.5573 39.614 96.136C39.614 96.724 39.7306 97.2373 39.964 97.676C40.1973 98.1053 40.51 98.4367 40.902 98.67C41.294 98.894 41.728 99.006 42.204 99.006C42.68 99.006 43.114 98.894 43.506 98.67C43.9073 98.4367 44.2246 98.1053 44.458 97.676C44.6913 97.2373 44.808 96.7287 44.808 96.15ZM51.9869 92.188C52.9202 92.188 53.6762 92.4727 54.2549 93.042C54.8336 93.602 55.1229 94.414 55.1229 95.478V100H53.8629V95.66C53.8629 94.8947 53.6716 94.3113 53.2889 93.91C52.9062 93.4993 52.3836 93.294 51.7209 93.294C51.0489 93.294 50.5122 93.504 50.1109 93.924C49.7189 94.344 49.5229 94.9553 49.5229 95.758V100H48.2489V92.328H49.5229V93.42C49.7749 93.028 50.1156 92.7247 50.5449 92.51C50.9836 92.2953 51.4642 92.188 51.9869 92.188ZM60.368 92.202C61.0306 92.202 61.6093 92.3467 62.104 92.636C62.608 92.9253 62.9813 93.2893 63.224 93.728V92.328H64.512V100.168C64.512 100.868 64.3626 101.489 64.064 102.03C63.7653 102.581 63.336 103.01 62.776 103.318C62.2253 103.626 61.5813 103.78 60.844 103.78C59.836 103.78 58.996 103.542 58.324 103.066C57.652 102.59 57.2553 101.941 57.134 101.12H58.394C58.534 101.587 58.8233 101.96 59.262 102.24C59.7006 102.529 60.228 102.674 60.844 102.674C61.544 102.674 62.1133 102.455 62.552 102.016C63 101.577 63.224 100.961 63.224 100.168V98.558C62.972 99.006 62.5986 99.3793 62.104 99.678C61.6093 99.9767 61.0306 100.126 60.368 100.126C59.6866 100.126 59.066 99.958 58.506 99.622C57.9553 99.286 57.5213 98.8147 57.204 98.208C56.8866 97.6013 56.728 96.9107 56.728 96.136C56.728 95.352 56.8866 94.666 57.204 94.078C57.5213 93.4807 57.9553 93.0187 58.506 92.692C59.066 92.3653 59.6866 92.202 60.368 92.202ZM63.224 96.15C63.224 95.5713 63.1073 95.0673 62.874 94.638C62.6406 94.2087 62.3233 93.882 61.922 93.658C61.53 93.4247 61.096 93.308 60.62 93.308C60.144 93.308 59.71 93.42 59.318 93.644C58.926 93.868 58.6133 94.1947 58.38 94.624C58.1466 95.0533 58.03 95.5573 58.03 96.136C58.03 96.724 58.1466 97.2373 58.38 97.676C58.6133 98.1053 58.926 98.4367 59.318 98.67C59.71 98.894 60.144 99.006 60.62 99.006C61.096 99.006 61.53 98.894 61.922 98.67C62.3233 98.4367 62.6406 98.1053 62.874 97.676C63.1073 97.2373 63.224 96.7287 63.224 96.15Z" fill="#4F5B5E"/>
<defs>
<clipPath id="clip0_608_3468">
<rect width="47" height="18" fill="white" transform="translate(16 31)"/>
</clipPath>
</defs>
</svg>
