<svg width="50" height="50" viewBox="0 0 50 50" fill="none" xmlns="http://www.w3.org/2000/svg">
<rect width="50" height="50" rx="6" fill="#CDD4D5"/>
<path fill-rule="evenodd" clip-rule="evenodd" d="M29.1235 15.0628C27.2835 14.977 22.726 14.9812 20.8844 15.0628C19.266 15.1387 17.8385 15.5295 16.6877 16.6803C14.9666 18.4014 14.9825 20.6576 15.0048 23.8365C15.0075 24.21 15.0102 24.5963 15.0102 24.996C15.0102 25.37 15.0082 25.7315 15.0062 26.0811C14.988 29.3669 14.9757 31.5997 16.6877 33.3117C18.4119 35.0351 20.6931 35.0182 23.8361 34.9948C24.2127 34.992 24.6017 34.9891 25.0035 34.9891H25.0578C28.8694 34.9892 30.1933 34.9892 31.5494 34.4642C33.4019 33.745 34.8002 32.0892 34.9369 29.1151C35.0235 27.2743 35.0185 22.7177 34.9369 20.8761C34.7719 17.3653 32.8877 15.2362 29.1235 15.0628ZM32.036 32.0392C30.8749 33.2003 29.2995 33.1967 25.8969 33.1889L25.8951 33.1889C25.6036 33.1882 25.2986 33.1875 24.9794 33.1875L24.407 33.1878C20.6563 33.1905 19.0844 33.1916 17.9227 32.0267C16.7141 30.8238 16.7341 28.9937 16.7631 26.3376C16.7678 25.9079 16.7727 25.4565 16.7727 24.9826C16.7727 24.5808 16.7691 24.1888 16.7656 23.8078C16.729 19.8232 16.7035 17.0421 20.921 16.8261L20.9688 16.8244C21.9927 16.7882 22.3357 16.7761 24.9677 16.7761L25.0052 16.8011C25.3857 16.8011 25.7592 16.7977 26.1242 16.7944C30.0191 16.7588 32.9481 16.732 33.1394 20.9561C33.1869 22.0102 33.1977 22.3269 33.1977 24.9951C33.1976 25.2351 33.1979 25.4668 33.1981 25.6905C33.2015 29.3078 33.203 30.8668 32.036 32.0392ZM25.0035 19.8644C22.1677 19.8644 19.8718 22.1627 19.8718 24.996C19.8718 27.8318 22.1702 30.1275 25.0035 30.1275C27.8393 30.1275 30.1352 27.8293 30.1352 24.996C30.1352 22.1602 27.8368 19.8644 25.0035 19.8644ZM25.0035 28.3268C23.1627 28.3268 21.6727 26.8359 21.6727 24.996C21.6727 23.156 23.1635 21.6652 25.0035 21.6652C26.8435 21.6652 28.3343 23.156 28.3343 24.996C28.3352 26.8359 26.8443 28.3268 25.0035 28.3268ZM31.5373 19.6618C31.5373 20.3241 31.0005 20.861 30.3382 20.861C29.6759 20.861 29.139 20.3241 29.139 19.6618C29.139 18.9995 29.6759 18.4627 30.3382 18.4627C31.0005 18.4627 31.5373 18.9995 31.5373 19.6618Z" fill="#4F5B5E"/>
</svg>
