<svg width="80" height="102" viewBox="0 0 80 102" fill="none" xmlns="http://www.w3.org/2000/svg">
<rect width="80" height="80" rx="10" fill="white"/>
<path d="M50.2695 51.2965H50.1111V51.1111H50.5376V51.2965H50.3803V52.2221H50.2695V51.2965ZM51.1204 51.3449H51.118L50.961 52.2222H50.8891L50.7331 51.3449H50.7312V52.2222H50.6268V51.1112H50.7804L50.925 51.898L51.0692 51.1112H51.2222V52.2222H51.1203L51.1204 51.3449Z" fill="#819296"/>
<path d="M36.9333 41.1111C36.9333 41.1111 35.9264 41.7089 37.6499 41.9112C39.7379 42.1543 40.805 42.1194 43.1059 41.6749C43.1059 41.6749 43.7109 42.0621 44.5556 42.3975C39.3976 44.6543 32.882 42.2668 36.9333 41.1111Z" fill="#819296"/>
<path d="M35.9545 37.7778C35.9545 37.7778 34.8405 38.6485 36.5418 38.8343C38.742 39.0739 40.4794 39.0935 43.4858 38.4823C43.4858 38.4823 43.9017 38.9274 44.5556 39.1708C38.404 41.0701 31.5521 39.3206 35.9545 37.7778Z" fill="#819296"/>
<path d="M41.4333 32.7747C42.8748 34.2384 41.0545 35.5555 41.0545 35.5555C41.0545 35.5555 44.7148 33.8891 43.0338 31.8023C41.4638 29.8563 40.2598 28.8893 46.7777 25.5555C46.7777 25.5555 36.5467 27.8091 41.4333 32.7747Z" fill="#819296"/>
<path d="M48.4747 43.5101C48.4747 43.5101 49.245 43.997 47.6264 44.3737C44.5485 45.0889 34.8161 45.3049 32.1124 44.4021C31.1405 44.0778 32.9631 43.6277 33.5364 43.5332C34.1343 43.4338 34.476 43.4523 34.476 43.4523C33.3952 42.8682 27.4899 44.5992 31.4764 45.0949C42.3482 46.4474 51.2947 44.4859 48.4747 43.5101Z" fill="#819296"/>
<path d="M36.9936 35.5597C36.9936 35.5597 32.1699 36.6497 35.2855 37.0454C36.6009 37.213 39.2232 37.1751 41.6658 36.9804C43.6621 36.8202 45.6666 36.4795 45.6666 36.4795C45.6666 36.4795 44.9627 36.7663 44.4535 37.0972C39.555 38.3229 30.0923 37.7527 32.8166 36.499C35.1203 35.4394 36.9936 35.5597 36.9936 35.5597Z" fill="#819296"/>
<path d="M45.7722 39.8613C51.019 37.1093 48.5931 34.4648 46.8999 34.8211C46.4849 34.9082 46.2997 34.9838 46.2997 34.9838C46.2997 34.9838 46.4539 34.7402 46.7481 34.6348C50.0979 33.4461 52.6741 38.1406 45.6667 40C45.6667 40 45.748 39.9268 45.7722 39.8613Z" fill="#819296"/>
<path d="M42.7552 20C42.7552 20 45.442 22.9472 40.2068 27.4791C36.009 31.1144 39.2496 33.1873 40.2052 35.5556C37.7547 33.1312 35.9564 30.997 37.1628 29.0108C38.9336 26.0951 43.8392 24.6814 42.7552 20Z" fill="#819296"/>
<path d="M37.3419 47.6672C42.3066 48.0728 49.9304 47.4422 50.111 44.4445C50.111 44.4445 49.7639 45.5809 46.0079 46.4833C41.7704 47.501 36.5441 47.3821 33.4443 46.73C33.4443 46.73 34.0789 47.4002 37.3419 47.6672Z" fill="#819296"/>
<path d="M36.7328 56.1655C36.3138 56.5786 35.8713 56.8106 35.4742 56.8106C34.9074 56.8106 34.6012 56.4242 34.6012 55.8043C34.6012 55.1339 34.9292 54.6436 36.2456 54.6436H36.7327L36.7328 56.1655ZM37.8888 57.6486V53.0578C37.8888 51.885 37.3006 51.1111 35.8822 51.1111C35.0542 51.1111 34.3289 51.3435 33.7393 51.6401L33.9094 52.4528C34.3737 52.259 34.9744 52.0786 35.5642 52.0786C36.3812 52.0786 36.7328 52.4528 36.7328 53.2261V53.8063H36.3249C34.3398 53.8063 33.4443 54.6824 33.4443 55.9976C33.4443 57.1326 34.0344 57.7778 35.1456 57.7778C35.8598 57.7778 36.3929 57.4425 36.8913 56.9519L36.9818 57.6486H37.8888Z" fill="#819296"/>
<path d="M42.5856 57.7778H40.9583L39 51.1111H40.421L41.6361 55.2071L41.9062 56.439C42.521 54.658 42.9558 52.851 43.1732 51.1111H44.5556C44.1852 53.3064 43.5188 55.716 42.5856 57.7778Z" fill="#819296"/>
<path d="M48.6666 56.1655C48.142 56.5786 47.5879 56.8106 47.0917 56.8106C46.3846 56.8106 46.0008 56.4242 46.0008 55.8043C46.0008 55.1339 46.4119 54.6436 48.0568 54.6436H48.6666V56.1655ZM50.1112 57.6486V53.0578C50.1112 51.885 49.3742 51.1111 47.6037 51.1111C46.568 51.1111 45.6612 51.3435 44.9248 51.6401L45.1371 52.4528C45.7174 52.259 46.4698 52.0786 47.2062 52.0786C48.2267 52.0786 48.6666 52.4528 48.6666 53.2261V53.8063H48.1561C45.6743 53.8063 44.5557 54.6824 44.5557 55.9976C44.5557 57.1326 45.2927 57.7778 46.681 57.7778C47.5741 57.7778 48.2402 57.4425 48.8642 56.9519L48.9777 57.6486H50.1112Z" fill="#819296"/>
<path d="M31.7474 58.765C31.2982 59.3167 30.5726 59.7531 29.7781 60L29 59.23C29.6047 58.969 30.1233 58.5477 30.3642 58.1551C30.5727 57.806 30.6589 57.3561 30.6589 56.2802V48.8889H32.3333V56.1789C32.3332 57.6174 32.1966 58.1985 31.7474 58.765Z" fill="#819296"/>
<path d="M28.8953 90.242V97.452C28.8953 98.2547 28.648 98.8987 28.1533 99.384C27.6587 99.86 27.0053 100.098 26.1933 100.098C25.372 100.098 24.714 99.8553 24.2193 99.37C23.7247 98.8753 23.4773 98.2033 23.4773 97.354H24.7513C24.7607 97.83 24.882 98.2173 25.1153 98.516C25.358 98.8147 25.7173 98.964 26.1933 98.964C26.6693 98.964 27.024 98.824 27.2573 98.544C27.4907 98.2547 27.6073 97.8907 27.6073 97.452V90.242H28.8953ZM30.9291 96.136C30.9291 95.352 31.0878 94.666 31.4051 94.078C31.7225 93.4807 32.1565 93.0187 32.7071 92.692C33.2671 92.3653 33.8878 92.202 34.5691 92.202C35.2411 92.202 35.8245 92.3467 36.3191 92.636C36.8138 92.9253 37.1825 93.2893 37.4251 93.728V92.328H38.7131V100H37.4251V98.572C37.1731 99.02 36.7951 99.3933 36.2911 99.692C35.7965 99.9813 35.2178 100.126 34.5551 100.126C33.8738 100.126 33.2578 99.958 32.7071 99.622C32.1565 99.286 31.7225 98.8147 31.4051 98.208C31.0878 97.6013 30.9291 96.9107 30.9291 96.136ZM37.4251 96.15C37.4251 95.5713 37.3085 95.0673 37.0751 94.638C36.8418 94.2087 36.5245 93.882 36.1231 93.658C35.7311 93.4247 35.2971 93.308 34.8211 93.308C34.3451 93.308 33.9111 93.42 33.5191 93.644C33.1271 93.868 32.8145 94.1947 32.5811 94.624C32.3478 95.0533 32.2311 95.5573 32.2311 96.136C32.2311 96.724 32.3478 97.2373 32.5811 97.676C32.8145 98.1053 33.1271 98.4367 33.5191 98.67C33.9111 98.894 34.3451 99.006 34.8211 99.006C35.2971 99.006 35.7311 98.894 36.1231 98.67C36.5245 98.4367 36.8418 98.1053 37.0751 97.676C37.3085 97.2373 37.4251 96.7287 37.4251 96.15ZM43.7221 98.824L46.1021 92.328H47.4601L44.4501 100H42.9661L39.9561 92.328H41.3281L43.7221 98.824ZM48.2377 96.136C48.2377 95.352 48.3964 94.666 48.7137 94.078C49.0311 93.4807 49.4651 93.0187 50.0157 92.692C50.5757 92.3653 51.1964 92.202 51.8777 92.202C52.5497 92.202 53.1331 92.3467 53.6277 92.636C54.1224 92.9253 54.4911 93.2893 54.7337 93.728V92.328H56.0217V100H54.7337V98.572C54.4817 99.02 54.1037 99.3933 53.5997 99.692C53.1051 99.9813 52.5264 100.126 51.8637 100.126C51.1824 100.126 50.5664 99.958 50.0157 99.622C49.4651 99.286 49.0311 98.8147 48.7137 98.208C48.3964 97.6013 48.2377 96.9107 48.2377 96.136ZM54.7337 96.15C54.7337 95.5713 54.6171 95.0673 54.3837 94.638C54.1504 94.2087 53.8331 93.882 53.4317 93.658C53.0397 93.4247 52.6057 93.308 52.1297 93.308C51.6537 93.308 51.2197 93.42 50.8277 93.644C50.4357 93.868 50.1231 94.1947 49.8897 94.624C49.6564 95.0533 49.5397 95.5573 49.5397 96.136C49.5397 96.724 49.6564 97.2373 49.8897 97.676C50.1231 98.1053 50.4357 98.4367 50.8277 98.67C51.2197 98.894 51.6537 99.006 52.1297 99.006C52.6057 99.006 53.0397 98.894 53.4317 98.67C53.8331 98.4367 54.1504 98.1053 54.3837 97.676C54.6171 97.2373 54.7337 96.7287 54.7337 96.15Z" fill="#4F5B5E"/>
</svg>
