<svg width="80" height="102" viewBox="0 0 80 102" fill="none" xmlns="http://www.w3.org/2000/svg">
<rect width="80" height="80" rx="10" fill="white"/>
<g clip-path="url(#clip0_608_3428)">
<path d="M58 22H40.0579H22V41.0145V58H58L40.0579 39.9131L58 22ZM23.3891 54.6377V41.5942L40.6367 23.3913H54.5273L39.0161 38.9275L23.3891 54.6377Z" fill="#819296"/>
</g>
<path d="M27.2294 100L23.2114 95.548V100H21.9374V90.242H23.2114V94.764L27.2434 90.242H28.8534L24.4294 95.128L28.8954 100H27.2294ZM33.6642 100.126C32.9456 100.126 32.2922 99.9627 31.7042 99.636C31.1256 99.3093 30.6682 98.8473 30.3322 98.25C30.0056 97.6433 29.8422 96.9433 29.8422 96.15C29.8422 95.366 30.0102 94.6753 30.3462 94.078C30.6916 93.4713 31.1582 93.0093 31.7462 92.692C32.3342 92.3653 32.9922 92.202 33.7202 92.202C34.4482 92.202 35.1062 92.3653 35.6942 92.692C36.2822 93.0093 36.7442 93.4667 37.0802 94.064C37.4256 94.6613 37.5982 95.3567 37.5982 96.15C37.5982 96.9433 37.4209 97.6433 37.0662 98.25C36.7209 98.8473 36.2496 99.3093 35.6522 99.636C35.0549 99.9627 34.3922 100.126 33.6642 100.126ZM33.6642 99.006C34.1216 99.006 34.5509 98.8987 34.9522 98.684C35.3536 98.4693 35.6756 98.1473 35.9182 97.718C36.1702 97.2887 36.2962 96.766 36.2962 96.15C36.2962 95.534 36.1749 95.0113 35.9322 94.582C35.6896 94.1527 35.3722 93.8353 34.9802 93.63C34.5882 93.4153 34.1636 93.308 33.7062 93.308C33.2396 93.308 32.8102 93.4153 32.4182 93.63C32.0356 93.8353 31.7276 94.1527 31.4942 94.582C31.2609 95.0113 31.1442 95.534 31.1442 96.15C31.1442 96.7753 31.2562 97.3027 31.4802 97.732C31.7136 98.1613 32.0216 98.4833 32.4042 98.698C32.7869 98.9033 33.2069 99.006 33.6642 99.006ZM40.8273 93.378V97.9C40.8273 98.2733 40.9066 98.5393 41.0653 98.698C41.224 98.8473 41.4993 98.922 41.8913 98.922H42.8293V100H41.6813C40.972 100 40.44 99.8367 40.0853 99.51C39.7306 99.1833 39.5533 98.6467 39.5533 97.9V93.378H38.5593V92.328H39.5533V90.396H40.8273V92.328H42.8293V93.378H40.8273ZM45.6469 89.64V100H44.3729V89.64H45.6469ZM48.4762 91.082C48.2336 91.082 48.0282 90.998 47.8602 90.83C47.6922 90.662 47.6082 90.4567 47.6082 90.214C47.6082 89.9713 47.6922 89.766 47.8602 89.598C48.0282 89.43 48.2336 89.346 48.4762 89.346C48.7096 89.346 48.9056 89.43 49.0642 89.598C49.2322 89.766 49.3162 89.9713 49.3162 90.214C49.3162 90.4567 49.2322 90.662 49.0642 90.83C48.9056 90.998 48.7096 91.082 48.4762 91.082ZM49.0922 92.328V100H47.8182V92.328H49.0922ZM55.0015 92.188C55.9349 92.188 56.6909 92.4727 57.2695 93.042C57.8482 93.602 58.1375 94.414 58.1375 95.478V100H56.8775V95.66C56.8775 94.8947 56.6862 94.3113 56.3035 93.91C55.9209 93.4993 55.3982 93.294 54.7355 93.294C54.0635 93.294 53.5269 93.504 53.1255 93.924C52.7335 94.344 52.5375 94.9553 52.5375 95.758V100H51.2635V92.328H52.5375V93.42C52.7895 93.028 53.1302 92.7247 53.5595 92.51C53.9982 92.2953 54.4789 92.188 55.0015 92.188Z" fill="#4F5B5E"/>
<defs>
<clipPath id="clip0_608_3428">
<rect width="36" height="36" fill="white" transform="translate(22 22)"/>
</clipPath>
</defs>
</svg>
