<svg width="50" height="50" viewBox="0 0 50 50" fill="none" xmlns="http://www.w3.org/2000/svg">
<rect width="50" height="50" rx="6" fill="#CDD4D5"/>
<path fill-rule="evenodd" clip-rule="evenodd" d="M15 17.4017C15 16.0758 16.0758 15 17.4017 15C18.7267 15 19.8025 16.0758 19.8033 17.4017C19.8033 18.7275 18.7275 19.8258 17.4017 19.8258C16.0758 19.8258 15 18.7275 15 17.4017ZM34.995 34.9999V34.9991H35V27.6641C35 24.0757 34.2275 21.3115 30.0325 21.3115C28.0158 21.3115 26.6625 22.4182 26.11 23.4674H26.0517V21.6465H22.0742V34.9991H26.2159V28.3874C26.2159 26.6466 26.5459 24.9632 28.7017 24.9632C30.8258 24.9632 30.8575 26.9499 30.8575 28.4991V34.9999H34.995ZM15.3301 21.6475H19.4767V35H15.3301V21.6475Z" fill="#4F5B5E"/>
</svg>
