<svg width="110" height="45" viewBox="0 0 110 45" fill="none" xmlns="http://www.w3.org/2000/svg">
<g clip-path="url(#clip0_692_187)">
<path d="M11.193 20.734L2.30696 15.7214L11.193 10.6518V9.28467L0 15.6929L11.193 22.1011V20.734Z" fill="#FF725E"/>
<path d="M98.459 20.734L107.345 15.7214L98.459 10.6518V9.28467L109.652 15.6929L98.459 22.1011V20.734Z" fill="#FF725E"/>
<path d="M17.4874 14.1266H20.5064C21.6741 14.1266 22.5855 13.1867 22.5855 12.0475V3.21835C22.5855 2.07911 21.6456 1.13924 20.5064 1.13924H16.8323V24.1234H15.2374V1.13924L14.0981 0H20.5064C22.5 0 24.1519 1.62342 24.1519 3.61709V11.9905C24.1519 13.8133 22.6709 15.2943 20.8197 15.2943L29.7342 24.1519H27.5127L17.4874 14.1266Z" fill="#03141A"/>
<path d="M34.2909 24.1803H32.0694L30.8447 22.9556H33.0662L34.2909 24.1803Z" fill="#03141A"/>
<path d="M28.4525 22.9554H28.3955V22.8984L28.4525 22.9554Z" fill="#03141A"/>
<path d="M28.4525 22.9554H28.3955V22.8984L28.4525 22.9554Z" fill="#03141A"/>
<path d="M34.519 10.9651V16.8891H30.1614L28.9937 15.6929H33.0949V10.8511C33.0949 10.1961 32.8386 9.62645 32.4114 9.19924C31.9842 8.77202 31.3861 8.51569 30.7595 8.51569C29.9051 8.51569 29.1361 8.97139 28.7373 9.68341C28.538 10.0252 28.4241 10.4239 28.4241 10.8796V20.7056L27 19.2815V10.9651C27 10.5378 27.0854 10.1106 27.1994 9.74038C27.4842 8.94291 28.0253 8.25936 28.7373 7.80367C29.3354 7.43341 30.019 7.20557 30.7595 7.20557C31.8133 7.20557 32.7532 7.63278 33.4367 8.31633C34.1203 8.97139 34.519 9.91126 34.519 10.9651Z" fill="#03141A"/>
<path d="M33.1232 15.6929V16.8891H30.1612L29.022 15.6929H33.1232Z" fill="#03141A"/>
<path d="M37.7372 16.8891H30.1612L29.022 15.6929H36.5694L37.7372 16.8891Z" fill="#03141A"/>
<path d="M86.5257 16.8609H78.8074L77.6396 15.6362H85.3295L86.5257 16.8609Z" fill="#03141A"/>
<path d="M81.8832 15.6361V10.7943C81.8832 10.1393 81.6269 9.54116 81.1997 9.11395C80.7724 8.68673 80.2028 8.40192 79.5477 8.40192C78.6933 8.40192 77.9243 8.8861 77.5256 9.56964C77.3832 9.82597 77.2693 10.1108 77.2408 10.4241V20.4209C77.2408 20.8766 77.3547 21.2753 77.5826 21.6171C78.0098 22.3291 78.7788 22.8133 79.6617 22.8133H81.7978L82.168 23.212L82.994 24.1234H79.6902C78.9212 24.1234 78.2091 23.8956 77.611 23.5253C77.2977 23.326 77.0129 23.0981 76.7851 22.8133C76.4718 22.4431 76.2155 22.0158 76.0446 21.5602C75.9022 21.1614 75.8452 20.7342 75.8452 20.307V10.9083C75.8452 10.4526 75.9307 10.0538 76.0446 9.65509C76.3294 8.82914 76.8705 8.14559 77.5826 7.6899C78.1522 7.31965 78.8642 7.0918 79.6047 7.0918C80.63 7.0918 81.5699 7.51901 82.2534 8.20256C82.937 8.8861 83.3642 9.85445 83.3642 10.9083V15.6361H81.8832Z" fill="#03141A"/>
<path d="M44.1173 8.40177H37.6521L36.6553 7.20557H43.1205L44.1173 8.40177Z" fill="#03141A"/>
<path d="M44.1174 1.1962H41.5541C40.3009 1.1962 39.2756 2.22152 39.2756 3.4462V24.1519H37.8516V3.53165C37.8516 1.59494 39.4465 0 41.3832 0H43.1205L44.1174 1.1962Z" fill="#03141A"/>
<path d="M60.266 8.40193H58.5287C57.2755 8.40193 56.2502 9.42725 56.2502 10.6519V24.1519H54.8262V10.7089C54.8262 8.77218 56.4211 7.17725 58.3578 7.17725H59.2407L60.266 8.40193Z" fill="#03141A"/>
<path d="M49.9842 8.31633C49.3007 7.63278 48.3323 7.20557 47.307 7.20557C45.1994 7.20557 43.519 8.91443 43.519 10.9935V20.3923C43.519 22.4714 45.2279 24.1803 47.307 24.1803C49.3861 24.1803 51.095 22.4714 51.095 20.3923V10.9935C51.095 9.93974 50.6678 8.99987 49.9842 8.31633ZM49.6709 20.7625C49.6709 21.9587 48.7026 22.9556 47.4779 22.9556H47.1076C45.883 22.9556 44.9146 21.9872 44.9146 20.7625V10.5948C44.9146 9.3986 45.883 8.40177 47.1076 8.40177H47.4779C48.7026 8.40177 49.6709 9.37012 49.6709 10.5948V20.7625Z" fill="#03141A"/>
<path d="M67.5857 10.4237V24.1801H66.0762V8.97119L67.5857 10.4237Z" fill="#03141A"/>
<path d="M72.3988 10.9366V24.1803H70.8038V10.5948C70.8038 9.3986 69.8355 8.43025 68.6393 8.43025H64.9367C63.7405 8.43025 62.7722 9.3986 62.7722 10.5948V24.1803H61.1772V10.9366C61.1772 8.88595 62.8576 7.20557 64.9083 7.20557H68.6393C70.7184 7.20557 72.3988 8.85747 72.3988 10.9366Z" fill="#03141A"/>
<path d="M94.1867 0.0854492H92.7627V24.1234H94.1867V0.0854492Z" fill="#03141A"/>
<path d="M92.7629 22.9557V24.1235H90.0857C88.2344 24.1235 86.7534 22.6424 86.7534 20.7912V10.538C86.7534 8.7722 88.1775 7.34814 89.9433 7.34814H91.4813L92.5635 8.4589H90.1427C89.0889 8.4589 88.206 9.31334 88.206 10.3671V20.9051C88.206 22.0159 89.1173 22.9273 90.2281 22.9273H92.7629V22.9557Z" fill="#03141A"/>
<path d="M61.5477 28.5097H51.8642L50.4116 26.9717H60.0952L61.5477 28.5097Z" fill="#03141A"/>
<path d="M55.6522 45.0002H57.1902V27.5698H54.8262V44.1458C54.7978 44.63 55.168 45.0002 55.6522 45.0002Z" fill="#03141A"/>
<path d="M66.4463 43.462V28.538H73.766L72.3134 27H62.6299L64.0824 28.538H64.1394V43.462V44.1741C64.1394 44.6297 64.5096 45.0285 64.9653 45.0285H66.4748H72.0571L70.6046 43.4905H66.4463V43.462Z" fill="#03141A"/>
<path d="M66.6743 34.9746L68.1268 36.5411H72.0287L70.5477 34.9746H66.6743Z" fill="#03141A"/>
<path d="M92.6487 45.0002H94.1867V26.9717H91.8228V44.1457C91.8228 44.6014 92.193 45.0002 92.6487 45.0002Z" fill="#03141A"/>
<path d="M85.5287 45.0002H87.0666V26.9717H84.7027V44.1457C84.6742 44.6014 85.0445 45.0002 85.5287 45.0002Z" fill="#03141A"/>
<path d="M87.0952 34.9746L88.5477 36.5411H93.7313L92.2788 34.9746H87.0952Z" fill="#03141A"/>
<path d="M81.8263 43.4335H78.7218C77.4687 43.4335 76.4433 42.4082 76.4433 41.1551V30.7595C76.4433 29.5063 77.4687 28.481 78.7218 28.481H82.6237L81.0573 26.9146H77.6965C75.7028 26.9146 74.1079 28.5095 74.1079 30.5032V41.1835C74.1079 43.1772 75.7313 44.7721 77.6965 44.7721H83.2218L81.8263 43.4335Z" fill="#03141A"/>
</g>
<defs>
<clipPath id="clip0_692_187">
<rect width="109.652" height="45" fill="white"/>
</clipPath>
</defs>
</svg>
