<svg xmlns="http://www.w3.org/2000/svg" width="14" height="14" viewBox="0 0 14 14" fill="none">
  <path d="M12.6283 9.54705L10.6488 9.32103C10.416 9.2937 10.1801 9.31947 9.95872 9.39641C9.73735 9.47335 9.53629 9.59946 9.37066 9.76526L7.93665 11.1993C5.72422 10.0741 3.92594 8.27578 2.80073 6.06335L4.24253 4.62155C4.57765 4.28643 4.74131 3.81882 4.68676 3.34342L4.46075 1.37945C4.41656 0.999266 4.23411 0.648605 3.94812 0.394233C3.66213 0.139862 3.29259 -0.000453781 2.90984 1.10254e-06H1.56156C0.680898 1.10254e-06 -0.0516916 0.732591 0.00286293 1.61326C0.415919 8.26891 5.73888 13.5841 12.3867 13.9971C13.2674 14.0517 14 13.3191 14 12.4384V11.0902C14.0078 10.303 13.4155 9.64057 12.6283 9.54705Z" fill="#F8523B"/>
</svg>