<svg width="80" height="102" viewBox="0 0 80 102" fill="none" xmlns="http://www.w3.org/2000/svg">
<rect width="80" height="80" rx="10" fill="white"/>
<g clip-path="url(#clip0_608_3489)">
<path d="M40 63.625C40.5625 63.625 41.2188 63.5312 41.7812 63.1562L59.125 53.2188C60.25 52.5625 60.9062 51.3438 60.9062 50.0312V30.0625C60.9062 28.75 60.25 27.5312 59.125 26.875L41.7812 16.8438C40.6562 16.2812 39.25 16.2812 38.125 16.8438L20.875 26.875C19.75 27.5312 19 28.75 19 30.0625V50.0312C19 51.3438 19.75 52.5625 20.875 53.2188L25.375 55.75C27.5312 56.875 28.375 56.875 29.4062 56.875C32.5938 56.875 34.4688 54.9062 34.4688 51.4375V31.75C34.4688 31.4688 34.2812 31.2812 34 31.2812H31.75C31.4688 31.2812 31.2812 31.4688 31.2812 31.75V51.4375C31.2812 53.0312 29.6875 54.5312 27.1562 53.2188L22.375 50.5C22.1875 50.4062 22.0938 50.2188 22.0938 50.0312V30.0625C22.0938 29.875 22.1875 29.6875 22.375 29.5938L39.7188 19.5625C39.8125 19.4688 40.0938 19.4688 40.1875 19.5625L57.5312 29.5938C57.7188 29.6875 57.8125 29.875 57.8125 30.0625V50.0312C57.8125 50.2188 57.7188 50.4062 57.5312 50.5L40.1875 60.5312C40.0938 60.625 39.8125 60.625 39.7188 60.5312L35.2188 57.8125C35.125 57.8125 34.9375 57.7188 34.8438 57.8125C33.625 58.5625 33.3438 58.5625 32.2188 59.0312C31.9375 59.125 31.4688 59.3125 32.3125 59.7812L38.125 63.1562C38.6875 63.5312 39.3438 63.625 40 63.625ZM53.9688 43.9375C53.9688 40.1875 51.4375 39.25 46.0938 38.5C40.75 37.8438 40.1875 37.4688 40.1875 36.1562C40.1875 35.125 40.6562 33.8125 44.5938 33.8125C48.1562 33.8125 49.4688 34.5625 50.0312 36.9062C50.0312 37.1875 50.3125 37.375 50.5 37.375H52.75C52.9375 37.375 53.0312 37.2812 53.125 37.1875C53.2188 37.0938 53.2188 36.9062 53.2188 36.8125C52.9375 32.6875 50.125 30.7188 44.5938 30.7188C39.625 30.7188 36.7188 32.7812 36.7188 36.3438C36.7188 40.0938 39.625 41.125 44.4062 41.5938C50.0312 42.1562 50.5 43 50.5 44.125C50.5 46.0938 48.9062 46.8438 45.3438 46.8438C40.75 46.8438 39.7188 45.7188 39.3438 43.4688C39.3438 43.1875 39.1562 43 38.875 43H36.625C36.3438 43 36.1562 43.2812 36.1562 43.5625C36.1562 46.4688 37.75 49.9375 45.3438 49.9375C50.7812 49.9375 53.9688 47.7812 53.9688 43.9375Z" fill="#819296"/>
</g>
<path d="M22.459 100H21.185L16.061 92.23V100H14.787V90.228H16.061L21.185 97.984V90.228H22.459V100ZM27.9767 100.126C27.2581 100.126 26.6047 99.9627 26.0167 99.636C25.4381 99.3093 24.9807 98.8473 24.6447 98.25C24.3181 97.6433 24.1547 96.9433 24.1547 96.15C24.1547 95.366 24.3227 94.6753 24.6587 94.078C25.0041 93.4713 25.4707 93.0093 26.0587 92.692C26.6467 92.3653 27.3047 92.202 28.0327 92.202C28.7607 92.202 29.4187 92.3653 30.0067 92.692C30.5947 93.0093 31.0567 93.4667 31.3927 94.064C31.7381 94.6613 31.9107 95.3567 31.9107 96.15C31.9107 96.9433 31.7334 97.6433 31.3787 98.25C31.0334 98.8473 30.5621 99.3093 29.9647 99.636C29.3674 99.9627 28.7047 100.126 27.9767 100.126ZM27.9767 99.006C28.4341 99.006 28.8634 98.8987 29.2647 98.684C29.6661 98.4693 29.9881 98.1473 30.2307 97.718C30.4827 97.2887 30.6087 96.766 30.6087 96.15C30.6087 95.534 30.4874 95.0113 30.2447 94.582C30.0021 94.1527 29.6847 93.8353 29.2927 93.63C28.9007 93.4153 28.4761 93.308 28.0187 93.308C27.5521 93.308 27.1227 93.4153 26.7307 93.63C26.3481 93.8353 26.0401 94.1527 25.8067 94.582C25.5734 95.0113 25.4567 95.534 25.4567 96.15C25.4567 96.7753 25.5687 97.3027 25.7927 97.732C26.0261 98.1613 26.3341 98.4833 26.7167 98.698C27.0994 98.9033 27.5194 99.006 27.9767 99.006ZM33.1098 96.136C33.1098 95.352 33.2685 94.666 33.5858 94.078C33.9031 93.4807 34.3371 93.0187 34.8878 92.692C35.4478 92.3653 36.0731 92.202 36.7638 92.202C37.3611 92.202 37.9165 92.342 38.4298 92.622C38.9431 92.8927 39.3351 93.252 39.6058 93.7V89.64H40.8938V100H39.6058V98.558C39.3538 99.0153 38.9805 99.3933 38.4858 99.692C37.9911 99.9813 37.4125 100.126 36.7498 100.126C36.0685 100.126 35.4478 99.958 34.8878 99.622C34.3371 99.286 33.9031 98.8147 33.5858 98.208C33.2685 97.6013 33.1098 96.9107 33.1098 96.136ZM39.6058 96.15C39.6058 95.5713 39.4891 95.0673 39.2558 94.638C39.0225 94.2087 38.7051 93.882 38.3038 93.658C37.9118 93.4247 37.4778 93.308 37.0018 93.308C36.5258 93.308 36.0918 93.42 35.6998 93.644C35.3078 93.868 34.9951 94.1947 34.7618 94.624C34.5285 95.0533 34.4118 95.5573 34.4118 96.136C34.4118 96.724 34.5285 97.2373 34.7618 97.676C34.9951 98.1053 35.3078 98.4367 35.6998 98.67C36.0918 98.894 36.5258 99.006 37.0018 99.006C37.4778 99.006 37.9118 98.894 38.3038 98.67C38.7051 98.4367 39.0225 98.1053 39.2558 97.676C39.4891 97.2373 39.6058 96.7287 39.6058 96.15ZM50.0468 95.87C50.0468 96.1127 50.0328 96.3693 50.0048 96.64H43.8728C43.9194 97.396 44.1761 97.9887 44.6428 98.418C45.1188 98.838 45.6928 99.048 46.3648 99.048C46.9154 99.048 47.3728 98.922 47.7368 98.67C48.1101 98.4087 48.3714 98.0633 48.5208 97.634H49.8928C49.6874 98.3713 49.2768 98.9733 48.6608 99.44C48.0448 99.8973 47.2794 100.126 46.3648 100.126C45.6368 100.126 44.9834 99.9627 44.4048 99.636C43.8354 99.3093 43.3874 98.8473 43.0608 98.25C42.7341 97.6433 42.5708 96.9433 42.5708 96.15C42.5708 95.3567 42.7294 94.6613 43.0468 94.064C43.3641 93.4667 43.8074 93.0093 44.3768 92.692C44.9554 92.3653 45.6181 92.202 46.3648 92.202C47.0928 92.202 47.7368 92.3607 48.2968 92.678C48.8568 92.9953 49.2861 93.434 49.5848 93.994C49.8928 94.5447 50.0468 95.17 50.0468 95.87ZM48.7308 95.604C48.7308 95.1187 48.6234 94.7033 48.4088 94.358C48.1941 94.0033 47.9001 93.7373 47.5268 93.56C47.1628 93.3733 46.7568 93.28 46.3088 93.28C45.6648 93.28 45.1141 93.4853 44.6568 93.896C44.2088 94.3067 43.9521 94.876 43.8868 95.604H48.7308ZM56.6424 90.242V97.452C56.6424 98.2547 56.3951 98.8987 55.9004 99.384C55.4057 99.86 54.7524 100.098 53.9404 100.098C53.1191 100.098 52.4611 99.8553 51.9664 99.37C51.4717 98.8753 51.2244 98.2033 51.2244 97.354H52.4984C52.5077 97.83 52.6291 98.2173 52.8624 98.516C53.1051 98.8147 53.4644 98.964 53.9404 98.964C54.4164 98.964 54.7711 98.824 55.0044 98.544C55.2377 98.2547 55.3544 97.8907 55.3544 97.452V90.242H56.6424ZM62.2462 100.098C61.6022 100.098 61.0236 99.986 60.5102 99.762C60.0062 99.5287 59.6096 99.2113 59.3202 98.81C59.0309 98.3993 58.8816 97.928 58.8722 97.396H60.2302C60.2769 97.8533 60.4636 98.2407 60.7902 98.558C61.1262 98.866 61.6116 99.02 62.2462 99.02C62.8529 99.02 63.3289 98.8707 63.6742 98.572C64.0289 98.264 64.2062 97.872 64.2062 97.396C64.2062 97.0227 64.1036 96.7193 63.8982 96.486C63.6929 96.2527 63.4362 96.0753 63.1282 95.954C62.8202 95.8327 62.4049 95.702 61.8822 95.562C61.2382 95.394 60.7202 95.226 60.3282 95.058C59.9456 94.89 59.6142 94.6287 59.3342 94.274C59.0636 93.91 58.9282 93.4247 58.9282 92.818C58.9282 92.286 59.0636 91.8147 59.3342 91.404C59.6049 90.9933 59.9829 90.676 60.4682 90.452C60.9629 90.228 61.5276 90.116 62.1622 90.116C63.0769 90.116 63.8236 90.3447 64.4022 90.802C64.9902 91.2593 65.3216 91.866 65.3962 92.622H63.9962C63.9496 92.2487 63.7536 91.922 63.4082 91.642C63.0629 91.3527 62.6056 91.208 62.0362 91.208C61.5042 91.208 61.0702 91.348 60.7342 91.628C60.3982 91.8987 60.2302 92.2813 60.2302 92.776C60.2302 93.1307 60.3282 93.42 60.5242 93.644C60.7296 93.868 60.9769 94.0407 61.2662 94.162C61.5649 94.274 61.9802 94.4047 62.5122 94.554C63.1562 94.7313 63.6742 94.9087 64.0662 95.086C64.4582 95.254 64.7942 95.52 65.0742 95.884C65.3542 96.2387 65.4942 96.724 65.4942 97.34C65.4942 97.816 65.3682 98.264 65.1162 98.684C64.8642 99.104 64.4909 99.4447 63.9962 99.706C63.5016 99.9673 62.9182 100.098 62.2462 100.098Z" fill="#4F5B5E"/>
<defs>
<clipPath id="clip0_608_3489">
<rect width="42" height="48" fill="white" transform="translate(19 16)"/>
</clipPath>
</defs>
</svg>
