<svg width="95" height="62" viewBox="0 0 95 62" fill="none" xmlns="http://www.w3.org/2000/svg">
<path d="M43.5771 19.9931C42.3464 19.4263 41.5091 18.2056 41.4006 16.8062C41.4719 15.3669 42.2037 14.0519 43.3624 13.2681C43.1711 13.7531 43.2155 14.3031 43.4806 14.7425C43.7805 15.1825 44.2993 15.3906 44.8049 15.2831C45.527 15.0713 45.9486 14.29 45.7453 13.5381C45.6733 13.275 45.53 13.0363 45.3333 12.8581C44.5146 12.1637 44.1049 11.0806 44.2519 9.99312C44.3928 9.4175 44.6987 8.9 45.1299 8.50562C44.8043 9.4075 45.7171 10.2925 46.3325 10.7325C47.4193 11.4094 48.4659 12.1581 49.4681 12.9681C50.5651 13.87 51.1618 15.2763 51.0677 16.7181C50.8212 18.2513 49.7812 19.5181 48.3633 19.9931C51.1996 19.3356 54.1265 16.9856 54.1829 13.6525C54.1271 10.9856 52.5995 8.59313 50.2658 7.50313H50.1626C50.2124 7.63313 50.237 7.77313 50.234 7.91625C50.2406 7.82438 50.2406 7.73063 50.234 7.63938C50.2466 7.75 50.2466 7.8575 50.234 7.96438C50.0565 8.72375 49.3223 9.18875 48.5912 9.00625C48.3009 8.93188 48.0412 8.75937 47.8541 8.51562C46.9167 7.26562 47.8541 5.84312 48.01 4.46562C48.1066 2.70812 47.3359 1.02813 45.9678 0C46.6516 1.18813 45.7393 2.75062 45.0772 3.63937C44.415 4.52812 43.456 5.18875 42.6715 5.96375C41.8288 6.78125 41.0569 7.67938 40.3636 8.63937C38.8641 10.5469 38.2764 13.0638 38.764 15.475C39.4327 17.7994 41.2878 19.5475 43.5741 20H43.5867L43.5771 19.9931Z" fill="#819296"/>
<path d="M35.5545 26.7058L35.5383 26.6307L35.5263 26.5912C35.5167 26.5687 35.5101 26.5487 35.5017 26.5261C35.5017 26.513 35.4921 26.5004 35.4855 26.4867L35.4573 26.4284L35.4357 26.389L35.398 26.3364L35.3638 26.3007L35.3134 26.2612L35.2756 26.2355L35.2294 26.1999L35.1952 26.1673L35.1826 26.1516L26.4206 20.0323C26.1453 19.8369 25.7866 19.8369 25.5089 20.0323L16.6779 26.1773L16.6305 26.2199L16.5993 26.2525L16.5585 26.3007L16.5304 26.3364L16.4896 26.389C16.4746 26.4015 16.465 26.4115 16.465 26.4247L16.4242 26.4766L16.4092 26.5261C16.393 26.5355 16.393 26.5587 16.3834 26.5843L16.378 26.6269C16.3618 26.6526 16.3618 26.6751 16.3618 26.7021V32.9611C16.3618 33.0005 16.3648 33.0362 16.3714 33.0744L16.378 33.1139C16.3804 33.137 16.387 33.1633 16.393 33.1859L16.4056 33.2253C16.4146 33.2485 16.4176 33.2711 16.4272 33.2905L16.4458 33.3299C16.4458 33.3399 16.4554 33.3656 16.468 33.3825L16.4926 33.4151C16.5052 33.4245 16.5172 33.4476 16.5304 33.4633L16.5519 33.499L16.5831 33.5316C16.5927 33.5416 16.5927 33.5585 16.6089 33.5585L16.6551 33.591L16.6893 33.6167L16.6959 33.6299L25.4711 39.7486C25.6025 39.8494 25.771 39.8857 25.927 39.8857C26.0799 39.8857 26.2364 39.8331 26.3798 39.7355L35.305 33.5516L35.3452 33.5021L35.3734 33.4627L35.4046 33.4145L35.4303 33.3719L35.4519 33.3136L35.4645 33.2711L35.4891 33.2059L35.5017 33.1702L35.5263 33.102V26.8398C35.5263 26.8004 35.5263 26.7616 35.5101 26.7221L35.5011 26.6864L35.5353 26.6895L35.5545 26.7058ZM25.9678 31.9466L23.0463 29.9108L25.9678 27.8693L28.885 29.9083L25.9678 31.9466ZM25.1401 26.3758L21.563 28.8707L18.6739 26.8549L25.1401 22.3543V26.3758ZM20.0762 29.9089L18.0106 31.3536V28.4736L20.0762 29.9145V29.9089ZM21.563 30.9522L25.1401 33.4501V37.4748L18.6739 32.9736L21.5666 30.9522H21.563ZM26.7888 33.4508L30.3689 30.9616L33.258 32.9805L26.7882 37.4817L26.7888 33.4508ZM31.8527 29.9177L33.9177 28.4824V31.3661L31.8527 29.9208V29.9177ZM30.3695 28.8807L26.7924 26.3858V22.3511L33.2586 26.8517L30.3695 28.8675V28.8807Z" fill="#819296"/>
<path d="M65.906 40L57.5962 34.9969V24.9969L65.909 20L74.2218 24.9969L69.5076 27.835L65.909 25.6675L62.3074 27.8319V32.1687L65.906 34.3331L69.5046 32.1687L74.2218 34.9969L65.912 40H65.906Z" fill="#819296"/>
<path fill-rule="evenodd" clip-rule="evenodd" d="M38.9551 61.8074L53.7808 60.8021L54.924 45.8511L50.4065 55.0087L38.9551 61.8074Z" fill="#819296"/>
<path fill-rule="evenodd" clip-rule="evenodd" d="M49.0603 56.5783L53.8058 60.7899L52.5323 51.9957L49.0603 56.5783Z" fill="#819296"/>
<path fill-rule="evenodd" clip-rule="evenodd" d="M39.0054 61.7876L53.8236 60.7899L44.4879 60.0579L39.0054 61.7876Z" fill="#819296"/>
<path fill-rule="evenodd" clip-rule="evenodd" d="M36.2202 55.2471L39.0179 61.79L41.3518 54.149L36.2202 55.2471Z" fill="#819296"/>
<path fill-rule="evenodd" clip-rule="evenodd" d="M40.772 53.9555L49.0597 56.6028L46.9138 48.1997L40.772 53.9555Z" fill="#819296"/>
<path fill-rule="evenodd" clip-rule="evenodd" d="M47.0151 48.8014L54.438 48.3175L48.6321 43.577L47.0151 48.8014Z" fill="#819296"/>
<path fill-rule="evenodd" clip-rule="evenodd" d="M46.155 41.8604L51.7228 41.8854L48.3084 43.7731L46.155 41.8604Z" fill="#819296"/>
<path fill-rule="evenodd" clip-rule="evenodd" d="M35.1419 52.0934L34.8687 57.8091L36.3001 55.2019L35.1419 52.0934Z" fill="#819296"/>
<path fill-rule="evenodd" clip-rule="evenodd" d="M35.0649 51.9954L36.2306 55.2969L41.287 54.1638L47.0629 48.7991L48.6924 43.6224L46.1253 41.8074L41.7633 43.4394C40.3846 44.7179 37.7222 47.2473 37.627 47.2949C37.5317 47.3426 35.8722 50.4937 35.0649 51.9954Z" fill="white"/>
<path fill-rule="evenodd" clip-rule="evenodd" d="M39.1529 46.0636C42.1386 43.1105 45.9716 41.3657 47.4457 42.8523C48.9197 44.3389 47.3554 47.9513 44.3772 50.9044C41.399 53.8575 37.6061 55.7001 36.122 54.211C34.638 52.7219 36.1722 49.0167 39.1529 46.0636Z" fill="#819296"/>
<path fill-rule="evenodd" clip-rule="evenodd" d="M39.0181 61.7872L41.3344 54.1211L49.018 56.5904C46.2404 59.1975 43.1419 61.3986 39.0181 61.7872Z" fill="#819296"/>
<path fill-rule="evenodd" clip-rule="evenodd" d="M47.0723 48.7818L49.0452 56.5958C51.3666 54.1541 53.4498 51.5319 54.4701 48.298L47.0723 48.7818Z" fill="#819296"/>
<path fill-rule="evenodd" clip-rule="evenodd" d="M54.4499 48.3256C55.2396 45.944 55.4251 42.5321 51.6973 41.8904L48.6565 43.5775L54.4499 48.3256Z" fill="#819296"/>
<path fill-rule="evenodd" clip-rule="evenodd" d="M34.8687 57.7762C34.979 61.707 37.8142 61.7671 39.0226 61.7872L36.2324 55.2693L34.8687 57.7762Z" fill="#819296"/>
<path fill-rule="evenodd" clip-rule="evenodd" d="M47.082 48.7994C48.8669 49.8949 52.4618 52.0959 52.5345 52.1361C52.6473 52.2012 54.0838 49.7144 54.4097 48.3105L47.082 48.7994Z" fill="#819296"/>
<path fill-rule="evenodd" clip-rule="evenodd" d="M41.3296 54.1211L44.4231 60.08C46.1071 59.1446 47.6471 57.971 48.9956 56.5954L41.3296 54.1211Z" fill="#819296"/>
<path fill-rule="evenodd" clip-rule="evenodd" d="M36.22 55.2894L35.7812 60.5087C36.6085 61.6368 37.7466 61.7371 38.9399 61.6494C38.0776 59.4985 36.3528 55.2017 36.22 55.2894Z" fill="#819296"/>
<path fill-rule="evenodd" clip-rule="evenodd" d="M48.6245 43.5894L54.7714 44.4518C54.443 43.063 53.4352 42.1655 51.718 41.8848L48.6245 43.5894Z" fill="#819296"/>
<path d="M4.09619 61.8076C6.02819 61.8076 7.59619 60.3516 7.59619 58.5576V55.3076H4.09619C2.16419 55.3076 0.596191 56.7636 0.596191 58.5576C0.596191 60.3516 2.16419 61.8076 4.09619 61.8076Z" fill="#819296"/>
<path d="M0.596191 51.5571C0.596191 49.7631 2.16419 48.3071 4.09619 48.3071H7.59619V54.8071H4.09619C2.16419 54.8071 0.596191 53.3511 0.596191 51.5571Z" fill="#819296"/>
<path d="M0.596191 45.0574C0.596191 43.2634 2.16419 41.8074 4.09619 41.8074H7.59619V48.3074H4.09619C2.16419 48.3074 0.596191 46.8514 0.596191 45.0574Z" fill="#819296"/>
<path d="M7.59619 41.8074H11.0962C13.0282 41.8074 14.5962 43.2634 14.5962 45.0574C14.5962 46.8514 13.0282 48.3074 11.0962 48.3074H7.59619V41.8074Z" fill="#819296"/>
<path d="M14.5962 51.5571C14.5962 53.3511 13.0282 54.8071 11.0962 54.8071C9.16419 54.8071 7.59619 53.3511 7.59619 51.5571C7.59619 49.7631 9.16419 48.3071 11.0962 48.3071C13.0282 48.3071 14.5962 49.7631 14.5962 51.5571Z" fill="#819296"/>
<g clip-path="url(#clip0_608_3502)">
<path d="M84.4036 42.0549C78.8792 42.0549 74.4036 46.5343 74.4036 52.0549C74.4036 56.4756 77.2686 60.2224 81.2392 61.5443C81.7411 61.6387 81.9223 61.3293 81.9223 61.0618C81.9223 60.8243 81.9167 60.1962 81.9129 59.3624C79.1298 59.9649 78.5436 58.0181 78.5436 58.0181C78.0879 56.8656 77.4304 56.5562 77.4304 56.5562C76.5254 55.9381 77.5023 55.9512 77.5023 55.9512C78.5048 56.0193 79.0323 56.9793 79.0323 56.9793C79.9242 58.5093 81.3723 58.0668 81.9454 57.8093C82.0329 57.1649 82.2936 56.7218 82.5773 56.4749C80.3573 56.2243 78.0229 55.3649 78.0229 51.5331C78.0229 50.4387 78.4104 49.5474 79.0511 48.8474C78.9404 48.5968 78.6017 47.5781 79.1392 46.2006C79.1392 46.2006 79.9761 45.9337 81.8892 47.2262C82.6898 47.0043 83.5398 46.8937 84.3892 46.8881C85.2392 46.8937 86.0886 47.0049 86.8892 47.2262C88.7911 45.9337 89.6273 46.2006 89.6273 46.2006C90.1642 47.5781 89.8254 48.5962 89.7279 48.8474C90.3623 49.5474 90.7498 50.4393 90.7498 51.5331C90.7498 55.3737 88.4123 56.2206 86.1898 56.4649C86.5373 56.7643 86.8629 57.3799 86.8629 58.3143C86.8629 59.6518 86.8504 60.7293 86.8504 61.0549C86.8504 61.3149 87.0254 61.6274 87.5404 61.5268C91.5404 60.2187 94.4023 56.4687 94.4023 52.0543C94.4023 46.5337 89.9267 42.0543 84.4023 42.0543L84.4036 42.0549Z" fill="#819296"/>
</g>
<defs>
<clipPath id="clip0_608_3502">
<rect width="20" height="20" fill="white" transform="translate(74.4038 41.8066)"/>
</clipPath>
</defs>
</svg>
