<svg width="80" height="102" viewBox="0 0 80 102" fill="none" xmlns="http://www.w3.org/2000/svg">
<rect width="80" height="80" rx="10" fill="white"/>
<g clip-path="url(#clip0_608_3495)">
<path d="M40 25.8438C56.0312 25.8438 68.4062 32.5938 68.4062 40C68.4062 47.5 56.0312 54.25 40 54.25C23.875 54.25 11.5 47.5 11.5 40C11.5 32.5938 23.875 25.8438 40 25.8438ZM40 24.25C23.4062 24.25 10 31.2812 10 40C10 48.7188 23.4062 55.8438 40 55.8438C56.5 55.8438 70 48.7188 70 40C70 31.2812 56.5 24.25 40 24.25ZM30.4375 38.7812C29.6875 42.5312 27.0625 42.1562 23.875 42.1562L25.0938 35.5938C28.6562 35.5938 31.0938 35.2188 30.4375 38.7812ZM19.0938 48.9062H22.5625L23.3125 44.6875C27.1562 44.6875 29.5938 44.9688 31.8438 42.9062C34.2812 40.6562 34.8438 36.625 33.1562 34.6562C32.2188 33.625 30.8125 33.0625 28.75 33.0625H22.1875L19.0938 48.9062ZM36.5312 28.8438L33.4375 44.6875H36.8125L38.5938 35.5938C41.4062 35.5938 42.5312 35.5 43.0938 36.0625C43.5625 36.625 43.2812 37.1875 41.875 44.6875H45.3438C46.8438 37 47.5 35.3125 46.0938 34.0938C44.7812 32.875 42.0625 33.0625 39.0625 33.0625L39.9062 28.8438H36.5312ZM57.3438 38.7812C56.5938 42.625 53.875 42.1562 50.6875 42.1562L52 35.5938C55.5625 35.5938 58 35.2188 57.3438 38.7812ZM46 48.9062H49.4688L50.2188 44.6875C54.25 44.6875 56.5 44.875 58.6562 42.9062C61.1875 40.6562 61.75 36.625 60.0625 34.6562C59.125 33.625 57.625 33.0625 55.6562 33.0625H49.0938L46 48.9062Z" fill="#819296"/>
</g>
<path d="M34.6479 93.098C34.6479 93.91 34.3679 94.5867 33.8079 95.128C33.2572 95.66 32.4126 95.926 31.2739 95.926H29.3979V100H28.1239V90.242H31.2739C32.3752 90.242 33.2106 90.508 33.7799 91.04C34.3586 91.572 34.6479 92.258 34.6479 93.098ZM31.2739 94.876C31.9832 94.876 32.5059 94.722 32.8419 94.414C33.1779 94.106 33.3459 93.6673 33.3459 93.098C33.3459 91.894 32.6552 91.292 31.2739 91.292H29.3979V94.876H31.2739ZM43.7493 90.242V100H42.4753V95.576H37.5053V100H36.2313V90.242H37.5053V94.526H42.4753V90.242H43.7493ZM52.4487 93.098C52.4487 93.91 52.1687 94.5867 51.6087 95.128C51.058 95.66 50.2133 95.926 49.0747 95.926H47.1987V100H45.9247V90.242H49.0747C50.176 90.242 51.0113 90.508 51.5807 91.04C52.1593 91.572 52.4487 92.258 52.4487 93.098ZM49.0747 94.876C49.784 94.876 50.3067 94.722 50.6427 94.414C50.9787 94.106 51.1467 93.6673 51.1467 93.098C51.1467 91.894 50.456 91.292 49.0747 91.292H47.1987V94.876H49.0747Z" fill="#4F5B5E"/>
<defs>
<clipPath id="clip0_608_3495">
<rect width="60" height="32" fill="white" transform="translate(10 24)"/>
</clipPath>
</defs>
</svg>
