<svg width="80" height="104" viewBox="0 0 80 104" fill="none" xmlns="http://www.w3.org/2000/svg">
<rect width="80" height="80" rx="10" fill="white"/>
<path d="M39.7858 22.0003C38.3013 22.0071 36.8837 22.1323 35.6364 22.3506C31.9618 22.9927 31.2947 24.3366 31.2947 26.815V30.0883H39.9781V31.1793H28.0359C25.5122 31.1793 23.3025 32.6796 22.6113 35.5336C21.814 38.805 21.7787 40.8464 22.6113 44.2622C23.2285 46.8049 24.7026 48.6165 27.2262 48.6165H30.2118V44.6927C30.2118 41.8579 32.6916 39.3574 35.6364 39.3574H44.3096C46.724 39.3574 48.6513 37.3913 48.6513 34.9931V26.815C48.6513 24.4875 46.6661 22.7391 44.3096 22.3506C42.818 22.1051 41.2702 21.9935 39.7858 22.0003ZM35.0899 24.6329C35.9868 24.6329 36.7193 25.3692 36.7193 26.2745C36.7193 27.1766 35.9868 27.9061 35.0899 27.9061C34.1897 27.9061 33.4605 27.1766 33.4605 26.2745C33.4605 25.3692 34.1897 24.6329 35.0899 24.6329Z" fill="#819296"/>
<path d="M49.734 31.1794V34.9931C49.734 37.9499 47.1995 40.4385 44.3094 40.4385H35.6361C33.2604 40.4385 31.2944 42.4496 31.2944 44.8028V52.9809C31.2944 55.3084 33.3407 56.6774 35.6361 57.3452C38.3848 58.1446 41.0206 58.289 44.3094 57.3452C46.4955 56.7191 48.6511 55.4593 48.6511 52.9809V49.7076H39.9778V48.6166H52.9928C55.5164 48.6166 56.4568 46.8755 57.3344 44.2623C58.241 41.572 58.2025 38.9848 57.3344 35.5337C56.7108 33.0488 55.5196 31.1794 52.9928 31.1794H49.734ZM44.8559 51.8898C45.756 51.8898 46.4853 52.6193 46.4853 53.5214C46.4853 54.4267 45.756 55.163 44.8559 55.163C43.9589 55.163 43.2265 54.4267 43.2265 53.5214C43.2265 52.6193 43.9589 51.8898 44.8559 51.8898Z" fill="#819296"/>
<path d="M23.6215 93.098C23.6215 93.91 23.3415 94.5867 22.7815 95.128C22.2309 95.66 21.3862 95.926 20.2475 95.926H18.3715V100H17.0975V90.242H20.2475C21.3489 90.242 22.1842 90.508 22.7535 91.04C23.3322 91.572 23.6215 92.258 23.6215 93.098ZM20.2475 94.876C20.9569 94.876 21.4795 94.722 21.8155 94.414C22.1515 94.106 22.3195 93.6673 22.3195 93.098C22.3195 91.894 21.6289 91.292 20.2475 91.292H18.3715V94.876H20.2475ZM31.813 92.328L27.193 103.612H25.877L27.389 99.916L24.295 92.328H25.709L28.117 98.544L30.497 92.328H31.813ZM34.6476 93.378V97.9C34.6476 98.2733 34.727 98.5393 34.8856 98.698C35.0443 98.8473 35.3196 98.922 35.7116 98.922H36.6496V100H35.5016C34.7923 100 34.2603 99.8367 33.9056 99.51C33.551 99.1833 33.3736 98.6467 33.3736 97.9V93.378H32.3796V92.328H33.3736V90.396H34.6476V92.328H36.6496V93.378H34.6476ZM42.0012 92.188C42.5799 92.188 43.1026 92.314 43.5692 92.566C44.0359 92.8087 44.3999 93.1773 44.6612 93.672C44.9319 94.1667 45.0672 94.7687 45.0672 95.478V100H43.8072V95.66C43.8072 94.8947 43.6159 94.3113 43.2332 93.91C42.8506 93.4993 42.3279 93.294 41.6652 93.294C40.9932 93.294 40.4566 93.504 40.0552 93.924C39.6632 94.344 39.4672 94.9553 39.4672 95.758V100H38.1932V89.64H39.4672V93.42C39.7192 93.028 40.0646 92.7247 40.5032 92.51C40.9512 92.2953 41.4506 92.188 42.0012 92.188ZM50.4943 100.126C49.7756 100.126 49.1223 99.9627 48.5343 99.636C47.9556 99.3093 47.4983 98.8473 47.1623 98.25C46.8356 97.6433 46.6723 96.9433 46.6723 96.15C46.6723 95.366 46.8403 94.6753 47.1763 94.078C47.5216 93.4713 47.9883 93.0093 48.5763 92.692C49.1643 92.3653 49.8223 92.202 50.5503 92.202C51.2783 92.202 51.9363 92.3653 52.5243 92.692C53.1123 93.0093 53.5743 93.4667 53.9103 94.064C54.2556 94.6613 54.4283 95.3567 54.4283 96.15C54.4283 96.9433 54.251 97.6433 53.8963 98.25C53.551 98.8473 53.0796 99.3093 52.4823 99.636C51.885 99.9627 51.2223 100.126 50.4943 100.126ZM50.4943 99.006C50.9516 99.006 51.381 98.8987 51.7823 98.684C52.1836 98.4693 52.5056 98.1473 52.7483 97.718C53.0003 97.2887 53.1263 96.766 53.1263 96.15C53.1263 95.534 53.005 95.0113 52.7623 94.582C52.5196 94.1527 52.2023 93.8353 51.8103 93.63C51.4183 93.4153 50.9936 93.308 50.5363 93.308C50.0696 93.308 49.6403 93.4153 49.2483 93.63C48.8656 93.8353 48.5576 94.1527 48.3243 94.582C48.091 95.0113 47.9743 95.534 47.9743 96.15C47.9743 96.7753 48.0863 97.3027 48.3103 97.732C48.5436 98.1613 48.8516 98.4833 49.2343 98.698C49.617 98.9033 50.037 99.006 50.4943 99.006ZM59.8414 92.188C60.7747 92.188 61.5307 92.4727 62.1094 93.042C62.6881 93.602 62.9774 94.414 62.9774 95.478V100H61.7174V95.66C61.7174 94.8947 61.5261 94.3113 61.1434 93.91C60.7607 93.4993 60.2381 93.294 59.5754 93.294C58.9034 93.294 58.3667 93.504 57.9654 93.924C57.5734 94.344 57.3774 94.9553 57.3774 95.758V100H56.1034V92.328H57.3774V93.42C57.6294 93.028 57.9701 92.7247 58.3994 92.51C58.8381 92.2953 59.3187 92.188 59.8414 92.188Z" fill="#4F5B5E"/>
</svg>
