<svg width="80" height="102" viewBox="0 0 80 102" fill="none" xmlns="http://www.w3.org/2000/svg">
<rect width="80" height="80" rx="10" fill="white"/>
<path d="M26.0842 100L23.7602 96.01H22.2202V100H20.9462V90.242H24.0962C24.8335 90.242 25.4542 90.368 25.9582 90.62C26.4715 90.872 26.8542 91.2127 27.1062 91.642C27.3582 92.0713 27.4842 92.5613 27.4842 93.112C27.4842 93.784 27.2882 94.3767 26.8962 94.89C26.5135 95.4033 25.9348 95.744 25.1602 95.912L27.6102 100H26.0842ZM22.2202 94.988H24.0962C24.7868 94.988 25.3048 94.82 25.6502 94.484C25.9955 94.1387 26.1682 93.6813 26.1682 93.112C26.1682 92.5333 25.9955 92.0853 25.6502 91.768C25.3142 91.4507 24.7962 91.292 24.0962 91.292H22.2202V94.988ZM36.4637 95.87C36.4637 96.1127 36.4497 96.3693 36.4217 96.64H30.2897C30.3364 97.396 30.5931 97.9887 31.0597 98.418C31.5357 98.838 32.1097 99.048 32.7817 99.048C33.3324 99.048 33.7897 98.922 34.1537 98.67C34.5271 98.4087 34.7884 98.0633 34.9377 97.634H36.3097C36.1044 98.3713 35.6937 98.9733 35.0777 99.44C34.4617 99.8973 33.6964 100.126 32.7817 100.126C32.0537 100.126 31.4004 99.9627 30.8217 99.636C30.2524 99.3093 29.8044 98.8473 29.4777 98.25C29.1511 97.6433 28.9877 96.9433 28.9877 96.15C28.9877 95.3567 29.1464 94.6613 29.4637 94.064C29.7811 93.4667 30.2244 93.0093 30.7937 92.692C31.3724 92.3653 32.0351 92.202 32.7817 92.202C33.5097 92.202 34.1537 92.3607 34.7137 92.678C35.2737 92.9953 35.7031 93.434 36.0017 93.994C36.3097 94.5447 36.4637 95.17 36.4637 95.87ZM35.1477 95.604C35.1477 95.1187 35.0404 94.7033 34.8257 94.358C34.6111 94.0033 34.3171 93.7373 33.9437 93.56C33.5797 93.3733 33.1737 93.28 32.7257 93.28C32.0817 93.28 31.5311 93.4853 31.0737 93.896C30.6257 94.3067 30.3691 94.876 30.3037 95.604H35.1477ZM37.6694 96.136C37.6694 95.352 37.828 94.666 38.1454 94.078C38.4627 93.4807 38.8967 93.0187 39.4474 92.692C40.0074 92.3653 40.628 92.202 41.3094 92.202C41.9814 92.202 42.5647 92.3467 43.0594 92.636C43.554 92.9253 43.9227 93.2893 44.1654 93.728V92.328H45.4534V100H44.1654V98.572C43.9134 99.02 43.5354 99.3933 43.0314 99.692C42.5367 99.9813 41.958 100.126 41.2954 100.126C40.614 100.126 39.998 99.958 39.4474 99.622C38.8967 99.286 38.4627 98.8147 38.1454 98.208C37.828 97.6013 37.6694 96.9107 37.6694 96.136ZM44.1654 96.15C44.1654 95.5713 44.0487 95.0673 43.8154 94.638C43.582 94.2087 43.2647 93.882 42.8634 93.658C42.4714 93.4247 42.0374 93.308 41.5614 93.308C41.0854 93.308 40.6514 93.42 40.2594 93.644C39.8674 93.868 39.5547 94.1947 39.3214 94.624C39.088 95.0533 38.9714 95.5573 38.9714 96.136C38.9714 96.724 39.088 97.2373 39.3214 97.676C39.5547 98.1053 39.8674 98.4367 40.2594 98.67C40.6514 98.894 41.0854 99.006 41.5614 99.006C42.0374 99.006 42.4714 98.894 42.8634 98.67C43.2647 98.4367 43.582 98.1053 43.8154 97.676C44.0487 97.2373 44.1654 96.7287 44.1654 96.15ZM47.1303 96.15C47.1303 95.3567 47.289 94.666 47.6063 94.078C47.9237 93.4807 48.3623 93.0187 48.9223 92.692C49.4917 92.3653 50.1403 92.202 50.8683 92.202C51.811 92.202 52.5857 92.4307 53.1923 92.888C53.8083 93.3453 54.2143 93.98 54.4103 94.792H53.0383C52.9077 94.3253 52.651 93.9567 52.2683 93.686C51.895 93.4153 51.4283 93.28 50.8683 93.28C50.1403 93.28 49.5523 93.532 49.1043 94.036C48.6563 94.5307 48.4323 95.2353 48.4323 96.15C48.4323 97.074 48.6563 97.788 49.1043 98.292C49.5523 98.796 50.1403 99.048 50.8683 99.048C51.4283 99.048 51.895 98.9173 52.2683 98.656C52.6417 98.3947 52.8983 98.0213 53.0383 97.536H54.4103C54.205 98.32 53.7943 98.95 53.1783 99.426C52.5623 99.8927 51.7923 100.126 50.8683 100.126C50.1403 100.126 49.4917 99.9627 48.9223 99.636C48.3623 99.3093 47.9237 98.8473 47.6063 98.25C47.289 97.6527 47.1303 96.9527 47.1303 96.15ZM57.6642 93.378V97.9C57.6642 98.2733 57.7436 98.5393 57.9022 98.698C58.0609 98.8473 58.3362 98.922 58.7282 98.922H59.6662V100H58.5182C57.8089 100 57.2769 99.8367 56.9222 99.51C56.5676 99.1833 56.3902 98.6467 56.3902 97.9V93.378H55.3962V92.328H56.3902V90.396H57.6642V92.328H59.6662V93.378H57.6642Z" fill="#4F5B5E"/>
<path d="M55.1875 32.6875C54.625 32.5 54.1562 32.3125 53.6875 32.2188C53.6875 31.8438 53.7812 31.4688 53.875 31.0938C55 25.5625 54.25 21.0625 51.7188 19.5625C49.2812 18.1563 45.25 19.6563 41.125 23.2188C40.75 23.5 40.375 23.875 40 24.25C39.7188 23.9688 39.4375 23.7813 39.25 23.5C34.9375 19.75 30.625 18.1563 28.0938 19.6563C25.6562 21.0625 24.9062 25.2813 25.9375 30.625C26.0312 31.0938 26.125 31.6562 26.3125 32.125C25.6562 32.3125 25.0938 32.5 24.5312 32.6875C19.5625 34.4688 16 37.1875 16 40C16 42.9062 19.75 45.9062 25 47.6875C25.375 47.7812 25.8438 47.9688 26.2188 48.0625C26.125 48.625 26.0312 49.1875 25.8438 49.75C24.9062 54.9062 25.6562 59.0312 28.0938 60.4375C30.625 61.9375 34.9375 60.4375 39.0625 56.7812C39.3438 56.5 39.7188 56.2188 40 55.9375C40.4688 56.3125 40.8438 56.6875 41.3125 57.0625C45.3438 60.5312 49.2812 61.9375 51.7188 60.5312C54.25 59.0312 55.0938 54.625 54.0625 49.1875C53.9688 48.8125 53.875 48.3438 53.7812 47.9688C54.0625 47.875 54.3438 47.7812 54.625 47.6875C60.0625 45.9062 64 43 64 40C64 37.1875 60.25 34.375 55.1875 32.6875ZM42.4375 24.7188C46 21.625 49.1875 20.5 50.6875 21.3438C52.2812 22.1875 52.9375 25.9375 51.9062 30.7188C51.8125 31.0938 51.8125 31.375 51.7188 31.6562C49.5625 31.1875 47.5 30.9062 45.3438 30.7188C44.125 28.9375 42.8125 27.25 41.4062 25.6563C41.7812 25.375 42.0625 25 42.4375 24.7188ZM31.6562 44.875C32.125 45.7188 32.5938 46.4688 33.1562 47.3125C31.6562 47.125 30.1562 46.9375 28.75 46.5625C29.2188 45.25 29.6875 43.8438 30.25 42.4375C30.7188 43.2812 31.1875 44.0312 31.6562 44.875ZM28.75 33.625C30.1562 33.25 31.5625 33.0625 33.0625 32.875C32.5938 33.625 32.125 34.4688 31.6562 35.2188C31.1875 36.0625 30.7188 36.8125 30.25 37.6562C29.6875 36.25 29.2188 34.9375 28.75 33.625ZM31.375 40.0938C31.9375 38.7812 32.6875 37.4688 33.3438 36.25C34.0938 35.0312 34.8438 33.8125 35.6875 32.5938C37.0938 32.5 38.5 32.4062 40 32.4062C41.4062 32.4062 42.9062 32.5 44.2188 32.5938C45.0625 33.8125 45.8125 35.0312 46.5625 36.25C47.2188 37.4688 47.9688 38.6875 48.5312 40C47.9688 41.3125 47.3125 42.625 46.5625 43.8438C45.8125 45.0625 45.0625 46.2812 44.3125 47.5C42.9062 47.5938 41.4062 47.6875 40 47.6875C38.5 47.6875 37.0938 47.5938 35.6875 47.5C34.8438 46.2812 34.0938 45.0625 33.3438 43.8438C32.6875 42.625 32.0312 41.3125 31.375 40.0938ZM48.25 44.875C48.8125 44.0312 49.1875 43.1875 49.6562 42.3438C50.2188 43.75 50.7812 45.0625 51.25 46.4688C49.75 46.8438 48.3438 47.125 46.8438 47.2188C47.3125 46.4688 47.7812 45.625 48.25 44.875ZM49.6562 37.6562C49.1875 36.8125 48.7188 36.0625 48.25 35.2188C47.7812 34.4688 47.3125 33.625 46.8438 32.875C48.3438 33.0625 49.8438 33.3438 51.1562 33.625C50.6875 35.0312 50.2188 36.3438 49.6562 37.6562ZM40 27.1563C40.9375 28.1875 41.875 29.3125 42.7188 30.5312C40.9375 30.4375 39.0625 30.4375 37.1875 30.5312C38.125 29.3125 39.0625 28.1875 40 27.1563ZM29.125 21.3438C30.7188 20.5 34.1875 21.8125 37.8438 25C38.125 25.2813 38.3125 25.4688 38.5938 25.6563C37.0938 27.25 35.7812 28.9375 34.5625 30.7188C32.4062 30.9062 30.3438 31.1875 28.2812 31.6562C28.0938 31.1875 28 30.7188 27.9062 30.1562C27.0625 25.6563 27.625 22.2813 29.125 21.3438ZM26.7812 46.0938C26.4062 46 26.0312 45.9062 25.6562 45.7188C23.6875 45.0625 21.3438 44.125 19.75 42.8125C18.8125 42.1562 18.1562 41.125 17.9688 40C17.9688 38.3125 20.9688 36.0625 25.1875 34.5625C25.75 34.375 26.3125 34.2812 26.875 34.0938C27.4375 36.1562 28.2812 38.125 29.125 40.0938C28.1875 41.9688 27.4375 44.0312 26.7812 46.0938ZM37.75 55.2812C36.1562 56.6875 34.375 57.8125 32.4062 58.5625C31.375 59.125 30.25 59.125 29.125 58.75C27.625 57.8125 27.0625 54.5312 27.9062 50.125C28 49.5625 28.0938 49 28.1875 48.5312C30.3438 49 32.4062 49.2812 34.5625 49.4688C35.7812 51.1562 37.1875 52.8438 38.5938 54.4375C38.3125 54.7188 38.0312 55 37.75 55.2812ZM40 53.0312C39.0625 52 38.125 50.875 37.1875 49.5625C38.125 49.6562 39.0625 49.6562 40 49.6562C40.9375 49.6562 41.875 49.6562 42.8125 49.5625C41.9688 50.7812 41.0312 51.9062 40 53.0312ZM52.2812 55.8438C52.1875 56.9688 51.625 58 50.7812 58.75C49.2812 59.5938 46.0938 58.4688 42.625 55.5625C42.25 55.1875 41.875 54.8125 41.4062 54.4375C42.9062 52.8438 44.2188 51.25 45.4375 49.4688C47.5938 49.2812 49.6562 48.9062 51.8125 48.4375C51.9062 48.8125 52 49.1875 52.0938 49.5625C52.4688 51.625 52.5625 53.7812 52.2812 55.8438ZM53.9688 45.7188C53.6875 45.8125 53.5 45.9062 53.2188 46C52.5625 43.9375 51.7188 41.9688 50.7812 40C51.7188 38.125 52.4688 36.1562 53.125 34.0938C53.5938 34.2812 54.0625 34.375 54.5312 34.5625C58.8438 36.0625 61.9375 38.3125 61.9375 40C61.9375 41.7812 58.6562 44.2188 53.9688 45.7188ZM40 44.3125C42.3438 44.3125 44.2188 42.4375 44.2188 40C44.2188 37.6562 42.3438 35.7812 40 35.7812C37.5625 35.7812 35.6875 37.6562 35.6875 40C35.6875 42.4375 37.5625 44.3125 40 44.3125Z" fill="#819296"/>
</svg>
