<svg width="11" height="11" viewBox="0 0 11 11" fill="none" xmlns="http://www.w3.org/2000/svg">
<path d="M7.31962 2.40613L1.73348 2.40613C1.47131 2.40157 1.22142 2.29423 1.03763 2.10722C0.85384 1.9202 0.750854 1.66849 0.750854 1.40628C0.750854 1.14407 0.853839 0.892356 1.03763 0.705344C1.22142 0.518332 1.47131 0.410987 1.73348 0.406431L9.73368 0.406431C9.86509 0.406054 9.99527 0.43166 10.1168 0.481774C10.2382 0.531887 10.3486 0.605522 10.4415 0.698441C10.5344 0.791361 10.6081 0.901732 10.6582 1.02321C10.7083 1.14469 10.7339 1.27487 10.7335 1.40628L10.7335 9.40648C10.7358 9.53925 10.7117 9.67114 10.6625 9.79447C10.6133 9.9178 10.54 10.0301 10.4469 10.1248C10.3538 10.2195 10.2428 10.2947 10.1204 10.3461C9.99792 10.3974 9.86647 10.4239 9.73368 10.4239C9.6009 10.4239 9.46944 10.3974 9.34699 10.3461C9.22453 10.2947 9.11353 10.2195 9.02046 10.1248C8.92738 10.0301 8.8541 9.9178 8.80489 9.79447C8.75568 9.67114 8.73153 9.53925 8.73383 9.40649V3.82034L1.95551 10.5987C1.76797 10.7862 1.51362 10.8916 1.2484 10.8916C0.983184 10.8916 0.72883 10.7862 0.541294 10.5987C0.353758 10.4111 0.2484 10.1568 0.2484 9.89156C0.248401 9.62634 0.353758 9.37199 0.541294 9.18445L7.31962 2.40613Z" fill="#F8523B"/>
</svg>
