<svg width="34" height="30" viewBox="0 0 34 30" fill="none" xmlns="http://www.w3.org/2000/svg">
<path d="M1.96941 15.1373C1.89511 15.0717 1.80045 15.0271 1.6974 15.009C1.59434 14.9909 1.48752 15.0002 1.39045 15.0357C1.29337 15.0712 1.2104 15.1312 1.15203 15.2083C1.09365 15.2854 1.0625 15.3761 1.0625 15.4688V28.5938C1.0625 28.7181 1.11847 28.8373 1.2181 28.9252C1.31773 29.0131 1.45285 29.0625 1.59375 29.0625H16.4688C16.5738 29.0625 16.6765 29.035 16.7639 28.9835C16.8513 28.932 16.9194 28.8588 16.9596 28.7732C16.9998 28.6875 17.0103 28.5932 16.9898 28.5023C16.9693 28.4114 16.9187 28.3279 16.8444 28.2623L1.96941 15.1373ZM2.125 28.125V16.6004L15.1862 28.125H2.125Z" fill="#4F5B5E"/>
<path d="M4.78125 26.25H9.03125C9.13632 26.25 9.23904 26.2225 9.32641 26.171C9.41377 26.1195 9.48187 26.0463 9.52208 25.9607C9.56229 25.875 9.57281 25.7807 9.55231 25.6898C9.53181 25.5989 9.48121 25.5154 9.40691 25.4498L5.15691 21.6998C5.08261 21.6342 4.98795 21.5896 4.8849 21.5715C4.78184 21.5534 4.67502 21.5627 4.57795 21.5982C4.48087 21.6337 4.3979 21.6937 4.33953 21.7708C4.28115 21.8479 4.25 21.9386 4.25 22.0313V25.7813C4.25 25.9056 4.30597 26.0248 4.4056 26.1127C4.50523 26.2006 4.64035 26.25 4.78125 26.25ZM5.3125 23.1629L7.74875 25.3125H5.3125V23.1629Z" fill="#4F5B5E"/>
<path d="M6.90625 2.8125H7.96875V3.75H6.90625V2.8125Z" fill="#4F5B5E"/>
<path d="M9.03125 2.8125H10.0938V3.75H9.03125V2.8125Z" fill="#4F5B5E"/>
<path d="M11.1562 2.8125H12.2188V3.75H11.1562V2.8125Z" fill="#4F5B5E"/>
<path d="M12.0033 9.41601C11.9089 9.45203 11.8286 9.51181 11.7724 9.58789C11.7162 9.66396 11.6867 9.75296 11.6875 9.84375V15C11.6875 15.0907 11.7173 15.1794 11.7733 15.2554C11.8293 15.3315 11.9091 15.3915 12.003 15.4284L16.7843 17.3034C16.8522 17.3301 16.9258 17.3439 17.0001 17.3438C17.0745 17.3437 17.148 17.3298 17.2159 17.303V17.3034L21.9972 15.4284C22.091 15.3915 22.1708 15.3315 22.2268 15.2554C22.2828 15.1794 22.3125 15.0907 22.3125 15V9.84375C22.3133 9.75296 22.2838 9.66396 22.2276 9.58789C22.1715 9.51181 22.0911 9.45203 21.9967 9.41601V9.41537L17.2154 7.54037C17.1475 7.51375 17.074 7.5 16.9996 7.5C16.9253 7.5 16.8518 7.51375 16.7838 7.54037L12.0025 9.41537L12.0033 9.41601ZM16.4688 16.1537L12.75 14.6953V10.565L16.4688 12.0234V16.1537ZM21.25 14.6953L17.5313 16.1537V12.0234L21.25 10.5651V14.6953ZM17 8.48168L20.4731 9.84375L17 11.2058L13.527 9.84375L17 8.48168Z" fill="#FF725E"/>
<path d="M16.4688 18.75H17.5312V21.0938H16.4688V18.75Z" fill="#4F5B5E"/>
<path d="M16.4688 4.21875H17.5312V6.5625H16.4688V4.21875Z" fill="#FF725E"/>
<path d="M7.73682 8.86328L8.19475 8.01766L10.4185 8.95521L9.96055 9.80083L7.73682 8.86328Z" fill="#FF725E"/>
<path d="M23.5693 8.94873L25.7931 8.01118L26.251 8.8568L24.0273 9.79436L23.5693 8.94873Z" fill="#FF725E"/>
<path d="M7.73657 16.4468L9.9603 15.5092L10.4182 16.3549L8.19451 17.2924L7.73657 16.4468Z" fill="#FF725E"/>
<path d="M32.4062 22.5H29.2188V15.1942L32.3418 12.4385C32.5307 12.2719 32.6805 12.074 32.7827 11.8563C32.8849 11.6386 32.9375 11.4052 32.9375 11.1696C32.9375 10.9339 32.8849 10.7005 32.7827 10.4828C32.6805 10.2651 32.5307 10.0673 32.3418 9.90062C32.1529 9.73398 31.9287 9.60179 31.682 9.51161C31.4352 9.42143 31.1707 9.37501 30.9037 9.37501C30.6366 9.37502 30.3721 9.42144 30.1253 9.51162C29.8786 9.60181 29.6544 9.734 29.4655 9.90064L29.2188 10.1184V6.09375C29.2188 6.03219 29.205 5.97124 29.1783 5.91436C29.1516 5.85749 29.1125 5.80581 29.0632 5.76229L23.7507 1.07479C23.7013 1.03126 23.6428 0.996731 23.5783 0.973176C23.5138 0.94962 23.4448 0.937498 23.375 0.9375H6.90625C6.34286 0.938058 5.80272 1.13578 5.40435 1.48729C5.00597 1.8388 4.78188 2.31539 4.78125 2.8125V16.4062H5.84375V2.8125C5.84408 2.56395 5.95613 2.32566 6.15532 2.14991C6.3545 1.97416 6.62456 1.87529 6.90625 1.875H22.8438V4.6875C22.8444 5.18461 23.0685 5.6612 23.4668 6.01271C23.8652 6.36422 24.4054 6.56194 24.9688 6.5625H28.1562V11.0558L19.8118 18.4185C19.7377 18.484 19.6871 18.5673 19.6665 18.6581L19.1353 21.0018C19.1181 21.0775 19.1224 21.1557 19.1478 21.2296C19.1731 21.3035 19.2187 21.3707 19.2806 21.4252C19.3424 21.4798 19.4186 21.5201 19.5023 21.5424C19.586 21.5648 19.6747 21.5686 19.7604 21.5534L22.4167 21.0847C22.5195 21.0665 22.614 21.0219 22.6882 20.9565L28.1562 16.1317V22.5H17.5312C17.3904 22.5 17.2552 22.5494 17.1556 22.6373C17.056 22.7252 17 22.8444 17 22.9688V24.375H14.3438V25.3125H17V26.7188C17 26.8431 17.056 26.9623 17.1556 27.0502C17.2552 27.1381 17.3904 27.1875 17.5312 27.1875H32.4062C32.5471 27.1875 32.6823 27.1381 32.7819 27.0502C32.8815 26.9623 32.9375 26.8431 32.9375 26.7188V22.9688C32.9375 22.8444 32.8815 22.7252 32.7819 22.6373C32.6823 22.5494 32.5471 22.5 32.4062 22.5ZM23.9062 4.6875V2.53793L27.4049 5.625H24.9688C24.6871 5.62471 24.417 5.52584 24.2178 5.35009C24.0186 5.17434 23.9066 4.93605 23.9062 4.6875ZM20.9388 18.75L29.2188 11.4442L30.5924 12.6562L22.3125 19.9621L20.9388 18.75ZM30.9037 10.3125C31.0958 10.3125 31.2836 10.3628 31.4433 10.457C31.603 10.5512 31.7275 10.685 31.8011 10.8416C31.8746 10.9982 31.8938 11.1706 31.8563 11.3368C31.8189 11.5031 31.7264 11.6558 31.5905 11.7756L31.3438 11.9933L29.9701 10.7812L30.2168 10.5635C30.3068 10.4837 30.4139 10.4204 30.5318 10.3773C30.6497 10.3342 30.7761 10.3122 30.9037 10.3125ZM20.5138 19.7008L21.2349 20.3371L20.3336 20.4961L20.5138 19.7008ZM31.875 26.25H18.0625V23.4375H19.125V24.375H20.1875V23.4375H21.25V24.375H22.3125V23.4375H23.375V24.375H24.4375V23.4375H25.5V24.375H26.5625V23.4375H27.625V24.375H28.6875V23.4375H29.75V24.375H30.8125V23.4375H31.875V26.25Z" fill="#4F5B5E"/>
</svg>
