<svg xmlns="http://www.w3.org/2000/svg" width="30" height="30" viewBox="0 0 30 30" fill="none">
  <path d="M28.4034 10.068C28.7807 8.24991 27.735 6.44044 25.9711 5.8593C25.109 5.57561 24.4249 4.89145 24.1411 4.0292C23.5603 2.26539 21.7507 1.22103 19.9287 1.59749C19.0434 1.78116 18.1103 1.53191 17.4281 0.924431C16.0438 -0.308822 13.9564 -0.309242 12.566 0.929771C11.8905 1.53149 10.9582 1.7814 10.068 1.59677C8.24984 1.21911 6.44036 2.26533 5.85953 4.02908C5.57553 4.89115 4.89119 5.57531 4.02911 5.85918C2.2653 6.44014 1.21974 8.24943 1.59752 10.0714C1.78137 10.9576 1.53163 11.89 0.924277 12.572C-0.308981 13.9563 -0.308981 16.0439 0.929617 17.4342C1.53164 18.1101 1.78137 19.0427 1.5968 19.9321C1.21944 21.7502 2.26506 23.5596 4.02899 24.1408C4.89125 24.4245 5.57541 25.1087 5.85911 25.9709C6.44006 27.7347 8.24984 28.7806 10.0713 28.4026C10.9575 28.2187 11.8899 28.4683 12.5721 29.0757C13.956 30.3085 16.0434 30.3094 17.4341 29.0704C18.1101 28.4685 19.0431 28.2189 19.932 28.4034C21.7498 28.7803 23.5596 27.7348 24.1406 25.9711C24.4246 25.109 25.1089 24.4248 25.971 24.141C27.7348 23.56 28.7806 21.7508 28.4026 19.9288C28.2187 19.0426 28.4685 18.1102 29.0723 17.4323L29.0769 17.4269C30.3089 16.0426 30.3086 13.9558 29.0705 12.5659C28.4685 11.8901 28.2188 10.9574 28.4034 10.068ZM28.4955 16.9111C27.6699 17.8783 27.4203 19.0202 27.6423 20.0905C27.9392 21.5215 27.1161 22.9456 25.7277 23.4028C24.6325 23.7635 23.7633 24.6327 23.4024 25.7279C22.9455 27.1165 21.5216 27.9407 20.0867 27.6416C18.9605 27.4086 17.7757 27.7253 16.911 28.4956C15.8218 29.4659 14.1785 29.466 13.0829 28.49C12.2217 27.723 11.0364 27.4084 9.90978 27.6423C8.47827 27.9398 7.05456 27.116 6.59745 25.7276C6.23677 24.6324 5.36738 23.7632 4.27213 23.4026C2.88376 22.9451 2.06081 21.521 2.35849 20.0866C2.59208 18.9608 2.27502 17.7759 1.50445 16.9111C0.534012 15.8216 0.534012 14.1786 1.50991 13.0828C2.27484 12.2242 2.59208 11.0394 2.35789 9.9099C2.06099 8.4787 2.88406 7.0547 4.27243 6.59747C5.36768 6.23679 6.23689 5.36758 6.59775 4.27233C7.0548 2.88397 8.47905 2.06132 9.91344 2.3587C11.0394 2.59187 12.2243 2.27493 13.0891 1.50467C14.1783 0.534348 15.8217 0.534228 16.9173 1.51031C17.7759 2.27523 18.9607 2.59187 20.0904 2.35798C21.5211 2.0612 22.9455 2.88415 23.4027 4.27251C23.7634 5.36794 24.6326 6.23715 25.728 6.59765C27.1164 7.05518 27.9394 8.47924 27.6417 9.91362C27.4081 11.0394 27.7253 12.2244 28.4956 13.0891C29.4662 14.1785 29.4662 15.8216 28.4955 16.9111Z" fill="#4F5B5E"/>
  <path d="M18.0912 10.521L13.2106 16.447L11.8013 14.822C11.2743 14.2141 10.3467 14.1346 9.72454 14.6744C9.11004 15.2073 9.04356 16.1368 9.57699 16.7512L12.303 19.8939C12.303 19.8941 12.303 19.8941 12.3032 19.8941C12.8088 20.477 13.7165 20.4641 14.2062 19.8695L20.3638 12.3926C20.8798 11.7662 20.7901 10.8367 20.1636 10.3205C19.5356 9.80344 18.6086 9.89266 18.0912 10.521ZM19.6693 10.9205C19.965 11.1641 20.0076 11.6028 19.7639 11.8985L13.6062 19.3755C13.4336 19.5849 13.0953 19.621 12.8902 19.3847L10.1641 16.2418C9.91277 15.9525 9.94295 15.5137 10.2337 15.2615C10.5225 15.0111 10.9614 15.0397 11.2141 15.331L12.9248 17.3034C12.9996 17.3898 13.1061 17.4356 13.2234 17.4374C13.3377 17.4359 13.4456 17.3842 13.5183 17.2958L18.6911 11.015C18.9324 10.7219 19.3692 10.6731 19.6693 10.9205Z" fill="#FF725E"/>
</svg>