<svg xmlns="http://www.w3.org/2000/svg" width="30" height="30" viewBox="0 0 30 30" fill="none">
  <g clip-path="url(#clip0_690_3432)">
    <path d="M15 12.5C15.89 12.5 16.76 12.2361 17.5001 11.7416C18.2401 11.2471 18.8169 10.5443 19.1575 9.72208C19.4981 8.89981 19.5872 7.99501 19.4135 7.1221C19.2399 6.24918 18.8113 5.44736 18.182 4.81802C17.5526 4.18868 16.7508 3.7601 15.8779 3.58647C15.005 3.41283 14.1002 3.50195 13.2779 3.84254C12.4557 4.18314 11.7529 4.75991 11.2584 5.49994C10.7639 6.23996 10.5 7.10999 10.5 8C10.5013 9.19307 10.9759 10.3369 11.8195 11.1805C12.6631 12.0241 13.8069 12.4987 15 12.5ZM15 4.5C15.6922 4.5 16.3689 4.70527 16.9445 5.08986C17.5201 5.47444 17.9687 6.02107 18.2336 6.66061C18.4985 7.30015 18.5678 8.00388 18.4327 8.68282C18.2977 9.36175 17.9644 9.98539 17.4749 10.4749C16.9854 10.9644 16.3618 11.2977 15.6828 11.4328C15.0039 11.5678 14.3001 11.4985 13.6606 11.2336C13.0211 10.9687 12.4744 10.5201 12.0899 9.9445C11.7053 9.36893 11.5 8.69224 11.5 8C11.5011 7.07207 11.8701 6.18245 12.5263 5.5263C13.1824 4.87015 14.0721 4.50106 15 4.5Z" fill="#FF725E"/>
    <path d="M15 10.5C15.4945 10.5 15.9778 10.3534 16.3889 10.0787C16.8 9.80397 17.1205 9.41353 17.3097 8.95671C17.4989 8.4999 17.5484 7.99723 17.452 7.51228C17.3555 7.02732 17.1174 6.58187 16.7678 6.23223C16.4181 5.8826 15.9727 5.6445 15.4877 5.54804C15.0028 5.45157 14.5001 5.50108 14.0433 5.6903C13.5865 5.87952 13.196 6.19995 12.9213 6.61108C12.6466 7.0222 12.5 7.50555 12.5 8C12.5008 8.6628 12.7644 9.29822 13.2331 9.76689C13.7018 10.2356 14.3372 10.4992 15 10.5ZM15 6.5C15.2967 6.5 15.5867 6.58798 15.8334 6.7528C16.08 6.91762 16.2723 7.15189 16.3858 7.42598C16.4993 7.70007 16.5291 8.00167 16.4712 8.29264C16.4133 8.58361 16.2704 8.85088 16.0607 9.06066C15.8509 9.27044 15.5836 9.4133 15.2926 9.47118C15.0017 9.52906 14.7001 9.49935 14.426 9.38582C14.1519 9.27229 13.9176 9.08003 13.7528 8.83336C13.588 8.58668 13.5 8.29667 13.5 8C13.5 7.60218 13.658 7.22065 13.9393 6.93934C14.2206 6.65804 14.6022 6.5 15 6.5Z" fill="#FF725E"/>
    <path d="M30 18.9998C29.9994 18.792 29.9338 18.5895 29.8124 18.4208C29.691 18.252 29.5199 18.1255 29.323 18.0588L24.2645 16.2498L29.3235 14.4403C29.5206 14.3742 29.6919 14.2479 29.8133 14.0791C29.9347 13.9104 30 13.7077 30 13.4998C30 13.292 29.9347 13.0893 29.8133 12.9206C29.6919 12.7518 29.5206 12.6254 29.3235 12.5593L21.4735 9.74934C21.487 9.69934 21.504 9.64934 21.516 9.59934L22.4395 9.31684C22.5836 9.27367 22.7116 9.18829 22.8067 9.07172C22.9019 8.95515 22.96 8.81273 22.9735 8.66284C22.9935 8.44434 23.003 8.22284 23.003 7.99984C23.003 7.77684 22.9935 7.55534 22.9735 7.33684C22.9599 7.18684 22.9018 7.04433 22.8065 6.92768C22.7112 6.81102 22.5832 6.72557 22.439 6.68234L21.513 6.39984C21.3517 5.73905 21.0895 5.10712 20.7355 4.52634L21.189 3.67634C21.2609 3.54371 21.2913 3.39255 21.2763 3.24243C21.2613 3.09231 21.2016 2.95015 21.105 2.83434C20.9643 2.666 20.8143 2.503 20.655 2.34534C20.4956 2.18767 20.3325 2.03767 20.1655 1.89534C20.0497 1.79909 19.9078 1.73966 19.7581 1.72469C19.6083 1.70973 19.4575 1.7399 19.325 1.81134L18.471 2.26534C17.8909 1.9113 17.2599 1.64856 16.6 1.48634L16.318 0.562837C16.2742 0.418824 16.1885 0.291116 16.0718 0.196007C15.9552 0.100897 15.8128 0.0426988 15.663 0.0288365C15.2219 -0.0109142 14.7781 -0.0109142 14.337 0.0288365C14.187 0.0425694 14.0446 0.100789 13.928 0.196025C13.8114 0.29126 13.7259 0.419168 13.6825 0.563337L13.4 1.48634C12.7394 1.64805 12.1077 1.91046 11.527 2.26434L10.674 1.81084C10.5411 1.73923 10.3899 1.70901 10.2398 1.72407C10.0896 1.73913 9.94742 1.79878 9.83146 1.89534C9.66346 2.03534 9.50046 2.18534 9.34296 2.34534C9.18546 2.50534 9.03496 2.66584 8.89296 2.83384C8.79622 2.9495 8.73641 3.09152 8.72125 3.24154C8.7061 3.39155 8.7363 3.54267 8.80796 3.67534L9.26196 4.52884C8.90939 5.10917 8.64801 5.74018 8.48696 6.39984L7.56346 6.68234C7.41928 6.7255 7.29135 6.81088 7.19617 6.92745C7.10099 7.04403 7.04292 7.18645 7.02946 7.33634C7.00946 7.55484 6.99996 7.77634 6.99996 7.99934C6.99996 8.22234 7.00946 8.44384 7.02946 8.66134C7.04287 8.81149 7.10095 8.95419 7.19622 9.07103C7.29149 9.18786 7.41957 9.27348 7.56396 9.31684L8.48696 9.59884C8.49896 9.64884 8.51596 9.69884 8.52946 9.74884L0.676456 12.5593C0.479365 12.6254 0.308023 12.7518 0.186631 12.9206C0.0652383 13.0893 -6.98939e-05 13.292 -6.98939e-05 13.4998C-6.98939e-05 13.7077 0.0652383 13.9104 0.186631 14.0791C0.308023 14.2479 0.479365 14.3742 0.676456 14.4403L5.73546 16.2498L0.676456 18.0588C0.479247 18.125 0.307799 18.2514 0.18633 18.4202C0.0648616 18.5891 -0.000488281 18.7918 -0.000488281 18.9998C-0.000488281 19.2078 0.0648616 19.4106 0.18633 19.5794C0.307799 19.7483 0.479247 19.8747 0.676456 19.9408L5.03596 21.4998L0.676456 23.0593C0.479247 23.1255 0.307799 23.2519 0.18633 23.4207C0.0648616 23.5896 -0.000488281 23.7923 -0.000488281 24.0003C-0.000488281 24.2083 0.0648616 24.4111 0.18633 24.5799C0.307799 24.7488 0.479247 24.8752 0.676456 24.9413L14.6405 29.9368C14.8722 30.0208 15.1262 30.0208 15.358 29.9368L29.323 24.9413C29.5202 24.8752 29.6916 24.7488 29.8131 24.5799C29.9346 24.4111 29.9999 24.2083 29.9999 24.0003C29.9999 23.7923 29.9346 23.5896 29.8131 23.4207C29.6916 23.2519 29.5202 23.1255 29.323 23.0593L24.9645 21.4998L29.3235 19.9408C29.5203 19.8741 29.6913 19.7475 29.8126 19.5788C29.9339 19.4101 29.9994 19.2076 30 18.9998ZM8.01246 8.40834C8.00396 8.27334 7.99996 8.13684 7.99996 7.99984C7.99996 7.86284 8.00396 7.72684 8.01246 7.59134L9.05746 7.27184C9.14407 7.24551 9.2219 7.19616 9.28266 7.12906C9.34342 7.06196 9.38483 6.97963 9.40246 6.89084C9.54773 6.15324 9.83875 5.45204 10.2585 4.82834C10.3089 4.75312 10.3379 4.66562 10.3425 4.57518C10.3471 4.48475 10.327 4.39476 10.2845 4.31484L9.76996 3.34984C9.85996 3.24984 9.95296 3.14984 10.0505 3.05234C10.148 2.95484 10.2465 2.86134 10.3505 2.77184L11.318 3.28634C11.3979 3.32884 11.4879 3.34882 11.5784 3.34415C11.6688 3.33948 11.7563 3.31034 11.8315 3.25984C12.4539 2.83936 13.1538 2.54701 13.8905 2.39984C13.9791 2.38229 14.0614 2.34104 14.1285 2.28046C14.1956 2.21989 14.245 2.14226 14.2715 2.05584L14.5915 1.01034C14.8635 0.993336 15.1364 0.993336 15.4085 1.01034L15.7285 2.05584C15.7549 2.14226 15.8044 2.21989 15.8714 2.28046C15.9385 2.34104 16.0208 2.38229 16.1095 2.39984C16.8467 2.54512 17.5476 2.83615 18.171 3.25584C18.2461 3.30634 18.3336 3.33548 18.424 3.34015C18.5145 3.34482 18.6045 3.32484 18.6845 3.28234L19.65 2.76984C19.75 2.85934 19.85 2.95334 19.9475 3.05034C20.045 3.14734 20.138 3.24634 20.228 3.34784L19.7155 4.31484C19.6728 4.39482 19.6527 4.4849 19.6572 4.57544C19.6618 4.66598 19.6909 4.75357 19.7415 4.82884C20.1622 5.45207 20.4541 6.15315 20.6 6.89084C20.6176 6.97963 20.659 7.06196 20.7198 7.12906C20.7805 7.19616 20.8583 7.24551 20.945 7.27184L21.99 7.59134C21.9985 7.72634 22.0025 7.86284 22.0025 7.99984C22.0025 8.13684 21.9985 8.27284 21.99 8.40834L20.945 8.72784C20.8583 8.75417 20.7805 8.80351 20.7198 8.87061C20.659 8.93771 20.6176 9.02005 20.6 9.10884C20.4547 9.84644 20.1637 10.5476 19.744 11.1713C19.6935 11.2466 19.6645 11.3341 19.6599 11.4245C19.6553 11.5149 19.6754 11.6049 19.718 11.6848L20.23 12.6498C20.14 12.7498 20.047 12.8498 19.9495 12.9498C19.852 13.0498 19.7535 13.1408 19.652 13.2303L18.6845 12.7158C18.6045 12.6733 18.5145 12.6534 18.424 12.658C18.3336 12.6627 18.2461 12.6918 18.171 12.7423C17.5477 13.1626 16.8469 13.4541 16.1095 13.5998C16.0208 13.6174 15.9385 13.6586 15.8714 13.7192C15.8044 13.7798 15.7549 13.8574 15.7285 13.9438L15.4085 14.9893C15.1364 15.0063 14.8635 15.0063 14.5915 14.9893L14.2715 13.9438C14.245 13.8574 14.1956 13.7798 14.1285 13.7192C14.0614 13.6586 13.9791 13.6174 13.8905 13.5998C13.1529 13.4545 12.4519 13.1633 11.8285 12.7433C11.7532 12.6929 11.6657 12.6639 11.5753 12.6593C11.4849 12.6547 11.3949 12.6748 11.315 12.7173L10.35 13.2293C10.25 13.1403 10.15 13.0463 10.05 12.9493C9.94996 12.8523 9.85946 12.7533 9.76946 12.6493L10.284 11.6823C10.3266 11.6024 10.3467 11.5123 10.3422 11.4217C10.3376 11.3312 10.3085 11.2436 10.258 11.1683C9.83809 10.5449 9.54705 9.84384 9.40196 9.10634C9.38433 9.01755 9.34292 8.93521 9.28216 8.86811C9.2214 8.80101 9.14357 8.75167 9.05696 8.72534L8.01246 8.40834ZM8.86246 10.6923C8.97957 10.961 9.1142 11.2218 9.26546 11.4728L8.81196 12.3228C8.74006 12.4555 8.70963 12.6066 8.7246 12.7567C8.73958 12.9069 8.79927 13.049 8.89596 13.1648C9.03662 13.3332 9.18662 13.4962 9.34596 13.6538C9.50529 13.8115 9.66846 13.9615 9.83546 14.1038C9.95129 14.1999 10.0931 14.2592 10.2429 14.2742C10.3926 14.2891 10.5434 14.2591 10.676 14.1878L11.5295 13.7338C12.1094 14.0879 12.7402 14.3508 13.4 14.5133L13.682 15.4368C13.7255 15.5808 13.8111 15.7085 13.9277 15.8036C14.0443 15.8986 14.1866 15.9567 14.3365 15.9703C14.555 15.9903 14.7765 15.9998 14.9995 15.9998C15.2225 15.9998 15.444 15.9903 15.6625 15.9703C15.8124 15.9567 15.9549 15.8985 16.0715 15.8032C16.1881 15.708 16.2736 15.58 16.317 15.4358L16.599 14.5133C17.2595 14.3516 17.8912 14.0892 18.472 13.7353L19.325 14.1888C19.4577 14.2606 19.609 14.2909 19.7592 14.2758C19.9093 14.2607 20.0516 14.201 20.1675 14.1043C20.3355 13.9643 20.4985 13.8143 20.656 13.6543C20.8135 13.4943 20.964 13.3338 21.106 13.1658C21.2027 13.0502 21.2625 12.9082 21.2777 12.7581C21.2928 12.6081 21.2626 12.457 21.191 12.3243L20.737 11.4708C20.8881 11.2198 21.0225 10.959 21.1395 10.6903L28.9865 13.4998L14.9785 18.4938L1.01346 13.4998L8.86246 10.6923ZM28.9865 23.9998L14.9785 28.9953L1.01346 23.9998L6.51996 22.0298L14.641 24.9343C14.8727 25.0183 15.1267 25.0183 15.3585 24.9343L23.48 22.0308L28.9865 23.9998ZM14.9785 23.9938L1.01346 18.9998L7.21996 16.7808L14.641 19.4353C14.8727 19.5193 15.1267 19.5193 15.3585 19.4353L22.78 16.7808L28.9865 18.9998L14.9785 23.9938Z" fill="#4F5B5E"/>
    <path d="M13.6749 21.5297L8.08343 19.5297C7.95981 19.4897 7.82546 19.4993 7.70885 19.5567C7.59224 19.614 7.50253 19.7145 7.45872 19.8368C7.41491 19.9591 7.42044 20.0937 7.47415 20.212C7.52785 20.3303 7.62551 20.4231 7.74643 20.4707L13.3379 22.4707C13.392 22.4902 13.449 22.5002 13.5064 22.5002C13.6241 22.5 13.7379 22.4584 13.8279 22.3826C13.9179 22.3067 13.9782 22.2016 13.9984 22.0857C14.0185 21.9698 13.9971 21.8505 13.9379 21.7488C13.8788 21.6471 13.7857 21.5695 13.6749 21.5297Z" fill="#4F5B5E"/>
    <path d="M13.6749 26.5297L8.08343 24.5297C7.95981 24.4897 7.82546 24.4993 7.70885 24.5567C7.59224 24.614 7.50253 24.7145 7.45872 24.8368C7.41491 24.9591 7.42044 25.0937 7.47415 25.212C7.52785 25.3303 7.62551 25.4231 7.74643 25.4707L13.3379 27.4707C13.392 27.4902 13.449 27.5002 13.5064 27.5002C13.6241 27.5 13.7379 27.4584 13.8279 27.3826C13.9179 27.3067 13.9782 27.2016 13.9984 27.0857C14.0185 26.9698 13.9971 26.8505 13.9379 26.7488C13.8788 26.6471 13.7857 26.5695 13.6749 26.5297Z" fill="#4F5B5E"/>
  </g>
  <defs>
    <clipPath id="clip0_690_3432">
      <rect width="30" height="30" fill="white"/>
    </clipPath>
  </defs>
</svg>