<svg width="34" height="30" viewBox="0 0 34 30" fill="none" xmlns="http://www.w3.org/2000/svg">
<g clip-path="url(#clip0_684_2084)">
<path d="M17.0018 25.1276L28.649 14.8517L25.2138 11.8207L27.8067 9.53297L17.0018 0L6.19667 9.53297L8.7896 11.8207L5.35474 14.8517L17.0018 25.1276ZM7.71243 9.53297L17.0018 1.33715L26.2913 9.53297L24.4561 11.1522L24.4558 11.152L17.0017 17.7289L14.6704 15.672L9.54758 11.1518L9.54738 11.152L7.71243 9.53297ZM17.0018 19.0661L24.4561 12.4892L27.1337 14.8516L17.0018 23.7903L6.87037 14.8516L9.54758 12.4893L17.0018 19.0661Z" fill="#4F5B5E"/>
<path d="M7.59362 19.086L8.31714 18.4473L7.55883 17.7786L6.83531 18.4173L7.59362 19.086Z" fill="#FF725E"/>
<path d="M5.3541 19.7255L6.11182 20.394L6.86958 19.7255L6.11186 19.057L5.3541 19.7255Z" fill="#FF725E"/>
<path d="M13.1274 26.5822L13.9067 27.27L14.6646 26.6016L13.8853 25.9138L13.1274 26.5822Z" fill="#FF725E"/>
<path d="M6.89102 21.0806L7.67041 21.7681L8.42807 21.0994L7.64868 20.412L6.89102 21.0806Z" fill="#FF725E"/>
<path d="M10.009 23.8312L10.7885 24.5185L11.5462 23.85L10.7668 23.1626L10.009 23.8312Z" fill="#FF725E"/>
<path d="M8.44981 22.4558L9.229 23.1431L9.98657 22.4745L9.20737 21.7872L8.44981 22.4558Z" fill="#FF725E"/>
<path d="M11.5674 25.2068L12.3469 25.8945L13.1047 25.226L12.3252 24.5382L11.5674 25.2068Z" fill="#FF725E"/>
<path d="M14.6851 27.957L15.4646 28.6444L16.2223 27.9759L15.443 27.2881L14.6851 27.957Z" fill="#FF725E"/>
<path d="M16.2436 29.3318L17.0015 30.0005L17.7592 29.3319L17.0014 28.6633L16.2436 29.3318Z" fill="#FF725E"/>
<path d="M22.4561 23.8507L23.2139 24.519L23.9933 23.8312L23.2355 23.1628L22.4561 23.8507Z" fill="#FF725E"/>
<path d="M24.0156 22.475L24.7736 23.143L25.5528 22.4557L24.7949 21.7871L24.0156 22.475Z" fill="#FF725E"/>
<path d="M25.5745 21.1L26.3323 21.7686L27.1116 21.081L26.3538 20.4125L25.5745 21.1Z" fill="#FF725E"/>
<path d="M20.8982 25.226L21.656 25.8945L22.4355 25.2068L21.6777 24.5383L20.8982 25.226Z" fill="#FF725E"/>
<path d="M19.3375 26.601L20.0957 27.2695L20.8749 26.5816L20.1168 25.9131L19.3375 26.601Z" fill="#FF725E"/>
<path d="M17.781 27.9759L18.5388 28.6444L19.3182 27.957L18.5604 27.2881L17.781 27.9759Z" fill="#FF725E"/>
<path d="M27.8907 19.0536L27.1331 19.7222L27.8909 20.3906L28.6485 19.722L27.8907 19.0536Z" fill="#FF725E"/>
<path d="M26.4083 19.0848L27.166 18.4165L26.4424 17.7779L25.6847 18.4462L26.4083 19.0848Z" fill="#FF725E"/>
<path d="M13.2129 9.53218L12.4556 8.86377L11.6976 9.53232L12.455 10.2007L13.2129 9.53218Z" fill="#FF725E"/>
<path d="M14.7287 8.19681L13.9712 7.52783L13.2132 8.19594L13.9707 8.86493L14.7287 8.19681Z" fill="#FF725E"/>
<path d="M16.2441 6.8582L15.4866 6.18945L14.7289 6.85758L15.4864 7.52633L16.2441 6.8582Z" fill="#FF725E"/>
<path d="M17.7594 5.52168L17.0017 4.85303L16.2437 5.52158L17.0014 6.19023L17.7594 5.52168Z" fill="#FF725E"/>
<path d="M13.9706 10.2006L13.2126 10.8691L13.9702 11.5377L14.7281 10.8691L13.9706 10.2006Z" fill="#FF725E"/>
<path d="M14.7283 9.53313L15.4861 10.2021L16.2438 9.53313L15.4861 8.86426L14.7283 9.53313Z" fill="#FF725E"/>
<path d="M16.2442 8.19351L17.002 8.8623L17.7601 8.19371L17.0024 7.52492L16.2442 8.19351Z" fill="#FF725E"/>
<path d="M18.517 7.52701L19.2751 6.85844L18.517 6.18945L17.7595 6.85891L18.517 7.52701Z" fill="#FF725E"/>
<path d="M15.4856 11.5395L14.7278 12.2085L15.486 12.8771L16.2438 12.2081L15.4856 11.5395Z" fill="#FF725E"/>
<path d="M17.0022 11.5386L17.76 10.8696L17.0018 10.201L16.244 10.87L17.0022 11.5386Z" fill="#FF725E"/>
<path d="M19.2754 9.53313L18.517 8.86426L17.7595 9.53313L18.517 10.2016L19.2754 9.53313Z" fill="#FF725E"/>
<path d="M20.7903 8.19528L20.0325 7.52686L19.2751 8.19526L20.0329 8.86369L20.7903 8.19528Z" fill="#FF725E"/>
<path d="M16.2436 13.5449L17.0012 14.2134L17.759 13.5448L17.0014 12.8764L16.2436 13.5449Z" fill="#FF725E"/>
<path d="M17.7596 12.2075L18.5168 12.876L19.2749 12.2075L18.5176 11.539L17.7596 12.2075Z" fill="#FF725E"/>
<path d="M19.2747 10.8681L20.0325 11.5366L20.7902 10.8681L20.0325 10.1995L19.2747 10.8681Z" fill="#FF725E"/>
<path d="M21.5486 10.2002L22.3062 9.53125L21.5481 8.86297L20.7905 9.5319L21.5486 10.2002Z" fill="#FF725E"/>
</g>
<defs>
<clipPath id="clip0_684_2084">
<rect width="34.0029" height="30" fill="white"/>
</clipPath>
</defs>
</svg>
