<svg xmlns="http://www.w3.org/2000/svg" width="30" height="30" viewBox="0 0 30 30" fill="none">
  <path d="M26.9999 16.4999V15.5C27.2759 15.5 27.4999 15.2761 27.4999 15V12C27.4999 11.7238 27.2759 11.5 26.9999 11.5H24.2999L24.2031 11.1244C23.982 10.2654 23.6386 9.44255 23.1829 8.68142L22.9829 8.34685L24.8999 6.42654C25.0929 6.23318 25.0929 5.9199 24.8999 5.72655L22.7765 3.59999C22.5804 3.41308 22.2724 3.41308 22.0763 3.59999L20.1558 5.52049L19.8214 5.32049C19.0591 4.86463 18.2355 4.52128 17.3753 4.29999L17 4.20233V1.5C17 1.22382 16.7761 0.999997 16.5 0.999997H13.5C13.2238 0.999997 13 1.22382 13 1.5V4.19999L12.6244 4.29706C11.7654 4.51796 10.9426 4.86131 10.181 5.31639L9.84646 5.51658L7.92654 3.59999C7.73026 3.41151 7.4203 3.41151 7.22401 3.59999L5.09999 5.72342C5.00663 5.81658 4.95409 5.94315 4.95409 6.07498C4.95409 6.20701 5.00663 6.33338 5.09999 6.42654L7.02049 8.34685L6.82049 8.68142C6.36502 9.44255 6.02147 10.2654 5.80057 11.1244L5.70253 11.5H3C2.72382 11.5 2.5 11.7238 2.5 12V15C2.5 15.2761 2.72382 15.5 3 15.5V16.4999C2.17168 16.4999 1.5 15.8283 1.5 15V12C1.5 11.1716 2.17168 10.5 3 10.5H4.93456C5.14081 9.80856 5.41972 9.14099 5.76659 8.50857L4.39159 7.13357C4.11034 6.85291 3.95234 6.47205 3.95234 6.07498C3.95234 5.67791 4.11034 5.29705 4.39159 5.01659L6.51659 2.89159C7.10858 2.32499 8.04197 2.32499 8.63396 2.89159L10.0086 4.266C10.641 3.91932 11.3088 3.641 12 3.43495V1.5C12 0.671678 12.6716 0 13.5 0H16.5C17.3283 0 18 0.671678 18 1.5V3.43495C18.6914 3.641 19.3587 3.91991 19.9914 4.26659L21.3663 2.89159C21.9585 2.32499 22.8917 2.32499 23.4839 2.89159L25.6085 5.016C25.8896 5.29666 26.0474 5.67713 26.0474 6.0744C26.0474 6.47166 25.8896 6.85252 25.6085 7.13299L24.2335 8.50798C24.5802 9.14079 24.8589 9.80856 25.0654 10.5H26.9999C27.8282 10.5 28.4999 11.1716 28.4999 12V15C28.4999 15.8283 27.8282 16.4999 26.9999 16.4999Z" fill="#FF725E"/>
  <path d="M22 13.5H21C21 10.1863 18.3136 7.5 15 7.5C11.6863 7.5 9 10.1863 9 13.5H8C8 9.63398 11.134 6.5 15 6.5C18.8658 6.5 22 9.63398 22 13.5Z" fill="#FF725E"/>
  <path d="M15 17.5C13.3432 17.5 12 16.1566 12 14.5C12 12.8432 13.3432 11.5 15 11.5C16.657 11.5 18 12.8432 18 14.5C17.9982 16.1562 16.6562 17.4982 15 17.5ZM15 12.5C13.8955 12.5 13 13.3955 13 14.5C13 15.6045 13.8955 16.5 15 16.5C16.1045 16.5 17 15.6045 17 14.5C17 13.3955 16.1045 12.5 15 12.5Z" fill="#4F5B5E"/>
  <path d="M23.5 19.5C21.8432 19.5 20.5 18.1566 20.5 16.5C20.5 14.8432 21.8432 13.5 23.5 13.5C25.1568 13.5 26.5 14.8432 26.5 16.5C26.4982 18.1562 25.1562 19.4982 23.5 19.5ZM23.5 14.5C22.3955 14.5 21.5 15.3955 21.5 16.5C21.5 17.6045 22.3955 18.5 23.5 18.5C24.6045 18.5 25.5 17.6045 25.5 16.5C25.5 15.3955 24.6045 14.5 23.5 14.5Z" fill="#4F5B5E"/>
  <path d="M6.49999 19.5C4.84316 19.5 3.5 18.1566 3.5 16.5C3.5 14.8432 4.84316 13.5 6.49999 13.5C8.15702 13.5 9.49998 14.8432 9.49998 16.5C9.49822 18.1562 8.15624 19.4982 6.49999 19.5ZM6.49999 14.5C5.3955 14.5 4.5 15.3955 4.5 16.5C4.5 17.6045 5.3955 18.5 6.49999 18.5C7.60448 18.5 8.49999 17.6045 8.49999 16.5C8.49999 15.3955 7.60448 14.5 6.49999 14.5Z" fill="#4F5B5E"/>
  <path d="M28.0327 20.7828C27.2876 20.2707 26.4042 19.9975 25.4999 20H21.4999C21.2568 20.0022 21.014 20.0242 20.7744 20.0658C20.4544 19.5655 20.0382 19.1338 19.5499 18.7953C19.4767 18.7401 19.3997 18.6899 19.3195 18.6455C18.6201 18.2219 17.8175 17.9989 17 18H13C11.4709 17.9946 10.0461 18.7748 9.22693 20.0658C8.98669 20.0242 8.74353 20.0022 8.49998 20H4.49999C3.59647 19.9975 2.71327 20.2703 1.96855 20.7819C0.737693 21.6194 0.000781248 23.0113 0 24.5V26.5C0.00175779 27.8652 0.796091 29.1051 2.03613 29.6769C2.49394 29.8926 2.99413 30.0029 3.49999 30H8.49998V29H3.99999V23.5H2.99999V28.9498C2.81171 28.9121 2.6289 28.8512 2.45546 28.7689C1.56972 28.3605 1.00195 27.4752 0.999997 26.5V24.5C1.00117 23.3414 1.57519 22.2584 2.533 21.6069C3.11171 21.2096 3.79784 20.9981 4.49999 21H8.49998C8.58806 21 8.67302 21.0094 8.75896 21.0153C8.58982 21.4922 8.50212 21.9942 8.49998 22.5V27.5C8.50173 28.8801 9.62009 29.9982 11 30H12.5V22H11.5V29H11C10.1717 29 9.49997 28.3283 9.49997 27.5V22.5C9.49997 20.5668 11.0672 19 13 19H17C17.6433 19.0004 18.2738 19.1785 18.8224 19.5145C18.8732 19.5422 18.922 19.5735 18.9683 19.6078C19.4369 19.9287 19.8214 20.3574 20.0894 20.8578C20.3587 21.3633 20.4999 21.9272 20.4999 22.5V27.5C20.4999 28.3283 19.8283 29 18.9999 29H18.4999V22H17.4999V30H18.9999C20.38 29.9982 21.4982 28.8801 21.4999 27.5V22.5C21.4976 21.9942 21.4103 21.4924 21.2413 21.0153C21.3275 21.0094 21.4124 21 21.4999 21H25.4999C26.2025 20.9981 26.8892 21.2102 27.4683 21.6078C28.4253 22.2598 28.9985 23.342 28.9999 24.5V26.5C28.9982 27.4787 28.4261 28.3666 27.5361 28.7728C27.3652 28.8537 27.1851 28.9131 26.9999 28.9498V23.5H25.9999V29H21.4999V30H26.4999C27.0029 30.0031 27.5001 29.8941 27.9554 29.6809C29.1995 29.1107 29.998 27.8686 29.9999 26.5V24.5C29.9991 23.0119 29.2628 21.6205 28.0327 20.7828Z" fill="#4F5B5E"/>
  <path d="M13 29H17V30H13V29Z" fill="#4F5B5E"/>
</svg>