<svg xmlns="http://www.w3.org/2000/svg" width="34" height="22" viewBox="0 0 34 22" fill="none">
  <path d="M25.4998 1.77794L26.2357 1.03716C26.346 0.921463 26.4069 0.766857 26.4053 0.606511C26.4036 0.446166 26.3396 0.292854 26.227 0.179472C26.1143 0.0660895 25.962 0.00166927 25.8027 3.19862e-05C25.6434 -0.0016053 25.4898 0.0596708 25.3748 0.170714L23.6139 1.94313C23.5574 2.00002 23.5125 2.06756 23.4819 2.14189C23.4513 2.21623 23.4356 2.29591 23.4356 2.37638C23.4356 2.45684 23.4513 2.53652 23.4819 2.61086C23.5125 2.6852 23.5574 2.75274 23.6139 2.80962L25.3749 4.58208C25.4313 4.63907 25.4984 4.68427 25.5723 4.71508C25.6462 4.74588 25.7253 4.76169 25.8053 4.7616C25.9248 4.75964 26.0412 4.72255 26.14 4.6549C26.2389 4.58724 26.3159 4.49197 26.3616 4.3808C26.4074 4.26964 26.4198 4.14744 26.3974 4.02925C26.3751 3.91106 26.3188 3.80204 26.2357 3.7156L25.5298 3.005C27.4906 3.08652 29.3444 3.92709 30.7043 5.3513C32.0642 6.77551 32.8251 8.67332 32.8283 10.6487C32.4088 20.8119 18.0249 20.8056 17.6088 10.6486C17.6061 8.29296 16.6752 6.0346 15.0203 4.36893C13.3655 2.70326 11.1218 1.7663 8.78147 1.76359C-2.75142 2.21733 -3.00606 18.706 8.5003 19.5193L7.76426 20.2601C7.7076 20.317 7.66264 20.3845 7.63195 20.4589C7.60125 20.5333 7.58543 20.613 7.58537 20.6935C7.58532 20.7741 7.60103 20.8538 7.63163 20.9282C7.66222 21.0027 7.70709 21.0703 7.76366 21.1272C7.82024 21.1842 7.88741 21.2293 7.96134 21.2601C8.03527 21.2909 8.1145 21.3067 8.19451 21.3067C8.27452 21.3066 8.35373 21.2907 8.42762 21.2598C8.50151 21.2289 8.56862 21.1836 8.62511 21.1266L10.3861 19.3542C10.4426 19.2973 10.4875 19.2297 10.5181 19.1554C10.5487 19.0811 10.5644 19.0014 10.5644 18.9209C10.5644 18.8404 10.5487 18.7608 10.5181 18.6864C10.4875 18.6121 10.4426 18.5445 10.3861 18.4877L8.62511 16.7152C8.51019 16.6041 8.35657 16.5428 8.19725 16.5445C8.03792 16.5461 7.88558 16.6105 7.77291 16.7239C7.66025 16.8373 7.59624 16.9907 7.59463 17.151C7.59302 17.3114 7.65394 17.466 7.7643 17.5817L8.47024 18.2923C-1.39307 17.5133 -1.12476 3.37623 8.78154 2.98908C10.7991 2.99139 12.7333 3.79913 14.1599 5.23508C15.5865 6.67103 16.389 8.61793 16.3912 10.6487C16.3939 13.0043 17.3248 15.2627 18.9796 16.9283C20.6345 18.594 22.8782 19.531 25.2185 19.5337C36.7513 19.08 37.0061 2.59127 25.4998 1.77794Z" fill="#4F5B5E"/>
  <path d="M13.6539 9.20944H13.2752C13.0684 8.56034 12.7263 7.96319 12.2717 7.45793L12.4631 7.12342C12.5964 6.8875 12.6319 6.60816 12.5618 6.34609C12.4916 6.08402 12.3216 5.86038 12.0886 5.72376L11.3717 5.30668C11.1375 5.17137 10.8596 5.13482 10.5987 5.20501C10.3379 5.2752 10.1152 5.44642 9.97931 5.68129L9.78906 6.0116C9.12719 5.86699 8.44225 5.86657 7.78021 6.01038C7.60474 5.67352 7.37319 5.28254 6.97108 5.20018C6.47113 5.01049 5.88976 5.50522 5.47941 5.71956C5.24543 5.85588 5.07473 6.08005 5.00474 6.34289C4.93476 6.60573 4.9712 6.88579 5.10609 7.12161L5.29634 7.45312C4.84011 7.95701 4.49686 8.55373 4.28983 9.20285H3.90875C3.63841 9.20308 3.37921 9.31128 3.18805 9.50369C2.99689 9.6961 2.8894 9.95699 2.88916 10.2291V11.0621C2.8894 11.3342 2.99689 11.5951 3.18805 11.7875C3.37921 11.9799 3.63841 12.0881 3.90875 12.0883H4.28745C4.49413 12.7373 4.83629 13.3343 5.29099 13.8392L5.09956 14.1737C4.96625 14.4096 4.93081 14.689 5.00094 14.9511C5.07107 15.2131 5.2411 15.4368 5.4741 15.5734L6.19108 15.9905C6.42518 16.1261 6.70316 16.1629 6.96413 16.0927C7.2251 16.0225 7.44779 15.851 7.58343 15.6159L7.77307 15.2855C8.4351 15.4303 9.12024 15.431 9.78252 15.2873L9.97336 15.62C10.1092 15.8549 10.3319 16.0262 10.5928 16.0964C10.8537 16.1665 11.1315 16.13 11.3657 15.9947C11.7527 15.7365 12.4717 15.4877 12.5589 14.954C12.5939 14.7587 12.5859 14.558 12.5354 14.3662C12.4848 14.1744 12.393 13.9961 12.2664 13.844C12.7226 13.3401 13.0659 12.7434 13.2729 12.0943H13.654C13.9243 12.094 14.1835 11.9858 14.3746 11.7934C14.5658 11.6011 14.6733 11.3402 14.6735 11.0681V10.2351C14.6732 9.96312 14.5656 9.70235 14.3745 9.51005C14.1833 9.31776 13.9242 9.20964 13.6539 9.20944ZM13.456 10.8688C13.0009 10.875 12.3263 10.7534 12.2075 11.3595C12.055 12.1035 11.667 12.7776 11.1017 13.281C10.637 13.6821 11.0839 14.2228 11.3027 14.616L10.9281 14.8338C10.7311 14.5205 10.5287 13.925 10.0749 13.9589C9.29763 14.2171 8.4601 14.2275 7.67668 13.9888C7.10019 13.7829 6.85718 14.443 6.62856 14.8296L6.25402 14.6118C6.47441 14.2182 6.91656 13.6757 6.45611 13.2774C5.89184 12.7726 5.5048 12.0978 5.35274 11.3535C5.2386 10.7496 4.55382 10.8681 4.10664 10.8628V10.4284C4.56178 10.4221 5.23636 10.5438 5.35511 9.93765C5.50764 9.19369 5.89562 8.51953 6.46091 8.01623C6.92578 7.61496 6.47852 7.07417 6.25934 6.6812L6.63451 6.46338L6.9603 7.03246C7.03019 7.15503 7.14015 7.24941 7.27144 7.29949C7.40273 7.34958 7.54721 7.35228 7.68026 7.30713C8.39684 7.06835 9.17089 7.06898 9.88708 7.30893C10.4626 7.51243 10.7057 6.85418 10.934 6.46754L11.3086 6.68539C11.0884 7.07865 10.6459 7.62162 11.1065 8.01922C11.673 8.52264 12.0604 9.19864 12.2099 9.94425C12.2378 10.0827 12.3124 10.2072 12.4211 10.2966C12.5298 10.3861 12.6658 10.4349 12.8062 10.4349H13.456V10.8688Z" fill="#FF725E"/>
  <path d="M8.78155 7.96777C8.07963 7.97461 7.40877 8.26008 6.91482 8.76209C6.42088 9.26411 6.14379 9.9421 6.1438 10.6486C6.14381 11.3552 6.42092 12.0332 6.91487 12.5352C7.40883 13.0372 8.0797 13.3226 8.78162 13.3294C9.48354 13.3226 10.1544 13.0371 10.6483 12.5351C11.1423 12.0331 11.4194 11.3551 11.4194 10.6486C11.4194 9.94202 11.1423 9.26405 10.6483 8.76204C10.1543 8.26004 9.48347 7.97459 8.78155 7.96777ZM8.78155 12.1039C8.40085 12.0997 8.03717 11.9445 7.76945 11.672C7.50173 11.3996 7.35158 11.0318 7.35158 10.6486C7.35159 10.2654 7.50175 9.89762 7.76948 9.62516C8.0372 9.3527 8.40088 9.19752 8.78159 9.1933C9.16249 9.19723 9.52646 9.35229 9.79443 9.62479C10.0624 9.8973 10.2127 10.2652 10.2127 10.6486C10.2127 11.032 10.0624 11.4 9.7944 11.6725C9.52643 11.945 9.16245 12.1 8.78155 12.1039Z" fill="#FF725E"/>
  <path d="M21.4168 13.2031C21.5317 13.3144 21.6853 13.3758 21.8447 13.3743C22.0042 13.3727 22.1566 13.3083 22.2694 13.1948C22.3821 13.0813 22.4461 12.9279 22.4476 12.7674C22.4492 12.6069 22.3881 12.4523 22.2776 12.3366L20.6005 10.6486L22.2776 8.96049C22.3918 8.84559 22.4559 8.68975 22.4559 8.52725C22.4559 8.36475 22.3918 8.20891 22.2776 8.09401C22.1635 7.9791 22.0086 7.91455 21.8472 7.91455C21.6857 7.91455 21.5309 7.9791 21.4168 8.09401L19.3092 10.2153C19.2527 10.2722 19.2078 10.3398 19.1772 10.4141C19.1466 10.4884 19.1309 10.5681 19.1309 10.6486C19.1309 10.729 19.1466 10.8087 19.1772 10.8831C19.2078 10.9574 19.2527 11.0249 19.3092 11.0818L21.4168 13.2031Z" fill="#FF725E"/>
  <path d="M28.1598 13.2031C28.2163 13.2601 28.2834 13.3052 28.3573 13.336C28.4311 13.3668 28.5103 13.3827 28.5902 13.3827C28.6702 13.3827 28.7493 13.3668 28.8232 13.336C28.897 13.3052 28.9641 13.2601 29.0207 13.2031L31.1282 11.0818C31.1847 11.0249 31.2296 10.9574 31.2602 10.8831C31.2908 10.8087 31.3065 10.729 31.3065 10.6486C31.3065 10.5681 31.2908 10.4884 31.2602 10.4141C31.2296 10.3398 31.1847 10.2722 31.1282 10.2153L29.0207 8.09401C28.9641 8.03711 28.897 7.99198 28.8232 7.96119C28.7493 7.9304 28.6702 7.91455 28.5902 7.91455C28.5103 7.91455 28.4311 7.9304 28.3573 7.96119C28.2834 7.99198 28.2163 8.03711 28.1598 8.09401C28.1033 8.1509 28.0584 8.21844 28.0278 8.29278C27.9972 8.36712 27.9815 8.44679 27.9815 8.52725C27.9815 8.60771 27.9972 8.68738 28.0278 8.76172C28.0584 8.83605 28.1033 8.9036 28.1598 8.96049L29.8369 10.6486L28.1598 12.3367C28.1033 12.3935 28.0584 12.4611 28.0278 12.5354C27.9972 12.6098 27.9814 12.6894 27.9814 12.7699C27.9814 12.8504 27.9972 12.93 28.0278 13.0044C28.0584 13.0787 28.1033 13.1463 28.1598 13.2031Z" fill="#FF725E"/>
  <path d="M25.0184 13.9788L26.5986 7.61537C26.6343 7.45899 26.6076 7.29477 26.5242 7.15801C26.4409 7.02124 26.3076 6.92285 26.1529 6.88397C25.9983 6.8451 25.8346 6.86886 25.6972 6.95013C25.5598 7.0314 25.4595 7.1637 25.4179 7.3186L23.8377 13.682C23.7986 13.8396 23.8233 14.0063 23.9064 14.1456C23.9894 14.2849 24.1241 14.3852 24.2806 14.4246C24.4372 14.4639 24.6029 14.4391 24.7413 14.3555C24.8796 14.2719 24.9793 14.1364 25.0184 13.9788Z" fill="#FF725E"/>
</svg>