<svg xmlns="http://www.w3.org/2000/svg" width="40" height="40" viewBox="0 0 40 40" fill="none">
  <path d="M24.375 7.5C22.6525 7.5 21.25 6.09875 21.25 4.375C21.25 2.65125 22.6525 1.25 24.375 1.25C26.0975 1.25 27.5 2.65125 27.5 4.375C27.5 6.09875 26.0975 7.5 24.375 7.5ZM24.375 2.5C23.3412 2.5 22.5 3.34125 22.5 4.375C22.5 5.40875 23.3412 6.25 24.375 6.25C25.4088 6.25 26.25 5.40875 26.25 4.375C26.25 3.34125 25.4088 2.5 24.375 2.5Z" fill="#4F5B5E"/>
  <path d="M14.375 7.5C12.6525 7.5 11.25 6.09875 11.25 4.375C11.25 2.65125 12.6525 1.25 14.375 1.25C16.0975 1.25 17.5 2.65125 17.5 4.375C17.5 6.09875 16.0975 7.5 14.375 7.5ZM14.375 2.5C13.3412 2.5 12.5 3.34125 12.5 4.375C12.5 5.40875 13.3412 6.25 14.375 6.25C15.4088 6.25 16.25 5.40875 16.25 4.375C16.25 3.34125 15.4088 2.5 14.375 2.5Z" fill="#4F5B5E"/>
  <path d="M33.125 38.75C32.78 38.75 32.5 38.47 32.5 38.125V30.625C32.5 30.28 32.78 30 33.125 30C33.47 30 33.75 30.28 33.75 30.625C33.75 30.9688 34.03 31.25 34.375 31.25C34.72 31.25 35 30.9688 35 30.625V21.875C35 20.4688 33.8463 18.75 32.5 18.75H28.125C27.78 18.75 27.5 18.47 27.5 18.125C27.5 17.78 27.78 17.5 28.125 17.5H32.5C34.6113 17.5 36.25 19.8525 36.25 21.875V30.625C36.25 31.6588 35.4088 32.5 34.375 32.5C34.1563 32.5 33.945 32.4625 33.75 32.3925V38.125C33.75 38.47 33.47 38.75 33.125 38.75Z" fill="#4F5B5E"/>
  <path d="M25.625 12.5C25.625 10.4325 27.3075 8.75 29.375 8.75C31.4425 8.75 33.125 10.4325 33.125 12.5C33.125 14.5675 31.4425 16.25 29.375 16.25C27.3075 16.25 25.625 14.5675 25.625 12.5ZM26.875 12.5C26.875 13.88 27.995 15 29.375 15C30.755 15 31.875 13.88 31.875 12.5C31.875 11.1212 30.755 10 29.375 10C27.995 10 26.875 11.1212 26.875 12.5Z" fill="#4F5B5E"/>
  <path d="M33.125 31.25C33.47 31.25 33.75 30.97 33.75 30.625V23.125C33.75 22.78 33.47 22.5 33.125 22.5C32.78 22.5 32.5 22.78 32.5 23.125V30.625C32.5 30.97 32.78 31.25 33.125 31.25Z" fill="#4F5B5E"/>
  <path d="M29.375 38.75C29.72 38.75 30 38.47 30 38.125V33.125C30 32.78 29.72 32.5 29.375 32.5C29.03 32.5 28.75 32.78 28.75 33.125V38.125C28.75 38.47 29.03 38.75 29.375 38.75Z" fill="#4F5B5E"/>
  <path d="M5.625 38.75C5.28 38.75 5 38.47 5 38.125V32.3925C4.805 32.4625 4.59375 32.5 4.375 32.5C3.34125 32.5 2.5 31.6588 2.5 30.625V21.875C2.5 19.8525 4.13875 17.5 6.25 17.5H10.625C10.97 17.5 11.25 17.78 11.25 18.125C11.25 18.47 10.97 18.75 10.625 18.75H6.25C4.90375 18.75 3.75 20.4688 3.75 21.875V30.625C3.75 30.9688 4.03 31.25 4.375 31.25C4.72 31.25 5 30.9688 5 30.625C5 30.28 5.28 30 5.625 30C5.97 30 6.25 30.28 6.25 30.625V38.125C6.25 38.47 5.97 38.75 5.625 38.75Z" fill="#4F5B5E"/>
  <path d="M9.375 16.25C7.3075 16.25 5.625 14.5675 5.625 12.5C5.625 10.4325 7.3075 8.75 9.375 8.75C11.4425 8.75 13.125 10.4325 13.125 12.5C13.125 14.5675 11.4425 16.25 9.375 16.25ZM9.375 10C7.995 10 6.875 11.1212 6.875 12.5C6.875 13.88 7.995 15 9.375 15C10.755 15 11.875 13.88 11.875 12.5C11.875 11.1212 10.755 10 9.375 10Z" fill="#4F5B5E"/>
  <path d="M5.625 31.25C5.28 31.25 5 30.97 5 30.625V23.125C5 22.78 5.28 22.5 5.625 22.5C5.97 22.5 6.25 22.78 6.25 23.125V30.625C6.25 30.97 5.97 31.25 5.625 31.25Z" fill="#4F5B5E"/>
  <path d="M9.375 38.75C9.03 38.75 8.75 38.47 8.75 38.125V33.125C8.75 32.78 9.03 32.5 9.375 32.5C9.72 32.5 10 32.78 10 33.125V38.125C10 38.47 9.72 38.75 9.375 38.75Z" fill="#4F5B5E"/>
  <path d="M23.125 38.75C22.78 38.75 22.5 38.47 22.5 38.125V24.375C22.5 24.03 22.78 23.75 23.125 23.75C23.7912 23.75 24.4125 23.3912 24.7475 22.8137C24.9125 22.53 25 22.2062 25 21.875V20.625C25 18.9013 23.5975 17.5 21.875 17.5H16.25C14.8712 17.5 13.75 18.6212 13.75 20V21.875C13.75 22.9088 14.5912 23.75 15.625 23.75C15.97 23.75 16.25 24.03 16.25 24.375V38.125C16.25 38.47 15.97 38.75 15.625 38.75C15.28 38.75 15 38.47 15 38.125V24.9375C13.575 24.6475 12.5 23.3838 12.5 21.875V20C12.5 17.9325 14.1825 16.25 16.25 16.25H21.875C24.2875 16.25 26.25 18.2125 26.25 20.625V21.875C26.25 22.425 26.105 22.9675 25.8288 23.4413C25.3775 24.2188 24.6137 24.7587 23.75 24.9362V38.125C23.75 38.47 23.47 38.75 23.125 38.75Z" fill="#FF725E"/>
  <path d="M19.375 15C17.3075 15 15.625 13.3175 15.625 11.25C15.625 9.1825 17.3075 7.5 19.375 7.5C21.4425 7.5 23.125 9.1825 23.125 11.25C23.125 13.3175 21.4425 15 19.375 15ZM19.375 8.75C17.995 8.75 16.875 9.87125 16.875 11.25C16.875 12.63 17.995 13.75 19.375 13.75C20.755 13.75 21.875 12.63 21.875 11.25C21.875 9.87125 20.755 8.75 19.375 8.75Z" fill="#FF725E"/>
  <path d="M23.125 23.1252C22.78 23.1252 22.5 22.8452 22.5 22.5002V22.1014C22.5 21.9152 22.4212 21.7452 22.2787 21.6239C22.1362 21.5027 21.955 21.4552 21.7738 21.4852L17.1837 22.2489C16.6362 22.3364 16.085 22.1864 15.6638 21.8302C15.2413 21.4739 15 20.9514 15 20.3989C15 20.0539 15.28 19.7739 15.625 19.7739C15.97 19.7739 16.25 20.0539 16.25 20.3989C16.25 20.5852 16.3288 20.7552 16.4713 20.8764C16.6138 20.9964 16.7963 21.0489 16.9788 21.0152L21.5675 20.2514C22.1112 20.1614 22.665 20.3114 23.0862 20.6689C23.5075 21.0252 23.75 21.5477 23.75 22.1014V22.5002C23.75 22.8452 23.47 23.1252 23.125 23.1252Z" fill="#FF725E"/>
  <path d="M19.375 38.75C19.03 38.75 18.75 38.47 18.75 38.125V30C18.75 29.655 19.03 29.375 19.375 29.375C19.72 29.375 20 29.655 20 30V38.125C20 38.47 19.72 38.75 19.375 38.75Z" fill="#FF725E"/>
  <path d="M23.125 25H18.125C17.78 25 17.5 24.72 17.5 24.375C17.5 24.03 17.78 23.75 18.125 23.75H23.125C23.47 23.75 23.75 24.03 23.75 24.375C23.75 24.72 23.47 25 23.125 25Z" fill="#FF725E"/>
</svg>