<svg xmlns="http://www.w3.org/2000/svg" width="34" height="30" viewBox="0 0 34 30" fill="none">
  <path d="M13.4155 21.824C13.2871 21.824 13.1577 21.7798 13.0521 21.6899L9.41952 18.5967C9.29422 18.4899 9.22217 18.3339 9.22217 18.1691C9.22217 18.0047 9.29453 17.8487 9.41952 17.7419L13.0521 14.6487C13.288 14.4476 13.6423 14.4761 13.8434 14.712C14.0442 14.9482 14.016 15.3025 13.7798 15.5033L10.6494 18.1691L13.7798 20.835C14.016 21.0361 14.0442 21.3904 13.8434 21.6263C13.7322 21.757 13.5743 21.824 13.4155 21.824Z" fill="#FF725E"/>
  <path d="M20.5873 21.824C20.4285 21.824 20.2706 21.757 20.1597 21.6263C19.9586 21.3904 19.9871 21.0361 20.223 20.835L23.3534 18.1691L20.223 15.5033C19.9871 15.3025 19.9586 14.9482 20.1597 14.712C20.3605 14.4761 20.7151 14.4476 20.9507 14.6487L24.5833 17.7419C24.7086 17.8487 24.7806 18.0047 24.7806 18.1691C24.7806 18.3339 24.7086 18.4899 24.5833 18.5967L20.9507 21.6899C20.8451 21.7798 20.7157 21.824 20.5873 21.824Z" fill="#FF725E"/>
  <path d="M15.7158 24.144C15.6773 24.144 15.6384 24.1399 15.5993 24.1318C15.296 24.0679 15.1018 23.7699 15.1657 23.4667L17.4297 12.7177C17.4936 12.4145 17.7912 12.2202 18.0947 12.2841C18.398 12.348 18.5922 12.6456 18.5283 12.9492L16.2643 23.6982C16.2086 23.9626 15.9755 24.144 15.7158 24.144Z" fill="#FF725E"/>
  <path d="M30.2337 30H3.76919C1.691 30 0 28.3093 0 26.2308V3.76919C0 1.691 1.691 0 3.76919 0H30.2337C32.3119 0 34.0029 1.691 34.0029 3.76919V26.2308C34.0029 28.3093 32.3119 30 30.2337 30ZM3.76919 1.12274C2.31001 1.12274 1.12274 2.31001 1.12274 3.76919V26.2308C1.12274 27.69 2.31001 28.8773 3.76919 28.8773H30.2337C31.6929 28.8773 32.8801 27.69 32.8801 26.2308V3.76919C32.8801 2.31001 31.6929 1.12274 30.2337 1.12274H3.76919Z" fill="#4F5B5E"/>
  <path d="M33.4415 8.98944H0.561368C0.251237 8.98944 0 8.7382 0 8.42807C0 8.11825 0.251237 7.8667 0.561368 7.8667H33.4415C33.7516 7.8667 34.0029 8.11825 34.0029 8.42807C34.0029 8.7382 33.7516 8.98944 33.4415 8.98944Z" fill="#4F5B5E"/>
  <path d="M9.59146 6.30304C8.6122 6.30304 7.81494 5.50578 7.81494 4.52652C7.81494 3.54694 8.6122 2.75 9.59146 2.75C10.571 2.75 11.368 3.54694 11.368 4.52652C11.368 5.50578 10.571 6.30304 9.59146 6.30304ZM9.59146 3.87274C9.23121 3.87274 8.93768 4.16595 8.93768 4.52652C8.93768 4.88708 9.23121 5.1803 9.59146 5.1803C9.95203 5.1803 10.2452 4.88708 10.2452 4.52652C10.2452 4.16595 9.95203 3.87274 9.59146 3.87274Z" fill="#FF725E"/>
  <path d="M4.13321 6.28595C3.15363 6.28595 2.35669 5.489 2.35669 4.50943C2.35669 3.52985 3.15363 2.73291 4.13321 2.73291C5.11278 2.73291 5.90973 3.52985 5.90973 4.50943C5.90973 5.489 5.11278 6.28595 4.13321 6.28595ZM4.13321 3.85565C3.77295 3.85565 3.47943 4.14918 3.47943 4.50943C3.47943 4.86999 3.77295 5.16321 4.13321 5.16321C4.49377 5.16321 4.78699 4.86999 4.78699 4.50943C4.78699 4.14918 4.49377 3.85565 4.13321 3.85565Z" fill="#FF725E"/>
  <path d="M15.0494 6.31981C14.0701 6.31981 13.2732 5.52287 13.2732 4.54329C13.2732 3.56403 14.0701 2.76709 15.0494 2.76709C16.029 2.76709 16.8259 3.56403 16.8259 4.54329C16.8259 5.52287 16.029 6.31981 15.0494 6.31981ZM15.0494 3.88951C14.6891 3.88951 14.3959 4.18273 14.3959 4.54329C14.3959 4.90386 14.6891 5.19708 15.0494 5.19708C15.41 5.19708 15.7032 4.90386 15.7032 4.54329C15.7032 4.18273 15.41 3.88951 15.0494 3.88951Z" fill="#FF725E"/>
</svg>