<svg width="40" height="40" viewBox="0 0 40 40" fill="none" xmlns="http://www.w3.org/2000/svg">
<path d="M37.8711 13.424C38.3741 10.9999 36.9799 8.58725 34.628 7.81241C33.4786 7.43414 32.5664 6.52193 32.188 5.37226C31.4137 3.02052 29.0008 1.62804 26.5716 2.12999C25.3912 2.37488 24.147 2.04254 23.2374 1.23257C21.3916 -0.411763 18.6084 -0.412323 16.7546 1.2397C15.854 2.04198 14.6108 2.3752 13.4239 2.12903C10.9997 1.62548 8.58712 3.02044 7.81268 5.3721C7.43401 6.52153 6.52156 7.43374 5.37213 7.81225C3.02039 8.58685 1.62631 10.9992 2.13002 13.4285C2.37515 14.6101 2.04217 15.8533 1.23236 16.7627C-0.411973 18.6084 -0.411973 21.3919 1.23949 23.2456C2.04217 24.1467 2.37515 25.3903 2.12906 26.5762C1.62591 29.0003 3.02007 31.4128 5.37197 32.1878C6.52164 32.566 7.43385 33.4783 7.81212 34.6279C8.58672 36.9797 10.9997 38.3741 13.4284 37.8702C14.61 37.6249 15.8532 37.9578 16.7627 38.7676C18.6079 40.4114 21.3912 40.4126 23.2454 38.7605C24.1468 37.958 25.3907 37.6252 26.576 37.8712C28.9997 38.3737 31.4127 36.9797 32.1873 34.6281C32.566 33.4787 33.4784 32.5664 34.6279 32.1879C36.9796 31.4133 38.3739 29.0011 37.87 26.5717C37.6249 25.3901 37.9578 24.1469 38.763 23.243L38.7691 23.2359C40.4117 21.3902 40.4113 18.6078 38.7606 16.7545C37.9579 15.8534 37.6249 14.6099 37.8711 13.424ZM37.9939 22.5482C36.8931 23.8377 36.5603 25.3602 36.8562 26.7873C37.2521 28.6953 36.1547 30.5941 34.3035 31.2037C32.8432 31.6846 31.6843 32.8436 31.2031 34.3039C30.5939 36.1553 28.6954 37.2543 26.7822 36.8554C25.2806 36.5448 23.7008 36.9671 22.548 37.9941C21.0957 39.2879 18.9045 39.288 17.4438 37.9866C16.2956 36.9641 14.7152 36.5446 13.213 36.8564C11.3043 37.2531 9.40605 36.1547 8.79657 34.3035C8.31567 32.8432 7.15648 31.6842 5.69615 31.2035C3.845 30.5934 2.74773 28.6947 3.14464 26.7822C3.4561 25.2811 3.03335 23.7012 2.00593 22.5482C0.712014 21.0955 0.712014 18.9047 2.01321 17.4438C3.03311 16.299 3.4561 14.7192 3.14384 13.2132C2.74797 11.3049 3.8454 9.40626 5.69655 8.79663C7.15688 8.31572 8.31583 7.15677 8.79698 5.69644C9.40637 3.84529 11.3054 2.74842 13.2179 3.14493C14.7191 3.45583 16.299 3.03324 17.4521 2.00622C18.9044 0.712464 21.0955 0.712304 22.5563 2.01374C23.7011 3.03364 25.2808 3.45583 26.7871 3.14397C28.6947 2.74826 30.5939 3.84553 31.2035 5.69668C31.6844 7.15725 32.8434 8.3162 34.3039 8.79686C36.1551 9.4069 37.2523 11.3057 36.8554 13.2182C36.544 14.7192 36.967 16.2992 37.994 17.4522C39.2881 18.9047 39.2881 21.0955 37.9939 22.5482Z" fill="#434B63"/>
<path d="M24.1214 14.0282L17.614 21.9295L15.7349 19.7628C15.0322 18.9524 13.7955 18.8463 12.9659 19.5661C12.1466 20.2766 12.0579 21.5159 12.7692 22.3352L16.4039 26.5255C16.4039 26.5257 16.4039 26.5257 16.4041 26.5257C17.0782 27.303 18.2885 27.2858 18.9414 26.4929L27.1515 16.5238C27.8395 15.6884 27.7199 14.4492 26.8846 13.761C26.0473 13.0715 24.8112 13.1905 24.1214 14.0282ZM26.2256 14.5609C26.6198 14.8857 26.6765 15.4707 26.3516 15.8649L18.1414 25.8343C17.9112 26.1134 17.4602 26.1616 17.1867 25.8466L13.552 21.656C13.2169 21.2703 13.2571 20.6852 13.6447 20.3489C14.0299 20.015 14.615 20.0532 14.952 20.4416L17.2329 23.0714C17.3326 23.1867 17.4746 23.2478 17.631 23.2502C17.7834 23.2482 17.9273 23.1791 18.0243 23.0614L24.9213 14.6869C25.243 14.2961 25.8255 14.2311 26.2256 14.5609Z" fill="#FF725E"/>
</svg>
