<svg width="46" height="40" viewBox="0 0 46 40" fill="none" xmlns="http://www.w3.org/2000/svg">
<g clip-path="url(#clip0_692_595)">
<path d="M22.6688 33.5035L38.1985 19.8023L33.6181 15.761L37.0754 12.7106L22.6688 0L8.26198 12.7106L11.7192 15.7609L7.1394 19.8023L22.6688 33.5035ZM10.283 12.7106L22.6688 1.78287L35.0549 12.7106L32.6078 14.8696L32.6075 14.8693L22.6687 23.6385L19.5603 20.896L12.7299 14.8691L12.7296 14.8693L10.283 12.7106ZM22.6688 25.4214L32.6079 16.6522L36.178 19.8022L22.6688 31.7204L9.16025 19.8022L12.7299 16.6524L22.6688 25.4214Z" fill="#4F5B5E"/>
<path d="M10.1249 25.4478L11.0896 24.5962L10.0785 23.7046L9.11383 24.5562L10.1249 25.4478Z" fill="#FF725E"/>
<path d="M7.13863 26.3005L8.14893 27.1919L9.15928 26.3005L8.14899 25.4091L7.13863 26.3005Z" fill="#FF725E"/>
<path d="M17.5031 35.4428L18.5422 36.3599L19.5527 35.4686L18.5136 34.5515L17.5031 35.4428Z" fill="#FF725E"/>
<path d="M9.18787 28.1073L10.2271 29.0239L11.2373 28.1324L10.1981 27.2158L9.18787 28.1073Z" fill="#FF725E"/>
<path d="M13.3455 31.7747L14.3847 32.6912L15.395 31.7999L14.3558 30.8833L13.3455 31.7747Z" fill="#FF725E"/>
<path d="M11.2665 29.9411L12.3054 30.8574L13.3155 29.966L12.2766 29.0496L11.2665 29.9411Z" fill="#FF725E"/>
<path d="M15.4233 33.6089L16.4626 34.5259L17.473 33.6345L16.4337 32.7175L15.4233 33.6089Z" fill="#FF725E"/>
<path d="M19.5801 37.2761L20.6194 38.1927L21.6298 37.3013L20.5906 36.3843L19.5801 37.2761Z" fill="#FF725E"/>
<path d="M21.658 39.109L22.6685 40.0005L23.6788 39.1091L22.6683 38.2175L21.658 39.109Z" fill="#FF725E"/>
<path d="M29.9413 31.8012L30.9517 32.6924L31.9909 31.7753L30.9805 30.8841L29.9413 31.8012Z" fill="#FF725E"/>
<path d="M32.021 29.967L33.0316 30.8576L34.0705 29.9412L33.06 29.0498L32.021 29.967Z" fill="#FF725E"/>
<path d="M34.0995 28.133L35.1099 29.0244L36.1489 28.1077L35.1385 27.2163L34.0995 28.133Z" fill="#FF725E"/>
<path d="M27.8644 33.6345L28.8748 34.5259L29.914 33.6089L28.9037 32.7175L27.8644 33.6345Z" fill="#FF725E"/>
<path d="M25.7833 35.4675L26.7942 36.3589L27.8332 35.4417L26.8223 34.5503L25.7833 35.4675Z" fill="#FF725E"/>
<path d="M23.7083 37.3013L24.7186 38.1927L25.7578 37.2761L24.7474 36.3843L23.7083 37.3013Z" fill="#FF725E"/>
<path d="M37.1874 25.4049L36.1772 26.2964L37.1877 27.1876L38.1978 26.2961L37.1874 25.4049Z" fill="#FF725E"/>
<path d="M35.2111 25.4463L36.2214 24.5552L35.2566 23.7037L34.2463 24.5948L35.2111 25.4463Z" fill="#FF725E"/>
<path d="M17.6173 12.7096L16.6074 11.8184L15.5968 12.7098L16.6066 13.601L17.6173 12.7096Z" fill="#FF725E"/>
<path d="M19.6384 10.9286L18.6284 10.0366L17.6177 10.9274L18.6277 11.8194L19.6384 10.9286Z" fill="#FF725E"/>
<path d="M21.6588 9.14411L20.6487 8.25244L19.6384 9.14327L20.6485 10.0349L21.6588 9.14411Z" fill="#FF725E"/>
<path d="M23.6794 7.36224L22.6692 6.4707L21.6586 7.3621L22.6688 8.25364L23.6794 7.36224Z" fill="#FF725E"/>
<path d="M18.6276 13.6008L17.6169 14.4922L18.627 15.3836L19.6376 14.4922L18.6276 13.6008Z" fill="#FF725E"/>
<path d="M19.6377 12.7107L20.6481 13.6027L21.6585 12.7107L20.6481 11.8188L19.6377 12.7107Z" fill="#FF725E"/>
<path d="M21.6592 10.9247L22.6694 11.8164L23.6803 10.925L22.67 10.0332L21.6592 10.9247Z" fill="#FF725E"/>
<path d="M24.6894 10.0359L25.7002 9.14442L24.6894 8.25244L23.6794 9.14505L24.6894 10.0359Z" fill="#FF725E"/>
<path d="M20.6476 15.3859L19.6372 16.2778L20.6482 17.1693L21.6585 16.2773L20.6476 15.3859Z" fill="#FF725E"/>
<path d="M22.6695 15.3846L23.6799 14.4927L22.669 13.6012L21.6586 14.4932L22.6695 15.3846Z" fill="#FF725E"/>
<path d="M25.7006 12.7107L24.6894 11.8188L23.6794 12.7107L24.6894 13.602L25.7006 12.7107Z" fill="#FF725E"/>
<path d="M27.7204 10.9269L26.71 10.0356L25.7001 10.9269L26.7106 11.8181L27.7204 10.9269Z" fill="#FF725E"/>
<path d="M21.6583 18.0594L22.6685 18.9507L23.6788 18.0593L22.6686 17.168L21.6583 18.0594Z" fill="#FF725E"/>
<path d="M23.6795 16.2766L24.6892 17.168L25.7 16.2767L24.6903 15.3854L23.6795 16.2766Z" fill="#FF725E"/>
<path d="M25.6996 14.4904L26.71 15.3818L27.7203 14.4904L26.71 13.599L25.6996 14.4904Z" fill="#FF725E"/>
<path d="M28.7314 13.5999L29.7415 12.708L28.7307 11.817L27.7206 12.7089L28.7314 13.5999Z" fill="#FF725E"/>
</g>
<defs>
<clipPath id="clip0_692_595">
<rect width="45.3372" height="40" fill="white"/>
</clipPath>
</defs>
</svg>
