<svg width="45" height="29" viewBox="0 0 45 29" fill="none" xmlns="http://www.w3.org/2000/svg">
<path d="M33.7497 2.35315L34.7238 1.37271C34.8698 1.21958 34.9503 1.01496 34.9481 0.802736C34.946 0.590513 34.8612 0.387601 34.7121 0.237536C34.563 0.0874714 34.3614 0.00220933 34.1506 4.23347e-05C33.9397 -0.00212466 33.7365 0.0789761 33.5843 0.225945L31.2537 2.57179C31.1789 2.64708 31.1195 2.73647 31.079 2.83486C31.0385 2.93325 31.0177 3.03871 31.0177 3.14521C31.0177 3.2517 31.0385 3.35716 31.079 3.45555C31.1195 3.55394 31.1789 3.64333 31.2537 3.71861L33.5844 6.06451C33.6591 6.13994 33.7479 6.19976 33.8457 6.24054C33.9434 6.28132 34.0482 6.30224 34.1541 6.30211C34.3123 6.29953 34.4663 6.25044 34.5971 6.16089C34.7279 6.07135 34.8299 5.94525 34.8904 5.79812C34.9509 5.651 34.9674 5.48926 34.9378 5.33283C34.9082 5.1764 34.8338 5.03211 34.7237 4.9177L33.7894 3.97721C36.3846 4.0851 38.8382 5.19762 40.638 7.08261C42.4379 8.96759 43.445 11.4794 43.4492 14.0938C42.894 27.5452 23.8565 27.5368 23.3057 14.0937C23.3022 10.976 22.0701 7.98697 19.8799 5.7824C17.6896 3.57784 14.72 2.33774 11.6225 2.33417C-3.64159 2.9347 -3.9786 24.7579 11.2504 25.8344L10.2762 26.8149C10.2012 26.8901 10.1417 26.9795 10.1011 27.078C10.0605 27.1764 10.0395 27.2819 10.0395 27.3885C10.0394 27.4951 10.0602 27.6007 10.1007 27.6991C10.1412 27.7976 10.2006 27.8871 10.2754 27.9625C10.3503 28.0379 10.4392 28.0976 10.5371 28.1384C10.6349 28.1791 10.7398 28.2001 10.8457 28.2C10.9516 28.1999 11.0564 28.1788 11.1542 28.1379C11.252 28.0971 11.3408 28.0372 11.4156 27.9617L13.7462 25.6158C13.8211 25.5405 13.8804 25.4511 13.921 25.3527C13.9615 25.2543 13.9823 25.1489 13.9823 25.0424C13.9823 24.9359 13.9615 24.8304 13.921 24.732C13.8804 24.6336 13.8211 24.5443 13.7462 24.469L11.4156 22.1231C11.2635 21.976 11.0602 21.8949 10.8493 21.8971C10.6384 21.8992 10.4368 21.9845 10.2877 22.1346C10.1386 22.2847 10.0539 22.4876 10.0517 22.6999C10.0496 22.9121 10.1302 23.1168 10.2763 23.2699L11.2106 24.2104C-1.84377 23.1793 -1.48866 4.46853 11.6226 3.95613C14.2929 3.9592 16.8529 5.02826 18.741 6.92878C20.6292 8.82931 21.6913 11.4061 21.6943 14.0938C21.6978 17.2116 22.9299 20.2006 25.1201 22.4052C27.3104 24.6097 30.28 25.8498 33.3775 25.8534C48.6415 25.2529 48.9787 3.42963 33.7497 2.35315Z" fill="#4F5B5E"/>
<path d="M18.0715 12.1892H17.5703C17.2966 11.3301 16.8437 10.5398 16.2421 9.87106L16.4954 9.42833C16.6719 9.11608 16.7188 8.74636 16.6259 8.39951C16.5331 8.05265 16.3081 7.75666 15.9997 7.57584L15.0508 7.02382C14.7408 6.84474 14.3731 6.79636 14.0278 6.88926C13.6826 6.98215 13.3878 7.20877 13.208 7.51963L12.9562 7.95681C12.0802 7.7654 11.1736 7.76485 10.2974 7.95519C10.0652 7.50935 9.75872 6.99188 9.22651 6.88287C8.56482 6.63181 7.79535 7.2866 7.25225 7.57028C6.94257 7.7507 6.71664 8.0474 6.62401 8.39528C6.53138 8.74316 6.57962 9.11381 6.75815 9.42594L7.00994 9.8647C6.40612 10.5316 5.95181 11.3214 5.67781 12.1805H5.17343C4.81563 12.1808 4.47257 12.324 4.21957 12.5787C3.96656 12.8333 3.82429 13.1786 3.82397 13.5388V14.6412C3.82429 15.0014 3.96656 15.3467 4.21957 15.6013C4.47257 15.856 4.81563 15.9992 5.17343 15.9995H5.67466C5.9482 16.8584 6.40106 17.6486 7.00286 18.3169L6.7495 18.7596C6.57306 19.0719 6.52616 19.4416 6.61898 19.7884C6.7118 20.1353 6.93684 20.4313 7.24521 20.6121L8.19416 21.1641C8.50401 21.3437 8.87192 21.3923 9.21732 21.2994C9.56272 21.2065 9.85746 20.9795 10.037 20.6683L10.288 20.2311C11.1642 20.4228 12.071 20.4236 12.9475 20.2335L13.2001 20.6739C13.3799 20.9847 13.6747 21.2114 14.0199 21.3043C14.3652 21.3972 14.733 21.3488 15.0429 21.1697C15.5551 20.828 16.5067 20.4987 16.6221 19.7923C16.6685 19.5339 16.6579 19.2683 16.591 19.0144C16.5241 18.7605 16.4026 18.5245 16.235 18.3232C16.8388 17.6563 17.2932 16.8665 17.5672 16.0074H18.0715C18.4293 16.0071 18.7723 15.8639 19.0253 15.6092C19.2783 15.3546 19.4206 15.0093 19.4209 14.6492V13.5468C19.4205 13.1868 19.2781 12.8416 19.0251 12.5871C18.7721 12.3326 18.4292 12.1895 18.0715 12.1892ZM17.8095 14.3855C17.2072 14.3937 16.3143 14.2326 16.1571 15.0349C15.9552 16.0196 15.4417 16.9119 14.6935 17.578C14.0785 18.1089 14.67 18.8245 14.9595 19.345L14.4637 19.6332C14.2031 19.2186 13.9351 18.4304 13.3346 18.4753C12.3058 18.817 11.1973 18.8308 10.1604 18.5148C9.3974 18.2424 9.07577 19.116 8.77318 19.6277L8.27746 19.3394C8.56916 18.8185 9.15436 18.1005 8.54494 17.5732C7.79811 16.9052 7.28585 16.012 7.08459 15.027C6.93352 14.2276 6.02721 14.3845 5.43534 14.3775V13.8025C6.03773 13.7943 6.93057 13.9552 7.08774 13.1531C7.28961 12.1684 7.80312 11.2761 8.55129 10.61C9.16656 10.0789 8.57459 9.36314 8.2845 8.84304L8.78105 8.55475L9.21225 9.30794C9.30475 9.47017 9.45029 9.59507 9.62405 9.66136C9.79782 9.72766 9.98905 9.73123 10.1651 9.67147C11.1136 9.35544 12.138 9.35627 13.0859 9.67385C13.8477 9.94319 14.1694 9.07198 14.4716 8.56025L14.9673 8.84859C14.6759 9.36908 14.0902 10.0877 14.6998 10.6139C15.4496 11.2802 15.9624 12.1749 16.1602 13.1618C16.1972 13.345 16.2959 13.5098 16.4398 13.6282C16.5836 13.7465 16.7637 13.8112 16.9494 13.8112H17.8095V14.3855Z" fill="#FF725E"/>
<path d="M11.6225 10.5454C10.6935 10.5545 9.80557 10.9323 9.15182 11.5967C8.49807 12.2612 8.13133 13.1585 8.13135 14.0936C8.13136 15.0288 8.49812 15.9261 9.15189 16.5905C9.80566 17.2549 10.6936 17.6327 11.6226 17.6417C12.5516 17.6327 13.4395 17.2549 14.0933 16.5904C14.747 15.926 15.1137 15.0287 15.1137 14.0935C15.1137 13.1584 14.7469 12.2611 14.0932 11.5966C13.4394 10.9322 12.5515 10.5544 11.6225 10.5454ZM11.6225 16.0197C11.1186 16.0141 10.6373 15.8087 10.2829 15.4481C9.92861 15.0875 9.72988 14.6007 9.72988 14.0935C9.72989 13.5863 9.92864 13.0996 10.283 12.739C10.6373 12.3784 11.1187 12.173 11.6225 12.1674C12.1267 12.1726 12.6084 12.3779 12.9631 12.7385C13.3177 13.0992 13.5167 13.5862 13.5166 14.0936C13.5166 14.6011 13.3177 15.088 12.963 15.4487C12.6084 15.8093 12.1266 16.0145 11.6225 16.0197Z" fill="#FF725E"/>
<path d="M28.3458 17.4747C28.4978 17.622 28.7012 17.7033 28.9122 17.7012C29.1232 17.6992 29.325 17.6139 29.4742 17.4637C29.6234 17.3135 29.7081 17.1104 29.7102 16.898C29.7122 16.6856 29.6314 16.4809 29.4851 16.3278L27.2654 14.0937L29.4851 11.8594C29.6362 11.7074 29.7211 11.5011 29.7211 11.286C29.7211 11.071 29.6362 10.8647 29.4851 10.7126C29.334 10.5605 29.1291 10.4751 28.9154 10.4751C28.7018 10.4751 28.4968 10.5605 28.3458 10.7126L25.5564 13.5203C25.4815 13.5955 25.4222 13.6849 25.3817 13.7833C25.3412 13.8817 25.3203 13.9872 25.3203 14.0937C25.3203 14.2002 25.3412 14.3056 25.3817 14.404C25.4222 14.5024 25.4815 14.5918 25.5564 14.6671L28.3458 17.4747Z" fill="#FF725E"/>
<path d="M37.2702 17.4747C37.345 17.55 37.4338 17.6098 37.5316 17.6506C37.6293 17.6913 37.7341 17.7123 37.8399 17.7123C37.9457 17.7123 38.0505 17.6913 38.1482 17.6506C38.246 17.6098 38.3348 17.55 38.4096 17.4747L41.199 14.6671C41.2738 14.5918 41.3332 14.5024 41.3737 14.404C41.4142 14.3056 41.435 14.2002 41.435 14.0937C41.435 13.9872 41.4142 13.8817 41.3737 13.7833C41.3332 13.6849 41.2738 13.5955 41.199 13.5203L38.4096 10.7126C38.3348 10.6373 38.246 10.5776 38.1482 10.5368C38.0505 10.4961 37.9457 10.4751 37.8399 10.4751C37.7341 10.4751 37.6293 10.4961 37.5316 10.5368C37.4339 10.5776 37.345 10.6373 37.2702 10.7126C37.1954 10.7879 37.1361 10.8773 37.0956 10.9757C37.0551 11.0741 37.0343 11.1795 37.0343 11.286C37.0343 11.3925 37.0551 11.498 37.0956 11.5963C37.1361 11.6947 37.1954 11.7841 37.2702 11.8594L39.4899 14.0937L37.2702 16.3279C37.1954 16.4032 37.136 16.4926 37.0955 16.591C37.055 16.6893 37.0342 16.7948 37.0342 16.9013C37.0342 17.0078 37.055 17.1133 37.0955 17.2116C37.136 17.31 37.1954 17.3994 37.2702 17.4747Z" fill="#FF725E"/>
<path d="M33.1128 18.5012L35.2043 10.0791C35.2515 9.87212 35.2161 9.65477 35.1058 9.47376C34.9955 9.29275 34.8191 9.16252 34.6144 9.11107C34.4097 9.05962 34.1931 9.09106 34.0112 9.19863C33.8293 9.30619 33.6966 9.4813 33.6416 9.68631L31.5501 18.1084C31.4984 18.317 31.5311 18.5377 31.641 18.722C31.7509 18.9064 31.9291 19.0392 32.1363 19.0913C32.3436 19.1434 32.5629 19.1105 32.746 18.9998C32.9291 18.8892 33.0611 18.7098 33.1128 18.5012Z" fill="#FF725E"/>
</svg>
