<svg width="47" height="40" viewBox="0 0 47 40" fill="none" xmlns="http://www.w3.org/2000/svg">
<path d="M23.077 10.7692C22.012 10.7692 20.971 10.4534 20.0855 9.86176C19.2 9.27009 18.5098 8.42913 18.1023 7.44522C17.6947 6.46131 17.5881 5.37864 17.7958 4.33413C18.0036 3.28962 18.5165 2.33017 19.2695 1.57712C20.0226 0.824068 20.982 0.311233 22.0265 0.103466C23.071 -0.1043 24.1537 0.00233306 25.1376 0.409882C26.1215 0.817431 26.9625 1.50759 27.5541 2.39309C28.1458 3.27858 28.4616 4.31964 28.4616 5.38462C28.46 6.81221 27.8922 8.18086 26.8827 9.19032C25.8732 10.1998 24.5046 10.7676 23.077 10.7692ZM23.077 1.53846C22.3163 1.53846 21.5727 1.76404 20.9402 2.18666C20.3077 2.60928 19.8147 3.20997 19.5236 3.91276C19.2325 4.61555 19.1563 5.38888 19.3047 6.13497C19.4532 6.88105 19.8195 7.56636 20.3574 8.10426C20.8953 8.64215 21.5806 9.00846 22.3267 9.15687C23.0727 9.30527 23.8461 9.22911 24.5489 8.938C25.2517 8.64689 25.8523 8.15392 26.275 7.52143C26.6976 6.88893 26.9232 6.14532 26.9232 5.38462C26.9219 4.36493 26.5163 3.38735 25.7953 2.66633C25.0743 1.9453 24.0967 1.53969 23.077 1.53846Z" fill="#FF725E"/>
<path d="M29.2305 19.2307H27.692V15.3846C27.6931 15.1827 27.7735 14.9893 27.9159 14.8461L38.1889 4.50533C38.363 4.33009 38.4607 4.09311 38.4607 3.8461C38.4607 3.59909 38.363 3.36211 38.1889 3.18687C38.0252 3.02356 37.8062 2.92764 37.5751 2.9181C37.3441 2.90856 37.1179 2.98608 36.9412 3.13533L31.6751 7.60995C29.2743 9.64945 26.2268 10.7692 23.0766 10.7692C19.9265 10.7692 16.8789 9.64945 14.4782 7.60995L9.21201 3.13533C9.02903 2.97848 8.79214 2.89908 8.5516 2.91395C8.31105 2.92881 8.08575 3.03679 7.92347 3.21497C7.76119 3.39316 7.6747 3.62755 7.68232 3.86843C7.68995 4.10932 7.7911 4.33777 7.96432 4.50533L18.2374 14.8461C18.3798 14.9893 18.4602 15.1827 18.4612 15.3846V19.2307H16.9228V15.7023L6.87355 5.59071C6.42343 5.14102 6.16452 4.53476 6.15095 3.89864C6.13738 3.26251 6.3702 2.64576 6.80074 2.17728C7.23128 1.7088 7.82622 1.42486 8.46122 1.38478C9.09623 1.34471 9.72215 1.55161 10.2082 1.96225L15.4743 6.43764C17.597 8.24084 20.2915 9.23083 23.0766 9.23083C25.8618 9.23083 28.5563 8.24084 30.6789 6.43764L35.9451 1.96225C36.4311 1.55161 37.057 1.34471 37.692 1.38478C38.327 1.42486 38.922 1.7088 39.3525 2.17728C39.7831 2.64576 40.0159 3.26251 40.0023 3.89864C39.9887 4.53476 39.7298 5.14102 39.2797 5.59071L29.2305 15.7023V19.2307Z" fill="#FF725E"/>
<path d="M23.0768 40.0002C16.786 40.0002 15.0206 38.4171 14.8406 38.2363C14.6963 38.0921 14.6153 37.8965 14.6152 37.6925V34.6156C14.6169 33.188 15.1847 31.8193 16.1942 30.8099C17.2036 29.8004 18.5723 29.2326 19.9998 29.231H26.1537C27.5813 29.2326 28.9499 29.8004 29.9594 30.8099C30.9689 31.8193 31.5367 33.188 31.5383 34.6156V37.6925C31.5383 37.8965 31.4572 38.0921 31.3129 38.2363C31.1329 38.4171 29.3675 40.0002 23.0768 40.0002ZM16.1537 37.2963C16.7514 37.6394 18.6445 38.4617 23.0768 38.4617C27.4891 38.4617 29.3845 37.6463 29.9999 37.2925V34.6156C29.9986 33.5959 29.593 32.6183 28.872 31.8973C28.151 31.1763 27.1734 30.7706 26.1537 30.7694H19.9998C18.9802 30.7706 18.0026 31.1763 17.2816 31.8973C16.5605 32.6183 16.1549 33.5959 16.1537 34.6156V37.2963Z" fill="#4F5B5E"/>
<path d="M23.077 30.7692C22.012 30.7692 20.971 30.4534 20.0855 29.8618C19.2 29.2701 18.5098 28.4291 18.1023 27.4452C17.6947 26.4613 17.5881 25.3786 17.7958 24.3341C18.0036 23.2896 18.5165 22.3302 19.2695 21.5771C20.0226 20.8241 20.982 20.3112 22.0265 20.1035C23.071 19.8957 24.1537 20.0023 25.1376 20.4099C26.1215 20.8174 26.9625 21.5076 27.5541 22.3931C28.1458 23.2786 28.4616 24.3196 28.4616 25.3846C28.46 26.8122 27.8922 28.1809 26.8827 29.1903C25.8732 30.1998 24.5046 30.7676 23.077 30.7692ZM23.077 21.5385C22.3163 21.5385 21.5727 21.764 20.9402 22.1867C20.3077 22.6093 19.8147 23.21 19.5236 23.9128C19.2325 24.6156 19.1563 25.3889 19.3047 26.135C19.4532 26.881 19.8195 27.5664 20.3574 28.1043C20.8953 28.6422 21.5806 29.0085 22.3267 29.1569C23.0727 29.3053 23.8461 29.2291 24.5489 28.938C25.2517 28.6469 25.8523 28.1539 26.275 27.5214C26.6976 26.8889 26.9232 26.1453 26.9232 25.3846C26.9219 24.3649 26.5163 23.3874 25.7953 22.6663C25.0743 21.9453 24.0967 21.5397 23.077 21.5385Z" fill="#4F5B5E"/>
<path d="M37.6923 37.6921C36.0969 37.7106 34.5033 37.58 32.9323 37.3021L33.2215 35.7913C34.6973 36.0503 36.194 36.1716 37.6923 36.1536C42.1046 36.1536 44 35.3382 44.6153 34.9844V32.3075C44.6141 31.2878 44.2085 30.3102 43.4875 29.5892C42.7664 28.8681 41.7889 28.4625 40.7692 28.4613H34.6153C33.9805 28.4609 33.3555 28.6177 32.7962 28.9179C32.2368 29.218 31.7605 29.6521 31.41 30.1813L30.1284 29.3298C30.6192 28.589 31.2859 27.9815 32.0689 27.5614C32.8519 27.1414 33.7268 26.922 34.6153 26.9229H40.7692C42.1968 26.9245 43.5654 27.4923 44.5749 28.5018C45.5843 29.5112 46.1522 30.8799 46.1538 32.3075V35.3844C46.1538 35.5884 46.0727 35.784 45.9284 35.9282C45.7484 36.109 43.983 37.6921 37.6923 37.6921Z" fill="#4F5B5E"/>
<path d="M37.6922 28.4616C36.6273 28.4616 35.5862 28.1458 34.7007 27.5541C33.8152 26.9625 33.125 26.1215 32.7175 25.1376C32.31 24.1537 32.2033 23.071 32.4111 22.0265C32.6188 20.982 33.1317 20.0226 33.8847 19.2695C34.6378 18.5165 35.5972 18.0036 36.6417 17.7958C37.6863 17.5881 38.7689 17.6947 39.7528 18.1023C40.7367 18.5098 41.5777 19.2 42.1694 20.0855C42.761 20.971 43.0768 22.012 43.0768 23.077C43.0752 24.5046 42.5074 25.8732 41.4979 26.8827C40.4885 27.8922 39.1198 28.46 37.6922 28.4616ZM37.6922 19.2308C36.9315 19.2308 36.1879 19.4564 35.5554 19.879C34.9229 20.3017 34.43 20.9023 34.1389 21.6051C33.8477 22.3079 33.7716 23.0813 33.92 23.8273C34.0684 24.5734 34.4347 25.2587 34.9726 25.7966C35.5105 26.3345 36.1958 26.7008 36.9419 26.8493C37.688 26.9977 38.4613 26.9215 39.1641 26.6304C39.8669 26.3393 40.4676 25.8463 40.8902 25.2138C41.3128 24.5813 41.5384 23.8377 41.5384 23.077C41.5372 22.0573 41.1316 21.0797 40.4105 20.3587C39.6895 19.6377 38.7119 19.2321 37.6922 19.2308Z" fill="#4F5B5E"/>
<path d="M8.46154 37.6921C2.17077 37.6921 0.405385 36.109 0.225385 35.9282C0.0811159 35.784 4.35672e-05 35.5884 0 35.3844V32.3075C0.00162874 30.8799 0.569458 29.5112 1.57892 28.5018C2.58837 27.4923 3.95703 26.9245 5.38462 26.9229H11.5385C12.427 26.922 13.3019 27.1414 14.0849 27.5614C14.8679 27.9815 15.5346 28.589 16.0254 29.3298L14.7438 30.1813C14.3933 29.6521 13.917 29.218 13.3576 28.9179C12.7983 28.6177 12.1733 28.4609 11.5385 28.4613H5.38462C4.36493 28.4625 3.38735 28.8681 2.66632 29.5892C1.94529 30.3102 1.53968 31.2878 1.53846 32.3075V34.9882C2.13615 35.3313 4.02923 36.1536 8.46154 36.1536C9.9598 36.1716 11.4565 36.0503 12.9323 35.7913L13.2215 37.3021C11.6505 37.58 10.0569 37.7106 8.46154 37.6921Z" fill="#4F5B5E"/>
<path d="M8.46177 28.4616C7.39679 28.4616 6.35573 28.1458 5.47023 27.5541C4.58474 26.9625 3.89458 26.1215 3.48703 25.1376C3.07948 24.1537 2.97285 23.071 3.18061 22.0265C3.38838 20.982 3.90122 20.0226 4.65427 19.2695C5.40732 18.5165 6.36677 18.0036 7.41128 17.7958C8.45579 17.5881 9.53846 17.6947 10.5224 18.1023C11.5063 18.5098 12.3472 19.2 12.9389 20.0855C13.5306 20.971 13.8464 22.012 13.8464 23.077C13.8448 24.5046 13.2769 25.8732 12.2675 26.8827C11.258 27.8922 9.88936 28.46 8.46177 28.4616ZM8.46177 19.2308C7.70107 19.2308 6.95745 19.4564 6.32496 19.879C5.69246 20.3017 5.19949 20.9023 4.90838 21.6051C4.61728 22.3079 4.54111 23.0813 4.68951 23.8273C4.83792 24.5734 5.20423 25.2587 5.74213 25.7966C6.28002 26.3345 6.96534 26.7008 7.71142 26.8493C8.4575 26.9977 9.23083 26.9215 9.93363 26.6304C10.6364 26.3393 11.2371 25.8463 11.6597 25.2138C12.0823 24.5813 12.3079 23.8377 12.3079 23.077C12.3067 22.0573 11.9011 21.0797 11.1801 20.3587C10.459 19.6377 9.48145 19.2321 8.46177 19.2308Z" fill="#4F5B5E"/>
</svg>
