<svg width="46" height="40" viewBox="0 0 46 40" fill="none" xmlns="http://www.w3.org/2000/svg">
<path d="M17.8875 29.0988C17.7163 29.0988 17.5438 29.0399 17.403 28.92L12.5595 24.7958C12.3925 24.6534 12.2964 24.4454 12.2964 24.2257C12.2964 24.0064 12.3929 23.7984 12.5595 23.656L17.403 19.5317C17.7175 19.2636 18.1899 19.3016 18.4581 19.6161C18.7258 19.9311 18.6882 20.4035 18.3733 20.6712L14.1994 24.2257L18.3733 27.7802C18.6882 28.0483 18.7258 28.5207 18.4581 28.8353C18.3098 29.0094 18.0993 29.0988 17.8875 29.0988Z" fill="#FF725E"/>
<path d="M27.4495 29.0988C27.2378 29.0988 27.0273 29.0094 26.8794 28.8353C26.6113 28.5207 26.6493 28.0483 26.9638 27.7802L31.1377 24.2257L26.9638 20.6712C26.6493 20.4035 26.6113 19.9311 26.8794 19.6161C27.1471 19.3016 27.62 19.2636 27.9341 19.5317L32.7775 23.656C32.9446 23.7984 33.0407 24.0064 33.0407 24.2257C33.0407 24.4454 32.9446 24.6534 32.7775 24.7958L27.9341 28.92C27.7933 29.0399 27.6208 29.0988 27.4495 29.0988Z" fill="#FF725E"/>
<path d="M20.9543 32.1921C20.9029 32.1921 20.8511 32.1867 20.7989 32.1759C20.3946 32.0906 20.1356 31.6934 20.2208 31.2891L23.2394 16.9571C23.3246 16.5528 23.7214 16.2938 24.1262 16.379C24.5305 16.4642 24.7894 16.861 24.7042 17.2658L21.6856 31.5978C21.6113 31.9503 21.3005 32.1921 20.9543 32.1921Z" fill="#FF725E"/>
<path d="M40.3116 40H5.02558C2.25466 40 0 37.7458 0 34.9744V5.02558C0 2.25466 2.25466 0 5.02558 0H40.3116C43.0825 0 45.3372 2.25466 45.3372 5.02558V34.9744C45.3372 37.7458 43.0825 40 40.3116 40ZM5.02558 1.49698C3.08001 1.49698 1.49698 3.08001 1.49698 5.02558V34.9744C1.49698 36.92 3.08001 38.503 5.02558 38.503H40.3116C42.2572 38.503 43.8402 36.92 43.8402 34.9744V5.02558C43.8402 3.08001 42.2572 1.49698 40.3116 1.49698H5.02558Z" fill="#4F5B5E"/>
<path d="M44.5887 11.9858H0.748491C0.334983 11.9858 0 11.6508 0 11.2373C0 10.8242 0.334983 10.4888 0.748491 10.4888H44.5887C45.0022 10.4888 45.3372 10.8242 45.3372 11.2373C45.3372 11.6508 45.0022 11.9858 44.5887 11.9858Z" fill="#4F5B5E"/>
<path d="M12.7886 8.40389C11.4829 8.40389 10.4199 7.34088 10.4199 6.03519C10.4199 4.72909 11.4829 3.6665 12.7886 3.6665C14.0947 3.6665 15.1573 4.72909 15.1573 6.03519C15.1573 7.34088 14.0947 8.40389 12.7886 8.40389ZM12.7886 5.16349C12.3083 5.16349 11.9169 5.55444 11.9169 6.03519C11.9169 6.51595 12.3083 6.9069 12.7886 6.9069C13.2694 6.9069 13.6603 6.51595 13.6603 6.03519C13.6603 5.55444 13.2694 5.16349 12.7886 5.16349Z" fill="#FF725E"/>
<path d="M5.51127 8.38094C4.20517 8.38094 3.14258 7.31835 3.14258 6.01225C3.14258 4.70615 4.20517 3.64355 5.51127 3.64355C6.81737 3.64355 7.87996 4.70615 7.87996 6.01225C7.87996 7.31835 6.81737 8.38094 5.51127 8.38094ZM5.51127 5.14054C5.03093 5.14054 4.63956 5.53191 4.63956 6.01225C4.63956 6.493 5.03093 6.88395 5.51127 6.88395C5.99202 6.88395 6.38298 6.493 6.38298 6.01225C6.38298 5.53191 5.99202 5.14054 5.51127 5.14054Z" fill="#FF725E"/>
<path d="M20.066 8.4269C18.7603 8.4269 17.6978 7.36431 17.6978 6.05821C17.6978 4.75253 18.7603 3.68994 20.066 3.68994C21.3721 3.68994 22.4347 4.75253 22.4347 6.05821C22.4347 7.36431 21.3721 8.4269 20.066 8.4269ZM20.066 5.18651C19.5857 5.18651 19.1947 5.57746 19.1947 6.05821C19.1947 6.53897 19.5857 6.92992 20.066 6.92992C20.5468 6.92992 20.9377 6.53897 20.9377 6.05821C20.9377 5.57746 20.5468 5.18651 20.066 5.18651Z" fill="#FF725E"/>
</svg>
