<svg width="36" height="35" viewBox="0 0 36 35" fill="none" xmlns="http://www.w3.org/2000/svg">
<g clip-path="url(#clip0_608_3549)">
<path d="M25.1048 35C12.9415 34.8587 -2.29165 19.2362 0.981039 6.93594C1.644 3.32993 8.0371 -2.89114 12.194 1.52546C13.8467 3.27642 15.9752 4.63999 15.9205 7.34759C15.9324 9.0557 15.1166 10.3764 13.8812 11.4825C12.4823 12.8815 12.3528 15.1067 13.5801 16.6584C15.0912 18.5708 16.8989 20.3782 18.8115 21.8899C20.3633 23.117 22.5883 22.9877 23.9873 21.5887L24.5536 21.0226C25.5034 20.0727 26.7708 19.5494 28.1224 19.5494C30.8267 19.4929 32.1986 21.6273 33.9447 23.2759C38.3546 27.4702 32.1556 33.8017 28.5341 34.4889C27.4777 34.8301 26.3278 35 25.1048 35ZM8.74735 1.50283C6.2262 1.40387 2.86377 5.06292 2.45704 7.22682C-0.192054 17.3105 10.3536 28.9133 19.426 32.3464C23.8427 33.9258 27.8933 34.1495 31.2283 31.3447C33.4515 29.4414 35.1674 26.6197 32.8815 24.3392C32.8814 24.3392 30.628 22.0859 30.628 22.0859C29.3167 20.7178 26.9278 20.7182 25.6168 22.086C25.6168 22.0859 25.0505 22.6521 25.0505 22.6521C23.1121 24.5905 20.0288 24.7698 17.8787 23.0693C16.8771 22.2771 15.9025 21.4087 14.982 20.488C14.0609 19.567 13.1924 18.5924 12.4007 17.5912C10.7001 15.4411 10.8795 12.358 12.8179 10.4194L13.3841 9.85323C14.7522 8.5431 14.7518 6.15229 13.3841 4.84202C13.3842 4.84202 11.1306 2.58858 11.1306 2.58858C10.4051 1.86295 9.61808 1.50283 8.74735 1.50283Z" fill="#4F5B5E"/>
<path d="M28.6686 13.9296C28.3217 13.9296 28.0099 13.6882 27.9342 13.3353C27.6284 11.9094 26.9217 10.6107 25.8905 9.57966C24.8439 8.53294 23.5242 7.82179 22.0744 7.52312C21.6678 7.43933 21.406 7.04176 21.4897 6.6351C21.5736 6.22844 21.9711 5.96668 22.3777 6.05047C24.1163 6.40853 25.6987 7.26129 26.9537 8.5164C28.1902 9.75285 29.0377 11.3101 29.4044 13.0201C29.4915 13.426 29.233 13.8257 28.827 13.9128C28.7739 13.9241 28.7208 13.9296 28.6686 13.9296Z" fill="#FF725E"/>
<path d="M32.9155 18.1536C32.8664 18.1536 32.8166 18.1488 32.7667 18.1388C32.3596 18.057 32.0959 17.6607 32.1776 17.2537C32.9607 13.3537 31.7489 9.34623 28.9363 6.53344C26.1184 3.7156 22.1043 2.50512 18.1984 3.29568C17.7914 3.37845 17.3948 3.1149 17.3124 2.7079C17.2301 2.30097 17.4932 1.90429 17.9002 1.82193C22.3014 0.931108 26.8244 2.29502 29.9995 5.47018C33.1688 8.6396 34.5342 13.1552 33.6518 17.5495C33.5801 17.9068 33.2662 18.1536 32.9155 18.1536Z" fill="#FF725E"/>
</g>
<defs>
<clipPath id="clip0_608_3549">
<rect width="35" height="35" fill="white" transform="translate(0.5)"/>
</clipPath>
</defs>
</svg>
