<svg width="38" height="37" viewBox="0 0 38 37" fill="none" xmlns="http://www.w3.org/2000/svg">
<path d="M22.1268 8.64788V8.64792C22.0879 11.3674 23.4289 13.8762 25.7132 15.3562L25.7205 15.3609C25.8339 15.4344 25.9013 15.4781 25.986 15.5741C26.0758 15.6759 26.1855 15.8377 26.3724 16.1522C26.5898 16.5181 26.9061 17.0811 27.4102 17.9782C27.7711 18.6204 28.2281 19.4337 28.814 20.4686L28.814 20.4686C28.8511 20.5341 28.8925 20.5945 28.9373 20.6503L24.9805 24.4621C23.4665 23.0409 21.036 23.3109 19.8711 25.0394L14.5368 21.8646C14.4982 20.0347 12.9972 18.5573 11.1579 18.5573C8.23413 18.5573 6.71789 22.0222 8.62679 24.1732L5.13409 29.4506C3.01052 28.8915 0.9 30.4995 0.9 32.7206C0.9 34.5838 2.41533 36.1 4.27883 36.1C7.49784 36.1 8.87012 32.0153 6.36035 30.0602L9.71482 24.9925C11.4211 25.8051 13.4966 25.0406 14.2583 23.2806L19.3489 26.3106C18.962 28.3767 20.5568 30.3071 22.6715 30.3071C25.1067 30.3071 26.7378 27.7965 25.7727 25.5851C27.0818 24.3239 28.0238 23.417 28.7021 22.7638C29.3032 22.1851 29.6972 21.8057 29.9563 21.5557C30.2336 21.2882 30.3571 21.1682 30.4144 21.1108C30.441 21.0842 30.4563 21.068 30.4664 21.0556C30.7375 20.9506 30.9797 20.7549 31.1415 20.4686C31.726 19.436 32.1823 18.6239 32.5428 17.9824C33.0479 17.0836 33.3648 16.5196 33.5826 16.153C33.7697 15.8383 33.8797 15.6762 33.9697 15.5741C34.0549 15.4776 34.1228 15.4336 34.237 15.3597L34.2436 15.3554L34.2437 15.3554C36.4886 13.8997 37.8287 11.435 37.8287 8.76311C37.8287 6.64593 36.9983 4.65988 35.4905 3.17275L35.4203 3.24394L35.4905 3.17273C30.5076 -1.73998 22.2264 1.87139 22.1268 8.64788ZM9.50405 23.0959L9.50395 23.0958C8.57078 21.7726 9.51884 19.916 11.1579 19.916C12.2775 19.916 13.1789 20.8289 13.1789 21.937C13.1789 23.8966 10.6401 24.7127 9.50405 23.0959ZM20.6511 26.9219L20.6518 26.922L20.6519 26.9101C20.6639 25.1384 22.8079 24.2452 24.076 25.4772L24.0763 25.4775C25.3706 26.7262 24.4907 28.9486 22.6715 28.9486C22.0046 28.9486 21.4755 28.6353 21.1239 28.2217C20.7696 27.805 20.6042 27.2973 20.6511 26.9219ZM33.5439 14.276L33.5439 14.276C33.1572 14.527 32.8345 14.8674 32.6112 15.262C31.9423 16.4436 31.4453 17.3256 31.0744 17.9838C30.6713 18.6992 30.417 19.1503 30.253 19.4346C30.0954 19.7076 30.0257 19.8178 29.9895 19.8613C29.9859 19.861 29.9819 19.8609 29.9779 19.8609C29.9737 19.8609 29.9696 19.8611 29.9658 19.8613C29.9298 19.8179 29.8605 19.7082 29.7042 19.4375C29.5404 19.1537 29.2861 18.7025 28.8825 17.9862C28.5114 17.3277 28.0139 16.4449 27.3443 15.262C27.121 14.8675 26.7992 14.527 26.4121 14.2765C24.5013 13.0381 23.38 10.9416 23.4129 8.66676C23.4954 2.9385 30.4733 0.0333183 34.5876 4.08857C37.5773 7.03744 37.0668 11.9919 33.5439 14.276ZM6.2998 32.7206C6.2998 33.8347 5.39295 34.7416 4.27883 34.7416C3.16476 34.7416 2.2587 33.8348 2.2587 32.7206C2.2587 31.6062 3.16475 30.6996 4.27883 30.6996C5.39296 30.6996 6.2998 31.6062 6.2998 32.7206Z" fill="#4F5B5E" stroke="#4F5B5E" stroke-width="0.2"/>
<circle cx="5.0502" cy="5.0502" r="4.3002" transform="matrix(-1 0 0 1 34.9741 3.81201)" stroke="#FF725E" stroke-width="1.5"/>
</svg>
