<svg width="55" height="35" viewBox="0 0 55 35" fill="none" xmlns="http://www.w3.org/2000/svg">
<path d="M55 28.75V32.5C55 33.1903 54.4403 33.75 53.75 33.75C53.0597 33.75 52.5 33.1903 52.5 32.5V28.75C52.5 26.6821 50.8179 25 48.75 25H41.25C40.3351 25 39.4537 25.3333 38.7683 25.9387C38.2489 26.3965 37.4615 26.347 37.0038 25.8295C36.5466 25.3119 36.5961 24.5221 37.113 24.0649C38.2562 23.056 39.7253 22.5 41.25 22.5H48.75C52.196 22.5 55 25.304 55 28.75ZM38.75 13.75C38.75 10.304 41.554 7.5 45 7.5C48.446 7.5 51.25 10.304 51.25 13.75C51.25 17.196 48.446 20 45 20C41.554 20 38.75 17.196 38.75 13.75ZM41.25 13.75C41.25 15.8179 42.9321 17.5 45 17.5C47.0679 17.5 48.75 15.8179 48.75 13.75C48.75 11.6821 47.0679 10 45 10C42.9321 10 41.25 11.6821 41.25 13.75ZM13.75 22.5H6.25C2.80396 22.5 0 25.304 0 28.75V32.5C0 33.1903 0.559692 33.75 1.25 33.75C1.94031 33.75 2.5 33.1903 2.5 32.5V28.75C2.5 26.6821 4.18213 25 6.25 25H13.75C14.6649 25 15.5463 25.3333 16.2317 25.9387C16.7499 26.3959 17.5378 26.3477 17.9962 25.8295C18.4534 25.3119 18.4039 24.5221 17.887 24.0649C16.7438 23.056 15.2747 22.5 13.75 22.5ZM3.75 13.75C3.75 10.304 6.55396 7.5 10 7.5C13.446 7.5 16.25 10.304 16.25 13.75C16.25 17.196 13.446 20 10 20C6.55396 20 3.75 17.196 3.75 13.75ZM6.25 13.75C6.25 15.8179 7.93213 17.5 10 17.5C12.0679 17.5 13.75 15.8179 13.75 13.75C13.75 11.6821 12.0679 10 10 10C7.93213 10 6.25 11.6821 6.25 13.75Z" fill="#4F5B5E"/>
<path d="M41.25 31.25V32.5C41.25 33.1903 40.6903 33.75 40 33.75C39.3097 33.75 38.75 33.1903 38.75 32.5V31.25C38.75 26.4252 34.8248 22.5 30 22.5H25C20.1752 22.5 16.25 26.4252 16.25 31.25V32.5C16.25 33.1903 15.6903 33.75 15 33.75C14.3097 33.75 13.75 33.1903 13.75 32.5V31.25C13.75 25.047 18.797 20 25 20H30C36.203 20 41.25 25.047 41.25 31.25ZM18.75 8.75C18.75 3.92517 22.6752 0 27.5 0C32.3248 0 36.25 3.92517 36.25 8.75C36.25 13.5748 32.3248 17.5 27.5 17.5C22.6752 17.5 18.75 13.5748 18.75 8.75ZM21.25 8.75C21.25 12.196 24.054 15 27.5 15C30.946 15 33.75 12.196 33.75 8.75C33.75 5.30396 30.946 2.5 27.5 2.5C24.054 2.5 21.25 5.30396 21.25 8.75ZM27.5 31.25C26.8097 31.25 26.25 31.8097 26.25 32.5V33.75C26.25 34.4403 26.8097 35 27.5 35C28.1903 35 28.75 34.4403 28.75 33.75V32.5C28.75 31.8097 28.1903 31.25 27.5 31.25ZM27.5 25C26.8097 25 26.25 25.5597 26.25 26.25V27.5C26.25 28.1903 26.8097 28.75 27.5 28.75C28.1903 28.75 28.75 28.1903 28.75 27.5V26.25C28.75 25.5597 28.1903 25 27.5 25Z" fill="#FF725E"/>
</svg>
