<svg width="112" height="112" viewBox="0 0 112 112" fill="none" xmlns="http://www.w3.org/2000/svg">
<g filter="url(#filter0_d_608_3434)">
<rect x="16" y="8" width="80" height="80" rx="10" fill="white"/>
</g>
<g clip-path="url(#clip0_608_3434)">
<path d="M77 38.7188C77 38.25 76.9062 37.875 76.9062 37.4062C76.9062 36.4688 76.8125 35.5312 76.7188 34.6875C76.5312 33.75 76.25 32.8125 75.875 32.0625C74.9375 30.375 73.625 29.0625 71.9375 28.125C71.1875 27.75 70.25 27.4688 69.3125 27.2812C68.4688 27.1875 67.5312 27.0938 66.5938 27.0938C66.125 27.0938 65.75 27.0938 65.2812 27H46.625C46.1562 27 45.7812 27.0938 45.3125 27.0938C45.125 27.0938 44.8438 27.0938 44.6562 27.0938C43.9062 27.0938 43.25 27.1875 42.5938 27.2812C41.8438 27.4688 41.1875 27.6562 40.5312 27.8438C40.3438 27.9375 40.1562 28.0312 39.9688 28.125C39.3125 28.5 38.75 28.875 38.1875 29.3438C38 29.4375 37.9062 29.625 37.7188 29.8125C37.0625 30.4688 36.5 31.2188 36.125 32.0625C35.6562 32.8125 35.375 33.75 35.1875 34.6875C35.0938 35.5312 35 36.4688 35 37.4062C35 37.875 35 38.25 35 38.7188V57.375C35 57.8438 35 58.2188 35 58.6875C35 59.625 35.0938 60.5625 35.1875 61.4062C35.375 62.3438 35.6562 63.2812 36.125 64.0312C36.9688 65.7188 38.2812 67.0312 39.9688 67.875C40.7188 68.3438 41.6562 68.625 42.5938 68.8125C43.4375 68.9062 44.375 69 45.3125 69C45.7812 69 46.1562 69 46.625 69H65.2812C65.75 69 66.125 69 66.5938 69C67.5312 69 68.4688 68.9062 69.3125 68.8125C70.25 68.625 71.1875 68.3438 71.9375 67.875C73.625 67.0312 74.9375 65.7188 75.875 64.0312C76.25 63.2812 76.5312 62.3438 76.7188 61.4062C76.8125 60.5625 76.9062 59.625 76.9062 58.6875C76.9062 58.2188 76.9062 57.8438 77 57.375V40.2188C77 39.6562 77 39.1875 77 38.7188ZM70.4375 61.3125C68.5625 57.6562 65 58.5 63.2188 59.4375C63.125 59.5312 62.9375 59.625 62.75 59.7188C59 61.6875 54.0312 61.875 49.0625 59.7188C44.9375 57.9375 41.5625 55.0312 39.2188 51.2812C40.3438 52.125 41.5625 52.7812 42.875 53.4375C48.125 55.875 53.4688 55.6875 57.2188 53.4375C51.875 49.3125 47.375 43.9688 44 39.6562C43.3438 38.9062 42.6875 38.0625 42.2188 37.2188C46.3438 40.9688 52.8125 45.6562 55.0625 46.9688C50.1875 41.7188 45.7812 35.3438 46.0625 35.5312C53.75 43.4062 60.9688 47.8125 60.9688 47.8125C61.25 47.9062 61.4375 48.0938 61.5312 48.1875C61.7188 47.8125 61.8125 47.4375 62 46.9688C63.2188 42.4688 61.8125 37.3125 58.625 33C65.8438 37.3125 70.1562 45.5625 68.375 52.5C68.2812 52.6875 68.2812 52.7812 68.1875 52.9688C71.8438 57.375 70.9062 62.1562 70.4375 61.3125Z" fill="#FF725E"/>
</g>
<path d="M43.7452 108.098C43.1012 108.098 42.5226 107.986 42.0092 107.762C41.5052 107.529 41.1086 107.211 40.8192 106.81C40.5299 106.399 40.3806 105.928 40.3712 105.396H41.7292C41.7759 105.853 41.9626 106.241 42.2892 106.558C42.6252 106.866 43.1106 107.02 43.7452 107.02C44.3519 107.02 44.8279 106.871 45.1732 106.572C45.5279 106.264 45.7052 105.872 45.7052 105.396C45.7052 105.023 45.6026 104.719 45.3972 104.486C45.1919 104.253 44.9352 104.075 44.6272 103.954C44.3192 103.833 43.9039 103.702 43.3812 103.562C42.7372 103.394 42.2192 103.226 41.8272 103.058C41.4446 102.89 41.1132 102.629 40.8332 102.274C40.5626 101.91 40.4272 101.425 40.4272 100.818C40.4272 100.286 40.5626 99.8147 40.8332 99.404C41.1039 98.9933 41.4819 98.676 41.9672 98.452C42.4619 98.228 43.0266 98.116 43.6612 98.116C44.5759 98.116 45.3226 98.3447 45.9012 98.802C46.4892 99.2593 46.8206 99.866 46.8952 100.622H45.4952C45.4486 100.249 45.2526 99.922 44.9072 99.642C44.5619 99.3527 44.1046 99.208 43.5352 99.208C43.0032 99.208 42.5692 99.348 42.2332 99.628C41.8972 99.8987 41.7292 100.281 41.7292 100.776C41.7292 101.131 41.8272 101.42 42.0232 101.644C42.2286 101.868 42.4759 102.041 42.7652 102.162C43.0639 102.274 43.4792 102.405 44.0112 102.554C44.6552 102.731 45.1732 102.909 45.5652 103.086C45.9572 103.254 46.2932 103.52 46.5732 103.884C46.8532 104.239 46.9932 104.724 46.9932 105.34C46.9932 105.816 46.8672 106.264 46.6152 106.684C46.3632 107.104 45.9899 107.445 45.4952 107.706C45.0006 107.967 44.4172 108.098 43.7452 108.098ZM59.088 100.328L56.694 108H55.378L53.53 101.91L51.682 108H50.366L47.958 100.328H49.26L51.024 106.768L52.928 100.328H54.23L56.092 106.782L57.828 100.328H59.088ZM61.0104 99.082C60.7677 99.082 60.5624 98.998 60.3944 98.83C60.2264 98.662 60.1424 98.4567 60.1424 98.214C60.1424 97.9713 60.2264 97.766 60.3944 97.598C60.5624 97.43 60.7677 97.346 61.0104 97.346C61.2437 97.346 61.4397 97.43 61.5984 97.598C61.7664 97.766 61.8504 97.9713 61.8504 98.214C61.8504 98.4567 61.7664 98.662 61.5984 98.83C61.4397 98.998 61.2437 99.082 61.0104 99.082ZM61.6264 100.328V108H60.3524V100.328H61.6264ZM66.9197 101.378H65.3097V108H64.0357V101.378H63.0417V100.328H64.0357V99.782C64.0357 98.9233 64.2551 98.298 64.6937 97.906C65.1417 97.5047 65.8557 97.304 66.8357 97.304V98.368C66.2757 98.368 65.8791 98.48 65.6457 98.704C65.4217 98.9187 65.3097 99.278 65.3097 99.782V100.328H66.9197V101.378ZM69.9591 101.378V105.9C69.9591 106.273 70.0385 106.539 70.1971 106.698C70.3558 106.847 70.6311 106.922 71.0231 106.922H71.9611V108H70.8131C70.1038 108 69.5718 107.837 69.2171 107.51C68.8625 107.183 68.6851 106.647 68.6851 105.9V101.378H67.6911V100.328H68.6851V98.396H69.9591V100.328H71.9611V101.378H69.9591Z" fill="#4F5B5E"/>
<defs>
<filter id="filter0_d_608_3434" x="0" y="0" width="112" height="112" filterUnits="userSpaceOnUse" color-interpolation-filters="sRGB">
<feFlood flood-opacity="0" result="BackgroundImageFix"/>
<feColorMatrix in="SourceAlpha" type="matrix" values="0 0 0 0 0 0 0 0 0 0 0 0 0 0 0 0 0 0 127 0" result="hardAlpha"/>
<feOffset dy="8"/>
<feGaussianBlur stdDeviation="8"/>
<feComposite in2="hardAlpha" operator="out"/>
<feColorMatrix type="matrix" values="0 0 0 0 1 0 0 0 0 0.736905 0 0 0 0 0.716667 0 0 0 0.6 0"/>
<feBlend mode="normal" in2="BackgroundImageFix" result="effect1_dropShadow_608_3434"/>
<feBlend mode="normal" in="SourceGraphic" in2="effect1_dropShadow_608_3434" result="shape"/>
</filter>
<clipPath id="clip0_608_3434">
<rect width="42" height="42" fill="white" transform="translate(35 27)"/>
</clipPath>
</defs>
</svg>
