<svg width="33" height="40" viewBox="0 0 33 40" fill="none" xmlns="http://www.w3.org/2000/svg">
<g clip-path="url(#clip0_608_3035)">
<path d="M16.2587 40C16.1663 40 16.0831 39.9723 16.0092 39.9261L0.221709 30.3741C0.0831409 30.291 0 30.1432 0 29.9769V25.8199C0 25.6628 0.0923788 25.5058 0.230947 25.4226L2.66051 23.9538L0.221709 22.4757C0.0831409 22.3926 0 22.2356 0 22.0785V17.9215C0 17.7644 0.0923788 17.6074 0.230947 17.5242L2.66051 16.0554L0.221709 14.5774C0.0831409 14.4942 0 14.3464 0 14.1801V10.0231C0 9.85681 0.0923788 9.709 0.230947 9.62586L16.0185 0.0646607C16.1663 -0.0277181 16.351 -0.0277181 16.4988 0.0646607C16.4988 0.0646607 32.2679 9.60739 32.2864 9.62586C32.4249 9.709 32.5173 9.85681 32.5173 10.0231V14.1801C32.5173 14.3464 32.4342 14.4942 32.2956 14.5774L29.8568 16.0554L32.2864 17.5242C32.4249 17.6074 32.5173 17.7552 32.5173 17.9215V22.0785C32.5173 22.2356 32.4342 22.3926 32.2956 22.4757L29.8568 23.9538L32.2864 25.4226C32.4249 25.5058 32.5173 25.6536 32.5173 25.8199V29.9769C32.5173 30.1339 32.4342 30.291 32.2956 30.3741L16.5081 39.9261C16.4342 39.9723 16.351 40 16.2587 40Z" fill="#4F5B5E"/>
<path d="M16.7207 35.6397V38.7159L31.5937 29.7182V26.642L16.7207 35.6397Z" fill="white"/>
<path d="M0.923828 29.7182L15.7968 38.7159V35.6397L0.923828 26.642V29.7182Z" fill="#FF725E"/>
<path d="M1.35791 25.8199L16.2586 34.8453L31.1593 25.8199L28.9607 24.4896L16.4988 32.0277C16.4249 32.0739 16.3417 32.1016 16.2494 32.1016C16.157 32.1016 16.0738 32.0739 15.9999 32.0277L3.55652 24.4896L1.35791 25.8199Z" fill="white"/>
<path d="M16.7207 27.7413V30.8176L31.5937 21.8199V18.7437L16.7207 27.7413Z" fill="#FF725E"/>
<path d="M0.923828 21.8199L15.7968 30.8176V27.7413L0.923828 18.7437V21.8199Z" fill="white"/>
<path d="M1.35791 17.9215L16.2586 26.9469L31.1593 17.9215L28.9607 16.5912L16.4988 24.1293C16.4249 24.1755 16.3417 24.2032 16.2494 24.2032C16.157 24.2032 16.0738 24.1755 15.9999 24.1293L3.55652 16.5912L1.35791 17.9215Z" fill="white"/>
<path d="M16.7207 19.843V22.9192L31.5937 13.9215V10.8453L16.7207 19.843Z" fill="white"/>
<path d="M0.923828 13.9215L15.7968 22.9192V19.843L0.923828 10.8453V13.9215Z" fill="#FF725E"/>
<path d="M1.35791 10.0231L16.2586 19.0485L31.1593 10.0231L16.2586 0.997696L1.35791 10.0231Z" fill="white"/>
</g>
<defs>
<clipPath id="clip0_608_3035">
<rect width="32.5173" height="40" fill="white"/>
</clipPath>
</defs>
</svg>
