<svg width="45" height="40" viewBox="0 0 45 40" fill="none" xmlns="http://www.w3.org/2000/svg">
<g clip-path="url(#clip0_608_2986)">
<path d="M44.62 18.2175C44.5851 17.9908 44.4369 17.7904 44.219 17.7032L33.0183 13.0835V4.75049C33.0183 3.382 31.859 2.15297 29.7496 1.27261C28.9652 0.950098 28.4683 2.15297 29.2441 2.47548C30.7869 3.12051 31.7109 3.96601 31.7109 4.75049C31.7109 6.38048 27.893 8.19351 22.4278 8.19351C16.9625 8.19351 13.136 6.37176 13.136 4.75049C13.136 3.12922 16.9538 1.30747 22.4278 1.30747C23.683 1.30747 24.9033 1.40336 26.0538 1.59512C26.8906 1.73458 27.0998 0.444541 26.2718 0.305077C25.0514 0.104598 23.7614 0 22.4365 0C19.6995 0 17.1107 0.444541 15.1582 1.24646C13.0227 2.12683 11.846 3.37328 11.846 4.74177V20.3356L7.81022 25.1122C7.26108 25.7572 8.26348 26.6027 8.81262 25.9577L11.846 22.3578V38.3787L1.73482 34.3343L6.57248 28.5988C7.12162 27.9538 6.11922 27.1083 5.57008 27.7533L0.14842 34.1774C-0.113075 34.6045 -0.0346263 34.9531 0.401198 35.2059L12.2382 39.9564C12.3951 40.0174 12.5694 40.0174 12.7263 39.9564L24.3105 35.3105L32.0072 38.4833C32.1641 38.5443 32.3472 38.5443 32.5041 38.4833L44.219 33.6544C44.4631 33.5498 44.62 33.3144 44.62 33.053V18.3046C44.6287 18.2785 44.6287 18.2436 44.62 18.2175Z" fill="#4F5B5E"/>
<path d="M24.7202 34.0641L21.1987 29.8889V19.2809L31.6062 23.5694V36.8969L24.7202 34.0641Z" fill="white"/>
<path d="M32.2595 14.1817L42.2574 18.3046L32.2595 22.4101L22.2617 18.3046L32.2595 14.1817Z" fill="#FF725E"/>
<path d="M15.1493 8.24581C17.1018 9.04772 19.6906 9.49227 22.4276 9.49227C25.4697 9.49227 29.2613 9.10002 31.7107 7.09523V12.9963L20.2921 17.7032C20.048 17.7991 19.8911 18.0519 19.8911 18.3046V28.3373L13.1445 20.3356V7.09523C13.6588 7.52234 14.33 7.91458 15.1493 8.24581Z" fill="white"/>
<path d="M13.1357 38.3874V22.3665L23.2294 34.3343L13.1357 38.3874Z" fill="#FF725E"/>
<path d="M32.9136 36.8969V23.5694L43.3211 19.2809V32.6171L32.9136 36.8969Z" fill="white"/>
</g>
<defs>
<clipPath id="clip0_608_2986">
<rect width="44.6285" height="40" fill="white"/>
</clipPath>
</defs>
</svg>
