<svg width="40" height="40" viewBox="0 0 40 40" fill="none" xmlns="http://www.w3.org/2000/svg">
<path d="M2.45223 32.4833L3.23486 32.0619C3.33865 32.006 3.41599 31.9112 3.44986 31.7983C3.48374 31.6854 3.47137 31.5637 3.41549 31.4599C3.35961 31.3561 3.26478 31.2788 3.15188 31.2449C3.03897 31.211 2.91724 31.2234 2.81345 31.2793L2.03081 31.7007C1.92758 31.7569 1.85081 31.8517 1.81729 31.9643C1.78377 32.077 1.79623 32.1983 1.85195 32.3018C1.90767 32.4053 2.00211 32.4825 2.11461 32.5165C2.2271 32.5505 2.3485 32.5386 2.45223 32.4833Z" fill="#FF725E"/>
<path d="M5.58371 30.7982L6.36635 30.3768C6.41774 30.3491 6.46318 30.3116 6.50007 30.2664C6.53696 30.2212 6.56458 30.1691 6.58135 30.1132C6.59812 30.0573 6.60372 29.9986 6.59782 29.9406C6.59192 29.8825 6.57465 29.8262 6.54698 29.7748C6.5193 29.7234 6.48178 29.6779 6.43655 29.641C6.39132 29.6042 6.33927 29.5765 6.28336 29.5598C6.22746 29.543 6.1688 29.5374 6.11073 29.5433C6.05266 29.5492 5.99633 29.5665 5.94494 29.5941L5.1623 30.0156C5.05918 30.0718 4.98252 30.1666 4.94907 30.2792C4.91562 30.3918 4.9281 30.5131 4.98379 30.6165C5.03948 30.7199 5.13384 30.7971 5.24625 30.8311C5.35867 30.8652 5.48 30.8533 5.58371 30.7982Z" fill="#FF725E"/>
<path d="M8.71278 29.1121L9.49541 28.6906C9.54712 28.6631 9.59289 28.6257 9.63009 28.5805C9.66729 28.5352 9.69518 28.4831 9.71216 28.427C9.72914 28.371 9.73487 28.3121 9.72903 28.2538C9.72319 28.1956 9.70589 28.139 9.67812 28.0875C9.65036 28.0359 9.61268 27.9903 9.56724 27.9534C9.5218 27.9164 9.46951 27.8888 9.41337 27.8721C9.35723 27.8555 9.29835 27.85 9.2401 27.8562C9.18186 27.8623 9.12541 27.8799 9.074 27.908L8.29136 28.3294C8.23997 28.3571 8.19454 28.3946 8.15765 28.4398C8.12076 28.4851 8.09314 28.5371 8.07636 28.593C8.05959 28.6489 8.05399 28.7076 8.05989 28.7656C8.06579 28.8237 8.08307 28.8801 8.11074 28.9314C8.13841 28.9828 8.17593 29.0283 8.22116 29.0652C8.26639 29.1021 8.31844 29.1297 8.37435 29.1464C8.43025 29.1632 8.48891 29.1688 8.54698 29.1629C8.60505 29.157 8.66139 29.1397 8.71278 29.1121Z" fill="#FF725E"/>
<path d="M36.766 32.0619L37.5486 32.4833C37.6523 32.5386 37.7737 32.5505 37.8862 32.5165C37.9987 32.4825 38.0932 32.4053 38.1489 32.3018C38.2046 32.1983 38.2171 32.077 38.1835 31.9643C38.15 31.8517 38.0733 31.7569 37.97 31.7007L37.1874 31.2793C37.136 31.2516 37.0797 31.2343 37.0216 31.2284C36.9635 31.2225 36.9049 31.2281 36.849 31.2449C36.7931 31.2617 36.741 31.2893 36.6958 31.3262C36.6505 31.3631 36.613 31.4085 36.5853 31.4599C36.5577 31.5113 36.5404 31.5676 36.5345 31.6257C36.5286 31.6837 36.5342 31.7424 36.551 31.7983C36.5677 31.8542 36.5954 31.9063 36.6323 31.9515C36.6691 31.9967 36.7146 32.0342 36.766 32.0619Z" fill="#FF725E"/>
<path d="M30.5029 28.6906L31.2856 29.1121C31.3893 29.168 31.5111 29.1803 31.624 29.1464C31.7369 29.1126 31.8317 29.0352 31.8876 28.9314C31.9435 28.8277 31.9558 28.7059 31.922 28.593C31.8881 28.4801 31.8108 28.3853 31.707 28.3294L30.9243 27.908C30.8729 27.8799 30.8165 27.8623 30.7582 27.8562C30.7 27.85 30.6411 27.8555 30.585 27.8721C30.5288 27.8888 30.4765 27.9164 30.4311 27.9534C30.3857 27.9903 30.348 28.0359 30.3202 28.0875C30.2924 28.139 30.2751 28.1956 30.2693 28.2539C30.2635 28.3121 30.2692 28.371 30.2862 28.427C30.3032 28.4831 30.331 28.5352 30.3682 28.5805C30.4054 28.6257 30.4512 28.6631 30.5029 28.6906Z" fill="#FF725E"/>
<path d="M33.6341 30.3768L34.4168 30.7982C34.4682 30.8263 34.5246 30.8439 34.5829 30.85C34.6411 30.8562 34.7 30.8507 34.7561 30.8341C34.8123 30.8174 34.8646 30.7898 34.91 30.7528C34.9554 30.7159 34.9931 30.6703 35.0209 30.6187C35.0487 30.5672 35.066 30.5106 35.0718 30.4524C35.0776 30.3941 35.0719 30.3352 35.0549 30.2792C35.038 30.2231 35.0101 30.171 34.9729 30.1257C34.9357 30.0805 34.8899 30.0431 34.8382 30.0156L34.0556 29.5941C33.9518 29.5383 33.83 29.5259 33.7171 29.5598C33.6042 29.5936 33.5094 29.671 33.4535 29.7748C33.3976 29.8786 33.3853 30.0003 33.4191 30.1132C33.453 30.2261 33.5304 30.3209 33.6341 30.3768Z" fill="#FF725E"/>
<path d="M12.8878 27.5555H13.3322C13.4501 27.5555 13.5632 27.5087 13.6465 27.4254C13.7299 27.342 13.7767 27.229 13.7767 27.1111C13.7767 26.9932 13.7299 26.8802 13.6465 26.7968C13.5632 26.7135 13.4501 26.6667 13.3322 26.6667H12.8878C12.7699 26.6667 12.6569 26.7135 12.5735 26.7968C12.4902 26.8802 12.4434 26.9932 12.4434 27.1111C12.4434 27.229 12.4902 27.342 12.5735 27.4254C12.6569 27.5087 12.7699 27.5555 12.8878 27.5555Z" fill="#FF725E"/>
<path d="M16.0001 27.5555H16.889C17.0068 27.5555 17.1199 27.5087 17.2032 27.4254C17.2866 27.342 17.3334 27.229 17.3334 27.1111C17.3334 26.9932 17.2866 26.8802 17.2032 26.7968C17.1199 26.7135 17.0068 26.6667 16.889 26.6667H16.0001C15.8822 26.6667 15.7692 26.7135 15.6858 26.7968C15.6025 26.8802 15.5557 26.9932 15.5557 27.1111C15.5557 27.229 15.6025 27.342 15.6858 27.4254C15.7692 27.5087 15.8822 27.5555 16.0001 27.5555Z" fill="#FF725E"/>
<path d="M19.5548 27.5555H20.4437C20.5616 27.5555 20.6746 27.5087 20.758 27.4254C20.8413 27.342 20.8881 27.229 20.8881 27.1111C20.8881 26.9932 20.8413 26.8802 20.758 26.7968C20.6746 26.7135 20.5616 26.6667 20.4437 26.6667H19.5548C19.4369 26.6667 19.3239 26.7135 19.2405 26.7968C19.1572 26.8802 19.1104 26.9932 19.1104 27.1111C19.1104 27.229 19.1572 27.342 19.2405 27.4254C19.3239 27.5087 19.4369 27.5555 19.5548 27.5555Z" fill="#FF725E"/>
<path d="M23.1114 27.5555H24.0003C24.1182 27.5555 24.2312 27.5087 24.3146 27.4254C24.3979 27.342 24.4448 27.229 24.4448 27.1111C24.4448 26.9932 24.3979 26.8802 24.3146 26.7968C24.2312 26.7135 24.1182 26.6667 24.0003 26.6667H23.1114C22.9936 26.6667 22.8805 26.7135 22.7972 26.7968C22.7138 26.8802 22.667 26.9932 22.667 27.1111C22.667 27.229 22.7138 27.342 22.7972 27.4254C22.8805 27.5087 22.9936 27.5555 23.1114 27.5555Z" fill="#FF725E"/>
<path d="M26.6661 27.5555H27.1106C27.2284 27.5555 27.3415 27.5087 27.4248 27.4254C27.5082 27.342 27.555 27.229 27.555 27.1111C27.555 26.9932 27.5082 26.8802 27.4248 26.7968C27.3415 26.7135 27.2284 26.6667 27.1106 26.6667H26.6661C26.5483 26.6667 26.4352 26.7135 26.3519 26.7968C26.2685 26.8802 26.2217 26.9932 26.2217 27.1111C26.2217 27.229 26.2685 27.342 26.3519 27.4254C26.4352 27.5087 26.5483 27.5555 26.6661 27.5555Z" fill="#FF725E"/>
<path d="M11.1105 8.88889C10.9926 8.88889 10.8795 8.93571 10.7962 9.01906C10.7128 9.10241 10.666 9.21546 10.666 9.33333V10.2222C10.666 10.3401 10.7128 10.4531 10.7962 10.5365C10.8795 10.6198 10.9926 10.6667 11.1105 10.6667C11.2283 10.6667 11.3414 10.6198 11.4247 10.5365C11.5081 10.4531 11.5549 10.3401 11.5549 10.2222V9.33333C11.5549 9.21546 11.5081 9.10241 11.4247 9.01906C11.3414 8.93571 11.2283 8.88889 11.1105 8.88889Z" fill="#FF725E"/>
<path d="M11.1105 1.77734C10.9926 1.77734 10.8795 1.82417 10.7962 1.90752C10.7128 1.99087 10.666 2.10391 10.666 2.22179V3.11068C10.666 3.22855 10.7128 3.3416 10.7962 3.42495C10.8795 3.5083 10.9926 3.55512 11.1105 3.55512C11.2283 3.55512 11.3414 3.5083 11.4247 3.42495C11.5081 3.3416 11.5549 3.22855 11.5549 3.11068V2.22179C11.5549 2.10391 11.5081 1.99087 11.4247 1.90752C11.3414 1.82417 11.2283 1.77734 11.1105 1.77734Z" fill="#FF725E"/>
<path d="M11.1105 5.33313C10.9926 5.33313 10.8795 5.37995 10.7962 5.4633C10.7128 5.54665 10.666 5.6597 10.666 5.77757V6.66646C10.666 6.78434 10.7128 6.89738 10.7962 6.98073C10.8795 7.06408 10.9926 7.11091 11.1105 7.11091C11.2283 7.11091 11.3414 7.06408 11.4247 6.98073C11.5081 6.89738 11.5549 6.78434 11.5549 6.66646V5.77757C11.5549 5.6597 11.5081 5.54665 11.4247 5.4633C11.3414 5.37995 11.2283 5.33313 11.1105 5.33313Z" fill="#FF725E"/>
<path d="M28.8883 1.77734C28.7704 1.77734 28.6574 1.82417 28.574 1.90752C28.4907 1.99087 28.4438 2.10391 28.4438 2.22179V3.11068C28.4438 3.22855 28.4907 3.3416 28.574 3.42495C28.6574 3.5083 28.7704 3.55512 28.8883 3.55512C29.0062 3.55512 29.1192 3.5083 29.2026 3.42495C29.2859 3.3416 29.3327 3.22855 29.3327 3.11068V2.22179C29.3327 2.10391 29.2859 1.99087 29.2026 1.90752C29.1192 1.82417 29.0062 1.77734 28.8883 1.77734Z" fill="#FF725E"/>
<path d="M28.8883 5.33313C28.7704 5.33313 28.6574 5.37995 28.574 5.4633C28.4907 5.54665 28.4438 5.6597 28.4438 5.77757V6.66646C28.4438 6.78434 28.4907 6.89738 28.574 6.98073C28.6574 7.06408 28.7704 7.11091 28.8883 7.11091C29.0062 7.11091 29.1192 7.06408 29.2026 6.98073C29.2859 6.89738 29.3327 6.78434 29.3327 6.66646V5.77757C29.3327 5.6597 29.2859 5.54665 29.2026 5.4633C29.1192 5.37995 29.0062 5.33313 28.8883 5.33313Z" fill="#FF725E"/>
<path d="M28.8883 8.88889C28.7704 8.88889 28.6574 8.93571 28.574 9.01906C28.4907 9.10241 28.4438 9.21546 28.4438 9.33333V10.2222C28.4438 10.3401 28.4907 10.4531 28.574 10.5365C28.6574 10.6198 28.7704 10.6667 28.8883 10.6667C29.0062 10.6667 29.1192 10.6198 29.2026 10.5365C29.2859 10.4531 29.3327 10.3401 29.3327 10.2222V9.33333C29.3327 9.21546 29.2859 9.10241 29.2026 9.01906C29.1192 8.93571 29.0062 8.88889 28.8883 8.88889Z" fill="#FF725E"/>
<path d="M39.7865 6.29622C39.7772 6.28567 29.1111 0.0622221 29.1111 0.0622221C29.0439 0.0221458 28.9672 0.000671411 28.8889 0H11.1111C11.0328 0.000671411 10.9561 0.0221458 10.8889 0.0622221C10.8889 0.0622221 0.230667 6.28306 0.225205 6.2883C0.157627 6.3259 0.101198 6.3807 0.0616459 6.44715C0.0220935 6.5136 0.000825515 6.58934 3.61904e-07 6.66667V33.3333C-9.93803e-05 33.411 0.0204196 33.4873 0.0594615 33.5545C0.0985034 33.6216 0.154669 33.6772 0.222223 33.7155L10.8533 39.9155C10.8641 39.9245 10.8761 39.932 10.8889 39.9378C10.9228 39.9563 10.9585 39.9712 10.9956 39.9822C11.0329 39.9943 11.0719 40.0003 11.1111 40H28.8889C28.9281 40.0003 28.9671 39.9943 29.0044 39.9822C29.0415 39.9712 29.0772 39.9563 29.1111 39.9378C29.1239 39.932 29.1359 39.9245 29.1467 39.9155L39.7778 33.7155C39.8453 33.6772 39.9015 33.6216 39.9405 33.5545C39.9796 33.4873 40.0001 33.411 40 33.3333V6.66667C39.9991 6.59181 39.979 6.51844 39.9416 6.45358C39.9042 6.38872 39.8508 6.33454 39.7865 6.29622ZM10.6667 38.7822L0.888889 33.08V7.44L10.6667 13.1422V38.7822ZM28.4444 39.1111H11.5556V13.3333H28.4444V39.1111ZM28.7689 12.4444H11.2311L1.32444 6.66667L11.2311 0.888889H28.7689L38.6755 6.66667L28.7689 12.4444ZM39.1111 33.08L29.3333 38.7822V13.1422L39.1111 7.44V33.08Z" fill="#4F5B5E"/>
</svg>
