<svg width="40" height="40" viewBox="0 0 40 40" fill="none" xmlns="http://www.w3.org/2000/svg">
<path fill-rule="evenodd" clip-rule="evenodd" d="M26 33.993C23.8343 33.993 21.7578 33.5109 19.8273 32.5609C19.3664 32.3336 19.7109 31.6328 20.1726 31.8602C21.9945 32.757 23.9554 33.2117 26 33.2117C33.2851 33.2117 39.2125 27.2852 39.2125 20C39.2125 12.7148 33.2851 6.7875 26 6.7875C23.9554 6.7875 21.9945 7.24297 20.1726 8.13984C19.7117 8.36719 19.3664 7.66641 19.8273 7.43984C21.7578 6.48906 23.8343 6.00703 26 6.00703C33.7156 6.00703 39.9929 12.2844 39.9929 20C39.9929 27.7156 33.7156 33.993 26 33.993Z" fill="#4F5B5E"/>
<path fill-rule="evenodd" clip-rule="evenodd" d="M13.9998 33.993C6.28418 33.993 0.00683594 27.7156 0.00683594 20C0.00683594 12.2844 6.28418 6.00703 13.9998 6.00703C16.1662 6.00703 18.2436 6.48906 20.1732 7.43906C20.635 7.66641 20.2896 8.36719 19.8287 8.13984C18.0068 7.24297 16.0459 6.7875 13.9998 6.7875C6.71465 6.78828 0.787305 12.7148 0.787305 20C0.787305 27.2852 6.71465 33.2117 13.9998 33.2117C16.0451 33.2117 18.0061 32.757 19.8279 31.8602C20.2889 31.6336 20.6342 32.3344 20.1732 32.5609C18.2428 33.5109 16.1662 33.993 13.9998 33.993Z" fill="#4F5B5E"/>
<path fill-rule="evenodd" clip-rule="evenodd" d="M19.9998 32.6008C19.9404 32.6008 19.8818 32.5875 19.8271 32.5602C12.3466 28.8742 9.72868 19.5148 14.1802 12.507C15.5638 10.3297 17.517 8.57734 19.8271 7.43906C19.9365 7.38594 20.0638 7.38594 20.1724 7.43906C27.6513 11.1234 30.2716 20.4844 25.8193 27.4922C24.4357 29.6703 22.4834 31.4227 20.1724 32.5602C20.1177 32.5875 20.0591 32.6008 19.9998 32.6008ZM19.9998 8.22656C15.5459 10.4984 12.7881 14.9914 12.7881 20C12.7881 25.0086 15.5459 29.5016 19.9998 31.7734C24.4537 29.5016 27.2115 25.0086 27.2115 20C27.2115 14.9914 24.4537 10.4984 19.9998 8.22656Z" fill="#4F5B5E"/>
<path fill-rule="evenodd" clip-rule="evenodd" d="M23.8967 11.0602H16.1029C15.5881 11.0602 15.5881 10.2789 16.1029 10.2789H23.8967C24.4107 10.2789 24.4107 11.0602 23.8967 11.0602Z" fill="#FF725E"/>
<path fill-rule="evenodd" clip-rule="evenodd" d="M25.8598 13.7258H14.1395C13.6254 13.7258 13.6254 12.9445 14.1395 12.9445H25.8598C26.3738 12.9445 26.3738 13.7258 25.8598 13.7258Z" fill="#FF725E"/>
<path fill-rule="evenodd" clip-rule="evenodd" d="M27.0054 16.3914H12.9944C12.4804 16.3914 12.4804 15.6109 12.9944 15.6109H27.0054C27.5194 15.6109 27.5194 16.3914 27.0054 16.3914Z" fill="#FF725E"/>
<path fill-rule="evenodd" clip-rule="evenodd" d="M27.5383 19.0578H12.4617C11.9477 19.0578 11.9477 18.2766 12.4617 18.2766H27.5383C28.0523 18.2766 28.0523 19.0578 27.5383 19.0578Z" fill="#FF725E"/>
<path fill-rule="evenodd" clip-rule="evenodd" d="M27.5383 21.7234H12.4617C11.9477 21.7234 11.9477 20.9422 12.4617 20.9422H27.5383C28.0523 20.9422 28.0523 21.7234 27.5383 21.7234Z" fill="#FF725E"/>
<path fill-rule="evenodd" clip-rule="evenodd" d="M27.0054 24.3891H12.9944C12.4804 24.3891 12.4804 23.6086 12.9944 23.6086H27.0054C27.5194 23.6086 27.5194 24.3891 27.0054 24.3891Z" fill="#FF725E"/>
<path fill-rule="evenodd" clip-rule="evenodd" d="M25.8598 27.0555H14.1395C13.6254 27.0555 13.6254 26.2742 14.1395 26.2742H25.8598C26.3738 26.2742 26.3738 27.0555 25.8598 27.0555Z" fill="#FF725E"/>
<path fill-rule="evenodd" clip-rule="evenodd" d="M23.8966 29.7211H16.1028C15.5888 29.7211 15.5888 28.9398 16.1028 28.9398H23.8966C24.4106 28.9398 24.4106 29.7211 23.8966 29.7211Z" fill="#FF725E"/>
</svg>
