<svg width="45" height="40" viewBox="0 0 45 40" fill="none" xmlns="http://www.w3.org/2000/svg">
<path d="M15.8031 19.2826L15.0252 21.4948C14.9062 21.8333 15.0842 22.2042 15.4227 22.3233C15.494 22.3483 15.5667 22.3603 15.6382 22.3603C15.9063 22.3603 16.1573 22.1931 16.2512 21.9259L17.029 19.7137C17.1481 19.3752 16.9701 19.0043 16.6315 18.8852C16.2933 18.7661 15.922 18.9441 15.8031 19.2826Z" fill="#FF725E"/>
<path d="M13.9881 24.4441L13.2103 26.6563C13.0913 26.9949 13.2692 27.3658 13.6078 27.4848C13.679 27.5099 13.7518 27.5218 13.8233 27.5218C14.0914 27.5218 14.3423 27.3546 14.4362 27.0874L15.214 24.8753C15.333 24.5367 15.1551 24.1658 14.8165 24.0467C14.4779 23.9275 14.107 24.1056 13.9881 24.4441Z" fill="#FF725E"/>
<path d="M19.4335 8.95853L18.6556 11.1707C18.5366 11.5093 18.7145 11.8801 19.0531 11.9992C19.1243 12.0242 19.1971 12.0362 19.2686 12.0362C19.5366 12.0362 19.7876 11.869 19.8816 11.6018L20.6594 9.38964C20.7784 9.05105 20.6005 8.68016 20.2619 8.56111C19.9237 8.44207 19.5524 8.62003 19.4335 8.95853Z" fill="#FF725E"/>
<path d="M17.6185 14.1201L16.8407 16.3322C16.7216 16.6708 16.8996 17.0417 17.2382 17.1607C17.3094 17.1858 17.3822 17.1977 17.4536 17.1977C17.7217 17.1977 17.9727 17.0305 18.0666 16.7633L18.8445 14.5512C18.9635 14.2126 18.7855 13.8417 18.447 13.7226C18.1088 13.6035 17.7375 13.7815 17.6185 14.1201Z" fill="#FF725E"/>
<path d="M21.73 4.38622C21.391 4.26718 21.0205 4.44513 20.9016 4.78372L20.4706 6.00974C20.3515 6.34832 20.5295 6.71922 20.8681 6.83826C20.9394 6.8633 21.0121 6.87526 21.0835 6.87526C21.3517 6.87526 21.6026 6.70805 21.6965 6.44077L22.1275 5.21474C22.2465 4.87616 22.0686 4.50526 21.73 4.38622Z" fill="#FF725E"/>
<path d="M13.655 31.6971C14.0139 31.6971 14.3047 31.4061 14.3047 31.0473C14.3047 30.6884 14.0139 30.3975 13.655 30.3975H13.2725L13.3994 30.0367C13.5184 29.6981 13.3405 29.3272 13.0019 29.2082C12.6629 29.0891 12.2924 29.2671 12.1734 29.6057L11.8109 30.6367L10.9194 31.269C10.6267 31.4766 10.5577 31.8822 10.7654 32.1749C10.8921 32.3535 11.0924 32.4488 11.296 32.4488C11.4259 32.4488 11.5573 32.4099 11.6713 32.329L12.5624 31.697H13.655V31.6971Z" fill="#FF725E"/>
<path d="M21.7939 31.0469C21.7939 31.4058 22.0848 31.6967 22.4437 31.6967H24.8405C25.1994 31.6967 25.4903 31.4058 25.4903 31.0469C25.4903 30.6881 25.1994 30.3971 24.8405 30.3971H22.4437C22.0848 30.3971 21.7939 30.6881 21.7939 31.0469Z" fill="#FF725E"/>
<path d="M33.6288 31.6967H36.0256C36.3845 31.6967 36.6753 31.4058 36.6753 31.0469C36.6753 30.6881 36.3845 30.3971 36.0256 30.3971H33.6288C33.2698 30.3971 32.979 30.6881 32.979 31.0469C32.979 31.4058 33.2699 31.6967 33.6288 31.6967Z" fill="#FF725E"/>
<path d="M19.2478 30.3971H16.851C16.492 30.3971 16.2012 30.6881 16.2012 31.0469C16.2012 31.4058 16.492 31.6967 16.851 31.6967H19.2478C19.6068 31.6967 19.8976 31.4058 19.8976 31.0469C19.8976 30.6881 19.6067 30.3971 19.2478 30.3971Z" fill="#FF725E"/>
<path d="M40.5207 31.6967C40.8796 31.6967 41.1704 31.4058 41.1704 31.0469C41.1704 30.6881 40.8796 30.3971 40.5207 30.3971H39.2211C38.8621 30.3971 38.5713 30.6881 38.5713 31.0469C38.5713 31.4058 38.8621 31.6967 39.2211 31.6967H40.5207Z" fill="#FF725E"/>
<path d="M4.69967 35.6807L3.63965 36.4325C3.3469 36.6401 3.27793 37.0457 3.48561 37.3384C3.61227 37.5171 3.81258 37.6124 4.01618 37.6124C4.14614 37.6124 4.27748 37.5735 4.3915 37.4925L5.45152 36.7407C5.74427 36.5331 5.81324 36.1275 5.60556 35.8348C5.39806 35.542 4.99242 35.4729 4.69967 35.6807Z" fill="#FF725E"/>
<path d="M8.65896 32.8736L6.9624 34.077C6.66965 34.2845 6.60069 34.6902 6.80836 34.9829C6.93502 35.1616 7.13542 35.2568 7.33893 35.2568C7.46889 35.2568 7.60024 35.2179 7.71425 35.137L9.41081 33.9336C9.70356 33.726 9.77252 33.3203 9.56485 33.0276C9.35726 32.7349 8.95154 32.6659 8.65896 32.8736Z" fill="#FF725E"/>
<path d="M44.2393 30.6716L34.3504 16.7099C34.1429 16.4171 33.7375 16.3477 33.4446 16.5552C33.1517 16.7626 33.0824 17.1682 33.2899 17.461L42.8035 30.8928L32.3993 38.2717L30.7141 31.6325C30.9324 31.5278 31.0834 31.3054 31.0834 31.047C31.0834 30.6882 30.7926 30.3972 30.4336 30.3972H30.4005L23.6691 3.87759L31.538 14.9875C31.6647 15.1663 31.8652 15.2618 32.0688 15.2618C32.1986 15.2618 32.3298 15.223 32.4438 15.1422C32.7366 14.9348 32.806 14.5293 32.5985 14.2364L22.7096 0.274562C22.7068 0.27049 22.7031 0.267458 22.6999 0.263732C22.5969 0.124938 22.4417 0.0286823 22.2633 0.00546325C21.9989 -0.0289322 21.7409 0.101285 21.6116 0.333909L0.0885444 39.0223C0.0322295 39.1185 0 39.2305 0 39.3501C0 39.6461 0.200135 39.9048 0.486561 39.9791C0.548074 39.995 0.610974 40.0017 0.671361 39.9996H9.32315C9.6821 39.9996 9.97294 39.7087 9.97294 39.3498C9.97294 38.991 9.6821 38.7001 9.32315 38.7001H1.75503L21.9521 2.39512L29.0598 30.3972H28.0369C27.6779 30.3972 27.3871 30.6881 27.3871 31.0469C27.3871 31.4058 27.6779 31.6967 28.0369 31.6967H29.3897L31.1673 38.7H12.3555C11.9966 38.7 11.7057 38.9909 11.7057 39.3498C11.7057 39.7086 11.9966 39.9995 12.3555 39.9995H32.0025C32.1372 39.9995 32.2685 39.9577 32.3784 39.8798L44.085 31.5773C44.3775 31.3697 44.4467 30.9644 44.2393 30.6716Z" fill="#4F5B5E"/>
</svg>
