<svg width="40" height="40" viewBox="0 0 40 40" fill="none" xmlns="http://www.w3.org/2000/svg">
<path d="M19.9999 39.8438C23.9246 39.8437 27.7611 38.6798 31.0243 36.4994C34.2875 34.319 36.8308 31.2198 38.3327 27.594C39.8347 23.9681 40.2277 19.9782 39.4621 16.129C38.6965 12.2798 36.8066 8.74398 34.0316 5.96876C32.1926 4.10975 30.0042 2.63255 27.5924 1.62207C25.1806 0.611593 22.5929 0.0877653 19.9779 0.0806999C17.363 0.0736344 14.7725 0.58347 12.3552 1.5809C9.93798 2.57833 7.74171 4.04368 5.89267 5.89273C4.04362 7.74177 2.57827 9.93804 1.58084 12.3553C0.583409 14.7725 0.0735734 17.3631 0.0806388 19.978C0.0877043 22.5929 0.611532 25.1807 1.62201 27.5925C2.63249 30.0043 4.10969 32.1926 5.9687 34.0317C7.80701 35.8801 9.99368 37.3455 12.4021 38.3432C14.8106 39.3408 17.393 39.8508 19.9999 39.8438ZM19.9999 38.9063C15.7947 38.9183 11.7074 37.5173 8.3937 34.9281C8.45947 34.9357 8.5261 34.9293 8.58928 34.9095C8.65245 34.8898 8.71078 34.8569 8.76049 34.8132C8.8102 34.7695 8.85019 34.7158 8.87789 34.6557C8.90558 34.5955 8.92036 34.5303 8.92127 34.4641C8.92171 34.4025 8.91001 34.3415 8.88685 34.2844C8.86369 34.2274 8.82953 34.1755 8.7863 34.1316C8.74308 34.0878 8.69165 34.0529 8.63494 34.029C8.57823 34.005 8.51736 33.9925 8.45581 33.992C7.65307 33.9864 7.03901 33.7767 6.6312 33.3687C5.56729 32.3047 5.87237 29.8492 7.46815 26.6316C8.39112 24.7704 9.68167 22.7722 11.251 20.7522C12.4468 22.2135 13.7155 23.6137 15.0521 24.9475C16.3854 26.2836 17.7851 27.5517 19.2459 28.7471C19.0457 28.9026 18.8459 29.0562 18.6473 29.2053C18.5478 29.2799 18.4821 29.391 18.4645 29.514C18.4469 29.6371 18.4789 29.7621 18.5535 29.8616C18.6281 29.961 18.7392 30.0268 18.8622 30.0444C18.9853 30.0619 19.1103 30.0299 19.2098 29.9553C19.4711 29.7591 19.7342 29.5562 19.9978 29.3496C22.129 31.0215 24.2446 32.3948 26.2146 33.3717C28.3563 34.4253 30.116 34.942 31.613 34.9228C28.2982 37.5153 24.2081 38.9183 19.9999 38.9063ZM38.9062 20C38.9182 24.2052 37.5172 28.2926 34.9281 31.6063C34.9357 31.5402 34.9292 31.4733 34.9092 31.4099C34.8893 31.3465 34.8561 31.288 34.812 31.2382C34.768 31.1884 34.7139 31.1485 34.6533 31.121C34.5928 31.0935 34.5271 31.0791 34.4606 31.0787C34.3369 31.0787 34.2182 31.1276 34.1303 31.2148C34.0425 31.302 33.9928 31.4204 33.9919 31.5442C33.9863 32.3469 33.7766 32.9607 33.3686 33.3688C32.3047 34.4326 29.8491 34.1275 26.6315 32.5318C24.7699 31.6086 22.771 30.3177 20.7507 28.7479C20.8564 28.662 20.9621 28.576 21.0674 28.4887C21.1613 28.4088 21.22 28.2952 21.2307 28.1724C21.2414 28.0495 21.2034 27.9274 21.1247 27.8325C21.0461 27.7376 20.9332 27.6774 20.8105 27.6651C20.6878 27.6528 20.5653 27.6894 20.4693 27.7668C20.3131 27.8963 20.1563 28.0246 19.9989 28.1516C18.5045 26.9383 17.0746 25.6476 15.7149 24.285C14.352 22.9251 13.0611 21.4948 11.8475 20C13.061 18.5052 14.3518 17.0749 15.7147 15.715C19.3392 12.0907 23.2161 9.1618 26.6313 7.46821C29.8491 5.87243 32.3046 5.56751 33.3686 6.63126C36.9342 10.2188 38.9043 14.916 38.9062 20ZM6.6312 6.63134C10.1995 3.1286 14.9062 1.06391 19.9999 1.09376C24.2082 1.08171 28.2983 2.48469 31.6131 5.07727C30.1803 5.05134 28.3475 5.57055 26.2147 6.62829C24.2448 7.60485 22.1294 8.97845 19.9983 10.6501C19.3819 10.1668 18.76 9.70313 18.1491 9.27196C18.0989 9.23479 18.0418 9.20803 17.9811 9.19324C17.9205 9.17846 17.8574 9.17594 17.7958 9.18584C17.7341 9.19575 17.6751 9.21787 17.6221 9.25092C17.5691 9.28396 17.5232 9.32727 17.4872 9.37828C17.4512 9.42929 17.4257 9.48699 17.4123 9.54798C17.3989 9.60897 17.3978 9.67203 17.4091 9.73345C17.4204 9.79487 17.4438 9.85341 17.4781 9.90564C17.5123 9.95787 17.5566 10.0027 17.6085 10.0376C18.1492 10.4192 18.6987 10.8277 19.2456 11.2524C16.3243 13.6482 13.6465 16.3263 11.251 19.2478C9.68167 17.228 8.39112 15.2296 7.46815 13.3684C5.87237 10.1508 5.56729 7.69532 6.6312 6.63134ZM1.0937 20C1.08163 15.7917 2.48464 11.7015 5.07729 8.38665C5.05135 9.81946 5.57057 11.6523 6.62823 13.7851C7.60479 15.7545 8.97784 17.8695 10.6489 20.0001C8.97784 22.1307 7.60495 24.2456 6.62823 26.2151C5.57057 28.3479 5.05135 30.1806 5.07729 31.6135C2.48461 28.2986 1.0816 24.2084 1.0937 20Z" fill="#4F5B5E"/>
<path d="M31.3267 22.7225C31.2929 22.6703 31.2491 22.6254 31.1979 22.5903C31.1466 22.5552 31.0888 22.5307 31.028 22.5181C30.9672 22.5055 30.9044 22.5052 30.8434 22.517C30.7824 22.5289 30.7244 22.5528 30.6728 22.5873C30.6211 22.6218 30.5768 22.6663 30.5425 22.7181C30.5081 22.7698 30.4844 22.8279 30.4727 22.8889C30.461 22.95 30.4616 23.0127 30.4744 23.0735C30.4871 23.1343 30.5119 23.192 30.5471 23.2431C30.9913 23.9083 31.4021 24.5689 31.7681 25.2066C31.83 25.3144 31.9321 25.3932 32.0521 25.4257C32.1721 25.4582 32.3001 25.4417 32.408 25.3798C32.5158 25.3179 32.5946 25.2158 32.6271 25.0958C32.6596 24.9758 32.6431 24.8478 32.5812 24.7399C32.2048 24.0839 31.7827 23.4052 31.3267 22.7225Z" fill="#FF725E"/>
<path d="M29.3482 20.0004C29.832 19.3832 30.2962 18.761 30.7278 18.1494C30.7649 18.0992 30.7917 18.0421 30.8065 17.9814C30.8213 17.9208 30.8238 17.8577 30.8139 17.7961C30.804 17.7344 30.7819 17.6754 30.7488 17.6224C30.7158 17.5694 30.6725 17.5235 30.6215 17.4875C30.5704 17.4515 30.5127 17.426 30.4518 17.4126C30.3908 17.3992 30.3277 17.3981 30.2663 17.4094C30.2049 17.4207 30.1463 17.4442 30.0941 17.4784C30.0419 17.5126 29.997 17.557 29.9621 17.6088C29.5802 18.15 29.1713 18.6999 28.7463 19.2472C28.6607 19.1423 28.5754 19.0372 28.4885 18.9326C28.4086 18.8387 28.295 18.78 28.1722 18.7692C28.0493 18.7585 27.9272 18.7966 27.8323 18.8753C27.7374 18.9539 27.6772 19.0668 27.6649 19.1895C27.6526 19.3121 27.6892 19.4347 27.7666 19.5306C28.2682 20.1363 28.7523 20.7494 29.2054 21.3527C29.2424 21.4019 29.2887 21.4434 29.3417 21.4748C29.3947 21.5061 29.4533 21.5267 29.5143 21.5354C29.5752 21.5441 29.6373 21.5407 29.6969 21.5254C29.7566 21.5101 29.8126 21.4832 29.8619 21.4462C29.9111 21.4093 29.9526 21.363 29.984 21.31C30.0153 21.257 30.0359 21.1983 30.0446 21.1374C30.0533 21.0764 30.0499 21.0144 30.0346 20.9547C30.0193 20.8951 29.9924 20.839 29.9554 20.7898C29.7585 20.528 29.5551 20.2643 29.3482 20.0004Z" fill="#FF725E"/>
<path d="M9.42019 6.08596C10.1594 6.21238 10.884 6.41303 11.583 6.68487C11.6406 6.70653 11.7019 6.71664 11.7635 6.71461C11.825 6.71258 11.8855 6.69845 11.9416 6.67303C11.9976 6.64761 12.0481 6.6114 12.0902 6.56646C12.1323 6.52152 12.1651 6.46873 12.1868 6.41112C12.2084 6.3535 12.2185 6.29218 12.2165 6.23065C12.2145 6.16913 12.2003 6.10861 12.1749 6.05255C12.1495 5.99648 12.1133 5.94597 12.0683 5.90391C12.0234 5.86184 11.9706 5.82903 11.913 5.80737C11.1542 5.51298 10.3677 5.29602 9.56527 5.15979C9.5042 5.14969 9.44174 5.15178 9.38149 5.16594C9.32124 5.18011 9.26439 5.20607 9.21422 5.24232C9.16406 5.27857 9.12156 5.3244 9.0892 5.37716C9.05684 5.42992 9.03525 5.48856 9.02567 5.54971C9.01609 5.61086 9.01871 5.6733 9.03339 5.73343C9.04807 5.79356 9.07452 5.85018 9.1112 5.90004C9.14787 5.94989 9.19406 5.99199 9.2471 6.0239C9.30013 6.05581 9.35896 6.0769 9.42019 6.08596Z" fill="#FF725E"/>
<path d="M26.2449 17.7747C26.3283 17.8669 26.445 17.9222 26.5691 17.9284C26.6933 17.9346 26.8149 17.8913 26.9071 17.8078C26.9993 17.7244 27.0546 17.6078 27.0608 17.4836C27.067 17.3595 27.0236 17.2379 26.9402 17.1457C26.4175 16.5676 25.872 15.9894 25.3188 15.4264C25.2756 15.3825 25.2242 15.3475 25.1676 15.3234C25.1109 15.2994 25.0501 15.2867 24.9885 15.2862C24.927 15.2856 24.8659 15.2972 24.8088 15.3203C24.7518 15.3433 24.6998 15.3774 24.6559 15.4205C24.612 15.4637 24.577 15.5151 24.5529 15.5717C24.5289 15.6284 24.5162 15.6892 24.5156 15.7508C24.5151 15.8123 24.5267 15.8734 24.5497 15.9305C24.5728 15.9875 24.6069 16.0395 24.65 16.0834C25.194 16.6374 25.7307 17.2065 26.2449 17.7747Z" fill="#FF725E"/>
<path d="M33.6791 26.8588C33.6273 26.7458 33.5328 26.658 33.4162 26.6147C33.2997 26.5714 33.1707 26.5762 33.0577 26.628C32.9446 26.6798 32.8568 26.7744 32.8135 26.8909C32.7702 27.0075 32.775 27.1364 32.8268 27.2495C33.147 27.9379 33.418 28.6482 33.6377 29.375C33.6542 29.435 33.6826 29.491 33.721 29.5399C33.7595 29.5888 33.8073 29.6296 33.8616 29.6598C33.916 29.69 33.9758 29.7092 34.0377 29.716C34.0995 29.7229 34.162 29.7174 34.2217 29.6999C34.2814 29.6823 34.337 29.6531 34.3852 29.6138C34.4335 29.5746 34.4735 29.5261 34.5028 29.4713C34.5321 29.4164 34.5503 29.3563 34.5561 29.2943C34.562 29.2324 34.5555 29.1699 34.537 29.1106C34.3048 28.3406 34.0182 27.5881 33.6791 26.8588Z" fill="#FF725E"/>
<path d="M13.6716 7.62143C14.3181 7.9533 14.9932 8.33611 15.6782 8.75924C15.7839 8.82329 15.9107 8.84299 16.0309 8.81404C16.1511 8.78509 16.2549 8.70984 16.3199 8.60466C16.3849 8.49949 16.4057 8.37291 16.3777 8.25248C16.3498 8.13205 16.2755 8.02753 16.1709 7.96166C15.4649 7.52564 14.7682 7.13057 14.0999 6.78736C13.9893 6.73057 13.8607 6.72004 13.7423 6.75809C13.624 6.79614 13.5256 6.87965 13.4688 6.99025C13.412 7.10086 13.4014 7.22949 13.4395 7.34786C13.4775 7.46623 13.561 7.56463 13.6716 7.62143Z" fill="#FF725E"/>
<path d="M23.6504 14.437C23.7355 14.3463 23.7811 14.2256 23.7772 14.1013C23.7733 13.9771 23.7202 13.8595 23.6295 13.7744C23.0527 13.2327 22.4617 12.7005 21.873 12.1925C21.7787 12.1125 21.6566 12.0731 21.5334 12.0827C21.4101 12.0923 21.2956 12.1502 21.2149 12.2438C21.1341 12.3374 21.0936 12.4592 21.1022 12.5825C21.1108 12.7058 21.1677 12.8208 21.2606 12.9023C21.8394 13.4017 22.4205 13.925 22.9878 14.4578C23.0326 14.5 23.0854 14.5329 23.143 14.5546C23.2006 14.5764 23.2619 14.5866 23.3234 14.5846C23.3849 14.5827 23.4455 14.5687 23.5016 14.5433C23.5577 14.518 23.6083 14.4818 23.6504 14.437Z" fill="#FF725E"/>
<path d="M23.9164 24.65C23.3624 25.1941 22.7933 25.7309 22.2251 26.2451C22.1329 26.3285 22.0776 26.4451 22.0714 26.5693C22.0652 26.6935 22.1085 26.815 22.1919 26.9072C22.2754 26.9994 22.392 27.0547 22.5161 27.0609C22.6403 27.0672 22.7619 27.0238 22.8541 26.9404C23.4318 26.4177 24.0103 25.8721 24.5734 25.3189C24.6173 25.2758 24.6523 25.2244 24.6763 25.1677C24.7004 25.1111 24.7131 25.0502 24.7136 24.9887C24.7141 24.9271 24.7026 24.8661 24.6795 24.809C24.6565 24.7519 24.6224 24.6999 24.5792 24.656C24.5361 24.6121 24.4847 24.5771 24.4281 24.5531C24.3714 24.529 24.3106 24.5163 24.249 24.5158C24.1875 24.5153 24.1264 24.5268 24.0693 24.5499C24.0122 24.5729 23.9603 24.607 23.9164 24.6502V24.65Z" fill="#FF725E"/>
<path d="M27.7587 21.2119C27.6645 21.1307 27.542 21.0902 27.418 21.0994C27.294 21.1085 27.1788 21.1665 27.0976 21.2606C26.5982 21.8394 26.0749 22.4205 25.5421 22.9877C25.5 23.0326 25.4671 23.0854 25.4453 23.1429C25.4235 23.2005 25.4133 23.2618 25.4153 23.3234C25.4172 23.3849 25.4312 23.4454 25.4566 23.5015C25.4819 23.5577 25.518 23.6082 25.5629 23.6504C25.6078 23.6925 25.6605 23.7254 25.7181 23.7472C25.7757 23.7689 25.837 23.7791 25.8985 23.7772C25.9601 23.7753 26.0206 23.7612 26.0767 23.7359C26.1328 23.7106 26.1834 23.6744 26.2255 23.6295C26.7672 23.0527 27.2994 22.4617 27.8074 21.873C27.8886 21.7788 27.9291 21.6563 27.9199 21.5323C27.9108 21.4084 27.8528 21.2931 27.7587 21.2119Z" fill="#FF725E"/>
<path d="M33.5888 12.1871C33.7051 12.2306 33.834 12.2263 33.9472 12.1751C34.0603 12.1238 34.1486 12.0298 34.1926 11.9136C34.4869 11.1548 34.7039 10.3683 34.8401 9.56588C34.8502 9.50481 34.8481 9.44235 34.834 9.3821C34.8198 9.32185 34.7939 9.265 34.7576 9.21483C34.7214 9.16467 34.6755 9.12217 34.6228 9.08981C34.57 9.05745 34.5114 9.03586 34.4502 9.02628C34.3891 9.0167 34.3266 9.01932 34.2665 9.034C34.2064 9.04868 34.1497 9.07513 34.0999 9.11181C34.05 9.14849 34.0079 9.19467 33.976 9.24771C33.9441 9.30074 33.923 9.35957 33.914 9.4208C33.7875 10.16 33.5869 10.8846 33.3151 11.5836C33.2714 11.6999 33.2757 11.8288 33.327 11.942C33.3784 12.0551 33.4725 12.1433 33.5888 12.1871Z" fill="#FF725E"/>
<path d="M31.3933 16.3237C31.4457 16.356 31.5039 16.3778 31.5647 16.3876C31.6254 16.3975 31.6876 16.3952 31.7475 16.3811C31.8074 16.3669 31.8639 16.3411 31.9138 16.3051C31.9638 16.2691 32.0061 16.2236 32.0385 16.1713C32.4745 15.4653 32.8696 14.7686 33.2128 14.1003C33.2409 14.0456 33.258 13.9858 33.263 13.9244C33.268 13.8631 33.2609 13.8013 33.2421 13.7427C33.2233 13.6841 33.1931 13.6297 33.1532 13.5828C33.1134 13.5358 33.0647 13.4972 33.01 13.4691C32.9552 13.4409 32.8954 13.4239 32.8341 13.4188C32.7727 13.4138 32.711 13.4209 32.6523 13.4397C32.5937 13.4586 32.5394 13.4888 32.4924 13.5286C32.4455 13.5684 32.4068 13.6171 32.3787 13.6719C32.0468 14.3183 31.664 14.9934 31.2409 15.6784C31.2085 15.7308 31.1868 15.7891 31.1769 15.8498C31.1671 15.9106 31.1693 15.9727 31.1835 16.0326C31.1976 16.0926 31.2234 16.1491 31.2594 16.199C31.2954 16.249 31.3409 16.2913 31.3933 16.3237Z" fill="#FF725E"/>
<path d="M12.751 32.8267C12.0625 33.1469 11.3521 33.4179 10.6251 33.6375C10.5652 33.6541 10.5091 33.6824 10.4602 33.7209C10.4113 33.7593 10.3706 33.8071 10.3404 33.8615C10.3101 33.9158 10.291 33.9757 10.2841 34.0375C10.2772 34.0993 10.2827 34.1619 10.3003 34.2216C10.3178 34.2812 10.3471 34.3368 10.3863 34.3851C10.4256 34.4333 10.474 34.4733 10.5289 34.5027C10.5837 34.532 10.6439 34.5501 10.7058 34.556C10.7677 34.5619 10.8302 34.5553 10.8896 34.5368C11.6595 34.3047 12.4118 34.018 13.141 33.679C13.254 33.6272 13.3418 33.5326 13.3851 33.4161C13.4284 33.2995 13.4237 33.1705 13.3719 33.0575C13.3201 32.9445 13.2255 32.8567 13.1089 32.8134C12.9924 32.7701 12.8634 32.7749 12.7504 32.8267H12.751Z" fill="#FF725E"/>
<path d="M16.757 30.5474C16.0918 30.9915 15.4312 31.4023 14.7935 31.7683C14.6857 31.8302 14.6069 31.9323 14.5744 32.0523C14.5419 32.1724 14.5584 32.3003 14.6203 32.4082C14.6822 32.516 14.7844 32.5948 14.9044 32.6273C15.0244 32.6598 15.1524 32.6433 15.2602 32.5814C15.9164 32.205 16.5949 31.7829 17.2776 31.3269C17.3298 31.2931 17.3747 31.2493 17.4098 31.1981C17.4449 31.1468 17.4694 31.0891 17.482 31.0282C17.4946 30.9674 17.495 30.9046 17.4831 30.8436C17.4712 30.7827 17.4473 30.7246 17.4128 30.673C17.3783 30.6213 17.3338 30.577 17.2821 30.5427C17.2303 30.5083 17.1722 30.4846 17.1112 30.4729C17.0501 30.4613 16.9874 30.4618 16.9266 30.4746C16.8658 30.4874 16.8081 30.5121 16.757 30.5474Z" fill="#FF725E"/>
</svg>
