<svg width="80" height="104" viewBox="0 0 80 104" fill="none" xmlns="http://www.w3.org/2000/svg">
<rect width="80" height="80" rx="10" fill="white"/>
<g clip-path="url(#clip0_608_3395)">
<path fill-rule="evenodd" clip-rule="evenodd" d="M23.1016 19H56.8984C59.1637 19 61 20.8363 61 23.1016V56.8984C61 59.1637 59.1637 61 56.8984 61H23.1016C20.8363 61 19 59.1637 19 56.8984V23.1016C19 20.8363 20.8363 19 23.1016 19ZM44.9989 56.5281V52.4215C45.7435 53.0461 46.5523 53.5145 47.4253 53.8267C48.2984 54.139 49.1799 54.2951 50.07 54.2951C50.5921 54.2951 51.0478 54.2481 51.4373 54.1539C51.8267 54.0598 52.1519 53.9294 52.413 53.7625C52.674 53.5957 52.8687 53.399 52.9971 53.1722C53.1255 52.9455 53.1897 52.6996 53.1897 52.4344C53.1897 52.075 53.087 51.7542 52.8816 51.4719C52.6761 51.1896 52.3958 50.9286 52.0406 50.6891C51.6855 50.4496 51.264 50.2186 50.7761 49.9961C50.2883 49.7736 49.7619 49.547 49.197 49.316C47.7591 48.7171 46.6871 47.9856 45.9811 47.1215C45.2749 46.2574 44.9219 45.2137 44.9219 43.9902C44.9219 43.032 45.1145 42.2086 45.4996 41.52C45.8848 40.8312 46.4089 40.2645 47.0722 39.8195C47.7356 39.3747 48.5038 39.0475 49.3767 38.8379C50.2497 38.6283 51.174 38.5234 52.1498 38.5234C53.1083 38.5234 53.9579 38.5812 54.6982 38.6967C55.4385 38.8122 56.1211 38.9897 56.7459 39.2292V43.0663C56.4378 42.8524 56.1018 42.6642 55.7381 42.5016C55.3743 42.3391 54.9999 42.2043 54.6148 42.0974C54.2296 41.9905 53.8465 41.9113 53.4657 41.86C53.0848 41.8087 52.7232 41.783 52.3809 41.783C51.9101 41.783 51.4822 41.8279 51.097 41.9177C50.7119 42.0075 50.3867 42.1338 50.1213 42.2963C49.8561 42.4589 49.6507 42.6535 49.5051 42.8802C49.3596 43.1069 49.2868 43.3615 49.2868 43.6437C49.2868 43.9518 49.3682 44.2276 49.5308 44.4715C49.6934 44.7153 49.9245 44.9463 50.224 45.1645C50.5236 45.3826 50.8874 45.5965 51.3153 45.8062C51.7433 46.0158 52.2268 46.2318 52.766 46.4542C53.5021 46.7622 54.1633 47.0894 54.7495 47.4359C55.3358 47.7824 55.8387 48.1738 56.258 48.6102C56.6774 49.0465 56.9984 49.5448 57.2209 50.1052C57.4435 50.6655 57.5547 51.3179 57.5547 52.0622C57.5547 53.0888 57.3599 53.9507 56.9705 54.648C56.5811 55.3453 56.0526 55.91 55.385 56.3419C54.7175 56.774 53.9407 57.0842 53.0549 57.2723C52.169 57.4606 51.234 57.5547 50.2497 57.5547C49.2398 57.5547 48.2791 57.4691 47.3676 57.298C46.456 57.1269 45.6665 56.8703 44.9989 56.5281ZM43.3633 42.3036H38.0952V57.3086H33.922V42.3036H28.6797V38.9336H43.3633V42.3036Z" fill="#819296"/>
</g>
<path d="M7.30666 90.242V91.278H4.64666V100H3.37266V91.278H0.698656V90.242H7.30666ZM15.4829 92.328L10.8629 103.612H9.54688L11.0589 99.916L7.96488 92.328H9.37888L11.7869 98.544L14.1669 92.328H15.4829ZM18.0375 93.742C18.2895 93.3033 18.6629 92.9393 19.1575 92.65C19.6615 92.3513 20.2449 92.202 20.9075 92.202C21.5889 92.202 22.2049 92.3653 22.7555 92.692C23.3155 93.0187 23.7542 93.4807 24.0715 94.078C24.3889 94.666 24.5475 95.352 24.5475 96.136C24.5475 96.9107 24.3889 97.6013 24.0715 98.208C23.7542 98.8147 23.3155 99.286 22.7555 99.622C22.2049 99.958 21.5889 100.126 20.9075 100.126C20.2542 100.126 19.6755 99.9813 19.1715 99.692C18.6769 99.3933 18.2989 99.0247 18.0375 98.586V103.64H16.7635V92.328H18.0375V93.742ZM23.2455 96.136C23.2455 95.5573 23.1289 95.0533 22.8955 94.624C22.6622 94.1947 22.3449 93.868 21.9435 93.644C21.5515 93.42 21.1175 93.308 20.6415 93.308C20.1749 93.308 19.7409 93.4247 19.3395 93.658C18.9475 93.882 18.6302 94.2133 18.3875 94.652C18.1542 95.0813 18.0375 95.5807 18.0375 96.15C18.0375 96.7287 18.1542 97.2373 18.3875 97.676C18.6302 98.1053 18.9475 98.4367 19.3395 98.67C19.7409 98.894 20.1749 99.006 20.6415 99.006C21.1175 99.006 21.5515 98.894 21.9435 98.67C22.3449 98.4367 22.6622 98.1053 22.8955 97.676C23.1289 97.2373 23.2455 96.724 23.2455 96.136ZM33.2245 95.87C33.2245 96.1127 33.2105 96.3693 33.1825 96.64H27.0505C27.0972 97.396 27.3538 97.9887 27.8205 98.418C28.2965 98.838 28.8705 99.048 29.5425 99.048C30.0932 99.048 30.5505 98.922 30.9145 98.67C31.2878 98.4087 31.5492 98.0633 31.6985 97.634H33.0705C32.8652 98.3713 32.4545 98.9733 31.8385 99.44C31.2225 99.8973 30.4572 100.126 29.5425 100.126C28.8145 100.126 28.1612 99.9627 27.5825 99.636C27.0132 99.3093 26.5652 98.8473 26.2385 98.25C25.9118 97.6433 25.7485 96.9433 25.7485 96.15C25.7485 95.3567 25.9072 94.6613 26.2245 94.064C26.5418 93.4667 26.9852 93.0093 27.5545 92.692C28.1332 92.3653 28.7958 92.202 29.5425 92.202C30.2705 92.202 30.9145 92.3607 31.4745 92.678C32.0345 92.9953 32.4638 93.434 32.7625 93.994C33.0705 94.5447 33.2245 95.17 33.2245 95.87ZM31.9085 95.604C31.9085 95.1187 31.8012 94.7033 31.5865 94.358C31.3718 94.0033 31.0778 93.7373 30.7045 93.56C30.3405 93.3733 29.9345 93.28 29.4865 93.28C28.8425 93.28 28.2918 93.4853 27.8345 93.896C27.3865 94.3067 27.1298 94.876 27.0645 95.604H31.9085ZM38.0001 100.098C37.3561 100.098 36.7775 99.986 36.2641 99.762C35.7601 99.5287 35.3635 99.2113 35.0741 98.81C34.7848 98.3993 34.6355 97.928 34.6261 97.396H35.9841C36.0308 97.8533 36.2175 98.2407 36.5441 98.558C36.8801 98.866 37.3655 99.02 38.0001 99.02C38.6068 99.02 39.0828 98.8707 39.4281 98.572C39.7828 98.264 39.9601 97.872 39.9601 97.396C39.9601 97.0227 39.8575 96.7193 39.6521 96.486C39.4468 96.2527 39.1901 96.0753 38.8821 95.954C38.5741 95.8327 38.1588 95.702 37.6361 95.562C36.9921 95.394 36.4741 95.226 36.0821 95.058C35.6995 94.89 35.3681 94.6287 35.0881 94.274C34.8175 93.91 34.6821 93.4247 34.6821 92.818C34.6821 92.286 34.8175 91.8147 35.0881 91.404C35.3588 90.9933 35.7368 90.676 36.2221 90.452C36.7168 90.228 37.2815 90.116 37.9161 90.116C38.8308 90.116 39.5775 90.3447 40.1561 90.802C40.7441 91.2593 41.0755 91.866 41.1501 92.622H39.7501C39.7035 92.2487 39.5075 91.922 39.1621 91.642C38.8168 91.3527 38.3595 91.208 37.7901 91.208C37.2581 91.208 36.8241 91.348 36.4881 91.628C36.1521 91.8987 35.9841 92.2813 35.9841 92.776C35.9841 93.1307 36.0821 93.42 36.2781 93.644C36.4835 93.868 36.7308 94.0407 37.0201 94.162C37.3188 94.274 37.7341 94.4047 38.2661 94.554C38.9101 94.7313 39.4281 94.9087 39.8201 95.086C40.2121 95.254 40.5481 95.52 40.8281 95.884C41.1081 96.2387 41.2481 96.724 41.2481 97.34C41.2481 97.816 41.1221 98.264 40.8701 98.684C40.6181 99.104 40.2448 99.4447 39.7501 99.706C39.2555 99.9673 38.6721 100.098 38.0001 100.098ZM42.6469 96.15C42.6469 95.3567 42.8056 94.666 43.1229 94.078C43.4403 93.4807 43.8789 93.0187 44.4389 92.692C45.0083 92.3653 45.6569 92.202 46.3849 92.202C47.3276 92.202 48.1023 92.4307 48.7089 92.888C49.3249 93.3453 49.7309 93.98 49.9269 94.792H48.5549C48.4243 94.3253 48.1676 93.9567 47.7849 93.686C47.4116 93.4153 46.9449 93.28 46.3849 93.28C45.6569 93.28 45.0689 93.532 44.6209 94.036C44.1729 94.5307 43.9489 95.2353 43.9489 96.15C43.9489 97.074 44.1729 97.788 44.6209 98.292C45.0689 98.796 45.6569 99.048 46.3849 99.048C46.9449 99.048 47.4116 98.9173 47.7849 98.656C48.1583 98.3947 48.4149 98.0213 48.5549 97.536H49.9269C49.7216 98.32 49.3109 98.95 48.6949 99.426C48.0789 99.8927 47.3089 100.126 46.3849 100.126C45.6569 100.126 45.0083 99.9627 44.4389 99.636C43.8789 99.3093 43.4403 98.8473 43.1229 98.25C42.8056 97.6527 42.6469 96.9527 42.6469 96.15ZM52.9008 93.574C53.1248 93.1353 53.4422 92.7947 53.8528 92.552C54.2728 92.3093 54.7815 92.188 55.3788 92.188V93.504H55.0428C53.6148 93.504 52.9008 94.2787 52.9008 95.828V100H51.6268V92.328H52.9008V93.574ZM57.5075 91.082C57.2648 91.082 57.0595 90.998 56.8915 90.83C56.7235 90.662 56.6395 90.4567 56.6395 90.214C56.6395 89.9713 56.7235 89.766 56.8915 89.598C57.0595 89.43 57.2648 89.346 57.5075 89.346C57.7408 89.346 57.9368 89.43 58.0955 89.598C58.2635 89.766 58.3475 89.9713 58.3475 90.214C58.3475 90.4567 58.2635 90.662 58.0955 90.83C57.9368 90.998 57.7408 91.082 57.5075 91.082ZM58.1235 92.328V100H56.8495V92.328H58.1235ZM61.5688 93.742C61.8208 93.3033 62.1941 92.9393 62.6888 92.65C63.1928 92.3513 63.7761 92.202 64.4388 92.202C65.1201 92.202 65.7361 92.3653 66.2868 92.692C66.8468 93.0187 67.2855 93.4807 67.6028 94.078C67.9201 94.666 68.0788 95.352 68.0788 96.136C68.0788 96.9107 67.9201 97.6013 67.6028 98.208C67.2855 98.8147 66.8468 99.286 66.2868 99.622C65.7361 99.958 65.1201 100.126 64.4388 100.126C63.7855 100.126 63.2068 99.9813 62.7028 99.692C62.2081 99.3933 61.8301 99.0247 61.5688 98.586V103.64H60.2948V92.328H61.5688V93.742ZM66.7768 96.136C66.7768 95.5573 66.6601 95.0533 66.4268 94.624C66.1935 94.1947 65.8761 93.868 65.4748 93.644C65.0828 93.42 64.6488 93.308 64.1728 93.308C63.7061 93.308 63.2721 93.4247 62.8708 93.658C62.4788 93.882 62.1615 94.2133 61.9188 94.652C61.6855 95.0813 61.5688 95.5807 61.5688 96.15C61.5688 96.7287 61.6855 97.2373 61.9188 97.676C62.1615 98.1053 62.4788 98.4367 62.8708 98.67C63.2721 98.894 63.7061 99.006 64.1728 99.006C64.6488 99.006 65.0828 98.894 65.4748 98.67C65.8761 98.4367 66.1935 98.1053 66.4268 97.676C66.6601 97.2373 66.7768 96.724 66.7768 96.136ZM71.3097 93.378V97.9C71.3097 98.2733 71.3891 98.5393 71.5477 98.698C71.7064 98.8473 71.9817 98.922 72.3737 98.922H73.3117V100H72.1637C71.4544 100 70.9224 99.8367 70.5677 99.51C70.2131 99.1833 70.0357 98.6467 70.0357 97.9V93.378H69.0417V92.328H70.0357V90.396H71.3097V92.328H73.3117V93.378H71.3097Z" fill="#4F5B5E"/>
<defs>
<clipPath id="clip0_608_3395">
<rect width="42" height="42" fill="white" transform="translate(19 19)"/>
</clipPath>
</defs>
</svg>
