<svg width="80" height="102" viewBox="0 0 80 102" fill="none" xmlns="http://www.w3.org/2000/svg">
<rect width="80" height="80" rx="10" fill="white"/>
<g clip-path="url(#clip0_608_3378)">
<path d="M52.375 22.0938H45.25L40 30.3438L35.5 22.0938H19L40 58L61 22.0938H52.375ZM24.1562 25.0938H29.2188L40 43.6562L50.6875 25.0938H55.75L40 52.0938L24.1562 25.0938Z" fill="#819296"/>
</g>
<path d="M27.7729 90.242L24.0909 100H22.6209L18.9389 90.242H20.2969L23.3629 98.656L26.4289 90.242H27.7729ZM35.9738 92.328V100H34.6998V98.866C34.4571 99.258 34.1165 99.566 33.6778 99.79C33.2485 100.005 32.7725 100.112 32.2498 100.112C31.6525 100.112 31.1158 99.9907 30.6398 99.748C30.1638 99.496 29.7858 99.1227 29.5058 98.628C29.2351 98.1333 29.0998 97.5313 29.0998 96.822V92.328H30.3598V96.654C30.3598 97.41 30.5511 97.9933 30.9338 98.404C31.3165 98.8053 31.8391 99.006 32.5018 99.006C33.1831 99.006 33.7198 98.796 34.1118 98.376C34.5038 97.956 34.6998 97.3447 34.6998 96.542V92.328H35.9738ZM45.1249 95.87C45.1249 96.1127 45.1109 96.3693 45.0829 96.64H38.9509C38.9975 97.396 39.2542 97.9887 39.7209 98.418C40.1969 98.838 40.7709 99.048 41.4429 99.048C41.9935 99.048 42.4509 98.922 42.8149 98.67C43.1882 98.4087 43.4495 98.0633 43.5989 97.634H44.9709C44.7655 98.3713 44.3549 98.9733 43.7389 99.44C43.1229 99.8973 42.3575 100.126 41.4429 100.126C40.7149 100.126 40.0615 99.9627 39.4829 99.636C38.9135 99.3093 38.4655 98.8473 38.1389 98.25C37.8122 97.6433 37.6489 96.9433 37.6489 96.15C37.6489 95.3567 37.8075 94.6613 38.1249 94.064C38.4422 93.4667 38.8855 93.0093 39.4549 92.692C40.0335 92.3653 40.6962 92.202 41.4429 92.202C42.1709 92.202 42.8149 92.3607 43.3749 92.678C43.9349 92.9953 44.3642 93.434 44.6629 93.994C44.9709 94.5447 45.1249 95.17 45.1249 95.87ZM43.8089 95.604C43.8089 95.1187 43.7015 94.7033 43.4869 94.358C43.2722 94.0033 42.9782 93.7373 42.6049 93.56C42.2409 93.3733 41.8349 93.28 41.3869 93.28C40.7429 93.28 40.1922 93.4853 39.7349 93.896C39.2869 94.3067 39.0302 94.876 38.9649 95.604H43.8089ZM51.7205 90.242V97.452C51.7205 98.2547 51.4732 98.8987 50.9785 99.384C50.4838 99.86 49.8305 100.098 49.0185 100.098C48.1972 100.098 47.5392 99.8553 47.0445 99.37C46.5498 98.8753 46.3025 98.2033 46.3025 97.354H47.5765C47.5858 97.83 47.7072 98.2173 47.9405 98.516C48.1832 98.8147 48.5425 98.964 49.0185 98.964C49.4945 98.964 49.8492 98.824 50.0825 98.544C50.3158 98.2547 50.4325 97.8907 50.4325 97.452V90.242H51.7205ZM57.3243 100.098C56.6803 100.098 56.1017 99.986 55.5883 99.762C55.0843 99.5287 54.6877 99.2113 54.3983 98.81C54.109 98.3993 53.9597 97.928 53.9503 97.396H55.3083C55.355 97.8533 55.5417 98.2407 55.8683 98.558C56.2043 98.866 56.6897 99.02 57.3243 99.02C57.931 99.02 58.407 98.8707 58.7523 98.572C59.107 98.264 59.2843 97.872 59.2843 97.396C59.2843 97.0227 59.1817 96.7193 58.9763 96.486C58.771 96.2527 58.5143 96.0753 58.2063 95.954C57.8983 95.8327 57.483 95.702 56.9603 95.562C56.3163 95.394 55.7983 95.226 55.4063 95.058C55.0237 94.89 54.6923 94.6287 54.4123 94.274C54.1417 93.91 54.0063 93.4247 54.0063 92.818C54.0063 92.286 54.1417 91.8147 54.4123 91.404C54.683 90.9933 55.061 90.676 55.5463 90.452C56.041 90.228 56.6057 90.116 57.2403 90.116C58.155 90.116 58.9017 90.3447 59.4803 90.802C60.0683 91.2593 60.3997 91.866 60.4743 92.622H59.0743C59.0277 92.2487 58.8317 91.922 58.4863 91.642C58.141 91.3527 57.6837 91.208 57.1143 91.208C56.5823 91.208 56.1483 91.348 55.8123 91.628C55.4763 91.8987 55.3083 92.2813 55.3083 92.776C55.3083 93.1307 55.4063 93.42 55.6023 93.644C55.8077 93.868 56.055 94.0407 56.3443 94.162C56.643 94.274 57.0583 94.4047 57.5903 94.554C58.2343 94.7313 58.7523 94.9087 59.1443 95.086C59.5363 95.254 59.8723 95.52 60.1523 95.884C60.4323 96.2387 60.5723 96.724 60.5723 97.34C60.5723 97.816 60.4463 98.264 60.1943 98.684C59.9423 99.104 59.569 99.4447 59.0743 99.706C58.5797 99.9673 57.9963 100.098 57.3243 100.098Z" fill="#4F5B5E"/>
<defs>
<clipPath id="clip0_608_3378">
<rect width="42" height="36" fill="white" transform="translate(19 22)"/>
</clipPath>
</defs>
</svg>
