<svg width="11" height="11" viewBox="0 0 11 11" fill="none" xmlns="http://www.w3.org/2000/svg">
<path d="M7.31962 2.40622L1.73348 2.40622C1.47131 2.40166 1.22142 2.29432 1.03763 2.10731C0.85384 1.92029 0.750854 1.66858 0.750854 1.40637C0.750854 1.14416 0.853839 0.892448 1.03763 0.705436C1.22142 0.518424 1.47131 0.411079 1.73348 0.406522L9.73368 0.406522C9.86509 0.406146 9.99527 0.431752 10.1168 0.481865C10.2382 0.531979 10.3486 0.605613 10.4415 0.698533C10.5344 0.791452 10.6081 0.901824 10.6582 1.0233C10.7083 1.14478 10.7339 1.27496 10.7335 1.40637L10.7335 9.40658C10.7358 9.53934 10.7117 9.67123 10.6625 9.79456C10.6133 9.91789 10.54 10.0302 10.4469 10.1249C10.3538 10.2196 10.2428 10.2948 10.1204 10.3462C9.99792 10.3975 9.86647 10.424 9.73368 10.424C9.6009 10.424 9.46944 10.3975 9.34699 10.3462C9.22453 10.2948 9.11353 10.2196 9.02046 10.1249C8.92738 10.0302 8.8541 9.91789 8.80489 9.79456C8.75568 9.67124 8.73153 9.53934 8.73383 9.40658V3.82043L1.95551 10.5988C1.76797 10.7863 1.51362 10.8917 1.2484 10.8917C0.983184 10.8917 0.72883 10.7863 0.541294 10.5988C0.353758 10.4112 0.2484 10.1569 0.2484 9.89165C0.248401 9.62644 0.353758 9.37208 0.541294 9.18455L7.31962 2.40622Z" fill="white"/>
</svg>
